<?xml version="1.0" encoding="utf-8"?>
<!-- Generator: Adobe Illustrator 27.5.0, SVG Export Plug-In . SVG Version: 6.00 Build 0)  -->
<svg version="1.1" id="Layer_1" xmlns="http://www.w3.org/2000/svg" xmlns:xlink="http://www.w3.org/1999/xlink" x="0px" y="0px"
	 viewBox="0 0 246.61 246.64" style="enable-background:new 0 0 246.61 246.64;" xml:space="preserve">
<style type="text/css">
	.st0{fill:none;stroke:#1D1D1B;stroke-width:2;stroke-linecap:round;stroke-miterlimit:10;}
	.st1{fill:none;stroke:#1D1D1B;stroke-width:2;stroke-linecap:round;stroke-linejoin:round;stroke-miterlimit:10;}
	.st2{fill:#1D1D1B;}
</style>
<path class="st0" d="M171.97,66.72c0.09-0.81,0.16-1.99-0.02-3.39c-0.4-3.21-1.77-5.46-2.45-6.45C165.2,50.65,157,45.86,157,45.86
	c0,0-11.97-6.99-25.38-8.87c-4.26-0.59-7.96-0.7-11.87,0.87c-2.43,0.97-4.21,2.28-5.34,3.25"/>
<path class="st0" d="M99.9,42.62c-2.18,0.54-5.06,1.27-8.46,2.15c-6.84,1.77-10.32,2.77-14.39,4.8c-3.62,1.8-5.77,3.45-6.82,5.93
	c-0.36,0.84-1.06,2.51-0.25,4.04c0.86,1.62,2.82,1.97,3.16,2.02"/>
<path class="st1" d="M160.55,70.69c4.52,0.98,7.75,2.73,9.72,4.02c4.5,2.93,5.17,5.25,5.35,6.17c0.28,1.45-0.14,2.13-0.26,2.3
	c-0.82,1.18-2.97,1.46-5.42,0.61c5.05,3.68,8.61,7.34,10.94,10.03c5.05,5.83,6.05,9.12,6.44,11.15c0.33,1.74,1.12,5.9-1.18,7.82
	c-1.94,1.63-5.04,0.77-6.3,0.42c-3.88-1.08-6.2-3.91-8.65-6.99c-1.34-1.68-3.14-4.25-4.71-7.75"/>
<path class="st1" d="M157.09,84.44c0.81,0.47,2.55,1.62,3.66,3.82c0.4,0.8,1.6,3.16,0.8,5.09c-0.86,2.07-3.67,2.78-6.81,3.25
	c-10.65,1.6-19.61-0.4-20.57-0.63c-3.86-0.9-9.25-2.51-15.36-5.57"/>
<path class="st1" d="M131.21,98.93c0.14,0.91,0.23,2.35-0.41,3.83c-0.44,1.03-1.62,3.01-6.02,4.54c-8.57,2.99-17.91,0.29-20.93-0.7
	c-3.1-1.02-7.7-2.91-12.68-6.54"/>
<path class="st1" d="M167.23,100.02c0.15,2.38,0.27,5.81,0.13,9.94c-0.29,8.28-0.81,13.83-3.08,20.7
	c-2.77,8.4-8.35,13.71-10.44,15.66c-3.37,3.15-6.69,5.14-9.03,6.35c-0.04,2.52-0.26,5.48-0.85,8.75c-0.65,3.63-1.59,6.76-2.54,9.31
	c0.57,1.83,1.18,4.44,1.27,7.62c0.14,4.89-1.04,8.53-1.41,9.6c-1.45,4.21-3.68,7.16-5.22,8.89c-2.78-2.05-7.31-5.95-10.87-12.28
	c-2.9-5.16-4.03-9.96-4.52-13.12c0.32-2,0.55-4.48,0.42-7.34c-0.14-3.21-0.69-5.94-1.27-8.04c-3.42,0.07-11.52-0.24-20.04-5.22
	c-8.39-4.91-12.61-11.67-14.25-14.68"/>
<path class="st1" d="M141.42,170.73c1.79,1.71,4.31,3.78,7.62,5.64c3.01,1.7,5.81,2.73,8.04,3.39c0.61,0.16,2.65,0.79,4.02,2.81
	c0.84,1.23,1.07,2.46,1.15,3.13c-0.01,2.82-0.37,7.11-2.17,11.95c-1.48,3.97-3.43,6.98-4.98,9.01c-0.45,0.46-1.16,1.04-2.17,1.34
	c-3.05,0.9-5.74-1.72-5.88-1.85c-1.26-1.11-2.54-2.21-3.83-3.32c-2.41-2.06-4.79-4.05-7.17-5.98"/>
<path class="st1" d="M143.7,126.08c-0.1,0.57-0.31,1.5-0.84,2.51c-1.5,2.9-4.38,4.39-6.58,4.78c-0.62,0.11-1.66,0.28-2.9-0.12
	c-0.64-0.21-1.12-0.5-1.43-0.71c-0.53,0.71-1.35,1.68-2.54,2.62c-0.86,0.68-1.86,1.47-3.38,1.95c-0.8,0.25-3.27,1.03-5.58-0.26
	c-1-0.55-1.61-1.3-1.95-1.78"/>
<path class="st1" d="M152.69,147.34c1.06,4.62,1.78,8.39,2.24,10.94c0.58,3.23,0.9,5.44,1.9,8.73c1.19,3.91,2.83,7.65,5.22,8.35
	c1.14,0.33,2.22,0.13,2.22,0.13c0.96-0.18,1.72-0.65,2.35-1.17c4.36-3.65,7.41-9.71,7.41-9.71c1.42-2.66,3.09-6.41,4.22-11.1
	c0.43-1.76,1.17-5.28,1.32-9.69c0.34-10.71-3.08-18.97-5.03-23.54c-1.38-3.23-3.6-7.7-7.12-12.62"/>
<g>
	<path d="M7.09,114.15c-0.72,0.27-1.44,0.63-2.15,1.07c-0.71,0.44-1.35,0.96-1.91,1.54c-0.56,0.59-1.02,1.25-1.37,1.98
		s-0.54,1.53-0.56,2.4c-0.03,1.27,0.18,2.32,0.63,3.15c0.45,0.83,1.28,1.25,2.48,1.28c0.71,0.02,1.34-0.15,1.87-0.51
		c0.53-0.36,1.01-0.84,1.43-1.44c0.42-0.6,0.8-1.29,1.16-2.07c0.35-0.77,0.71-1.56,1.08-2.37c0.37-0.81,0.76-1.6,1.18-2.37
		c0.42-0.77,0.92-1.46,1.49-2.06c0.57-0.6,1.23-1.08,1.98-1.43c0.75-0.35,1.63-0.51,2.66-0.49c1.09,0.03,2.03,0.25,2.82,0.67
		s1.42,0.98,1.92,1.67c0.5,0.69,0.86,1.5,1.08,2.41c0.22,0.91,0.32,1.88,0.3,2.91c-0.01,0.56-0.08,1.14-0.2,1.74
		c-0.12,0.6-0.25,1.18-0.39,1.73c-0.14,0.56-0.27,1.06-0.38,1.52c-0.12,0.46-0.18,0.82-0.18,1.08c-0.01,0.25,0.03,0.48,0.1,0.71
		c0.07,0.23,0.15,0.46,0.23,0.71c-1.27,0.17-2.52,0.37-3.74,0.61s-2.46,0.49-3.74,0.75l-0.22-0.44c0.79-0.38,1.61-0.85,2.47-1.4
		s1.65-1.17,2.36-1.87s1.32-1.47,1.81-2.32c0.49-0.85,0.74-1.77,0.77-2.78c0.02-0.65-0.04-1.27-0.17-1.88
		c-0.13-0.61-0.35-1.14-0.65-1.61c-0.3-0.46-0.7-0.84-1.19-1.12c-0.49-0.28-1.11-0.43-1.85-0.45c-1.05-0.03-1.93,0.28-2.65,0.91
		c-0.72,0.63-1.35,1.42-1.9,2.37c-0.55,0.95-1.06,1.98-1.53,3.1c-0.47,1.12-1,2.15-1.58,3.09c-0.58,0.95-1.26,1.73-2.03,2.36
		c-0.77,0.63-1.74,0.93-2.9,0.9c-0.87-0.02-1.66-0.21-2.36-0.56c-0.71-0.35-1.3-0.82-1.79-1.4s-0.86-1.25-1.11-2
		c-0.25-0.75-0.36-1.56-0.34-2.4c0.02-0.83,0.09-1.57,0.22-2.22c0.13-0.66,0.27-1.29,0.42-1.92c0.15-0.64,0.29-1.28,0.43-1.9
		c0.14-0.62,0.22-1.29,0.23-2c1,0.02,1.98,0.03,2.93,0.02c0.95-0.01,1.91-0.06,2.87-0.15L7.09,114.15z"/>
	<path d="M4.23,95.23c-0.08,1.08-0.09,1.94-0.03,2.57c0.06,0.63,0.21,1.12,0.44,1.46c0.23,0.34,0.56,0.59,1,0.76
		c0.43,0.17,0.97,0.32,1.63,0.47l15.68,3.55c0.24-0.56,0.47-1.11,0.68-1.65s0.38-1.09,0.51-1.65c0.29-1.28,0.41-2.44,0.37-3.45
		c-0.04-1.02-0.24-1.97-0.59-2.85c-0.35-0.88-0.85-1.73-1.5-2.56c-0.65-0.82-1.43-1.68-2.35-2.58l0.11-0.49l6.75,4.17
		c-0.22,0.77-0.43,1.56-0.63,2.35c-0.2,0.79-0.39,1.58-0.57,2.36l-2.17,9.61c-0.12,0.54-0.24,1.09-0.34,1.64
		c-0.1,0.55-0.19,1.1-0.27,1.66l-0.39-0.09c0.1-0.73,0.12-1.33,0.06-1.79c-0.06-0.46-0.17-0.83-0.35-1.13
		c-0.17-0.29-0.42-0.51-0.73-0.66c-0.31-0.15-0.68-0.27-1.12-0.37l-12.94-2.93c-0.91-0.21-1.68-0.35-2.29-0.43
		c-0.61-0.08-1.13-0.05-1.55,0.08c-0.42,0.13-0.77,0.4-1.04,0.8c-0.27,0.4-0.53,0.98-0.77,1.75l-0.39-0.09
		c0.24-0.84,0.46-1.68,0.67-2.51c0.21-0.83,0.41-1.68,0.61-2.52c0.21-0.91,0.4-1.84,0.59-2.77C3.5,97,3.67,96.07,3.84,95.14
		L4.23,95.23z"/>
	<path d="M5.49,86.64c0.41-0.84,0.81-1.67,1.18-2.48c0.37-0.81,0.75-1.65,1.12-2.51c0.35-0.8,0.68-1.61,1.01-2.43
		c0.33-0.82,0.65-1.64,0.95-2.45l0.37,0.16c-0.06,0.26-0.12,0.56-0.17,0.9c-0.05,0.33-0.05,0.66-0.02,0.98
		c0.03,0.32,0.13,0.61,0.28,0.87c0.15,0.26,0.4,0.46,0.72,0.6c0.23,0.1,0.57,0.12,1.03,0.06c0.46-0.06,1.06-0.17,1.79-0.34
		l7.79-1.82l-4.12-6.08c-0.63-0.9-1.31-1.51-2.02-1.82c-0.59-0.26-1.18-0.22-1.75,0.12c-0.57,0.34-1.01,0.8-1.32,1.4l-0.37-0.16
		c0.35-0.7,0.69-1.41,1.03-2.13c0.33-0.72,0.66-1.44,0.97-2.16c0.28-0.66,0.55-1.31,0.81-1.97c0.26-0.65,0.51-1.32,0.75-1.99
		l0.37,0.16c-0.18,0.8-0.2,1.57-0.07,2.31c0.13,0.74,0.34,1.44,0.62,2.11c0.28,0.67,0.61,1.3,0.99,1.89s0.72,1.13,1.01,1.62
		l4.33,6.87l4.52,1.95c0.76,0.33,1.4,0.53,1.91,0.61c0.51,0.08,0.96,0.03,1.35-0.13c0.39-0.16,0.74-0.45,1.07-0.87
		s0.68-0.97,1.05-1.66l0.37,0.16c-0.44,0.9-0.86,1.8-1.27,2.7c-0.41,0.89-0.81,1.8-1.21,2.72c-0.33,0.76-0.65,1.52-0.95,2.29
		c-0.31,0.77-0.6,1.54-0.89,2.32l-0.37-0.16c0.23-0.7,0.38-1.31,0.46-1.83c0.08-0.51,0.04-0.97-0.11-1.36
		c-0.15-0.39-0.43-0.74-0.84-1.06c-0.41-0.31-1-0.63-1.76-0.96l-4.83-2.08l-9.54,2.49c-0.49,0.13-1,0.26-1.51,0.41
		c-0.51,0.14-1.02,0.33-1.52,0.57s-1,0.54-1.49,0.91c-0.49,0.37-0.95,0.86-1.37,1.45L5.49,86.64z"/>
	<path d="M37.98,35.81c-0.65,0.87-1.12,1.58-1.4,2.15s-0.42,1.06-0.41,1.47c0.01,0.41,0.16,0.8,0.43,1.17
		c0.27,0.37,0.65,0.8,1.12,1.27l11.33,11.41c0.51-0.35,0.99-0.69,1.46-1.03c0.47-0.34,0.91-0.71,1.32-1.12
		c0.94-0.93,1.66-1.83,2.17-2.72c0.51-0.88,0.85-1.79,1.03-2.72s0.21-1.92,0.1-2.96c-0.11-1.04-0.31-2.19-0.6-3.44l0.36-0.35
		l3.46,7.14c-0.6,0.53-1.2,1.08-1.79,1.64c-0.59,0.56-1.18,1.12-1.75,1.69l-6.99,6.94c-0.4,0.39-0.79,0.79-1.17,1.2
		c-0.38,0.41-0.75,0.83-1.12,1.25l-0.28-0.29c0.48-0.57,0.81-1.06,1.01-1.48c0.2-0.42,0.3-0.8,0.31-1.14
		c0.01-0.34-0.08-0.66-0.26-0.95c-0.18-0.29-0.43-0.6-0.74-0.91l-9.35-9.41c-0.66-0.67-1.23-1.2-1.7-1.59
		c-0.47-0.4-0.92-0.65-1.35-0.76c-0.43-0.11-0.86-0.07-1.3,0.11c-0.44,0.19-0.97,0.54-1.59,1.06l-0.28-0.29
		c0.65-0.58,1.29-1.17,1.91-1.76c0.63-0.59,1.25-1.19,1.87-1.81c0.67-0.66,1.33-1.33,1.98-2.02c0.66-0.68,1.3-1.37,1.94-2.07
		L37.98,35.81z"/>
	<path d="M57.82,20.12C57,20.84,56.4,21.45,56,21.94c-0.4,0.5-0.63,0.95-0.7,1.35c-0.07,0.4-0.01,0.82,0.19,1.24
		c0.19,0.42,0.47,0.91,0.84,1.47l8.76,13.49c0.57-0.23,1.11-0.47,1.64-0.71c0.53-0.23,1.03-0.51,1.52-0.83
		c1.1-0.72,2-1.46,2.67-2.22c0.68-0.76,1.2-1.58,1.56-2.45c0.36-0.88,0.6-1.83,0.71-2.88c0.11-1.04,0.15-2.2,0.11-3.49l0.42-0.27
		l1.92,7.7c-0.7,0.4-1.4,0.81-2.09,1.24c-0.7,0.43-1.38,0.86-2.06,1.29l-8.26,5.36c-0.47,0.3-0.93,0.62-1.39,0.94s-0.91,0.65-1.35,1
		l-0.22-0.34c0.58-0.46,1.01-0.87,1.29-1.24c0.28-0.37,0.46-0.72,0.54-1.05s0.06-0.66-0.06-0.98c-0.12-0.32-0.3-0.67-0.54-1.05
		l-7.23-11.13c-0.51-0.79-0.96-1.42-1.34-1.91c-0.38-0.48-0.77-0.83-1.16-1.02c-0.39-0.2-0.83-0.25-1.3-0.15
		c-0.47,0.09-1.06,0.33-1.77,0.71l-0.22-0.34c0.76-0.44,1.5-0.88,2.23-1.33c0.73-0.45,1.47-0.91,2.2-1.39
		c0.79-0.51,1.57-1.03,2.36-1.57c0.78-0.54,1.56-1.08,2.32-1.63L57.82,20.12z"/>
	<path d="M80.28,21.55L80.35,28c0,0.19,0,0.36-0.01,0.5c-0.01,0.15,0.02,0.29,0.07,0.44c0.14,0.38,0.37,0.66,0.69,0.85
		c0.32,0.19,0.67,0.31,1.05,0.37c0.38,0.06,0.76,0.08,1.13,0.06c0.37-0.02,0.68-0.05,0.93-0.1l0.14,0.38
		c-0.64,0.19-1.28,0.4-1.92,0.61c-0.64,0.21-1.28,0.44-1.92,0.69c-0.63,0.24-1.23,0.48-1.82,0.72s-1.21,0.51-1.86,0.81l-0.14-0.38
		c0.59-0.39,1.05-0.82,1.36-1.28c0.31-0.46,0.54-0.96,0.68-1.49c0.14-0.53,0.22-1.08,0.25-1.67c0.03-0.58,0.05-1.19,0.05-1.81
		l0.42-15.37c0.01-0.17,0.01-0.33,0.02-0.47c0-0.15-0.01-0.27-0.05-0.37c-0.04-0.1-0.13-0.25-0.29-0.43
		c-0.15-0.18-0.31-0.34-0.48-0.46c0.5-0.31,0.92-0.62,1.26-0.94c0.33-0.32,0.71-0.66,1.12-1.03l13.26,15.49
		c0.6,0.71,1.25,1.19,1.95,1.47c0.7,0.27,1.58,0.28,2.66,0.02l0.14,0.38c-0.85,0.27-1.68,0.55-2.5,0.83
		c-0.81,0.28-1.66,0.59-2.54,0.92c-0.56,0.21-1.06,0.4-1.47,0.55c-0.42,0.16-0.79,0.3-1.12,0.44c-0.33,0.14-0.64,0.27-0.94,0.41
		c-0.3,0.13-0.62,0.28-0.96,0.43l-0.14-0.38c0.84-0.43,1.49-0.94,1.96-1.51c0.47-0.57,0.59-1.15,0.37-1.73
		c-0.06-0.17-0.16-0.32-0.3-0.46c-0.14-0.14-0.25-0.27-0.35-0.41l-4.21-5L80.28,21.55z M80.32,11.37l-0.08,9.12l5.9-2.22
		L80.32,11.37z"/>
	<path d="M116.11,0.84c0.8-0.03,1.61-0.07,2.41-0.12c0.8-0.05,1.6-0.12,2.4-0.19c0.71-0.07,1.42-0.14,2.12-0.23
		c0.7-0.09,1.4-0.19,2.11-0.3l0.04,0.4c-0.92,0.22-1.66,0.56-2.23,1.02c-0.56,0.46-0.8,1.21-0.7,2.25c0.05,0.56,0.22,1.45,0.5,2.69
		c0.28,1.24,0.62,2.59,1.02,4.06c0.39,1.47,0.8,2.93,1.22,4.4c0.42,1.46,0.8,2.71,1.14,3.73c0.15,0.44,0.31,0.81,0.48,1.13
		c0.16,0.32,0.38,0.6,0.65,0.83c0.27,0.23,0.63,0.41,1.09,0.54c0.46,0.12,1.06,0.2,1.8,0.22l0.04,0.4
		c-0.89,0.04-1.78,0.09-2.66,0.15c-0.88,0.06-1.77,0.13-2.65,0.21c-0.85,0.08-1.67,0.17-2.48,0.27c-0.81,0.1-1.63,0.21-2.48,0.33
		l-0.04-0.4c0.46-0.11,0.9-0.23,1.31-0.37s0.77-0.32,1.08-0.55c0.3-0.23,0.53-0.53,0.67-0.89c0.15-0.36,0.19-0.83,0.14-1.41
		c-0.02-0.27-0.07-0.62-0.13-1.06c-0.06-0.44-0.18-0.95-0.34-1.52l-3.56-13.23l-0.07,0.01c-0.47,1.66-0.98,3.3-1.52,4.94
		c-0.54,1.63-1.07,3.27-1.59,4.91c-0.52,1.64-1.02,3.3-1.5,4.97c-0.48,1.67-0.9,3.38-1.26,5.11l-0.07,0.01
		c-1.39-3.35-2.91-6.55-4.55-9.62c-1.64-3.06-3.38-6.13-5.22-9.19l-0.07,0.01c-0.06,1.24-0.12,2.61-0.15,4.12
		c-0.04,1.51-0.06,2.97-0.08,4.4c-0.01,1.43-0.01,2.73,0.01,3.9c0.02,1.18,0.06,2.05,0.11,2.63c0.07,0.73,0.18,1.36,0.33,1.89
		s0.39,0.95,0.71,1.28c0.32,0.33,0.74,0.56,1.26,0.69c0.52,0.13,1.18,0.18,1.98,0.15l0.04,0.4c-0.94,0.04-1.85,0.09-2.74,0.16
		c-0.89,0.06-1.8,0.13-2.74,0.22c-0.69,0.06-1.37,0.14-2.05,0.23c-0.68,0.09-1.36,0.18-2.04,0.29l-0.04-0.4
		c0.46-0.09,0.92-0.22,1.36-0.4c0.44-0.18,0.84-0.4,1.2-0.67c0.36-0.27,0.65-0.58,0.87-0.92c0.23-0.35,0.35-0.74,0.38-1.2
		c0.06-0.79,0.11-1.62,0.14-2.49c0.03-0.87,0.06-1.73,0.1-2.58l0.49-12.02c-0.5-0.33-1.09-0.59-1.75-0.78
		c-0.67-0.18-1.33-0.3-1.98-0.35l-0.04-0.4c0.96-0.04,1.91-0.1,2.86-0.17c0.95-0.07,1.9-0.14,2.85-0.23
		c0.69-0.06,1.37-0.14,2.05-0.23c0.68-0.09,1.36-0.18,2.04-0.29l0.04,0.4c-0.41,0.15-0.78,0.37-1.12,0.66
		c-0.33,0.29-0.47,0.71-0.42,1.27c0.04,0.38,0.13,0.74,0.29,1.08c0.16,0.34,0.33,0.7,0.52,1.06l5.78,11.1
		c0.91-2.46,1.77-4.93,2.57-7.39c0.8-2.46,1.51-4.98,2.12-7.55c-0.27-0.27-0.58-0.47-0.93-0.62s-0.71-0.26-1.07-0.34L116.11,0.84z"
		/>
	<path d="M137.78,13.77l-3.2,5.6c-0.1,0.17-0.18,0.31-0.26,0.43c-0.08,0.12-0.13,0.26-0.16,0.42c-0.07,0.4-0.01,0.76,0.17,1.08
		c0.18,0.33,0.42,0.61,0.72,0.85c0.3,0.24,0.61,0.45,0.95,0.62s0.62,0.3,0.85,0.38l-0.07,0.4c-0.65-0.16-1.31-0.3-1.96-0.44
		c-0.66-0.14-1.33-0.26-2.01-0.38c-0.66-0.11-1.31-0.21-1.94-0.3s-1.3-0.17-2.01-0.24l0.07-0.4c0.71-0.04,1.32-0.18,1.82-0.42
		c0.5-0.24,0.95-0.56,1.33-0.94c0.38-0.39,0.74-0.83,1.06-1.31c0.32-0.49,0.64-1,0.96-1.54l8.12-13.05c0.09-0.14,0.18-0.28,0.25-0.4
		c0.08-0.12,0.13-0.24,0.14-0.35c0.02-0.11,0.01-0.28-0.03-0.52c-0.04-0.23-0.1-0.45-0.18-0.64c0.59-0.01,1.11-0.07,1.56-0.17
		s0.94-0.21,1.48-0.32l3.63,20.06c0.16,0.91,0.47,1.66,0.94,2.25c0.46,0.59,1.23,1.04,2.28,1.36l-0.07,0.4
		c-0.87-0.2-1.73-0.38-2.58-0.54c-0.84-0.17-1.73-0.33-2.65-0.49c-0.59-0.1-1.11-0.19-1.55-0.27c-0.44-0.08-0.84-0.14-1.19-0.19
		c-0.35-0.05-0.69-0.09-1.02-0.12c-0.32-0.03-0.67-0.07-1.05-0.11l0.07-0.4c0.94,0.05,1.76-0.06,2.45-0.31s1.09-0.69,1.19-1.31
		c0.03-0.18,0.02-0.36-0.02-0.55c-0.05-0.19-0.08-0.36-0.1-0.53l-1.1-6.44L137.78,13.77z M142.95,5l-4.67,7.83l6.21,1.06L142.95,5z"
		/>
	<path d="M190.46,27.35c0.62,0.43,1.12,0.95,1.51,1.56c0.38,0.61,0.63,1.25,0.75,1.94c0.12,0.68,0.11,1.38-0.04,2.08
		c-0.15,0.7-0.44,1.36-0.87,1.98c-0.45,0.64-0.97,1.15-1.58,1.53c-0.61,0.38-1.25,0.63-1.94,0.75c-0.68,0.12-1.38,0.11-2.08-0.04
		c-0.7-0.15-1.36-0.44-1.98-0.87c-0.64-0.45-1.15-0.97-1.53-1.58c-0.38-0.61-0.63-1.25-0.75-1.94s-0.11-1.38,0.04-2.08
		c0.15-0.7,0.45-1.37,0.89-2.01c0.43-0.62,0.95-1.12,1.56-1.51c0.61-0.38,1.25-0.63,1.93-0.75c0.68-0.12,1.38-0.11,2.08,0.04
		C189.15,26.61,189.82,26.91,190.46,27.35z"/>
	<path d="M216.91,64.25l-6.35,1.13c-0.19,0.03-0.35,0.06-0.5,0.08c-0.14,0.02-0.28,0.07-0.42,0.15c-0.35,0.2-0.59,0.48-0.72,0.83
		c-0.13,0.35-0.2,0.72-0.19,1.1c0,0.39,0.05,0.76,0.13,1.13c0.08,0.36,0.17,0.67,0.25,0.9l-0.35,0.2c-0.3-0.6-0.6-1.2-0.92-1.79
		c-0.32-0.59-0.65-1.19-1-1.78c-0.34-0.58-0.67-1.14-1.01-1.68c-0.34-0.54-0.71-1.11-1.1-1.7l0.35-0.2c0.48,0.52,0.98,0.9,1.49,1.13
		s1.04,0.37,1.58,0.42c0.54,0.05,1.11,0.04,1.69-0.03c0.58-0.07,1.18-0.15,1.79-0.25l15.22-2.13c0.17-0.02,0.33-0.04,0.47-0.06
		c0.14-0.02,0.26-0.06,0.36-0.11s0.22-0.17,0.38-0.35c0.15-0.18,0.28-0.36,0.38-0.55c0.39,0.45,0.77,0.81,1.13,1.09
		c0.37,0.28,0.77,0.59,1.2,0.93l-13.08,15.64c-0.6,0.71-0.97,1.43-1.13,2.16c-0.16,0.73-0.02,1.61,0.42,2.62l-0.35,0.2
		c-0.41-0.8-0.82-1.57-1.23-2.33c-0.41-0.76-0.85-1.54-1.32-2.35c-0.3-0.52-0.57-0.98-0.79-1.36c-0.22-0.39-0.43-0.73-0.62-1.04
		c-0.19-0.3-0.37-0.59-0.56-0.86c-0.18-0.27-0.38-0.56-0.59-0.88l0.35-0.2c0.57,0.76,1.17,1.32,1.81,1.68
		c0.64,0.37,1.23,0.39,1.77,0.08c0.15-0.09,0.29-0.21,0.4-0.37s0.23-0.29,0.34-0.41l4.24-4.98L216.91,64.25z M226.96,62.6
		l-9.01,1.43l3.16,5.45L226.96,62.6z"/>
	<path d="M223.64,106.03l-1.77-5.77c1.06-1.8,2.19-3.5,3.39-5.12s2.53-3.14,3.98-4.56c-0.07-0.21-0.13-0.49-0.19-0.84
		c-0.06-0.34-0.12-0.7-0.17-1.07s-0.1-0.73-0.12-1.08s-0.04-0.65-0.04-0.88l-5,1.53c-0.9,0.27-1.63,0.53-2.2,0.76
		c-0.57,0.23-1,0.52-1.3,0.85c-0.29,0.34-0.46,0.75-0.49,1.25c-0.03,0.5,0.04,1.16,0.22,1.97l-0.38,0.12
		c-0.21-0.83-0.42-1.65-0.65-2.46c-0.23-0.82-0.47-1.63-0.71-2.44c-0.24-0.79-0.49-1.57-0.75-2.33c-0.26-0.76-0.52-1.52-0.8-2.28
		l0.38-0.12c0.3,0.75,0.6,1.31,0.9,1.69c0.3,0.37,0.67,0.62,1.1,0.73c0.43,0.11,0.95,0.11,1.55-0.02c0.6-0.13,1.35-0.33,2.25-0.6
		l10.7-3.28c0.9-0.27,1.63-0.53,2.2-0.76c0.57-0.23,1-0.52,1.3-0.85c0.29-0.34,0.46-0.74,0.5-1.22c0.04-0.48-0.03-1.11-0.2-1.9
		l0.38-0.12c0.17,0.7,0.34,1.39,0.53,2.08c0.19,0.69,0.39,1.38,0.6,2.06c0.09,0.3,0.22,0.67,0.39,1.11c0.17,0.44,0.35,0.9,0.55,1.39
		c0.2,0.49,0.39,0.98,0.58,1.49c0.19,0.5,0.35,0.96,0.47,1.36c0.28,0.92,0.45,1.89,0.51,2.93c0.06,1.03-0.05,2.01-0.33,2.94
		c-0.28,0.93-0.74,1.75-1.38,2.49c-0.64,0.73-1.5,1.27-2.59,1.6c-0.75,0.23-1.45,0.3-2.11,0.21c-0.66-0.09-1.27-0.29-1.83-0.61
		c-0.57-0.32-1.08-0.74-1.54-1.26c-0.46-0.52-0.86-1.1-1.19-1.72c-0.42,0.46-0.89,0.98-1.41,1.59c-0.52,0.6-1.03,1.25-1.54,1.96
		c-0.51,0.7-1,1.44-1.48,2.21c-0.48,0.77-0.88,1.54-1.21,2.33c-0.33,0.79-0.57,1.57-0.72,2.34c-0.15,0.77-0.15,1.51-0.01,2.21
		L223.64,106.03z M229.81,86.38c-0.07,1.07,0.05,2.12,0.37,3.15c0.51,1.67,1.29,2.84,2.34,3.52c1.05,0.68,2.44,0.76,4.17,0.23
		c0.71-0.22,1.3-0.54,1.78-0.98c0.48-0.44,0.86-0.96,1.14-1.56c0.27-0.6,0.43-1.23,0.46-1.91s-0.04-1.35-0.25-2.01
		c-0.16-0.53-0.35-1.05-0.54-1.55c-0.2-0.5-0.45-0.97-0.75-1.42c-1.04,0.27-2.08,0.56-3.14,0.86s-2.19,0.64-3.4,1.01L229.81,86.38z"
		/>
	<path d="M223.77,109.46c0.14,0.79,0.32,1.41,0.54,1.84c0.22,0.43,0.53,0.74,0.93,0.94c0.4,0.2,0.91,0.3,1.52,0.3
		c0.62,0,1.39-0.04,2.33-0.12l15.48-1.39c-0.11-1.18-0.24-2.16-0.4-2.94c-0.16-0.78-0.45-1.45-0.87-1.99
		c-0.42-0.55-1.03-1-1.82-1.37c-0.79-0.37-1.87-0.7-3.22-1.01l0.09-0.45l6.58-0.12c0.04,0.94,0.09,1.86,0.15,2.78
		c0.06,0.91,0.13,1.84,0.22,2.77l0.7,7.84c0.08,0.89,0.17,1.77,0.27,2.63c0.1,0.87,0.21,1.74,0.34,2.63l-6.5,1.05l-0.17-0.42
		c1.27-0.54,2.27-1.06,2.99-1.56c0.72-0.5,1.23-1.06,1.55-1.67c0.31-0.61,0.48-1.33,0.5-2.15s-0.03-1.83-0.14-3.03l-15.48,1.39
		c-0.93,0.08-1.71,0.18-2.31,0.29s-1.09,0.3-1.45,0.57c-0.36,0.27-0.6,0.64-0.74,1.13c-0.14,0.48-0.2,1.14-0.19,1.97l-0.4,0.04
		c-0.03-0.85-0.07-1.7-0.13-2.54c-0.05-0.85-0.12-1.69-0.19-2.54c-0.07-0.82-0.16-1.63-0.25-2.43s-0.2-1.6-0.32-2.39L223.77,109.46z
		"/>
	<path d="M230.77,150.74l-5.19-3.84c-0.15-0.12-0.28-0.22-0.4-0.31c-0.11-0.09-0.24-0.16-0.39-0.2c-0.39-0.11-0.75-0.1-1.1,0.04
		s-0.66,0.35-0.93,0.61c-0.28,0.27-0.52,0.56-0.73,0.87c-0.21,0.31-0.37,0.58-0.48,0.8l-0.38-0.11c0.23-0.63,0.46-1.26,0.67-1.9
		s0.42-1.29,0.61-1.95c0.19-0.64,0.37-1.27,0.52-1.89c0.16-0.62,0.32-1.27,0.48-1.97l0.39,0.11c-0.05,0.71,0.02,1.33,0.2,1.86
		c0.18,0.53,0.44,1.01,0.78,1.44c0.34,0.43,0.73,0.83,1.18,1.21s0.92,0.75,1.41,1.13l12,9.6c0.13,0.11,0.25,0.21,0.37,0.3
		c0.11,0.09,0.22,0.15,0.33,0.18c0.11,0.03,0.28,0.04,0.51,0.03s0.46-0.04,0.66-0.1c-0.06,0.59-0.06,1.11-0.01,1.57
		c0.05,0.46,0.1,0.96,0.15,1.51l-20.35,1.24c-0.92,0.05-1.71,0.28-2.35,0.67s-1.18,1.09-1.62,2.11l-0.38-0.11
		c0.3-0.84,0.58-1.67,0.84-2.49c0.27-0.82,0.53-1.68,0.8-2.58c0.17-0.58,0.32-1.08,0.45-1.51c0.13-0.43,0.24-0.82,0.33-1.16
		c0.09-0.35,0.17-0.68,0.24-0.99c0.07-0.32,0.15-0.66,0.24-1.03l0.38,0.11c-0.16,0.93-0.15,1.75,0.02,2.47
		c0.17,0.71,0.56,1.16,1.16,1.34c0.17,0.05,0.35,0.06,0.55,0.04s0.37-0.04,0.53-0.03l6.53-0.34L230.77,150.74z M238.86,156.91
		l-7.23-5.56l-1.79,6.04L238.86,156.91z"/>
	<path d="M236.03,174.44c-0.43,0.65-0.84,1.27-1.21,1.87c-0.38,0.6-0.8,1.3-1.28,2.11c-0.25,0.42-0.48,0.84-0.7,1.26
		c-0.22,0.42-0.43,0.85-0.64,1.29c-0.49,0.05-1.26,0.15-2.3,0.32c-1.04,0.17-2.23,0.35-3.57,0.56c-1.34,0.21-2.77,0.44-4.29,0.69
		c-1.52,0.25-3,0.48-4.43,0.7c-1.44,0.22-2.77,0.41-4,0.58c-1.23,0.17-2.22,0.29-2.99,0.36l-0.03,0.06
		c0.58,0.34,1.15,0.68,1.71,1.02c0.56,0.34,1.13,0.69,1.71,1.02l3.35,1.97c1.23,0.72,2.33,1.31,3.3,1.76s1.83,0.73,2.6,0.83
		c0.77,0.1,1.46,0.01,2.06-0.27s1.16-0.79,1.67-1.52l0.35,0.2c-0.43,0.65-0.86,1.31-1.28,1.99c-0.42,0.67-0.83,1.34-1.23,2.02
		c-0.36,0.62-0.72,1.25-1.07,1.89s-0.69,1.29-1.02,1.93l-0.35-0.2c0.56-1.3,0.7-2.34,0.41-3.12c-0.28-0.78-0.99-1.5-2.13-2.16
		l-15.31-9l0.63-1.07c2.28-0.09,4.54-0.26,6.8-0.53s4.43-0.57,6.52-0.91c2.09-0.34,4.06-0.7,5.9-1.08c1.84-0.38,3.49-0.73,4.94-1.04
		c-0.49-0.31-0.97-0.62-1.45-0.91c-0.48-0.29-0.96-0.59-1.46-0.88l-5.05-2.97c-1.71-1.01-3.09-1.77-4.12-2.28
		c-1.03-0.52-1.89-0.8-2.57-0.85c-0.68-0.05-1.26,0.12-1.75,0.53c-0.48,0.4-1.04,1.03-1.67,1.88l-0.35-0.2
		c0.62-0.96,1.21-1.9,1.77-2.81c0.56-0.91,1.13-1.86,1.71-2.84c0.33-0.56,0.64-1.11,0.94-1.66c0.3-0.55,0.59-1.12,0.88-1.7l0.35,0.2
		c-0.29,0.71-0.53,1.34-0.74,1.88c-0.2,0.54-0.29,1.03-0.28,1.47s0.16,0.85,0.44,1.23c0.28,0.38,0.75,0.78,1.41,1.2l13.05,8.14
		c0.86-0.32,1.65-0.76,2.37-1.33c0.72-0.56,1.4-1.17,2.05-1.83L236.03,174.44z"/>
	<path d="M203.47,186.77c-0.48,0.56-0.81,1.06-0.99,1.5c-0.18,0.43-0.28,0.82-0.28,1.15c0,0.33,0.07,0.62,0.21,0.85
		s0.3,0.45,0.49,0.64l10.87,11.02c0.34,0.35,0.67,0.64,0.96,0.86c0.3,0.22,0.62,0.35,0.97,0.39c0.35,0.03,0.73-0.05,1.16-0.25
		c0.43-0.2,0.94-0.55,1.52-1.03l0.28,0.29c-0.44,0.38-0.88,0.76-1.31,1.15c-0.43,0.39-0.85,0.79-1.26,1.2
		c-1.11,1.1-2.09,2.17-2.94,3.22c-0.84,1.05-1.77,2.07-2.77,3.06c-1.29,1.27-2.69,2.26-4.21,2.98c-1.52,0.72-3.07,1.12-4.65,1.22
		c-1.58,0.1-3.13-0.13-4.66-0.7c-1.53-0.56-2.93-1.5-4.22-2.8c-1.3-1.32-2.17-2.68-2.61-4.08c-0.44-1.4-0.56-2.79-0.35-4.17
		c0.21-1.38,0.69-2.71,1.45-3.99c0.76-1.28,1.7-2.47,2.81-3.57c0.86-0.85,1.6-1.57,2.22-2.16s1.16-1.12,1.62-1.58
		s0.88-0.86,1.25-1.21c0.37-0.35,0.73-0.69,1.06-1.02c0.54-0.53,1.07-1.07,1.58-1.6c0.51-0.53,1.02-1.08,1.53-1.65L203.47,186.77z
		 M200.56,192.84c-0.98,0.02-1.89,0.27-2.74,0.73c-0.85,0.46-1.61,1.02-2.27,1.68c-2.45,2.41-3.62,4.8-3.5,7.17
		c0.12,2.36,1.35,4.74,3.7,7.12c1.02,1.03,2.16,1.82,3.42,2.35s2.55,0.8,3.87,0.82c1.32,0.02,2.62-0.23,3.91-0.75
		c1.29-0.52,2.48-1.31,3.56-2.38c1.11-1.1,1.95-2.36,2.51-3.8c-0.75-0.89-1.52-1.75-2.31-2.59c-0.79-0.83-1.61-1.68-2.46-2.54
		L200.56,192.84z"/>
	<path d="M169.97,214.36c-0.67,0.32-1.18,0.63-1.53,0.95c-0.35,0.32-0.59,0.63-0.73,0.93c-0.14,0.3-0.2,0.59-0.17,0.86
		s0.09,0.54,0.18,0.79l5.3,14.54c0.17,0.46,0.34,0.86,0.52,1.18s0.42,0.58,0.72,0.75c0.3,0.17,0.69,0.26,1.16,0.25
		c0.47-0.01,1.08-0.11,1.81-0.3l0.14,0.38c-0.56,0.16-1.12,0.32-1.67,0.5c-0.55,0.18-1.1,0.37-1.65,0.57
		c-1.47,0.54-2.81,1.11-4.01,1.71c-1.21,0.61-2.47,1.15-3.79,1.63c-1.7,0.62-3.39,0.94-5.07,0.96c-1.68,0.02-3.26-0.25-4.74-0.82
		c-1.48-0.57-2.79-1.42-3.95-2.57s-2.05-2.58-2.68-4.3c-0.63-1.74-0.86-3.34-0.68-4.8c0.18-1.46,0.65-2.77,1.42-3.94
		c0.76-1.17,1.75-2.18,2.98-3.03c1.22-0.85,2.57-1.54,4.04-2.08c1.13-0.41,2.11-0.76,2.92-1.05c0.81-0.28,1.52-0.54,2.13-0.76
		c0.61-0.22,1.16-0.42,1.64-0.58c0.49-0.17,0.95-0.33,1.39-0.49c0.71-0.26,1.41-0.53,2.1-0.8c0.69-0.27,1.38-0.56,2.07-0.86
		L169.97,214.36z M164.81,218.67c-0.9-0.38-1.83-0.54-2.79-0.48c-0.96,0.07-1.88,0.26-2.77,0.58c-3.23,1.18-5.28,2.87-6.16,5.06
		c-0.88,2.2-0.74,4.87,0.41,8.02c0.5,1.36,1.21,2.55,2.13,3.55c0.93,1,1.98,1.79,3.18,2.35s2.48,0.88,3.87,0.94
		c1.39,0.06,2.8-0.17,4.23-0.69c1.47-0.54,2.76-1.34,3.86-2.41c-0.31-1.12-0.66-2.23-1.03-3.32s-0.77-2.2-1.18-3.33L164.81,218.67z"
		/>
	<path d="M138.18,224.84c-0.21-0.02-0.45-0.04-0.75-0.05c-0.29-0.01-0.61-0.02-0.95-0.03c-0.34-0.01-0.69-0.01-1.04-0.01
		c-0.36,0-0.69,0.02-1,0.06c-1.33,0.14-2.51,0.38-3.54,0.72c-1.03,0.33-1.96,0.79-2.78,1.38c-0.82,0.58-1.58,1.29-2.28,2.13
		c-0.7,0.84-1.39,1.83-2.07,2.99l-0.4-0.26l2.31-7.02c0.38,0,0.77,0,1.18-0.03c0.4-0.02,0.79-0.05,1.17-0.09l12.52-1.34
		c0.64-0.07,1.29-0.15,1.93-0.24c0.64-0.09,1.28-0.19,1.92-0.31l0.04,0.4c-0.79,0.15-1.4,0.34-1.83,0.57
		c-0.42,0.22-0.73,0.54-0.91,0.94s-0.27,0.91-0.26,1.53c0.01,0.62,0.07,1.39,0.17,2.32l1.19,11.12c0.1,0.93,0.21,1.7,0.33,2.31
		c0.12,0.6,0.31,1.08,0.58,1.44c0.26,0.35,0.64,0.59,1.12,0.72s1.13,0.18,1.94,0.16l0.04,0.4c-0.76,0.06-1.48,0.11-2.16,0.16
		s-1.38,0.11-2.1,0.18c-0.72,0.07-1.49,0.14-2.3,0.23s-1.73,0.19-2.75,0.29c-1.55,0.17-3.11,0.34-4.66,0.53
		c-1.55,0.19-3.12,0.39-4.72,0.61c0-0.25-0.01-0.49-0.03-0.74c-0.01-0.25-0.03-0.48-0.06-0.7l-0.14-1.33
		c-0.05-0.49-0.13-0.98-0.23-1.48c-0.1-0.49-0.2-1.04-0.31-1.63l0.42-0.18c0.4,1.03,0.88,1.86,1.43,2.49
		c0.55,0.63,1.16,1.09,1.84,1.4c0.67,0.31,1.39,0.49,2.16,0.54c0.77,0.05,1.58,0.03,2.42-0.06c1.55-0.17,3.1-0.4,4.64-0.7
		l-0.89-8.33c-0.44,0.05-0.87,0.1-1.28,0.17s-0.83,0.12-1.28,0.17c-1.53,0.17-2.71,0.6-3.55,1.31s-1.26,1.88-1.29,3.52l-0.4,0.04
		c-0.09-0.8-0.16-1.6-0.22-2.4s-0.14-1.59-0.22-2.37c-0.09-0.8-0.18-1.6-0.29-2.4c-0.11-0.8-0.21-1.59-0.29-2.39l0.4-0.04
		c0.3,0.91,0.63,1.65,0.98,2.2s0.76,0.97,1.23,1.23c0.47,0.26,1.03,0.42,1.68,0.46s1.43,0.02,2.32-0.08l2.13-0.23L138.18,224.84z"/>
	<path d="M105.75,238.92c0.22,0.74,0.53,1.48,0.92,2.22c0.39,0.74,0.86,1.42,1.41,2.02c0.55,0.6,1.17,1.1,1.88,1.51
		c0.7,0.4,1.49,0.65,2.35,0.73c1.27,0.12,2.33-0.01,3.19-0.4c0.86-0.39,1.34-1.19,1.46-2.39c0.07-0.71-0.06-1.35-0.37-1.9
		c-0.32-0.56-0.76-1.07-1.34-1.52c-0.57-0.46-1.23-0.89-1.98-1.3s-1.51-0.82-2.29-1.24c-0.78-0.42-1.54-0.87-2.28-1.34
		c-0.74-0.47-1.39-1.02-1.95-1.63c-0.56-0.61-0.99-1.31-1.28-2.07c-0.3-0.77-0.4-1.66-0.3-2.69c0.1-1.09,0.39-2.01,0.87-2.76
		c0.48-0.75,1.08-1.35,1.8-1.8c0.73-0.45,1.55-0.75,2.48-0.91c0.92-0.16,1.9-0.19,2.92-0.09c0.56,0.05,1.13,0.16,1.72,0.32
		c0.59,0.16,1.16,0.33,1.7,0.51c0.54,0.18,1.04,0.34,1.48,0.49c0.45,0.15,0.8,0.23,1.07,0.26c0.24,0.02,0.48,0.01,0.71-0.05
		c0.23-0.06,0.47-0.12,0.72-0.18c0.08,1.28,0.2,2.54,0.35,3.77c0.15,1.23,0.31,2.49,0.48,3.78l-0.46,0.19
		c-0.33-0.81-0.73-1.67-1.22-2.56c-0.49-0.89-1.05-1.72-1.7-2.49c-0.65-0.76-1.37-1.42-2.19-1.97c-0.81-0.55-1.72-0.87-2.72-0.96
		c-0.64-0.06-1.27-0.05-1.89,0.04c-0.61,0.09-1.16,0.26-1.65,0.53c-0.48,0.27-0.89,0.64-1.2,1.11c-0.31,0.47-0.51,1.08-0.58,1.81
		c-0.1,1.04,0.14,1.95,0.72,2.71c0.58,0.76,1.32,1.45,2.23,2.06c0.91,0.61,1.9,1.19,2.98,1.75c1.08,0.55,2.07,1.15,2.98,1.79
		c0.9,0.65,1.64,1.38,2.21,2.19c0.57,0.82,0.8,1.8,0.69,2.96c-0.08,0.87-0.32,1.64-0.73,2.32c-0.4,0.68-0.91,1.24-1.52,1.69
		c-0.61,0.44-1.31,0.77-2.08,0.96c-0.77,0.2-1.58,0.25-2.42,0.17c-0.82-0.08-1.56-0.2-2.2-0.38s-1.27-0.36-1.88-0.55
		c-0.63-0.2-1.25-0.38-1.86-0.56c-0.61-0.18-1.27-0.31-1.98-0.37c0.1-1,0.17-1.97,0.23-2.92s0.08-1.91,0.05-2.87L105.75,238.92z"/>
	<path d="M102.79,222.82c-0.8-0.14-1.43-0.17-1.91-0.11c-0.48,0.06-0.88,0.25-1.2,0.56c-0.32,0.31-0.59,0.75-0.79,1.33
		c-0.21,0.58-0.43,1.33-0.66,2.23l-2.8,10.83c-0.23,0.91-0.4,1.67-0.5,2.28c-0.1,0.61-0.08,1.12,0.05,1.55
		c0.13,0.43,0.4,0.78,0.81,1.08c0.41,0.29,0.99,0.57,1.76,0.83l-0.1,0.39c-0.9-0.28-1.77-0.54-2.62-0.78
		c-0.85-0.24-1.73-0.48-2.64-0.72c-0.71-0.18-1.43-0.36-2.15-0.52s-1.43-0.31-2.13-0.45l0.1-0.39c0.77,0.13,1.4,0.17,1.88,0.1
		c0.48-0.06,0.87-0.25,1.18-0.56c0.31-0.31,0.57-0.76,0.78-1.34c0.21-0.58,0.43-1.33,0.66-2.23l2.8-10.83
		c0.23-0.91,0.4-1.67,0.5-2.28c0.1-0.61,0.08-1.13-0.05-1.55c-0.13-0.43-0.4-0.79-0.81-1.08c-0.41-0.29-1.01-0.57-1.79-0.84
		l0.1-0.39c0.81,0.26,1.62,0.5,2.44,0.73c0.82,0.23,1.63,0.46,2.46,0.67c0.8,0.21,1.59,0.4,2.38,0.58c0.78,0.18,1.57,0.35,2.36,0.51
		L102.79,222.82z"/>
	<path d="M66.38,224.62c0.02,0.95,0.08,1.89,0.17,2.82c0.09,0.93,0.29,1.81,0.59,2.65c0.3,0.83,0.74,1.59,1.31,2.29
		c0.58,0.69,1.36,1.27,2.35,1.74c1.15,0.54,2.31,0.74,3.48,0.6c1.17-0.14,2.28-0.52,3.35-1.13c1.06-0.61,2.03-1.4,2.9-2.38
		c0.87-0.97,1.57-2.03,2.1-3.16c0.6-1.27,1-2.56,1.21-3.86c0.2-1.3,0.19-2.52-0.05-3.67s-0.68-2.19-1.35-3.12
		c-0.66-0.93-1.57-1.66-2.72-2.21c-0.97-0.46-1.96-0.81-2.98-1.06s-2.07-0.27-3.16-0.06l-1.84,3.91c-0.65,1.37,0.06,2.58,2.11,3.62
		l-0.17,0.36c-0.76-0.38-1.45-0.74-2.08-1.08c-0.63-0.33-1.35-0.69-2.16-1.07c-0.75-0.35-1.5-0.69-2.26-1.03
		c-0.76-0.33-1.52-0.66-2.29-0.97l0.17-0.36c0.43,0.18,0.85,0.31,1.25,0.41c0.4,0.09,0.77,0.1,1.11,0.04
		c0.34-0.06,0.66-0.21,0.96-0.46c0.3-0.24,0.56-0.61,0.79-1.09l2-4.24c1.61,0.19,3.19,0.41,4.74,0.66s2.96,0.67,4.23,1.27
		c1.35,0.64,2.57,1.49,3.65,2.55c1.08,1.06,1.92,2.28,2.52,3.65c0.6,1.37,0.9,2.85,0.91,4.43c0.01,1.58-0.39,3.22-1.19,4.92
		c-0.7,1.47-1.65,2.71-2.87,3.7c-1.22,0.99-2.56,1.71-4.02,2.16c-1.46,0.45-2.96,0.63-4.51,0.56c-1.54-0.07-2.99-0.43-4.35-1.07
		c-0.83-0.39-1.56-0.78-2.19-1.16s-1.2-0.76-1.69-1.13s-0.93-0.72-1.32-1.05c-0.39-0.33-0.76-0.64-1.12-0.93
		c0.15-0.32,0.33-0.76,0.53-1.32c0.2-0.56,0.4-1.15,0.59-1.76c0.19-0.61,0.37-1.21,0.54-1.78c0.17-0.57,0.3-1.04,0.4-1.39
		L66.38,224.62z"/>
	<path d="M54.93,226.44c-0.57-0.53-1.12-1.04-1.65-1.5c-0.53-0.47-1.15-1-1.87-1.6c-0.38-0.31-0.75-0.61-1.13-0.9
		c-0.37-0.28-0.76-0.56-1.17-0.84c0.03-0.49,0.05-1.27,0.06-2.32c0.01-1.06,0.02-2.26,0.03-3.62c0.01-1.36,0.02-2.8,0.02-4.34
		c0-1.54,0.01-3.03,0.03-4.49c0.02-1.45,0.04-2.8,0.07-4.04c0.03-1.24,0.07-2.24,0.13-3.01l-0.05-0.04
		c-0.43,0.51-0.86,1.02-1.29,1.52c-0.43,0.5-0.86,1.01-1.29,1.52l-2.49,2.99c-0.91,1.1-1.67,2.09-2.27,2.97
		c-0.6,0.88-1.01,1.69-1.24,2.43c-0.23,0.74-0.25,1.43-0.07,2.08c0.18,0.64,0.59,1.27,1.23,1.9l-0.26,0.31
		c-0.57-0.53-1.16-1.06-1.75-1.59c-0.59-0.52-1.19-1.04-1.79-1.54c-0.55-0.46-1.11-0.91-1.7-1.37c-0.58-0.45-1.16-0.89-1.74-1.32
		l0.26-0.31c1.2,0.76,2.2,1.07,3.01,0.91c0.81-0.15,1.64-0.74,2.48-1.75l11.36-13.65l0.95,0.79c-0.28,2.26-0.48,4.53-0.58,6.8
		c-0.1,2.27-0.15,4.46-0.16,6.58c0,2.12,0.03,4.12,0.11,6c0.08,1.88,0.15,3.56,0.22,5.05c0.39-0.43,0.77-0.86,1.13-1.28
		c0.37-0.42,0.73-0.86,1.11-1.3l3.75-4.51c1.27-1.53,2.25-2.76,2.92-3.69c0.68-0.93,1.09-1.73,1.26-2.4s0.08-1.27-0.24-1.81
		c-0.32-0.54-0.85-1.19-1.58-1.95l0.26-0.31c0.85,0.76,1.68,1.5,2.48,2.2c0.81,0.7,1.65,1.42,2.53,2.15c0.5,0.42,0.99,0.81,1.49,1.2
		c0.5,0.38,1.01,0.76,1.53,1.14l-0.26,0.31c-0.65-0.4-1.23-0.74-1.74-1.03c-0.5-0.29-0.97-0.46-1.4-0.51
		c-0.43-0.06-0.86,0.02-1.29,0.24c-0.42,0.21-0.9,0.61-1.41,1.2l-10.14,11.56c0.18,0.9,0.49,1.76,0.92,2.56
		c0.44,0.8,0.93,1.57,1.47,2.32L54.93,226.44z"/>
	<path d="M16.39,171.6c-0.31-0.69-0.47-1.4-0.49-2.11c-0.02-0.71,0.1-1.4,0.35-2.05c0.25-0.65,0.61-1.24,1.1-1.76
		c0.49-0.53,1.08-0.94,1.77-1.25c0.71-0.32,1.43-0.49,2.14-0.5c0.72-0.01,1.4,0.1,2.05,0.35c0.65,0.25,1.24,0.61,1.76,1.1
		c0.53,0.49,0.94,1.08,1.25,1.77c0.32,0.71,0.49,1.43,0.5,2.14c0.02,0.72-0.1,1.4-0.35,2.05c-0.25,0.65-0.61,1.24-1.1,1.76
		c-0.49,0.52-1.09,0.95-1.8,1.27c-0.69,0.31-1.4,0.47-2.11,0.49c-0.71,0.02-1.4-0.1-2.05-0.35c-0.65-0.25-1.24-0.61-1.76-1.1
		C17.13,172.92,16.71,172.32,16.39,171.6z"/>
</g>
<path class="st1" d="M120.67,171.44c-0.62,0.26-1.34,0.61-2.1,1.1c-0.79,0.51-1.42,1.04-1.92,1.5c-1.45,1.57-4.38,4.32-6.09,5.97
	c-1.65,1.59-3.27,3.05-4.84,4.39c-0.28,0.28-1.01,1.09-1.24,2.37c-0.2,1.1,0.08,1.98,0.23,2.37c0.59,2.47,1.69,5.78,3.83,9.24
	c4.01,6.48,9.42,9.87,12.28,11.38c0.34,0.09,1.11,0.25,2.03,0c1.07-0.3,1.69-0.98,1.92-1.24c0.83-1.58,3.44-4.71,5.3-6.75
	c2.04-2.23,4.23-3.75,6-4.92"/>
<path class="st1" d="M66.96,69.53c-2.28,2.53-4.96,6.06-7.18,10.69c-1.32,2.74-3.94,8.36-4.08,15.95
	c-0.07,3.45-0.09,8.23,2.96,12.28c0.87,1.16,2.66,3.46,5.42,3.67c0.47,0.04,2.46,0.19,3.99-1.28c1.17-1.13,1.39-2.56,1.44-3.03"/>
<path class="st1" d="M67.98,117.55c0.73,3.52,1.36,7.39,1.76,11.56c1.08,11.18,1.78,16.76-0.25,22.99c-0.83,2.54-1.89,4.65-3.02,9.3
	c-0.86,3.52-1.34,5.53-1.38,8.17c-0.03,2.19-0.15,9.86,5.28,14.83c1.02,0.94,4,3.67,8.17,3.52c2.82-0.1,4.84-1.48,5.78-2.14
	c1.14-0.8,3.53-2.75,5.81-8.82c1.79-4.75,2.33-8.87,2.61-12.16c0.41-4.75,0.61-11.49-0.42-19.68"/>
<path class="st2" d="M103.9,112.53c-1.38-2.01-3.64-2.86-5.06-1.89c-0.24,0.16-0.42,0.37-0.58,0.61c0.54,0.1,1.11,0.48,1.53,1.08
	c0.67,0.97,0.65,2.14-0.03,2.61c-0.44,0.3-1.05,0.24-1.61-0.11c0.16,0.41,0.36,0.82,0.63,1.21c1.38,2.01,3.64,2.86,5.06,1.89
	C105.25,116.96,105.28,114.55,103.9,112.53z"/>
<path class="st2" d="M143.08,96.89c-1.46-0.12-2.91-0.25-4.37-0.37c0.61,0.76,0.43,1.79-0.17,2.19c-0.44,0.29-1.09,0.25-1.61-0.11
	c0.16,0.41,0.36,0.82,0.63,1.21c1.08,1.58,3.64,2.89,5.06,1.89C143.7,100.92,144.04,98.86,143.08,96.89z"/>
<path class="st1" d="M85.39,106.33c1.56,5.86,2.08,10.84,2.25,14.39c0.02,0.38,0.33,8.17-2.11,15.44c-0.35,1.05-1.12,3.14-3.12,4.55
	c-0.43,0.3-2.66,1.87-4.54,1.04c-1.42-0.63-1.91-2.31-2.21-3.37c-1.34-4.86,0.84-9.84,2.08-12.2"/>
<path class="st1" d="M63.29,114.94c-0.17,0.92-0.56,2.31-1.52,3.7c-1.19,1.7-2.08,1.71-3.01,3.28c-0.28,0.48-1.72,2.92-0.61,5.14
	c0.98,1.96,3.26,2.38,3.67,2.45c2.38,0.39,4.13-1,4.41-1.22"/>
<path class="st1" d="M120.64,159.78c-0.46,0.56-1.68,1.9-3.71,2.41c-2.99,0.75-5.4-0.89-6.03-1.32c-3.33-2.26-3.73-6.15-3.79-6.74"
	/>
</svg>
