<?xml version="1.0" encoding="utf-8"?>
<!-- Generator: Adobe Illustrator 28.0.0, SVG Export Plug-In . SVG Version: 6.00 Build 0)  -->
<svg version="1.1" id="Layer_1" xmlns="http://www.w3.org/2000/svg" xmlns:xlink="http://www.w3.org/1999/xlink" x="0px" y="0px"
	 viewBox="0 0 69.5 38.5" style="enable-background:new 0 0 69.5 38.5;" xml:space="preserve">
<g>
	<path d="M13.4,13.8c-1-0.4-2.1-0.7-3.5-1.1c-1.4-0.4-2.7-0.8-3.9-1.3s-2.3-1.2-3.2-2C1.9,8.6,1.4,7.6,1.4,6.3c0-0.5,0.1-1,0.2-1.5
		c0.1-0.5,0.3-1,0.6-1.4c0.5-0.8,1.1-1.5,1.7-1.9c0.6-0.4,1.3-0.8,2-0.9c0.7-0.2,1.5-0.3,2.3-0.3c0.8,0,1.7,0,2.5,0
		c0.9,0,1.7,0.1,2.5,0.3c0.8,0.2,1.6,0.3,2.5,0.3c0.6,0,1.2-0.1,1.9-0.2c0.6-0.1,1.2-0.4,1.7-0.7l0.3,0.5c0.1,0.5,0.1,0.9,0.1,1.5
		c0,0.5,0.1,1,0.3,1.5c0.1,0.4,0.3,0.7,0.5,1c0.2,0.3,0.3,0.7,0.3,1.2c-0.1,0-0.2,0-0.3-0.1c-0.1,0-0.2,0-0.3-0.1
		c-0.3-0.1-0.7-0.3-1.1-0.6c-0.4-0.3-0.7-0.5-1.1-0.7c-1-0.6-2.1-1.1-3.4-1.6c-1.2-0.5-2.5-0.7-3.7-0.7C9.9,1.8,8.8,2.2,8,3
		C7.2,3.9,6.8,4.9,6.8,6.2c0,1.1,0.3,1.9,0.9,2.6c0.6,0.7,1.3,1.2,2.2,1.7c0.9,0.4,1.8,0.8,2.7,1.1c1,0.3,1.8,0.5,2.6,0.8
		c1.2,0.4,2.3,0.8,3.4,1.3c1.1,0.5,2.1,1.1,3,1.8c0.9,0.7,1.6,1.6,2.1,2.6c0.5,1,0.8,2.2,0.8,3.6c0,1.4-0.4,2.7-1.1,3.9
		c-0.8,1.1-1.7,2.1-2.9,2.9c-1.2,0.8-2.4,1.4-3.8,1.8c-1.4,0.4-2.7,0.6-4,0.6c-0.9,0-1.7-0.1-2.5-0.3c-0.8-0.2-1.6-0.4-2.4-0.6
		c-0.8-0.2-1.6-0.4-2.5-0.6c-0.8-0.2-1.7-0.3-2.5-0.3c-0.5,0-0.9,0.1-1.3,0.2c-0.4,0.1-0.9,0.2-1.3,0.4L0,29
		c0.8-0.9,1.4-1.7,1.9-2.4c0.5-0.8,0.9-1.7,1.3-2.8l0.5,0.1c0.6,0.9,1.1,1.7,1.7,2.4c0.6,0.7,1.3,1.3,2,1.8c0.7,0.5,1.5,0.9,2.4,1.1
		s1.9,0.4,3,0.4c1,0,1.8-0.3,2.7-0.8c0.8-0.5,1.5-1.1,2.1-1.9c0.6-0.8,1-1.6,1.4-2.5c0.3-0.9,0.5-1.8,0.5-2.7c0-1.1-0.1-2-0.4-2.8
		c-0.3-0.8-0.7-1.5-1.2-2.2c-0.5-0.6-1.1-1.2-1.9-1.6C15.2,14.6,14.3,14.2,13.4,13.8z"/>
	<path d="M26,1.5c0.1,0,0.3,0,0.6,0h7.8l0.7,0V2c-0.3,0.1-0.6,0.3-0.9,0.4c-0.3,0.1-0.6,0.3-0.8,0.6c-0.2,0.7-0.4,1.4-0.6,2
		c-0.2,0.6-0.3,1.3-0.3,2.2c0,0.6,0,1.5,0,2.8s0,2.6,0,4.1c0,1.5,0,3.1,0,4.7c0,1.6,0,3.1,0.1,4.5s0.1,2.5,0.2,3.5
		c0.1,0.9,0.2,1.5,0.3,1.7c0.2,0.4,0.5,0.6,0.9,0.7c0.4,0.1,0.8,0.2,1.2,0.2c0.8,0,1.6-0.2,2.4-0.5c0.8-0.3,1.6-0.7,2.3-1.2
		c0.7-0.5,1.5-1.1,2.1-1.8c0.7-0.7,1.2-1.4,1.7-2.2c0.5-0.8,0.9-1.6,1.2-2.4c0.3-0.8,0.4-1.6,0.4-2.4c0-0.7-0.1-1.4-0.4-2.1
		c-0.3-0.7-0.6-1.2-1.1-1.7c-0.5-0.5-1-0.9-1.7-1.1c-0.6-0.3-1.3-0.4-2-0.4c-1.2,0-2.3,0.4-3.1,1.1c-0.9,0.8-1.3,1.8-1.3,3.1
		c0,0.5,0.2,1,0.5,1.5c0.3,0.5,0.8,0.7,1.3,0.7c0.2,0,0.5,0,0.7-0.1c0.2-0.1,0.4-0.2,0.7-0.3c0.2-0.1,0.4-0.2,0.7-0.3
		c0.2-0.1,0.5-0.2,0.7-0.2c0.5,0,0.8,0.1,1.1,0.4c0.3,0.3,0.4,0.7,0.4,1.1c0,0.3-0.1,0.6-0.3,0.8c-0.2,0.2-0.4,0.5-0.7,0.6
		s-0.6,0.3-0.9,0.4c-0.3,0.1-0.6,0.1-0.9,0.1c-0.6,0-1.2-0.1-1.8-0.4c-0.5-0.3-1-0.6-1.4-1.1c-0.4-0.4-0.7-0.9-1-1.5
		c-0.2-0.6-0.3-1.2-0.3-1.8c0-0.7,0.1-1.3,0.4-1.9c0.3-0.6,0.7-1.2,1.1-1.6c0.5-0.5,1-0.9,1.6-1.1c0.6-0.3,1.3-0.4,1.9-0.4
		c1.1,0,2.1,0.2,2.9,0.5c0.8,0.3,1.4,0.8,2,1.4c0.5,0.6,0.9,1.3,1.2,2.1c0.3,0.8,0.5,1.7,0.6,2.7c-0.1,0.5-0.2,1-0.2,1.5
		c0,0.5-0.1,1-0.2,1.5c-0.1,0.4-0.4,1.1-0.7,2s-0.6,1.9-1,2.9s-0.7,1.9-1.1,2.8s-0.6,1.5-0.8,1.8h-0.2c-0.2,0-0.4-0.1-0.5-0.3
		c-0.1-0.2-0.2-0.4-0.3-0.5c-0.5-0.3-1.1-0.6-1.7-0.6c-0.6-0.1-1.2-0.1-1.7-0.1c-1.8,0-3.7,0-5.6,0c-1.9,0-3.7,0-5.6,0l-0.7,0v-0.5
		c0.3-0.1,0.6-0.3,1-0.5c0.4-0.2,0.6-0.4,0.8-0.7c0.2-0.3,0.3-0.9,0.4-1.6c0.1-0.7,0.2-1.5,0.2-2.4c0-0.8,0-1.7,0-2.5
		c0-0.8,0-1.4,0-1.9c0-2.4,0-4.8,0.1-7.2s0-4.8-0.3-7.2c-0.1-0.5-0.2-1-0.3-1.6c-0.1-0.6-0.4-1-0.9-1.3c-0.2-0.1-0.4-0.3-0.7-0.4
		C26.2,2.2,26,2,26,1.7V1.5z"/>
	<path d="M64.9,0.2c0.2,0,0.4,0,0.6,0c0.2,0,0.4,0,0.6,0c0.4,0,0.8,0.2,1.1,0.5c0.3,0.3,0.6,0.8,0.9,1.3c0.3,0.5,0.5,1.1,0.6,1.8
		s0.3,1.3,0.4,1.9c0.1,0.6,0.2,1.2,0.3,1.7c0.1,0.5,0.1,0.9,0.1,1.2c0,0.5,0,0.9-0.1,1.3c-0.1,0.4-0.1,0.9-0.1,1.3
		c0,1.4-0.2,3.1-0.7,5c-0.5,1.9-1.1,3.8-2,5.9c-0.9,2-1.9,4-3,6c-1.2,2-2.5,3.7-3.9,5.2s-2.9,2.8-4.5,3.7c-1.6,0.9-3.2,1.4-4.8,1.4
		c-0.3,0-0.7,0-1-0.1c-0.4-0.1-0.7-0.2-1-0.4s-0.6-0.4-0.8-0.7c-0.2-0.3-0.3-0.6-0.3-1s0.1-0.7,0.4-1c0.2-0.3,0.5-0.5,0.9-0.7
		c0.3-0.2,0.7-0.3,1.1-0.4s0.7-0.1,1.1-0.1c0.5,0,1.1,0,1.6,0.1c0.5,0.1,1.1,0.1,1.6,0.1c0.5,0,1.1-0.1,1.9-0.4
		c0.8-0.3,1.5-0.6,2.3-1c0.7-0.4,1.4-0.9,1.9-1.5c0.5-0.5,0.8-1.1,0.8-1.7l-0.2-0.5c-1.8-1-3.6-2.3-5.2-3.9c-1.6-1.6-3-3.3-4.2-5.2
		c-1.2-1.9-2.1-4-2.8-6.1c-0.7-2.1-1-4.3-1-6.5c0-1-0.2-2-0.7-3c-0.5-1-1.1-1.8-1.9-2.4l-0.1-0.6h9.1L54,1.7c-0.3,0.4-0.6,0.7-0.9,1
		c-0.3,0.2-0.7,0.5-1,0.8c-0.1,0.5-0.2,0.9-0.2,1.3c-0.1,0.4-0.1,0.8-0.2,1.2c0,0.4-0.1,0.8-0.1,1.2c0,0.4,0,0.9,0,1.4
		c0,0.4,0.1,0.8,0.2,1.2c0.1,0.4,0.3,0.8,0.4,1.2c0.2,0.4,0.3,0.8,0.5,1.2c0.1,0.4,0.2,0.8,0.3,1.1c0.1,0.3,0.2,0.6,0.4,0.6
		s0.3,0.2,0.5,0.5c0.2,0.3,0.3,0.5,0.3,0.8c0,0.2,0.1,0.5,0.1,0.7c0,0.2,0.1,0.5,0.2,0.7c0.1,0.2,0.2,0.5,0.5,0.8
		c0.4,0.4,0.7,0.8,0.9,1.3s0.5,1,0.8,1.5c0.5,0.6,1,1.2,1.6,1.7c0.6,0.5,1.1,1.1,1.6,1.7c0.1,0.2,0.3,0.3,0.5,0.5
		c0.2,0.2,0.5,0.4,0.7,0.6c0.3,0.2,0.5,0.4,0.8,0.5c0.3,0.1,0.5,0.2,0.7,0.2c0.4,0,0.8-0.2,1.2-0.7c0.3-0.5,0.7-1.1,0.9-1.9
		c0.3-0.8,0.5-1.6,0.7-2.6c0.2-0.9,0.3-1.8,0.5-2.7c0.1-0.9,0.2-1.7,0.3-2.4c0.1-0.7,0.1-1.2,0.1-1.6c0-1.1-0.2-2.2-0.5-3.2
		c-0.4-1-0.7-1.9-1.2-2.8c-0.4-0.8-0.8-1.6-1.2-2.3c-0.4-0.7-0.5-1.2-0.5-1.6c0-0.3,0-0.7,0-1.1c0-0.4,0.1-0.8,0.2-1.1
		c0.1-0.3,0.3-0.6,0.6-0.8C64,0.3,64.4,0.2,64.9,0.2z"/>
</g>
</svg>
