<?xml version="1.0" encoding="utf-8"?>
<!-- Generator: Adobe Illustrator 22.1.0, SVG Export Plug-In . SVG Version: 6.00 Build 0)  -->
<svg version="1.1" id="Layer_1" xmlns="http://www.w3.org/2000/svg" xmlns:xlink="http://www.w3.org/1999/xlink" x="0px" y="0px"
	 viewBox="0 0 50 50" style="enable-background:new 0 0 50 50;" xml:space="preserve">
<style type="text/css">
	.st0{fill:#9B7CB3;}
	.st1{fill:#FFFFFF;}
	.st2{fill:#73518C;}
</style>
<path class="st0" d="M45.5,47.5h-41c-2.4,0-4.3-1.9-4.3-4.3V4.5c0-2.4,1.9-4.3,4.3-4.3h41c2.4,0,4.3,1.9,4.3,4.3v38.7
	C49.8,45.6,47.8,47.5,45.5,47.5z"/>
<path class="st1" d="M39.7,13L25.6,4.6h-1.1L10.4,13l-0.5,0.9v18.5l0.5,0.9l14.1,8.5h1.1l14.1-8.5l0.5-0.9V13.9L39.7,13z M25,6.7
	l12,7.2l-12,7.2l-12-7.2L25,6.7z M12,15.8l12,7.2v16l-12-7.2V15.8z M26.1,39V23l12-7.2v16L26.1,39z"/>
<path class="st2" d="M48.9,1.5C48.1,0.7,47,0.2,45.5,0h-41C4,0,2.4,0.1,1.1,1.6C-0.1,3,0,4.7,0,5.1l0,40.7c0.1,0.6,0.3,1.8,1.3,2.8
	c0.7,0.7,1.5,1.2,2.5,1.4h41.7c0.7,0,1.5-0.2,2.1-0.5c0.5-0.3,1-0.6,1.3-1.1c0.9-1.1,1.1-2.3,1.1-2.9v-41C50,4.2,49.9,2.7,48.9,1.5z
	 M1.5,1.9c0.7-0.8,1.8-1.2,1.8-1.2c0.6-0.2,1.1-0.2,1.3-0.2l40.9,0c1.3,0.1,2.3,0.6,3,1.4c1,1.1,1,2.4,1,2.7v38.8
	c-0.1,0.2-0.2,0.5-0.3,0.7c-0.6,1-1.4,1.5-1.8,1.7c-1,0.5-2,0.5-2.4,0.5c-13.6,0-27.2,0-40.8,0c-0.3,0-0.9-0.1-1.7-0.4
	c-1.1-0.6-1.8-1.6-2.1-2.4c0-20.7,0-35.7,0-38.3C0.5,4.6,0.5,3,1.5,1.9z"/>
</svg>
