<?xml version="1.0" encoding="utf-8"?>
<!-- Generator: Adobe Illustrator 22.1.0, SVG Export Plug-In . SVG Version: 6.00 Build 0)  -->
<svg version="1.1" id="Layer_1" xmlns="http://www.w3.org/2000/svg" xmlns:xlink="http://www.w3.org/1999/xlink" x="0px" y="0px"
	 viewBox="0 0 50 50" style="enable-background:new 0 0 50 50;" xml:space="preserve">
<style type="text/css">
	.st0{fill:#ADADAD;}
	.st1{fill:#828282;}
	.st2{fill:#707070;}
	.st3{fill:#FFFFFF;}
</style>
<g>
	<path class="st0" d="M45.5,46.2h-41c-2.4,0-4.3-1.9-4.3-4.3V4.5c0-2.4,1.9-4.3,4.3-4.3h41c2.4,0,4.3,1.9,4.3,4.3v37.4
		C49.8,44.2,47.8,46.2,45.5,46.2z"/>
	<path class="st1" d="M0.3,41.9c0,0.3,0,0.8,0.2,1.4c0.6,1.6,1.9,2.3,2.1,2.4c0.3,0.2,0.9,0.4,1.7,0.4c13.6,0,27.2,0,40.8,0
		c0.4,0,1.4,0.1,2.4-0.5c0.4-0.2,1.2-0.7,1.8-1.7c0.5-0.9,0.6-1.7,0.6-2.1c0,1.2,0,2.4,0,3.6c0,0.4-0.1,1.3-0.6,2.2
		c-0.2,0.3-0.7,1-1.6,1.5c-0.8,0.4-1.6,0.5-2,0.5c-13.6,0-27.2,0-40.8,0c-0.4,0-1.3,0-2.2-0.5c-0.3-0.2-1.2-0.7-1.7-1.8
		c-0.3-0.6-0.4-1.2-0.4-1.6C0.3,44.5,0.3,43.2,0.3,41.9z"/>
	<path class="st2" d="M45.5,50H3.8c-0.6-0.1-1.6-0.4-2.5-1.4c-1-1-1.2-2.2-1.3-2.8L0,5.1C0,4.7-0.1,3,1.1,1.6C2.4,0.1,4,0,4.5,0h41
		c1.5,0.2,2.6,0.7,3.4,1.5c1.1,1.2,1.1,2.7,1.1,3v41c0,0.6-0.2,1.9-1.1,2.9c-0.5,0.5-1,0.9-1.3,1.1C47,49.8,46.2,50,45.5,50z
		 M4.5,0.5c-0.3,0-1.9,0.1-3,1.4c-1.1,1.3-1,2.7-1,3.2l0,40.7c0,0.5,0.3,1.6,1.1,2.5c0.8,0.8,1.7,1.1,2.2,1.2l41.6,0
		c0.7,0,1.3-0.2,1.9-0.5c0.3-0.2,0.8-0.5,1.2-1c0.8-0.9,0.9-2,1-2.6v-41c0-0.3,0-1.6-1-2.7c-0.7-0.8-1.7-1.2-3-1.4L4.5,0.5z"/>
	<path class="st3" d="M42.4,23.2h-0.8c0,4.6-1.9,8.7-4.9,11.7c-3,3-7.1,4.9-11.7,4.9c-4.6,0-8.7-1.9-11.7-4.9c-3-3-4.9-7.1-4.9-11.7
		c0-4.6,1.9-8.7,4.9-11.7c3-3,7.1-4.9,11.7-4.9c4.6,0,8.7,1.9,11.7,4.9c3,3,4.9,7.1,4.9,11.7H42.4h0.8C43.2,13.1,35.1,5,25,5
		C14.9,5,6.8,13.1,6.8,23.2c0,10.1,8.2,18.2,18.2,18.2c10.1,0,18.2-8.2,18.2-18.2H42.4z"/>
	<path class="st3" d="M23.3,30.7c0-0.4,0-0.8,0-1c0-1.3,0.2-2.4,0.5-3.3c0.3-0.7,0.7-1.4,1.3-2.1c0.4-0.5,1.2-1.3,2.3-2.2
		c1.1-1,1.8-1.8,2.2-2.4c0.3-0.6,0.5-1.2,0.5-1.9c0-1.3-0.5-2.4-1.5-3.3c-1-0.9-2.2-1.4-3.6-1.4c-1.4,0-2.5,0.4-3.4,1.3
		c-0.9,0.9-1.5,2.2-1.8,4l-3.3-0.4c0.3-2.4,1.2-4.3,2.7-5.6c1.5-1.3,3.4-1.9,5.8-1.9c2.6,0,4.6,0.7,6.1,2.1c1.5,1.4,2.3,3.1,2.3,5.1
		c0,1.1-0.3,2.2-0.8,3.2c-0.5,1-1.6,2.1-3.1,3.5c-1,0.9-1.7,1.6-2.1,2.1c-0.3,0.4-0.6,0.9-0.7,1.5c-0.2,0.6-0.2,1.5-0.3,2.8H23.3z
		 M23.1,37.2v-3.7h3.7v3.7H23.1z"/>
</g>
</svg>
