<?xml version="1.0" encoding="utf-8"?>
<!-- Generator: Adobe Illustrator 22.1.0, SVG Export Plug-In . SVG Version: 6.00 Build 0)  -->
<svg version="1.1" id="Layer_1" xmlns="http://www.w3.org/2000/svg" xmlns:xlink="http://www.w3.org/1999/xlink" x="0px" y="0px"
	 viewBox="0 0 50 50" style="enable-background:new 0 0 50 50;" xml:space="preserve">
<style type="text/css">
	.st0{fill:#ADADAD;}
	.st1{fill:#828282;}
	.st2{fill:#707070;}
	.st3{fill:#FFFFFF;}
</style>
<g>
	<path class="st0" d="M45.5,46.2h-41c-2.4,0-4.3-1.9-4.3-4.3V4.5c0-2.4,1.9-4.3,4.3-4.3h41c2.4,0,4.3,1.9,4.3,4.3v37.4
		C49.8,44.2,47.8,46.2,45.5,46.2z"/>
	<path class="st1" d="M0.3,41.9c0,0.3,0,0.8,0.2,1.4c0.6,1.6,1.9,2.3,2.1,2.4c0.3,0.2,0.9,0.4,1.7,0.4c13.6,0,27.2,0,40.8,0
		c0.4,0,1.4,0.1,2.4-0.5c0.4-0.2,1.2-0.7,1.8-1.7c0.5-0.9,0.6-1.7,0.6-2.1c0,1.2,0,2.4,0,3.6c0,0.4-0.1,1.3-0.6,2.2
		c-0.2,0.3-0.7,1-1.6,1.5c-0.8,0.4-1.6,0.5-2,0.5c-13.6,0-27.2,0-40.8,0c-0.4,0-1.3,0-2.2-0.5c-0.3-0.2-1.2-0.7-1.7-1.8
		c-0.3-0.6-0.4-1.2-0.4-1.6C0.3,44.5,0.3,43.2,0.3,41.9z"/>
	<path class="st2" d="M45.5,50H3.8c-0.6-0.1-1.6-0.4-2.5-1.4c-1-1-1.2-2.2-1.3-2.8L0,5.1C0,4.7-0.1,3,1.1,1.6C2.4,0.1,4,0,4.5,0h41
		c1.5,0.2,2.6,0.7,3.4,1.5c1.1,1.2,1.1,2.7,1.1,3v41c0,0.6-0.2,1.9-1.1,2.9c-0.5,0.5-1,0.9-1.3,1.1C47,49.8,46.2,50,45.5,50z
		 M4.5,0.5c-0.3,0-1.9,0.1-3,1.4c-1.1,1.3-1,2.7-1,3.2l0,40.7c0,0.5,0.3,1.6,1.1,2.5c0.8,0.8,1.7,1.1,2.2,1.2l41.6,0
		c0.7,0,1.3-0.2,1.9-0.5c0.3-0.2,0.8-0.5,1.2-1c0.8-0.9,0.9-2,1-2.6v-41c0-0.3,0-1.6-1-2.7c-0.7-0.8-1.7-1.2-3-1.4L4.5,0.5z"/>
	<path class="st3" d="M44.5,35.8h-39c-0.2,0-0.3-0.1-0.3-0.3V10.9c0-0.2,0.1-0.3,0.3-0.3h39c0.2,0,0.3,0.1,0.3,0.3v24.5
		C44.8,35.6,44.7,35.8,44.5,35.8z"/>
	<path class="st0" d="M32.1,12.4c3.9,7.3,7.7,14.7,11.6,22H19.3C23.5,27.1,27.8,19.8,32.1,12.4z"/>
	<path class="st3" d="M32.1,12.4l-0.7,0.4c3.9,7.3,7.7,14.7,11.6,22l0.7-0.4v-0.8H19.3v0.8l0.7,0.4c4.3-7.3,8.5-14.7,12.8-22
		L32.1,12.4l-0.7,0.4L32.1,12.4L31.3,12c-4.3,7.3-8.5,14.7-12.8,22l0.7,1.2h24.3l0.7-1.2c-3.9-7.3-7.7-14.7-11.6-22l-1.4,0
		L32.1,12.4z"/>
	<path class="st0" d="M18.8,16.9c3.1,5.8,6.1,11.7,9.2,17.5H8.6C12,28.6,15.4,22.8,18.8,16.9z"/>
	<path class="st3" d="M18.8,16.9l-0.7,0.4c3.1,5.8,6.1,11.7,9.2,17.5l0.7-0.4v-0.8H8.6v0.8l0.7,0.4c3.4-5.8,6.8-11.7,10.1-17.5
		L18.8,16.9l-0.7,0.4L18.8,16.9l-0.7-0.4C14.7,22.4,11.3,28.2,7.9,34l0.7,1.2H28l0.7-1.2c-3.1-5.8-6.1-11.7-9.2-17.5l-1.4,0
		L18.8,16.9z"/>
</g>
</svg>
