<?xml version="1.0" encoding="utf-8"?>
<!-- Generator: Adobe Illustrator 22.1.0, SVG Export Plug-In . SVG Version: 6.00 Build 0)  -->
<svg version="1.1" id="Layer_1" xmlns="http://www.w3.org/2000/svg" xmlns:xlink="http://www.w3.org/1999/xlink" x="0px" y="0px"
	 viewBox="0 0 50 50" style="enable-background:new 0 0 50 50;" xml:space="preserve">
<style type="text/css">
	.st0{fill:#ADADAD;}
	.st1{fill:#828282;}
	.st2{fill:#707070;}
	.st3{fill:#FFFFFF;}
</style>
<g>
	<path class="st0" d="M45.5,46.2h-41c-2.4,0-4.3-1.9-4.3-4.3V4.5c0-2.4,1.9-4.3,4.3-4.3h41c2.4,0,4.3,1.9,4.3,4.3v37.4
		C49.8,44.2,47.8,46.2,45.5,46.2z"/>
	<path class="st1" d="M0.3,41.9c0,0.3,0,0.8,0.2,1.4c0.6,1.6,1.9,2.3,2.1,2.4c0.3,0.2,0.9,0.4,1.7,0.4c13.6,0,27.2,0,40.8,0
		c0.4,0,1.4,0.1,2.4-0.5c0.4-0.2,1.2-0.7,1.8-1.7c0.5-0.9,0.6-1.7,0.6-2.1c0,1.2,0,2.4,0,3.6c0,0.4-0.1,1.3-0.6,2.2
		c-0.2,0.3-0.7,1-1.6,1.5c-0.8,0.4-1.6,0.5-2,0.5c-13.6,0-27.2,0-40.8,0c-0.4,0-1.3,0-2.2-0.5c-0.3-0.2-1.2-0.7-1.7-1.8
		c-0.3-0.6-0.4-1.2-0.4-1.6C0.3,44.5,0.3,43.2,0.3,41.9z"/>
	<path class="st2" d="M45.5,50H3.8c-0.6-0.1-1.6-0.4-2.5-1.4c-1-1-1.2-2.2-1.3-2.8L0,5.1C0,4.7-0.1,3,1.1,1.6C2.4,0.1,4,0,4.5,0h41
		c1.5,0.2,2.6,0.7,3.4,1.5c1.1,1.2,1.1,2.7,1.1,3v41c0,0.6-0.2,1.9-1.1,2.9c-0.5,0.5-1,0.9-1.3,1.1C47,49.8,46.2,50,45.5,50z
		 M4.5,0.5c-0.3,0-1.9,0.1-3,1.4c-1.1,1.3-1,2.7-1,3.2l0,40.7c0,0.5,0.3,1.6,1.1,2.5c0.8,0.8,1.7,1.1,2.2,1.2l41.6,0
		c0.7,0,1.3-0.2,1.9-0.5c0.3-0.2,0.8-0.5,1.2-1c0.8-0.9,0.9-2,1-2.6v-41c0-0.3,0-1.6-1-2.7c-0.7-0.8-1.7-1.2-3-1.4L4.5,0.5z"/>
	<path class="st3" d="M28.5,17.8l7.2-5.8c1.5,1.1,2.5,2,2.9,2.9c0.6,1.1,0.9,2.4,0.9,3.9v14.6c-1.7,0.5-3.1,1.1-4.3,1.8
		s-2.3,1.5-3.5,2.5c-2.7-1.7-5-2.6-6.8-2.6c-1.7,0-3.4,0.9-5.1,2.6c-1.6-1.3-3.1-2.3-4.6-2.9c-1.5-0.6-3-0.9-4.8-1v-0.6
		c0.7-0.3,1.2-0.7,1.5-1.2c0.3-0.5,0.4-1.6,0.4-3.2v-9.1c0-1.4,0-2.3-0.1-2.6c-0.1-0.3-0.4-0.7-0.8-1.2c-0.7-0.8-1.2-1.5-1.4-2.1
		c-0.2-0.6-0.4-1.2-0.4-2c0-1.4,0.4-2.5,1.3-3.6c0.8-1,2.3-2,4.4-3.1l0.4,0.6c-1.7,1.2-2.6,2.4-2.6,3.5c0,0.4,0.1,0.8,0.3,1.1
		c0.1,0.2,0.7,0.9,1.8,2.1c0.7,0.8,1.3,1.7,1.7,2.6c0.2,0.6,0.4,1.4,0.5,2.5l7-5.7c1.3,0.9,2.2,1.7,2.9,2.7
		C28,15.6,28.4,16.6,28.5,17.8z M17.5,18.8v12.4l6.1,2.5V20.6c0-1.4-0.1-2.4-0.4-2.9c-0.3-0.6-1-1.2-2-1.8L17.5,18.8z M28.5,19.1
		v12.1l6.1,2.6V20.3c0-1.2-0.1-2-0.4-2.5c-0.2-0.4-0.9-1.1-2-1.9L28.5,19.1z"/>
</g>
</svg>
