<?xml version="1.0" encoding="utf-8"?>
<!-- Generator: Adobe Illustrator 22.1.0, SVG Export Plug-In . SVG Version: 6.00 Build 0)  -->
<svg version="1.1" id="Layer_1" xmlns="http://www.w3.org/2000/svg" xmlns:xlink="http://www.w3.org/1999/xlink" x="0px" y="0px"
	 viewBox="0 0 50 50" style="enable-background:new 0 0 50 50;" xml:space="preserve">
<style type="text/css">
	.st0{fill:#85B0F2;}
	.st1{fill:#5987CF;}
	.st2{fill:#FFFFFF;}
</style>
<g>
	<path class="st0" d="M45.5,46.2h-41c-2.4,0-4.3-1.9-4.3-4.3V4.5c0-2.4,1.9-4.3,4.3-4.3h41c2.4,0,4.3,1.9,4.3,4.3v37.4
		C49.8,44.2,47.8,46.2,45.5,46.2z"/>
	<path class="st1" d="M0.3,41.9c0,0.3,0,0.8,0.2,1.4c0.6,1.6,1.9,2.3,2.1,2.4c0.3,0.2,0.9,0.4,1.7,0.4c13.6,0,27.2,0,40.8,0
		c0.4,0,1.4,0.1,2.4-0.5c0.4-0.2,1.2-0.7,1.8-1.7c0.5-0.9,0.6-1.7,0.6-2.1c0,1.2,0,2.4,0,3.6c0,0.4-0.1,1.3-0.6,2.2
		c-0.2,0.3-0.7,1-1.6,1.5c-0.8,0.4-1.6,0.5-2,0.5c-13.6,0-27.2,0-40.8,0c-0.4,0-1.3,0-2.2-0.5c-0.3-0.2-1.2-0.7-1.7-1.8
		c-0.3-0.6-0.4-1.2-0.4-1.6C0.3,44.5,0.3,43.2,0.3,41.9z"/>
	<polygon class="st2" points="17.2,19.5 25.1,24.2 32.9,19.5 32.9,9.2 25.1,4.5 17.2,9.2 	"/>
	<polygon class="st2" points="27,37.2 34.8,41.9 42.7,37.2 42.7,26.9 34.8,22.2 27,26.9 	"/>
	<polygon class="st2" points="7.3,37.2 15.2,41.9 23,37.2 23,26.9 15.2,22.2 7.3,26.9 	"/>
	<path class="st1" d="M4.5,0.2v0.2c13.7,0,27.3,0,41,0V0.2l0,0.2c1,0.1,2.2,0.4,3,1.4l0,0c0.9,1,1,2.2,1,2.7c0,13.7,0,27.3,0,41h0.2
		l-0.2,0c0,0.4-0.1,1.6-1,2.6l0,0c-0.5,0.5-1,0.8-1.2,1l0,0c-0.8,0.4-1.5,0.5-1.9,0.5h0c-13.9,0-27.8,0-41.7,0v0.2l0.1-0.2
		c-0.4-0.1-1.4-0.3-2.2-1.2l0,0c-0.9-1-1.1-2.1-1.1-2.5l-0.2,0h0.2c0-13.6,0-27.1,0-40.7v0l0,0c0-0.1,0-0.2,0-0.4
		c0-0.6,0.1-1.7,1-2.7l0,0c1.2-1.4,2.8-1.4,3-1.4L4.5,0.2v0.2V0.2l0-0.2C4.2,0,2.4,0.1,1.1,1.6l0,0C0.2,2.7,0,3.9,0,4.6
		c0,0.3,0,0.4,0,0.5l0.2,0H0c0,13.6,0,27.1,0,40.7v0l0,0c0,0.4,0.2,1.7,1.3,2.8l0,0c0.9,1,2.1,1.3,2.5,1.4l0,0h0
		c13.9,0,27.8,0,41.7,0l0,0c0.4,0,1.2-0.1,2.1-0.5l0,0l0,0c0.2-0.1,0.8-0.5,1.3-1.1l0,0c1-1.1,1.1-2.4,1.1-2.9l0,0v0
		c0-13.7,0-27.3,0-41c0-0.5-0.1-1.9-1.1-3l0,0c-1-1.1-2.3-1.4-3.3-1.5l0,0h0c-13.7,0-27.3,0-41,0h0l0,0L4.5,0.2z"/>
</g>
</svg>
