<?xml version="1.0" encoding="UTF-8"?><svg id="Layer_1" xmlns="http://www.w3.org/2000/svg" width="64" height="32.462" viewBox="0 0 64 32.462"><defs><style>.cls-1{fill:#1c3c83;stroke-width:0px;}</style></defs><path class="cls-1" d="M32.878,31.222c-.179.053-1.33.377-2.343-.154-.228-.12-.266-.186-.715-.433-.326-.179-.602-.306-.782-.384-10.456-5.216-17.832-8.892-20.03-9.808,0,0-.714-.299-1.789-.989-1.458-.935-2.83-1.841-3.132-3.313-.069-.334-.065-.617-.055-.791,0-4.134,0-8.268,0-12.403-.001-.137.005-.928.615-1.476.71-.638,1.919-.301,2.362-.184,3.175.832,21.459,10.456,22.841,11.185.32.197,1.065.594,2.088.604.853.008,1.503-.257,1.834-.42,1.419-.747,20.043-10.537,23.216-11.368.442-.116,1.652-.453,2.362.184.61.548.616,1.339.615,1.476,0,4.134,0,8.268,0,12.403.011.174.014.457-.055.791-.302,1.472-1.674,2.378-3.132,3.313-1.067.684-1.789.989-1.789.989-2.167.951-9.989,4.798-21.61,10.582-.173.085-.341.15-.504.197Z"/></svg>