<?xml version="1.0" encoding="UTF-8"?><svg id="Layer_1" xmlns="http://www.w3.org/2000/svg" width="737.429" height="251.604" viewBox="0 0 737.429 251.604"><defs><style>.cls-1{fill:none;}.cls-1,.cls-2,.cls-3{stroke:#1c3c83;stroke-miterlimit:10;}.cls-4{stroke-width:0px;}.cls-4,.cls-2,.cls-3{fill:#1c3c83;}.cls-3{stroke-width:3px;}</style></defs><line class="cls-1" x1="151.507" y1="166.879" x2="133.846" y2="166.879"/><path class="cls-4" d="M178.557,60.213c-.196-.119-.418-.253-.714-.544-.479-.471-.621-.83-.653-.931-.075-.229-.106-.474-.095-.771l-.005-2.116c.043-.409.177-.761.396-1.047.4-.521,1.008-.727,1.605-.872,2.26-.549,4.727-.44,6.528-.36,3.12.139,4.838.214,5.521-1.012.182-.327.194-.604.209-.938.011-.222.026-.547.097-1.087.003-.03.062-.521.21-1.232.146-.697.992-3.474,2.352-7.227.074-.22.695-2.177-.482-3.274-.832-.775-2.027-.608-2.737-.508-.587.079-1.003.242-1.445.415-.156.062-.328.129-.53.202-.85.305-1.724.516-2.607.628-3.291.479-80.639,11.739-85.059,12.083-1.738.135-2.242.116-2.244.118-.375-.02-.696-.058-.994-.094-.745-.088-1.447-.171-2.434.074-.63.157-1.112.379-1.564.721-.27.204-.987.745-1.292,1.707-.223.7-.105,1.272-.048,1.548.104.509.335.987.685,1.401,1.033,1.112,2.044,2.279,3.004,3.468,1.078,1.337,2.121,2.739,3.107,4.178.268.368.6.655.986.854.946.484,1.846.285,3.207-.016l.657-.142c.837-.175,1.683-.327,2.511-.452l50.222-7.134c1.55-.154,2.909.091,4.04.725,1.263.708,1.955,1.436,1.852,1.947-.061.304-.389.626-.498.733-.522.512-1.147.615-1.52.635l-52.319,7.433c-.461.044-1.353.229-2.146.976-.152.142-.612.576-.884,1.289-.365.958-.131,1.753-.005,2.18.142.484.377.928.707,1.329l3.408,3.947c.112.119.238.227.375.321.537.367,1.206.5,1.982.394l48.371-6.871c.619-.084,2.339-.084,2.854.897.102.194.162.43.173.657v124.721c-.01.728-.043,1.472-.101,2.211-.718,9.342-5.249,21.605-12.52,26.968-11.536,8.509-31.086,1.157-40.209-10.843-12.183-16.029-4.265-38.457-3.318-40.972.398-1.131,1.047-2.168,1.913-3.036.644-.645,1.524-1.527,2.544-1.632.278-.033.416,0,.689.063.35.083.827.197,1.691.147.708-.041,1.59-.092,2.515-.644.236-.142.956-.574,1.885-2.108.756-1.25,1.296-2.623,1.605-4.084.376-1.85.534-3.709.467-5.526-.102-2.81-.19-5.236-1.941-7.327-.72-.861-2.728-2.84-5.846-2.727-2.667.11-4.596,1.662-6.64,3.305-1.864,1.499-3.477,3.304-4.806,5.383-5.1,8.814-8.407,18.135-9.83,27.705-.766,5.15-2.56,17.212,2.43,30.347,5.319,14.002,15.25,21.187,19.274,23.626,4.107,2.49,12.092,7.331,22.371,7.331,1.486,0,3.02-.102,4.597-.325,1.651-.234,3.324-.601,4.972-1.088,6.016-1.784,11.672-5.161,16.812-10.039,13.993-13.273,15.052-31.218,15.043-36.4l-.003-131.915c.092-.985.374-1.936.836-2.828.218-.42.476-.827.762-1.201.75-.94,1.019-1.732.823-2.421-.15-.527-.508-.744-.796-.919Z"/><path class="cls-4" d="M241.141,175.817c-.354-.493-.671-.823-.789-.945-.319-.329-.581-.881-.78-1.644-2.601-9.758-5.074-19.717-7.351-29.599-2.312-10.038-4.487-20.279-6.461-30.433-.282-1.563-.415-3.168-.396-4.769.008-.681.041-1.175.074-1.686.032-.49.065-.995.081-1.683.035-1.663-.062-3.332-.289-4.943-.028-.27-.083-.536-.162-.79-.114-.365-.316-.902-.762-1.357-.564-.578-1.23-.72-1.715-.823-.748-.16-1.566-.137-2.431.067-.189.044-.318.084-.502.142-.198.062-.466.146-.975.283-.384.104-.701.183-.874.227l-12.201,1.912c-.458.043-4.516.509-6.169,3.539-.296.543-.495,1.136-.588,1.75-.899,5.038-2.012,10.127-3.308,15.125-.646,2.491-1.351,5.013-2.088,7.468-.047.131-.193.461-.526.696-.206.144-.406.2-.529.219l-1.114.158c-.321.047-.6.171-.83.368-.489.419-.563,1.018-.629,1.546-.058.462-.043.927.039,1.366l1.212,7.851c.063.417.085.849.066,1.283-.015.338-.056.684-.118,1.012-1.523,6.691-3.103,13.464-4.694,20.131-1.624,6.804-3.307,13.694-4.985,20.422-.668,1.749-1.598,4.785-.318,5.459.158.083.335.124.519.124.082,0,.165-.008.247-.024,1.934-.223,3.9-.478,5.844-.758,2.028-.292,4.084-.621,6.096-.973.306-.042.893-.189,1.392-.692.479-.484.605-1.019.667-1.276.099-.418.105-.845-.143-1.902-.117-.499-.222-.842-.309-1.129-.125-.408-.2-.654-.232-1.086-.023-.317-.016-.645.018-.945.912-5.276,1.895-10.635,2.922-15.929,1.293-6.661,2.692-13.404,4.159-20.047.457-2.152,1.195-3.501,2.136-3.899.174-.074.308-.098.393-.11l10.029-1.425c.583-.051,1.451-.02,2.296.414,1.48.76,1.914,2.242,2.036,2.864,1.635,6.839,3.23,13.808,4.741,20.713,1.252,5.722,2.477,11.542,3.632,17.215.005.184.092,1.805,1.33,2.194.21.066.436.089.672.069,1.593-.126,3.208-.318,4.799-.571,1.938-.308,3.897-.715,5.813-1.208.236-.056.59-.182.938-.465.122-.099.736-.636.856-1.47.04-.271.038-.725-.428-1.549-.106-.189-.209-.347-.309-.486ZM213.967,125.54c-.281.253-.606.324-.815.351-.896.18-1.803.333-2.697.454-.897.122-1.81.216-2.753.284-.193.028-.559.047-.837-.161-.378-.284-.482-.898-.242-1.579l2.79-11.544c.103-.663.648-1.246,1.269-1.355.068-.012.135-.018.201-.018.234,0,.454.074.634.215.235.185.377.467.409.874l2.466,10.906c.158.569-.013,1.202-.424,1.574Z"/><path class="cls-4" d="M284.966,104.693c-.872-1.403-5.624-8.568-13.568-11.85-3.023-1.249-5.874-1.676-6.415-1.75-3.047-.409-5.436-.177-7.016-.022-2.225.217-5.588.545-9.742,2.293-1.422.598-3.801,1.6-6.38,3.753-.989.826-1.917,1.745-2.746,2.718-.136.15-.275.327-.406.533-.395.625-.599,1.356-.59,2.109v9.46c.007.942.325,1.766.874,2.26.362.327.799.482,1.233.44.618-.061,1.106-.51,1.418-.892l1.933-2.541c.019-.02.036-.036.046-.049.026.053.056.155.046.323v53.458c-.056,1.946-.152,3.924-.287,5.878-.126,1.843-.291,3.724-.478,5.527-.085.353-.224,1.26.322,2.075.178.265.689.893,1.613,1.004.099.012.198.018.297.018.25,0,.494-.038.697-.105,5.4-.78,10.581-2.61,15.398-5.442,6.002-3.529,9.707-7.678,12.412-10.708,8.943-10.018,12.705-20.185,13.907-24.091,1.095-3.561,3.133-10.19,2.392-18.613-.722-8.203-3.71-13.773-4.961-15.788ZM275.608,135.334c-.901,3.406-2.141,5.827-3.34,8.171-2.445,4.777-5.062,8.119-6.404,9.686-1.538,1.796-3.225,3.487-5.049,5.06-.434.455-.926.807-1.462,1.049-.451.203-1.011.458-1.551.312-.308-.083-.494-.262-.556-.322-.138-.132-.345-.71-.586-1.379-.189-.527-.256-.752-.312-1.046-.048-.255-.068-.474-.078-.595v-47.747c.004-.535.125-1.088.351-1.602.155-.354.445-1.011,1.088-1.501.585-.446,1.152-.52,1.936-.622.289-.037.577-.056.866-.056.55,0,1.101.069,1.652.208,2.746.528,5.218,1.575,7.347,3.11,3.264,2.355,5.401,5.33,6.352,8.84.328,1.211.405,2.381.558,4.717.289,4.388.562,8.532-.811,13.717Z"/><path class="cls-4" d="M332.982,156.875c.05-.482-.036-.892-.256-1.22-.485-.721-1.438-.746-1.75-.754-1.477-.038-13.371,1.733-24.002,3.402-.183.023-.539.037-.854-.152-.569-.337-.583-1.085-.582-1.171v-32.892c.004-.104.053-.645.508-1.053.282-.253.587-.333.737-.356l17.758-2.524c.271-.017.682-.097,1.09-.381.846-.587.979-1.54.988-1.67l1.735-8.208c.091-.266.266-.956-.074-1.605-.386-.738-1.269-1.095-2.167-.899l-20.104,2.856c-.046.003-.083.001-.11-.007-.127-.042-.291-.346-.253-.921l-.004-8.618c.042-.336.222-1.201.97-1.958.629-.638,1.327-.864,1.65-.936l21.599-3.068c.314-.042.605-.151.866-.325.911-.61.997-1.743,1.005-1.897v-8.892c.002-.191-.033-.848-.603-1.251-.281-.199-.641-.286-1.01-.255l-35.934,5.104c-1.229.208-1.979.619-2.294,1.257-.284.576-.107,1.096.117,1.755.082.243.178.523.27.859.197.719.318,1.471.359,2.207v73.796c.018.56-.011,1.133-.083,1.704-.063.502-.148.897-.217,1.216-.139.647-.239,1.115.061,1.555.294.432.804.565,1.34.565.423,0,.862-.083,1.225-.168l36.607-5.203c.262-.006.513-.082.725-.219.518-.336.793-1.034.691-1.66l-.003-8.013Z"/><path class="cls-4" d="M512.21,155.188l-.223-.004c-.594-.012-.892-.019-1.29-.144-.38-.119-.733-.309-1.019-.535-1.085-1.037-1.882-2.292-2.369-3.732-.297-.875-.473-1.808-.523-2.77-.053-1.081-.106-4.057-.158-6.935-.052-2.885-.106-5.869-.162-6.882.284-2.444.507-4.914.663-7.36.249-3.899.43-6.717.235-10.104-.227-3.951-.441-7.683-2.258-11.88-1.667-3.851-3.918-6.363-5.111-7.518-.634-.613-1.309-1.189-2.012-1.721.997-.81,1.946-1.691,2.829-2.625,5.603-5.929,7.252-12.547,7.701-15.118.457-2.617,1.147-6.571-.523-10.796-.552-1.396-2.761-6.105-8.036-8.099-2.822-1.067-5.453-.934-7.773-.818-1.379.069-2.027.205-5.627.955l-2.517.523c-4.772.987-7.401,1.53-9.386,1.838-2.792.433-5.654.718-8.46.848-.685-.033-1.371.067-2.025.308-.566.208-1.207.442-1.677,1.102-.156.223-.516.82-.467,1.554.017.263.093.526.452,1.163.185.326.293.484.411.659.093.136.193.283.351.546.404.674.481.939.495,1.248.006.125-.002.229-.012.349.048,37.217.025,63.149,0,66.069-.014,1.652-.246,3.139-.438,4.095-.207,1.029-.464,2.309-1.168,3.857-.364.8-.803,1.578-1.3,2.309-.559.802-.686,1.74-.331,2.45.316.631.922.878,1.099.938.311.107.659.138,1.071.075,1.526-.423,3.079-.786,4.615-1.079,1.624-.31,3.27-.55,4.899-.714.232-.027.461-.088.679-.183.946-.409,1.413-1.307,1.567-1.668.1-.225.245-.571.401-.998.758-2.081.921-3.896,1.021-7.435.034-1.241.062-2.738.059-4.438v-18.866c0-.245.055-.724.402-1.188.159-.212.355-.391.585-.531,2.046-1.249,4.111-2.575,6.14-3.943,2.242-1.512,4.482-3.105,6.663-4.74.504.297.921.679,1.243,1.139.405.577.565,1.148.684,1.638.366,1.512.608,3.4.699,5.444l.013,13.593c.055,2.053.206,4.118.451,6.136.089.736.188,1.982.303,3.426.378,4.748.949,11.922,2.201,15.305,1.236,3.338,2.515,6.791,5.819,9.975,1.634,1.575,3.538,2.858,5.682,3.823.248.098.509.174.773.225.297.057.588.081.868.081,1.152,0,2.129-.41,2.651-.63.649-.272,1.279-.634,1.879-1.079.764-.584,1.449-1.266,2.038-2.026.378-.489.719-1.017,1.038-1.625.113-.293.18-.593.197-.889.052-.849-.287-1.674-.884-2.155-.469-.378-1.303-.398-3.13-.44ZM495.495,78.271h0c-.345,1.408-.984,2.638-2.361,4.542-1.948,2.695-4.282,5.241-6.749,7.364-2.546,2.189-5.329,4.106-8.189,5.662-.874.284-1.679.194-1.913-.211-.059-.104-.089-.238-.087-.404v-18.148c-.022-.347.025-.692.144-1.028.087-.248.292-.83.816-1.182.152-.104.321-.18.513-.23l9.358-2.702c.887-.256,1.785-.397,2.669-.419.13-.003.281-.007.451-.007.706,0,1.728.066,2.812.515.72.298,1.616.668,2.22,1.55,1.08,1.579.545,3.765.316,4.698ZM495.98,78.39h0s0,0,0,0Z"/><path class="cls-4" d="M451.667,65.828c-2.669-1.092-5.153-.982-7.349-.885-1.305.058-1.917.188-5.313.91l-2.371.502c-4.828,1.018-7.038,1.479-8.845,1.761-2.631.41-5.327.671-7.96.779-.661-.042-1.311.056-1.934.294-.539.205-1.149.438-1.594,1.098-.115.171-.487.79-.439,1.541.017.26.089.521.423,1.153.175.33.276.489.39.667.087.136.182.283.329.545.383.682.457.95.469,1.264.006.127-.002.233-.011.349.045,37.158.023,63.119,0,66.071-.014,1.655-.232,3.141-.414,4.095-.206,1.083-.439,2.312-1.102,3.853-.342.795-.756,1.569-1.226,2.298-.523.793-.644,1.723-.312,2.425.289.615.826.871,1.045.953.201.075.418.115.659.115.121,0,.249-.01.383-.031,1.435-.409,2.896-.759,4.346-1.04,1.528-.296,3.078-.522,4.615-.673.226-.026.445-.087.654-.181.894-.402,1.341-1.3,1.491-1.667.093-.224.23-.568.376-.991.715-2.074.868-3.886.961-7.419.033-1.241.058-2.738.056-4.437v-18.866c0-.248.052-.732.381-1.194.145-.205.328-.38.548-.522,15.185-9.857,22.503-18.69,22.575-18.778,5.677-6.929,7.029-13.739,7.242-15.034.432-2.609,1.083-6.551-.491-10.787-.52-1.4-2.601-6.126-7.582-8.167ZM447.411,85.107h0c-.324,1.406-.928,2.633-2.226,4.526-2.325,3.39-4.742,5.844-6.359,7.306-2.395,2.165-5.016,4.058-7.705,5.587-.815.273-1.539.183-1.759-.223-.058-.106-.086-.245-.084-.416v-18.146c-.021-.351.024-.699.136-1.035.082-.248.275-.828.765-1.173.142-.1.296-.172.472-.22l8.82-2.625c.831-.247,1.672-.38,2.502-.395.099-.002.21-.004.334-.004.662,0,1.657.06,2.72.535.676.302,1.517.677,2.085,1.563,1.022,1.596.517,3.785.3,4.72Z"/><path class="cls-4" d="M590.292,125.096c-.373-1.88-.563-3.886-.565-5.963V48.471c.012-.264.062-.526.151-.781.065-.186.13-.309.19-.424.088-.169.188-.36.267-.664.09-.35.24-.937-.106-1.408-.226-.307-.601-.478-1.09-.48-1.606.092-3.237.267-4.85.519-1.585.248-3.188.578-4.734.972-.264.051-.504.152-.715.304-.644.461-.974,1.373-.847,2.255v48.025c-.013-.026-.026-.054-.04-.082l-15.701-44.292c-.08-.23-.181-.552-.271-.948-.053-.228-.085-.41-.113-.562-.068-.376-.122-.674-.368-1.004-.24-.323-.593-.577-.995-.715-.304-.103-.627-.138-.927-.107-1.994.048-4.021.229-6.026.538-1.813.28-3.645.67-5.474,1.17-.315.108-.57.283-.755.517-.28.351-.372.885-.265,1.546.114.714.405,1.239.701,1.7.232.361.383.547.785,1.044l.664.825c.523.658.659.845.784,1.178.122.325.189.683.201,1.062.172,45.21.173,68.94.003,70.527-.035.328-.059.655-.083.982-.03.424-.061.848-.118,1.272l-.029.207c-.095.68-.201,1.45-.105,2.431.046.454.128.97.536,1.36.32.305.776.469,1.296.469.044,0,.088,0,.133-.003,1.785-.107,3.6-.287,5.39-.537,1.739-.242,3.504-.555,5.331-.958.322-.133.582-.33.772-.583.424-.566.345-1.21.287-1.681-.046-.375-.124-.6-.313-1.144l-.069-.202c-.223-.64-.345-.995-.425-1.26-.166-.55-.272-1.149-.314-1.748v-37.628c0-.023-.002-.047-.002-.07.013.034.025.068.037.1l14.172,39.577c.297,1.04,1.05,2.201,2.271,2.34.214.025.438.018.635-.018,1.438-.162,2.896-.356,4.332-.579,1.799-.279,3.62-.611,5.392-.982.34-.056.632-.189.869-.396.984-.858.63-2.536.253-4.313l-.15-.726Z"/><path class="cls-4" d="M542.947,51.293c-.681-.482-1.46-.251-2.646.097-.279.083-.59.174-.937.268-.422.114-.847.2-1.271.286-.407.082-.814.165-1.22.27-1.854.481-8.407,1.419-19.52,2.794-.536.117-1.062.352-1.523.678-.711.504-1.13,1.12-1.356,1.549l-1.995,8.146c-.033.342-.024,1.002.412,1.577.12.158.484.638,1.148.724.121.015.261.02.887-.084.317-.052.581-.103.734-.134l4.498-.64s.629-.118.94.256c.152.183.186.413.187.57v58.675c0,.048,0,1.196-.853,1.872-.247.196-.533.328-.819.388l-3.819.542c-.238.04-.698.169-1.103.586-.539.557-.573,1.214-.571,1.397v8.932c-.042.727.231,1.091.469,1.271.23.173.49.224.722.224.229,0,.431-.05.544-.079.8-.2,2.532-.514,4.87-.922l13.585-1.93c1.094-.176,1.905-.293,2.479-.373.717-.1,1.283-.178,1.877-.634.416-.32.672-.695.809-.896.305-.446.523-.934.661-1.494.188-1.206.433-2.429.728-3.636.318-1.294.701-2.591,1.137-3.854.131-.378.254-.876.041-1.374-.458-1.069-2.033-1.067-2.94-.971l-5.07.712c-.062.006-.113,0-.161-.01-.521-.137-.679-1.552-.621-2.464v-.033c-.106-25.51-.172-55.811-.003-57.251.098-.829.506-1.198.51-1.202.263-.209.544-.255.729-.268l3.328-.474c.308-.024.776-.12,1.267-.438.622-.405.937-.95,1.069-1.239.577-1.266,1.138-2.553,1.665-3.825.626-1.506,1.229-3.044,1.794-4.579.144-.41.277-1.046.1-1.746-.061-.241-.223-.882-.76-1.264Z"/><path class="cls-4" d="M387.53,114.345c-6.142-2.562-11.446-4.774-14.109-9.765-1.566-3.152-1.499-7.77.176-11.77,2.086-5.134,7.535-9.494,12.735-10.149l.341-.051c5.016-.876,9.13,2.156,10.484,7.727.224.874.372,1.844.455,2.874-.059.526-.18,1.039-.358,1.524-.577,1.565-1.51,2.645-1.519,2.656l-.182.201c-.324.356-.659.724-.721,1.29-.049.44.085.895.378,1.281.581.766,1.552.836,2.132.878,2.367.17,3.38.011,3.422.004,1.785-.292,3.854-.467,6.241-.538.317.042.81.048,1.367-.171.726-.285,1.171-.799,1.372-1.081l.085-.119.007-.146c.218-4.393.326-8.677-.731-12.792-2.756-11.328-12.066-17.678-23.158-15.802-9.967,1.273-19.691,8.966-23.645,18.703-3.134,7.48-3.116,15.697.05,21.984l.047.09c4.45,8.417,12.426,11.744,19.467,14.681,7.66,3.195,14.275,5.955,17.425,14.453,3.7,9.741-.87,20.887-10.869,26.503-4.447,2.532-9.956,3.273-14.379,1.931-3.24-.983-5.704-3.002-7.126-5.842-3.188-6.309-.744-15.353,2.279-21.118.191-.26.399-.49.635-.702.311-.28.779-.58,1.354-.869.443-.222.77-.347,1.012-.44.427-.163.763-.292.935-.712.236-.577-.075-1.247-.488-1.656-.269-.264-.622-.443-1.022-.517-.478-.091-2.303-.879-8.303-4.125-.279-.14-.582-.221-.906-.242-.186-.011-.754-.049-1.313.278-.697.409-.98,1.078-1.082,1.334-6.01,9.769-9.637,24.448-4.193,35.221,3.923,7.833,12.207,12.505,21.713,12.505,1.229,0,2.479-.078,3.742-.238,4.255-.537,8.395-1.938,12.304-4.164,15.704-8.822,23.13-27.103,17.273-42.521-4.762-12.844-14.625-16.958-23.327-20.588Z"/><path class="cls-4" d="M646.934,105.125v-21.727c.021-1.446-.081-6.193-2.275-6.582-.194-.035-.4-.032-.597.002l-17.387,2.608c-.293.031-1.028.173-1.509.825-.327.442-.39.928-.408,1.345-.062,1.458.492,2.53.493,2.531.526,1.056.879,2.994,1.046,5.745.048,1.46.545,2.39,1.327,2.488.17.021.34.001.424-.037l6.566-.985v15.65c-1.571,2.018-4.752,5.368-9.051,6.207-6.973,1.355-11.699-5.061-13.258-7.172-3.729-5.054-4.178-10.69-4.612-16.144-.313-3.952-1.147-14.448,4.446-25.675,2.033-4.081,4.339-8.707,8.852-10.515,2.852-1.142,7.078-1.25,9.628,1.215,1.483,1.433,2.095,3.293,2.343,4.586.115.726.188,1.477.22,2.23.035.876.013,1.768-.067,2.661-.006.094-.018.251-.043.444-.109.811-.335,1.335-.517,1.756-.202.47-.377.875-.186,1.335.382.922,1.779.878,2.459.862.301-.009.555-.046.709-.075l7.845-1.118c1.082-.084,1.93-.601,2.212-1.348.071-.188.105-.386.102-.575.021-1.47.038-14.541-5.981-20.778-6.404-6.637-15.927-5.946-22.132-3.34-8.624,3.62-12.907,11.586-16.034,17.402-7.818,14.539-6.58,28.542-6.114,33.814.568,6.443,1.275,14.462,6.712,21.846,1.547,2.104,9.369,11.912,20.537,11.912.872,0,1.764-.06,2.675-.188.312-.043.582-.089.807-.13,10.266-1.862,17.04-10.566,19.459-14.199.049-.063.131-.173.224-.313.401-.606.948-1.762,1.072-4.784.018-.426.032-1.04.015-1.78Z"/><path class="cls-4" d="M245.564,30.876l5.193-.738-14.517,58.689-3.379.48-6.257-23.389-6.445,25.193-3.379.48-14.078-54.627,5.193-.738,10.762,40.895,5.319-21.091-5.694-21.279,5.694-.809,2.815,10.863,2.941-11.681,5.506-.782-5.819,22.664,5.131,19.857,11.013-43.988Z"/><path class="cls-4" d="M262.27,47.713l-7.759,1.102v7.008l7.133-1.013v5.005l-7.133,1.013v9.26l7.759-1.102v5.006l-12.764,1.813v-31.285l12.764-1.813v5.005Z"/><path class="cls-4" d="M271.655,67.654l7.759-1.102v5.006l-12.764,1.813v-31.285l5.006-.711v26.279Z"/><path class="cls-4" d="M290.363,70.316c-5.84.83-8.76-3.845-8.76-14.024,0-11.096,2.919-17.058,8.76-17.888,3.755-.533,6.278,1.611,7.571,6.433l-4.693,2.481c-.25-1.632-.616-2.717-1.095-3.254-.48-.536-1.074-.755-1.783-.654-.751.107-1.356.443-1.814,1.009-.46.566-.845,1.758-1.158,3.574-.313,1.818-.469,4.312-.469,7.481,0,4.047.292,6.738.876,8.073.584,1.336,1.439,1.923,2.565,1.763.792-.112,1.439-.558,1.94-1.339.5-.78.876-2.148,1.126-4.102l4.818,1.13c-1.168,5.632-3.796,8.737-7.884,9.317Z"/><path class="cls-4" d="M309.51,67.596c-5.84.83-8.76-3.845-8.76-14.024,0-11.096,2.919-17.058,8.76-17.888,5.715-.812,8.572,4.33,8.572,15.426,0,5.381-.792,9.384-2.377,12.007-1.586,2.624-3.651,4.117-6.195,4.478ZM309.448,62.599c.709-.101,1.282-.422,1.721-.964.437-.541.813-1.617,1.126-3.226s.47-3.811.47-6.606c0-3.169-.157-5.619-.47-7.348-.313-1.728-.688-2.811-1.126-3.25-.439-.438-1.012-.607-1.721-.507-.752.107-1.356.443-1.815,1.009s-.845,1.758-1.157,3.574c-.313,1.818-.47,4.312-.47,7.481,0,4.047.292,6.738.876,8.073.583,1.336,1.439,1.923,2.566,1.763Z"/><path class="cls-4" d="M336.541,32.159l5.006-.711v31.285l-5.006.711v-18.208l-3.629,9.963-2.19.311-3.567-8.879v18.145l-5.005.711v-31.285l5.005-.711,4.693,12.098,4.693-13.431Z"/><path class="cls-4" d="M359.317,33.929l-7.759,1.102v7.008l7.133-1.013v5.005l-7.133,1.013v9.26l7.759-1.102v5.006l-12.764,1.813v-31.285l12.764-1.813v5.005Z"/><path class="cls-4" d="M393.167,9.911v5.006l-13.516,1.92v51.621l-5.005.711V17.548l-13.453,1.911v-5.006l31.974-4.542Z"/><path class="cls-4" d="M394.105,55.581c-5.841.83-8.76-3.845-8.76-14.023,0-11.096,2.919-17.058,8.76-17.888,5.714-.812,8.572,4.33,8.572,15.426,0,5.381-.793,9.384-2.377,12.007-1.586,2.624-3.651,4.117-6.194,4.478ZM394.042,50.584c.709-.101,1.283-.422,1.721-.964.438-.541.813-1.617,1.126-3.226.312-1.609.469-3.811.469-6.606,0-3.169-.157-5.619-.469-7.348-.313-1.728-.688-2.811-1.126-3.25s-1.012-.607-1.721-.507c-.751.107-1.356.443-1.815,1.009-.46.566-.845,1.758-1.157,3.574-.313,1.818-.47,4.312-.47,7.481,0,4.047.292,6.738.876,8.073.584,1.336,1.439,1.923,2.566,1.763Z"/><path class="cls-3" d="M667.385,87.956c17.67,0,35.341,0,53.011,0"/><path class="cls-3" d="M187.912,87.956c5.868,0,11.736,0,17.604,0"/><path class="cls-3" d="M15.429,87.956c45.36,0,90.719,0,136.079,0"/><path class="cls-3" d="M533.67,160.154c62.242,0,124.484,0,186.725,0"/><path class="cls-3" d="M129.363,160.154h22.145"/><path class="cls-3" d="M15.429,160.154c22.066,0,44.132,0,66.198,0"/><path class="cls-2" d="M524.967,166.879c65.143,0,130.286,0,195.429,0"/><path class="cls-2" d="M15.429,166.879h61.956"/><path class="cls-4" d="M355.801,233.8l-4.824-17.85h-14.775l-4.824,17.85h-5.005l14.714-54.516h5.005l14.714,54.516h-5.005ZM337.468,211.126h12.242l-6.091-22.554-6.151,22.554Z"/><path class="cls-4" d="M381.49,205.939h4.704v9.588c-1.126,5.268-3.659,7.9-7.599,7.9-5.629,0-8.442-4.905-8.442-14.715,0-10.693,2.813-16.041,8.442-16.041,3.618,0,6.051,2.412,7.297,7.237l-4.342,3.075c-.241-2.13-.604-3.578-1.086-4.342-.482-.763-1.105-1.146-1.869-1.146-.724,0-1.307.241-1.749.724s-.813,1.578-1.115,3.287c-.302,1.709-.452,4.091-.452,7.146,0,3.9.28,6.534.844,7.9.562,1.367,1.388,2.05,2.473,2.05.764,0,1.377-.321,1.84-.965.461-.643.813-1.829,1.055-3.558v-8.141Z"/><path class="cls-4" d="M398.556,223.548c-5.428,0-8.142-3.879-8.142-11.639v-18.936h4.824v18.936c0,2.814.271,4.654.814,5.518.543.865,1.377,1.296,2.503,1.296,1.085,0,1.889-.432,2.412-1.296.521-.864.784-2.704.784-5.518v-18.936h4.824v18.936c0,7.76-2.675,11.639-8.021,11.639Z"/><path class="cls-4" d="M411.401,223.126v-30.152h4.824v30.152h-4.824Z"/><path class="cls-4" d="M425.872,218.302h7.479v4.824h-12.303v-30.152h4.824v25.328Z"/><path class="cls-4" d="M441.19,192.974c1.206,0,2.433.271,3.679.814s2.473,1.377,3.679,2.502c1.206,1.126,2.181,2.765,2.925,4.915.743,2.151,1.115,4.654,1.115,7.508,0,2.574-.372,4.835-1.115,6.785-.744,1.95-1.719,3.448-2.925,4.493-1.206,1.046-2.433,1.83-3.679,2.352-1.246.523-2.473.784-3.679.784h-4.824v-30.152h4.824ZM441.19,218.302c.562,0,1.155-.13,1.779-.392.623-.261,1.297-.703,2.021-1.327.724-.623,1.326-1.628,1.809-3.015.482-1.387.724-3.025.724-4.915,0-2.171-.221-4.041-.663-5.608s-1.016-2.723-1.719-3.468c-.704-.743-1.378-1.266-2.021-1.568-.644-.301-1.287-.452-1.93-.452v20.745Z"/><path class="cls-4" d="M468.87,223.126l-6.634-30.152h4.704l3.92,17.669,3.377-10.795h2.593l3.377,10.855,3.98-17.729h4.704l-6.634,30.152h-3.377l-3.317-12.543-3.377,12.543h-3.316Z"/><path class="cls-4" d="M500.589,223.126l-.845-3.859h-6.393l-.844,3.859h-4.824l6.452-30.152h4.824l6.453,30.152h-4.824ZM494.377,214.442h4.342l-2.171-10.191-2.171,10.191Z"/><path class="cls-4" d="M524.831,223.126h-4.824l-3.196-11.88h-3.559v11.88h-4.824v-30.152h8.142c2.251,0,4.17.865,5.759,2.593,1.588,1.729,2.382,3.86,2.382,6.393,0,3.256-1.166,5.81-3.497,7.659l3.618,13.508ZM513.252,197.798v8.624h3.317c.924,0,1.708-.442,2.352-1.327.643-.884.965-1.95.965-3.196s-.322-2.241-.965-2.985c-.644-.744-1.428-1.116-2.352-1.116h-3.317Z"/><path class="cls-4" d="M534.299,223.428c-3.618,0-6.052-2.413-7.297-7.237l4.522-1.688c.482,2.734,1.527,4.101,3.136,4.101,1.81,0,2.714-1.146,2.714-3.438,0-.844-.402-1.718-1.206-2.623-.805-.905-1.89-1.859-3.256-2.865-1.368-1.004-2.231-1.688-2.594-2.05-1.287-1.246-2.171-2.372-2.653-3.377-.482-1.004-.724-2.392-.724-4.161,0-2.292.743-4.101,2.231-5.427,1.486-1.327,3.035-1.99,4.644-1.99,4.101,0,6.773,2.412,8.021,7.237l-4.463,1.327c-.281-2.492-1.367-3.739-3.256-3.739-1.568,0-2.353.945-2.353,2.834,0,1.809,1.065,3.538,3.196,5.187,1.327,1.005,2.262,1.739,2.805,2.201.542.462,1.236,1.126,2.08,1.99.845.865,1.427,1.729,1.749,2.593.321.865.482,1.819.482,2.864,0,2.855-.715,4.945-2.141,6.272-1.428,1.327-3.308,1.99-5.639,1.99Z"/><path class="cls-4" d="M558.239,218.302h10.07v4.824h-14.774v-4.824c0-2.693.623-5.015,1.869-6.965,1.246-1.95,2.995-3.89,5.247-5.819,1.969-1.688,2.955-3.417,2.955-5.187,0-1.889-.784-2.834-2.353-2.834-1.688,0-2.693,1.247-3.015,3.739l-4.463-1.327c1.246-4.825,3.879-7.237,7.9-7.237,1.527,0,3.034.664,4.522,1.99,1.487,1.327,2.231,3.136,2.231,5.427,0,1.77-.241,3.157-.724,4.161-.482,1.005-1.367,2.131-2.653,3.377-.161.161-.784.704-1.87,1.628-1.085.925-1.89,1.679-2.412,2.261-.522.583-1.076,1.508-1.658,2.774-.583,1.266-.874,2.603-.874,4.01Z"/><path class="cls-4" d="M593.637,197.798h-7.479v6.754h6.875v4.824h-6.875v13.75h-4.824v-30.152h12.303v4.824Z"/><path class="cls-4" d="M607.446,223.126l-.845-3.859h-6.393l-.844,3.859h-4.824l6.452-30.152h4.824l6.453,30.152h-4.824ZM601.234,214.442h4.342l-2.171-10.191-2.171,10.191Z"/><path class="cls-4" d="M626.381,192.974h4.824v30.152h-4.824l-6.272-17.066v17.066h-4.824v-30.152h4.824l6.272,17.066v-17.066Z"/><path class="cls-4" d="M655.507,205.939h4.704v9.588c-1.126,5.268-3.659,7.9-7.599,7.9-5.629,0-8.442-4.905-8.442-14.715,0-10.693,2.813-16.041,8.442-16.041,3.618,0,6.051,2.412,7.297,7.237l-4.342,3.075c-.241-2.13-.604-3.578-1.086-4.342-.482-.763-1.105-1.146-1.869-1.146-.724,0-1.307.241-1.749.724s-.813,1.578-1.115,3.287c-.302,1.709-.452,4.091-.452,7.146,0,3.9.28,6.534.844,7.9.562,1.367,1.388,2.05,2.473,2.05.764,0,1.377-.321,1.84-.965.461-.643.813-1.829,1.055-3.558v-8.141Z"/><path class="cls-4" d="M674.927,223.126l-.845-3.859h-6.393l-.844,3.859h-4.824l6.452-30.152h4.824l6.453,30.152h-4.824ZM668.715,214.442h4.342l-2.171-10.191-2.171,10.191Z"/><path class="cls-4" d="M696.636,192.974h4.824v30.152h-4.824v-17.549l-3.498,9.106h-2.11l-3.438-9.045v17.488h-4.824v-30.152h4.824l4.523,12.302,4.522-12.302Z"/><path class="cls-4" d="M718.587,197.798h-7.479v6.754h6.875v4.824h-6.875v8.925h7.479v4.824h-12.303v-30.152h12.303v4.824Z"/></svg>