<?xml version="1.0" encoding="UTF-8"?><svg id="Layer_1" xmlns="http://www.w3.org/2000/svg" width="625.112" height="339.123" viewBox="0 0 625.112 339.123"><defs><style>.cls-1{fill:#1c3c83;stroke-width:0px;}</style></defs><path class="cls-1" d="M178.959,246.065c-.637,2.405-1.575,4.296-2.363,5.621-5.745,8.943-12.09,18.185-19.097,27.613-12.559,16.897-25.249,31.707-37.419,44.581-.548.305-1.171.596-1.871.839-3.059,1.06-5.868.604-7.452.194-15.118-4.348-32.025-10.182-50.032-18.097-15.25-6.703-28.822-13.814-40.694-20.758-.421-.351-1.136-.869-2.129-1.21-1.213-.417-2.239-.364-2.734-.339-2.067.104-5.84.272-10.734.565-2.169.126-3.966-1.105-4.355-2.71-.317-1.311.405-2.456.597-2.742,2.904-4.723,6.543-9.951,11.081-15.339,3.397-4.033,6.776-7.535,9.968-10.548.733-.652,1.974-1.605,3.726-2.274,3.034-1.16,5.718-.751,7.242-.5,1.228.202,3.132.661,5.258,1.823,11.422,6.813,24.308,13.778,38.645,20.452,13.025,6.063,25.448,11.047,37,15.161.339.165,2.108.988,3.871.194.522-.235.914-.554,1.194-.839,3.849-4.484,7.699-8.968,11.548-13.452.482-.553,1.245-1.584,1.621-3.073.202-.8.237-1.511.218-2.056V101.557c-.018-.764-.168-2.238-1.129-3.677-.356-.534-.747-.946-1.097-1.258-7.387-5.871-14.774-11.742-22.161-17.613-1-.632-2.846-1.618-5.371-1.984-2.443-.354-4.434.032-5.565.339-8.267,1.835-15.376,2.775-20.806,3.29-18.822,1.787-36.83,3.496-49.903-7.032-4.317-3.477-6.974-7.384-8.516-10.065-.273-.508-.581-1.203-.79-2.065-.174-.718-.232-1.358-.242-1.871V4.589c.007-2.641.923-4.445,1.968-4.581.205-.027.669-.022,1.323.581,5.828,5.183,11.656,10.366,17.484,15.548.332.327.862.932,1.226,1.839.329.82.386,1.548.387,1.998v10.744c.003,1.132.18,10.316,7.484,15.548,3.266,2.34,6.645,2.949,8.581,3.129,2.195.132,5.963.313,10.645.29,11.164-.053,17.697-1.217,36.677-3.194,2.918-.304,7.546-.774,13.306-1.306,2.872-.289,7.266-.354,12.29,1.113,2.859.835,5.208,1.957,7.016,3,5.542,3.335,11.528,7.341,17.71,12.145,8.288,6.441,15.159,12.941,20.758,18.895.785.859,1.563,1.836,2.293,2.945,4.159,6.316,4.086,12.964,4.078,15.755-.025,8.347.232,64.221,0,141.55-.011,1.44-.166,3.333-.734,5.476ZM16.02,248.124c.072-.068.141-.139.213-.207l.086-.081.089-.079c1.837-1.634,3.919-2.903,6.187-3.77,2.269-.867,4.68-1.307,7.166-1.307,1.185,0,2.21.096,3.144.223l12.191-4.556c.49-.262,1.047-.641,1.565-1.194,1.867-1.996,1.731-4.668,1.677-5.339V89.943c.009-.062.015-.133.023-.199-4.509-.341-9.499-1.134-14.51-2.866-7.988,5.022-15.976,10.043-23.965,15.065-.192.113-.366.236-.524.363-1.881,1.517-1.999,4.208-1.984,5.298v135.484c-.042.989.178,1.705.46,2.226,1.098,2.034,4.169,3.025,8.182,2.809Z"/><path class="cls-1" d="M219.265,93.979c19.415-23.233,48.592-38.04,81.166-38.04,24.818,0,47.663,8.597,65.723,22.964-.259.219-.519.438-.778.657-17.865-14.156-40.434-22.621-64.945-22.621-32.315,0-61.256,14.711-80.487,37.785-.226-.248-.453-.497-.679-.745ZM342.445,257.643c-12.869,5.657-27.08,8.805-42.015,8.805-5.698,0-11.29-.464-16.744-1.344-.343.281-.686.562-1.029.843,5.781.982,11.717,1.501,17.773,1.501,15.253,0,29.759-3.251,42.87-9.088-.285-.239-.57-.478-.855-.717ZM213.388,87.529c21.002-24.612,52.229-40.247,87.043-40.247,27.473,0,52.714,9.736,72.458,25.936.519-.438,1.037-.875,1.556-1.313-20.132-16.624-45.927-26.623-74.014-26.623-35.332,0-67.034,15.826-88.401,40.757.453.497.905.993,1.358,1.49ZM350.615,264.494c-15.161,7.431-32.193,11.611-50.185,11.611-9.088,0-17.93-1.071-26.412-3.083-.645.529-1.291,1.057-1.936,1.585,9.078,2.28,18.573,3.497,28.348,3.497,18.622,0,36.232-4.402,51.856-12.21-.557-.467-1.114-.934-1.672-1.402Z"/><path class="cls-1" d="M251.37,240.718c-4.89,3.96-9.865,8.129-14.903,12.516-4.432,3.859-8.689,7.693-12.774,11.484-.927.946-2.188,1.341-3.264.986-.627-.207-1.037-.617-1.26-.889-3.987-4.554-8.265-9.214-12.847-13.935-5.816-5.993-11.555-11.5-17.129-16.548-.08-.094-.159-.192-.234-.296-.891-1.22-1.042-2.639-1.006-3.684v-104.021c-1.732-2.177-3.463-4.355-5.195-6.532-.205-.206-.584-.65-.694-1.306-.159-.957.324-1.968,1.226-2.613,3.129-2.612,6.325-5.394,9.565-8.355,3.945-3.605,7.624-7.173,11.048-10.661.48-.438.939-.605,1.234-.677,1.282-.313,2.752.376,3.774,1.718,3.895,4.293,7.79,8.586,11.686,12.879.199.243.394.506.581.79,1.32,2.014,1.595,4.161,1.605,5.66v105.92c1.912,1.876,3.868,3.89,5.847,6.048,2.222,2.423,4.266,4.804,6.145,7.113,1.481-1.247,3.171-2.544,5.081-3.823,1.3-.87,2.565-1.641,3.774-2.323v-99.775l-8.194-11.548c-.278-.353-.895-1.239-.935-2.484-.076-2.334,1.945-3.737,2.097-3.839,3.892-2.647,7.975-5.644,12.161-9.032,3.226-2.612,6.207-5.207,8.952-7.742.223-.177,1.855-1.432,4.016-.968,1.748.375,2.686,1.628,2.903,1.935l8.968,11.71c.153.194.413.583.484,1.129.142,1.096-.599,1.886-.71,2-.688.84-1.376,1.68-2.065,2.52v107.383c2.211,2.34,4.452,4.801,6.71,7.387,1.785,2.045,3.494,4.069,5.129,6.065.973-1.076,2.177-2.254,3.645-3.419.986-.783,1.944-1.443,2.839-2v-98.71c-2.704-4-5.409-8-8.113-12-.517-.614-.728-1.192-.823-1.597-.425-1.82.629-3.909,2.613-5.371,7.452-6.048,14.903-12.097,22.355-18.145.275-.144,1.205-.587,2.371-.339,1.597.34,2.322,1.696,2.419,1.887,3.403,4.548,6.806,9.097,10.21,13.645.205.239.959,1.171.968,2.581.009,1.44-.766,2.395-.968,2.629-.548.72-1.097,1.441-1.645,2.161-.267.307-.557.702-.806,1.194-.678,1.336-.67,2.616-.613,3.29v100.839c.012.688.095,1.552.355,2.516.154.57.342,1.072.532,1.5.056.115.201.449.121.871-.109.574-.548.867-.629.919-5.731,4.32-11.504,8.749-17.315,13.29-8.518,6.658-16.786,13.298-24.806,19.903-.209.172-1.211.961-2.645.839-1.112-.095-1.848-.684-2.097-.903-6.581-6.591-13.161-13.183-19.742-19.774Z"/><path class="cls-1" d="M198.597,254.44c-1.934-1.962-3.89-3.912-5.876-5.836-2.478,4.544-5.577,8.702-9.212,12.339-2.358,2.356-4.934,4.488-7.689,6.378-3.196,4.69-6.47,9.325-9.809,13.885,8.801-3.113,16.698-8.145,23.154-14.606,3.629-3.627,6.791-7.718,9.431-12.159Z"/><path class="cls-1" d="M83.379,222.781c-.002,17.099,6.942,32.617,18.15,43.818,4.439,4.441,9.563,8.199,15.187,11.134l1.648-1.92,3.714-4.326c-5.552-2.658-10.582-6.237-14.892-10.545-9.773-9.779-15.805-23.246-15.807-38.161.002-14.916,6.034-28.383,15.807-38.162,4.815-4.811,10.526-8.71,16.861-11.435v-8.613c-8.548,3.129-16.216,8.085-22.518,14.391-11.208,11.201-18.152,26.719-18.15,43.818Z"/><path class="cls-1" d="M119.989,128.142c-1.268.34-2.053,1.511-1.781,2.632l-.015,16.36c-2.434.874-4.813,1.863-7.132,2.959l-11.582-11.561c-.6-.985-1.984-1.257-3.121-.601-1.136.656-1.592,1.991-1.04,3.003l4.225,15.827c-2.114,1.469-4.152,3.035-6.11,4.694l-14.198-8.18c-.835-.796-2.242-.701-3.17.227-.928.928-1.023,2.335-.227,3.17l8.18,14.198c-1.659,1.958-3.225,3.996-4.694,6.11l-15.826-4.225c-1.012-.553-2.347-.097-3.003,1.04-.656,1.136-.383,2.52.601,3.121l11.561,11.582c-1.096,2.319-2.085,4.697-2.959,7.132l-16.36.015c-1.121-.272-2.292.514-2.632,1.781-.34,1.268.282,2.534,1.389,2.859l14.18,8.204c-.451,2.508-.786,5.055-.998,7.638l-10.361,2.786v7.744l10.361,2.786c.212,2.582.547,5.129.998,7.638l-14.18,8.204c-1.107.325-1.728,1.591-1.389,2.859.34,1.267,1.511,2.053,2.632,1.781l16.36.015c.874,2.434,1.863,4.813,2.959,7.132l-3.617,3.624c3.626,1.818,7.27,3.587,10.93,5.29,7.075,3.293,14.302,6.384,21.591,9.294-1.578-1.318-3.102-2.699-4.557-4.153-12.381-12.391-20.021-29.444-20.024-48.341.003-18.897,7.643-35.951,20.024-48.341,7.508-7.502,16.736-13.248,27.041-16.624v-26.212l-1.199-2.073c-.325-1.107-1.591-1.728-2.859-1.389Z"/><path class="cls-1" d="M206.675,274.694c1.659-1.958,3.225-3.996,4.694-6.11l.589.157c-2.854-3.227-5.784-6.426-8.758-9.556-2.725,4.325-5.91,8.333-9.511,11.937-9.152,9.145-20.853,15.691-33.957,18.496-5.922,7.738-12.099,15.335-18.485,22.742l1.699,6.318c.028,1.153,1.09,2.081,2.402,2.081,1.312,0,2.374-.928,2.402-2.081l4.256-15.828c2.582-.212,5.129-.547,7.638-.998l8.204,14.18c.325,1.107,1.591,1.728,2.859,1.389,1.268-.34,2.053-1.511,1.781-2.632l.015-16.36c2.434-.874,4.813-1.863,7.132-2.959l11.582,11.561c.6.985,1.984,1.257,3.121.601,1.136-.656,1.592-1.991,1.04-3.003l-4.225-15.827c2.114-1.469,4.152-3.035,6.11-4.694l14.198,8.18c.835.796,2.242.701,3.17-.227.928-.928,1.023-2.335.227-3.17l-8.18-14.198Z"/><path class="cls-1" d="M471.144,236.75c-3.3,2.373-6.6,4.745-9.9,7.118-1.161-1.163-2.392-2.345-3.697-3.537-1.761-1.61-3.494-3.091-5.177-4.452v-119.081c2.952-1.984,5.903-3.968,8.855-5.952.451-.243.671-.543.778-.729.489-.848.234-2.1-.657-3.118-2.395-3.653-4.79-7.306-7.185-10.96-.237-.34-.498-.579-.75-.75-1.527-1.037-4.055-.483-6.46,1.185-3.543,2.236-7.125,4.55-10.742,6.944-4.739,3.136-9.33,6.272-13.774,9.395-.28.16-.592.383-.887.694-1.067,1.121-1.136,2.562-1.137,3.048v118.936c-.015.729.034,1.579.217,2.51.505,2.571,1.769,4.406,2.614,5.425,6.86,6.591,13.72,13.183,20.581,19.774.354.304.874.657,1.565.855,2.16.62,4.049-.829,4.306-1.032,8.097-6.199,16.194-12.398,24.29-18.597,6.118,7.624,12.319,15.676,18.548,24.161,6.385,8.698,12.344,17.232,17.903,25.548.354.423,1.583,1.786,3.677,2.177,2.792.521,4.87-1.105,5.177-1.355,4.166-3.619,8.472-7.268,12.919-10.935,4.172-3.441,8.304-6.762,12.387-9.968.328-.331.676-.746.992-1.258,1.02-1.654,1.095-3.336,1.065-4.21v-40.718c-.062-.721-.534-1.344-1.21-1.597-.687-.257-1.465-.086-1.984.435-1.887,1.544-3.774,3.089-5.661,4.633-.186.17-.37.367-.544.593-1.044,1.357-1.066,2.96-1.016,3.738v4.464c0,.194-.008.393-.028.597-.194,1.973-1.348,3.442-2.21,4.306-5.855,4.333-11.71,8.667-17.565,13-.383.316-.713.437-.992.363-.863-.23-1.226-2.335-1.089-6.315v-124.21c.076-1.184.325-2.934,1.137-4.887.902-2.17,2.124-3.69,2.976-4.597,6.151-7.57,12.301-15.14,18.452-22.71.182-.181.491-.478.903-.806,3.234-2.581,7.17-2.686,8.927-2.71,3.416-.046,24.22-.262,53.057,0,.605-.04,1.314-.147,2.081-.387,2.244-.703,3.667-2.137,4.355-2.952,2.355-2.5,4.71-5,7.064-7.5.204-.224.403-.46.597-.71,2.137-2.761,2.621-5.996,2.645-8.387v-33.871c.023-1.043-.038-2.254-.274-3.58-.591-3.327-2.001-5.821-3.065-7.355-6.183-7.129-12.366-14.258-18.548-21.387-.159-.205-1.695-2.124-3.774-1.968-2.223.167-4.332,2.651-4.129,5.903v21.581c-.013.549.045,1.15.226,1.774.89,3.071,4.083,4.371,4.71,4.613,4.183,1.688,8.366,3.376,12.548,5.065.998.476,1.648,1.463,1.677,2.548.042,1.548-1.204,2.425-1.29,2.484-1.495,1.473-2.989,2.946-4.484,4.419-.187.139-.386.274-.597.403-1.717,1.056-3.519,1.312-4.887,1.323h-169.242c-1.017-.02-11.756-.06-17.29,8.199-2.173,3.244-2.738,6.567-2.888,8.639v29.613c-.016.139-.221,2.176,1,3.08,1.282.949,3.858.446,5.323-1.871.969-1.593,2.948-4.369,6.419-6.645,3.072-2.014,6.003-2.777,7.774-3.097h56.195c-3.936,4.677-7.872,9.355-11.808,14.032-.255.329-.507.696-.742,1.105-1.189,2.066-1.363,4.156-1.331,5.516.002.35.035.88.202,1.492.378,1.386,1.082,1.871,1.581,3.145.199.508.414,1.266.419,2.29v113.194c-.014.482.012,1.086.145,1.766.173.886.467,1.597.726,2.105Z"/><path class="cls-1" d="M554.652,234.384c4.134-8.941,6.457-18.891,6.457-29.389,0-27.45-15.781-51.2-38.756-62.715v3.37c5.948,3.151,11.374,7.16,16.095,11.88,12.15,12.152,19.66,28.924,19.661,47.466,0,7.569-1.271,14.834-3.578,21.619.028.192.074.378.091.572l.03.342v6.856Z"/><path class="cls-1" d="M486.082,273.323c-.367-.5-.748-.996-1.116-1.495-8.235-.733-16.047-2.926-23.154-6.361-.849.688-1.698,1.377-2.546,2.065,8.5,4.32,17.991,6.965,28.048,7.487-.411-.564-.819-1.135-1.231-1.697Z"/><path class="cls-1" d="M497.214,288.95c-1.573-2.271-3.159-4.532-4.759-6.783-.492.009-.979.037-1.473.037-13.699-.001-26.542-3.578-37.69-9.828-1.941,1.575-3.883,3.149-5.824,4.724,12.701,7.68,27.598,12.105,43.514,12.104,2.098,0,4.171-.103,6.231-.254Z"/><path class="cls-1" d="M624.103,187.084c-.623-.505-1.484-.818-2.434-.818h-19.262s-.002,0-.003,0c-1.201-7.17-3.078-14.114-5.567-20.763.002-.001.004-.002.006-.003l16.681-9.631c1.647-.951,2.356-2.805,1.585-4.141l-15.935-27.6c-.771-1.336-2.732-1.648-4.378-.698l-16.681,9.631c-.016.009-.029.022-.045.031-4.572-5.528-9.659-10.615-15.187-15.187.01-.016.022-.029.031-.045l9.631-16.681c.213-.369.353-.754.442-1.138-.335,0-.675-.001-1.009-.001-15.528,0-24.737.122-25.121.127-.937.013-2.887.039-4.045.963-.01.008-.02.016-.031.025l-8.471,10.426c35.196,16.39,59.656,52.095,59.656,93.411,0,56.784-46.197,102.981-102.982,102.981-42.371,0-78.826-25.732-94.614-62.38-.366-.282-.733-.564-1.099-.845-1.863,1.689-3.719,3.383-5.551,5.086-5.219,4.85-10.429,9.856-15.483,14.878-.756.752-1.618,1.392-2.544,1.921l11.099,19.224c.771,1.336,2.732,1.648,4.378.698l16.681-9.631c.016-.009.029-.022.046-.031,4.572,5.528,9.659,10.615,15.187,15.187-.01.016-.022.029-.031.046l-9.631,16.681c-.951,1.647-.638,3.607.698,4.378l27.6,15.935c1.336.771,3.19.062,4.141-1.585l9.631-16.681s.002-.004.003-.006c6.649,2.488,13.592,4.365,20.763,5.566,0,.001,0,.003,0,.004v19.261c0,1.901,1.251,3.443,2.793,3.443h31.869c1.543,0,2.793-1.541,2.793-3.443v-19.261s0-.003,0-.004c7.17-1.201,14.114-3.078,20.763-5.566.001.002.002.004.003.006l9.631,16.681c.951,1.647,2.804,2.356,4.141,1.585l27.6-15.935c1.336-.771,1.648-2.732.698-4.378l-9.631-16.681c-.01-.016-.022-.029-.031-.046,5.528-4.572,10.615-9.659,15.187-15.187.016.01.029.022.045.031l16.681,9.631c1.647.951,3.607.638,4.378-.698l15.935-27.6c.771-1.336.062-3.19-1.585-4.141l-16.681-9.631s-.004-.002-.006-.003c2.489-6.649,4.365-13.592,5.567-20.763.001,0,.002,0,.003,0h19.262c.951,0,1.811-.313,2.434-.818s1.008-1.204,1.008-1.975v-31.869c0-.771-.385-1.47-1.008-1.975Z"/><path class="cls-1" d="M550.528,145.449c-7.906-7.909-17.397-14.234-27.939-18.508-.11.406-.196.818-.235,1.239v6.266c8.705,3.877,16.57,9.3,23.224,15.952,13.978,13.983,22.612,33.263,22.614,54.596-.001,16.219-5.003,31.245-13.54,43.666v11.413c12.783-14.762,20.542-34.023,20.54-55.079.002-23.243-9.431-44.317-24.664-59.545Z"/><path class="cls-1" d="M411.531,147.137v-16.742c.019-.314.012-.649-.032-1-.275-2.189-1.825-3.637-2.548-4.226-12.081-10.382-24.161-20.763-36.242-31.145-.545-.444-1.269-.884-2.177-1.113-3.457-.87-6.437,2.122-6.677,2.371-11.855,9.613-23.71,19.226-35.565,28.839-.292.181-1.132.756-1.476,1.839-.4,1.258.03,2.697,1.089,3.702.421.343,1.164,1.044,1.669,2.177.403.903.492,1.719.508,2.226v93.315c.051,1.154.311,3.201,1.597,5.274.532.858,1.12,1.526,1.645,2.032,10.113,8.339,20.226,16.677,30.339,25.016.3.17,1.343.711,2.71.484,1.208-.201,1.966-.887,2.226-1.145,5.004-4.972,10.228-10,15.677-15.065,7.485-6.956,14.879-13.498,22.129-19.645.349-.32.742-.749,1.097-1.306.904-1.423,1.026-2.855,1.032-3.597v-44.887c-.004-1.342-.802-2.317-1.643-2.394-.577-.052-1.049.329-1.228.491-8.919,7.844-17.839,15.688-26.758,23.532-.151.117-.296.246-.435.387-1.402,1.422-1.501,3.448-1.468,4.468v30.339c-1.53,1.062-3.132,2.254-4.774,3.588-1.843,1.497-3.501,2.982-4.984,4.411-.261.262-.962.89-1.817.828-1.241-.091-2.471-1.608-2.441-3.739v-45.218c7.798-7.272,16.093-14.671,24.903-22.129,7.341-6.214,14.58-12.08,21.677-17.613.238-.165.48-.366.71-.613,1.232-1.325,1.278-3.07,1.258-3.742ZM380.209,154.911c-5.699,5.291-11.398,10.582-17.097,15.873v-38.454c5.398,4.667,10.796,9.333,16.194,14,.306.279,2.336,2.185,2.193,5.097-.085,1.743-.907,2.977-1.29,3.484Z"/></svg>