<?xml version="1.0" encoding="utf-8"?>
<!-- Generator: Adobe Illustrator 28.3.0, SVG Export Plug-In . SVG Version: 6.00 Build 0)  -->
<svg version="1.1" id="Layer_1" xmlns="http://www.w3.org/2000/svg" xmlns:xlink="http://www.w3.org/1999/xlink" x="0px" y="0px"
	 viewBox="0 0 737.429 251.604" style="enable-background:new 0 0 737.429 251.604;" xml:space="preserve">
<style type="text/css">
	.st0{fill:#1C3C83;}
</style>
<g>
	<path class="st0" d="M108.427,60.862c-0.22-0.774-0.72-1.17-1.075-1.398l-0.171-0.108c-0.17-0.103-0.317-0.192-0.528-0.399
		c-0.322-0.317-0.403-0.528-0.403-0.528c-0.039-0.118-0.053-0.249-0.045-0.463l-0.005-2.056c0.027-0.2,0.091-0.367,0.189-0.496
		c0.199-0.26,0.563-0.392,1.047-0.509c2.126-0.516,4.508-0.41,6.248-0.333c3.401,0.151,5.454,0.244,6.439-1.525
		c0.295-0.532,0.317-1,0.334-1.384c0.01-0.205,0.024-0.504,0.091-1.012c0.004-0.035,0.059-0.489,0.195-1.141
		c0.123-0.584,0.927-3.264,2.321-7.112c0.156-0.461,0.852-2.835-0.748-4.326c-1.183-1.101-2.787-0.875-3.552-0.767
		c-0.708,0.096-1.2,0.289-1.682,0.477c-0.146,0.059-0.308,0.122-0.498,0.189c-0.782,0.281-1.587,0.475-2.488,0.591
		c-8.246,1.2-80.683,11.735-84.917,12.064c-1.363,0.106-1.966,0.115-2.141,0.115c-0.338-0.019-0.629-0.054-0.901-0.087
		c-0.8-0.095-1.628-0.194-2.794,0.097c-0.758,0.189-1.371,0.474-1.926,0.895c-0.307,0.232-1.24,0.938-1.64,2.2
		c-0.302,0.947-0.144,1.721-0.075,2.052c0.137,0.672,0.449,1.311,0.932,1.881c1.017,1.094,2.012,2.244,2.959,3.415
		c1.062,1.319,2.092,2.704,3.077,4.139c0.361,0.496,0.811,0.884,1.338,1.156c1.267,0.647,2.418,0.393,3.875,0.072l0.65-0.141
		c0.812-0.17,1.638-0.319,2.447-0.441l50.181-7.129c1.339-0.134,2.501,0.069,3.452,0.602c0.752,0.422,1.126,0.763,1.281,0.95
		c-0.034,0.038-0.079,0.086-0.138,0.144c-0.218,0.213-0.511,0.331-0.96,0.358L36.52,68.33c-0.589,0.056-1.727,0.292-2.734,1.242
		c-0.517,0.483-0.898,1.042-1.135,1.663c-0.485,1.273-0.177,2.318-0.03,2.817c0.18,0.614,0.481,1.181,0.91,1.701l3.436,3.979
		c0.16,0.171,0.341,0.326,0.54,0.462c0.738,0.504,1.665,0.698,2.687,0.559l48.365-6.871c0.689-0.091,1.671,0.059,1.834,0.371
		c0.032,0.061,0.055,0.155,0.058,0.192v124.708c-0.01,0.717-0.042,1.438-0.098,2.147c-0.701,9.115-5.088,21.056-12.117,26.24
		c-11.085,8.18-29.973,0.995-38.819-10.644c-11.858-15.602-4.102-37.562-3.171-40.034c0.354-1.006,0.918-1.901,1.678-2.662
		c0.537-0.538,1.272-1.275,1.951-1.346c0.102-0.013,0.104-0.013,0.348,0.045c0.386,0.092,0.971,0.231,1.975,0.171
		c0.774-0.045,1.833-0.105,2.972-0.785c0.289-0.174,1.168-0.701,2.227-2.448c0.814-1.348,1.396-2.826,1.729-4.402
		c0.392-1.93,0.556-3.868,0.486-5.762c-0.104-2.869-0.203-5.578-2.173-7.932c-0.812-0.971-3.08-3.221-6.654-3.084
		c-2.995,0.123-5.144,1.851-7.225,3.524c-1.949,1.566-3.639,3.459-5.045,5.661c-5.163,8.924-8.512,18.364-9.954,28.059
		c-0.777,5.228-2.599,17.47,2.484,30.85c5.431,14.296,15.58,21.635,19.69,24.126c4.002,2.426,12.33,7.476,22.89,7.476
		c1.576,0,3.169-0.112,4.737-0.335c1.692-0.239,3.413-0.616,5.116-1.119c6.167-1.828,11.96-5.284,17.216-10.272
		c14.283-13.548,15.364-31.842,15.355-37.125L106.04,67.679c0.08-0.854,0.325-1.681,0.728-2.46c0.192-0.371,0.417-0.725,0.656-1.038
		C108.389,62.97,108.717,61.885,108.427,60.862z"/>
	<path class="st0" d="M213.923,104.164c-0.903-1.452-5.812-8.848-14.035-12.245c-3.035-1.254-5.866-1.708-6.664-1.817
		c-3.169-0.425-5.623-0.186-7.247-0.026c-2.285,0.223-5.738,0.559-10.032,2.366c-1.473,0.62-3.937,1.656-6.633,3.907
		c-1.033,0.862-1.997,1.817-2.845,2.813c-0.186,0.205-0.357,0.429-0.511,0.671c-0.499,0.789-0.756,1.708-0.745,2.644v9.467
		c0.009,1.222,0.448,2.314,1.203,2.994c0.572,0.517,1.279,0.762,2.002,0.693c0.762-0.075,1.486-0.509,2.116-1.282l0.229-0.301
		l0,50.858c-0.056,1.938-0.151,3.902-0.285,5.838c-0.101,1.47-0.233,2.995-0.384,4.535c-0.009-0.013-0.02-0.032-0.029-0.046
		l-0.145-0.201l-0.009-0.004c-0.341-0.448-0.629-0.746-0.732-0.854c-0.089-0.092-0.32-0.394-0.532-1.206
		c-2.597-9.744-5.067-19.691-7.342-29.565c-2.316-10.054-4.487-20.281-6.452-30.386c-0.271-1.5-0.398-3.041-0.38-4.581
		c0.007-0.647,0.039-1.12,0.072-1.632c0.033-0.502,0.066-1.02,0.083-1.728c0.036-1.722-0.064-3.439-0.294-5.066
		c-0.034-0.333-0.102-0.665-0.202-0.985c-0.145-0.463-0.406-1.15-1-1.757c-0.776-0.795-1.682-0.988-2.222-1.103
		c-0.894-0.191-1.858-0.167-2.867,0.071c-0.217,0.051-0.366,0.096-0.577,0.163c-0.19,0.059-0.447,0.14-0.935,0.271
		c-0.323,0.087-0.597,0.157-0.768,0.205l-12.14,1.904c-0.512,0.048-5.052,0.569-6.954,4.056c-0.353,0.648-0.588,1.347-0.694,2.053
		c-0.894,5.01-2.001,10.073-3.292,15.05c-0.644,2.483-1.343,4.983-2.062,7.382c-0.002,0.005-0.05,0.137-0.159,0.214
		c-0.054,0.038-0.1,0.048-0.097,0.048c0,0,0,0,0,0l-1.117,0.158c-0.511,0.074-0.96,0.275-1.336,0.598
		c-0.782,0.67-0.895,1.577-0.971,2.181c-0.071,0.562-0.055,1.126,0.043,1.644l1.211,7.849c0.053,0.353,0.072,0.719,0.056,1.088
		c-0.013,0.286-0.048,0.587-0.094,0.836c-1.507,6.62-3.085,13.39-4.691,20.12c-1.59,6.661-3.261,13.509-4.968,20.354
		c-1.395,3.675-1.338,5.849,0.173,6.645c0.298,0.156,0.638,0.238,0.984,0.238c0.148,0,0.297-0.015,0.361-0.031
		c1.944-0.224,3.92-0.479,5.873-0.761c2.007-0.289,4.068-0.618,6.089-0.972c0.43-0.06,1.258-0.265,1.967-0.98
		c0.672-0.68,0.851-1.423,0.929-1.749c0.153-0.644,0.115-1.262-0.143-2.359c-0.121-0.519-0.23-0.877-0.327-1.194
		c-0.114-0.374-0.167-0.545-0.19-0.865c-0.019-0.254-0.014-0.517,0.006-0.703c0.911-5.27,1.893-10.621,2.918-15.908
		c1.289-6.638,2.686-13.373,4.156-20.029c0.548-2.581,1.323-3.092,1.551-3.188c0.068-0.029,0.112-0.036,0.141-0.04l9.976-1.419
		c0.449-0.04,1.119-0.018,1.752,0.308c1.09,0.56,1.42,1.702,1.52,2.207c1.636,6.844,3.229,13.807,4.736,20.694
		c1.206,5.509,2.421,11.269,3.613,17.121c0.057,1.142,0.616,2.584,2.029,3.029c0.335,0.104,0.691,0.141,1.048,0.11
		c1.626-0.129,3.267-0.324,4.877-0.58c1.979-0.314,3.966-0.728,5.889-1.223c0.337-0.081,0.842-0.262,1.337-0.663
		c0.152-0.124,0.526-0.462,0.824-0.984c0.321,0.425,1.033,1.157,2.224,1.3c0.138,0.017,0.276,0.024,0.415,0.024
		c0.317,0,0.632-0.043,0.917-0.126c5.504-0.806,10.781-2.676,15.685-5.559c6.139-3.609,9.903-7.825,12.651-10.904
		c9.075-10.166,12.896-20.494,14.117-24.463c1.115-3.626,3.19-10.377,2.432-18.994C218.291,111.978,215.212,106.24,213.923,104.164z
		 M185.71,157.574c-0.183-0.51-0.23-0.678-0.271-0.895c-0.04-0.211-0.056-0.391-0.061-0.41V108.53
		c0.003-0.4,0.095-0.817,0.267-1.209c0.126-0.288,0.337-0.77,0.778-1.106c0.358-0.273,0.686-0.325,1.457-0.425
		c0.713-0.09,1.4-0.056,2.202,0.142c2.601,0.5,4.939,1.489,6.951,2.939c3.073,2.218,5.083,5.007,5.972,8.291
		c0.303,1.117,0.377,2.254,0.525,4.521c0.284,4.303,0.551,8.368-0.781,13.396c-0.871,3.294-2.083,5.663-3.263,7.972
		c-2.397,4.684-4.959,7.956-6.273,9.49c-1.499,1.751-3.162,3.418-5.013,5.021c-0.343,0.359-0.729,0.638-1.158,0.832
		c-0.286,0.129-0.679,0.31-0.871,0.254c-0.024-0.006-0.044-0.016-0.062-0.026C186.016,158.423,185.845,157.948,185.71,157.574z
		 M141.407,124.797L141.407,124.797c-0.059,0.053-0.146,0.085-0.343,0.113c-0.877,0.176-1.763,0.326-2.634,0.444
		c-0.882,0.12-1.762,0.21-2.761,0.285c-0.023,0.003-0.044,0.005-0.062,0.006c-0.008-0.082-0.001-0.226,0.069-0.424l2.835-11.723
		c0.041-0.261,0.273-0.492,0.491-0.533c0,0,0.027,0.045,0.037,0.173l2.5,11.095C141.602,124.466,141.518,124.697,141.407,124.797z"
		/>
	<path class="st0" d="M261.665,155.098c-0.511-0.761-1.369-1.164-2.555-1.197c-0.018,0-0.037,0-0.057,0
		c-2.201,0-18.992,2.608-24.097,3.41c-0.109,0.015-0.188-0.003-0.218-0.021c-0.036-0.021-0.09-0.183-0.091-0.311l-0.001-32.846
		c0-0.008,0.018-0.212,0.176-0.354c0.102-0.091,0.211-0.11,0.211-0.11h0l17.68-2.516c0.399-0.025,1-0.143,1.597-0.557
		c0.985-0.684,1.343-1.755,1.409-2.34l1.712-8.1c0.135-0.427,0.338-1.387-0.155-2.328c-0.596-1.142-1.908-1.708-3.194-1.427
		l-19.326,2.749l-0.004-8.379c0.038-0.234,0.178-0.815,0.682-1.325c0.461-0.468,0.962-0.62,1.079-0.648l21.591-3.067
		c0.466-0.062,0.899-0.225,1.291-0.485c1.292-0.866,1.432-2.383,1.448-2.729v-8.881c0.003-0.315-0.062-1.396-1.024-2.077
		c-0.468-0.333-1.061-0.488-1.729-0.43l-35.96,5.108c-1.567,0.265-2.557,0.854-3.023,1.8c-0.467,0.946-0.185,1.78,0.083,2.57
		c0.073,0.215,0.156,0.459,0.235,0.751c0.178,0.648,0.287,1.32,0.323,1.942l0,73.828c0.016,0.502-0.009,1.021-0.076,1.548
		c-0.058,0.466-0.138,0.833-0.202,1.13c-0.155,0.719-0.33,1.533,0.212,2.328c0.311,0.457,0.94,1.002,2.167,1.002
		c0.425,0,0.887-0.062,1.366-0.178l36.556-5.196c0.422-0.021,0.829-0.15,1.18-0.377c0.811-0.525,1.273-1.571,1.147-2.57
		l-0.004-7.894C262.153,156.225,262.01,155.612,261.665,155.098z"/>
	<path class="st0" d="M442.141,154.257l0.024-0.037l-2.05-0.036c-0.579-0.011-0.757-0.018-1.011-0.098
		c-0.251-0.079-0.5-0.209-0.627-0.304c-0.968-0.925-1.679-2.045-2.113-3.331c-0.268-0.788-0.426-1.629-0.471-2.497
		c-0.053-1.072-0.108-4.171-0.157-6.904c-0.051-2.815-0.103-5.724-0.159-6.833c0.281-2.432,0.503-4.896,0.659-7.347
		c0.251-3.927,0.433-6.764,0.234-10.214c-0.232-4.04-0.452-7.854-2.338-12.212c-1.735-4.008-4.087-6.632-5.334-7.839
		c-0.362-0.351-0.742-0.693-1.134-1.024c0.686-0.606,1.35-1.247,1.982-1.916c5.792-6.129,7.495-12.975,7.959-15.633
		c0.476-2.727,1.195-6.848-0.578-11.335c-0.59-1.492-2.954-6.528-8.612-8.667c-3.016-1.14-5.756-1.003-8.177-0.881
		c-1.448,0.072-2.183,0.225-5.78,0.975l-2.516,0.522c-4.749,0.982-7.365,1.523-9.337,1.829c-2.743,0.426-5.554,0.708-8.258,0.837
		c-0.834-0.042-1.647,0.083-2.422,0.369c-0.631,0.231-1.495,0.549-2.148,1.466c-0.271,0.386-0.714,1.185-0.646,2.191
		c0.029,0.469,0.181,0.885,0.58,1.595c0.201,0.353,0.319,0.527,0.46,0.736c0.083,0.122,0.174,0.255,0.313,0.487
		c0.345,0.576,0.351,0.69,0.354,0.782c0.004,0.077-0.004,0.141-0.014,0.304c0.048,37.239,0.025,63.172,0,66.06
		c-0.013,1.569-0.234,2.99-0.419,3.911c-0.196,0.978-0.441,2.194-1.097,3.635c-0.339,0.743-0.748,1.471-1.21,2.15
		c-0.769,1.104-0.924,2.433-0.405,3.47c0.472,0.942,1.324,1.319,1.669,1.438c0.48,0.164,0.986,0.203,1.546,0.117l0.117-0.024
		c1.487-0.414,3.013-0.771,4.534-1.061c1.598-0.306,3.217-0.542,4.829-0.703c0.33-0.039,0.653-0.126,0.958-0.259
		c1.277-0.553,1.888-1.718,2.085-2.181c0.105-0.238,0.261-0.606,0.427-1.062c0.805-2.21,0.978-4.094,1.081-7.749
		c0.034-1.249,0.062-2.757,0.059-4.466v-18.866c0-0.095,0.02-0.344,0.202-0.587c0.084-0.112,0.187-0.206,0.307-0.278
		c2.069-1.264,4.148-2.599,6.177-3.967c2.057-1.387,4.11-2.84,6.113-4.328c0.156,0.143,0.296,0.301,0.416,0.473
		c0.304,0.433,0.429,0.879,0.531,1.298c0.351,1.453,0.583,3.27,0.67,5.21l0.014,13.619c0.056,2.089,0.21,4.185,0.458,6.229
		c0.085,0.697,0.18,1.893,0.291,3.278l0.008,0.106c0.383,4.803,0.96,12.06,2.261,15.572c1.274,3.443,2.592,7.004,6.062,10.35
		c1.72,1.655,3.727,3.006,6.007,4.031c0.301,0.119,0.62,0.213,0.954,0.278c0.344,0.065,0.699,0.099,1.056,0.099
		c1.355,0,2.492-0.479,3.039-0.708c0.719-0.302,1.421-0.705,2.099-1.207c0.83-0.635,1.577-1.377,2.222-2.209
		c0.425-0.55,0.795-1.129,1.133-1.771l0.048-0.106c0.151-0.395,0.239-0.795,0.261-1.186c0.072-1.166-0.408-2.313-1.254-2.995
		C443.598,154.469,443.037,154.324,442.141,154.257z M422.632,78.033c-0.311,1.269-0.906,2.405-2.2,4.194
		c-1.901,2.631-4.181,5.118-6.591,7.191c-2.456,2.112-5.123,3.96-7.928,5.495c-0.265,0.077-0.469,0.087-0.608,0.091l-0.002-17.993
		c-0.014-0.214,0.016-0.425,0.089-0.633c0.059-0.167,0.181-0.515,0.439-0.688c0.056-0.038,0.119-0.065,0.224-0.093l9.358-2.702
		c0.805-0.232,1.618-0.36,2.456-0.381l0.387-0.006c0.588,0,1.479,0.045,2.433,0.44c0.658,0.272,1.339,0.554,1.773,1.189
		C423.291,75.348,422.83,77.23,422.632,78.033z"/>
	<path class="st0" d="M388.295,73.648c-0.556-1.496-2.783-6.549-8.141-8.745v0c-2.872-1.175-5.474-1.059-7.772-0.958
		c-1.389,0.062-2.013,0.194-5.476,0.931l-2.37,0.502c-4.799,1.012-6.996,1.471-8.793,1.751c-2.558,0.399-5.181,0.657-7.797,0.767
		c-0.789-0.043-1.562,0.079-2.3,0.36c-0.609,0.232-1.443,0.55-2.067,1.474c-0.204,0.304-0.673,1.124-0.606,2.163
		c0.029,0.454,0.17,0.862,0.537,1.558c0.193,0.366,0.305,0.542,0.448,0.765c0.074,0.116,0.158,0.246,0.282,0.468
		c0.333,0.594,0.338,0.715,0.342,0.829c0.005,0.075-0.003,0.137-0.012,0.296c0.045,37.098,0.023,63.101,0,66.062
		c-0.013,1.593-0.223,3.008-0.399,3.929c-0.195,1.03-0.418,2.198-1.035,3.633c-0.317,0.738-0.703,1.462-1.143,2.143
		c-0.715,1.084-0.86,2.388-0.382,3.399c0.445,0.947,1.267,1.34,1.6,1.465c0.317,0.118,0.657,0.179,1.01,0.179
		c0.169,0,0.348-0.015,0.534-0.043l0.123-0.026c1.406-0.401,2.84-0.744,4.262-1.021c1.502-0.291,3.024-0.513,4.541-0.661
		c0.329-0.038,0.649-0.127,0.948-0.263c1.227-0.551,1.812-1.724,2.002-2.192c0.1-0.237,0.245-0.603,0.399-1.051
		c0.757-2.193,0.92-4.071,1.017-7.719c0.032-1.249,0.058-2.756,0.056-4.464v-18.866c0-0.102,0.019-0.367,0.196-0.616
		c0.073-0.103,0.163-0.188,0.277-0.262c15.256-9.903,22.729-18.892,22.804-18.983c5.842-7.131,7.235-14.167,7.455-15.505
		C389.285,82.234,389.962,78.134,388.295,73.648z M374.546,84.88l-0.001,0.002c-0.293,1.271-0.855,2.406-2.077,4.185
		c-2.267,3.307-4.625,5.702-6.204,7.13c-2.305,2.083-4.806,3.902-7.438,5.407c-0.185,0.054-0.332,0.073-0.439,0.077l-0.002-18.001
		c-0.014-0.224,0.016-0.445,0.087-0.66c0.051-0.154,0.17-0.514,0.39-0.669c0.049-0.034,0.097-0.056,0.184-0.08l8.819-2.625
		c0.745-0.222,1.497-0.341,2.236-0.354l0.314-0.004c0.562,0,1.414,0.046,2.315,0.449c0.611,0.273,1.242,0.555,1.647,1.188
		C375.176,82.173,374.735,84.07,374.546,84.88z"/>
	<path class="st0" d="M519.38,124.896c-0.359-1.816-0.543-3.755-0.545-5.763l-0.001-70.614c0.008-0.171,0.041-0.339,0.096-0.497
		c0.045-0.127,0.091-0.211,0.135-0.296c0.102-0.194,0.239-0.459,0.348-0.875c0.107-0.418,0.358-1.396-0.27-2.249
		c-0.418-0.57-1.09-0.885-1.952-0.887c-1.631,0.093-3.295,0.271-4.947,0.53c-1.611,0.252-3.235,0.585-4.771,0.978
		c-0.409,0.079-0.782,0.239-1.106,0.473c-0.927,0.664-1.418,1.887-1.265,3.134v42.176l-13.797-38.919
		c-0.071-0.204-0.16-0.49-0.241-0.849c-0.041-0.173-0.067-0.316-0.104-0.514c-0.077-0.423-0.164-0.903-0.549-1.419
		c-0.36-0.484-0.884-0.862-1.477-1.065c-0.437-0.148-0.906-0.202-1.272-0.16c-2.039,0.049-4.11,0.234-6.154,0.549
		c-1.861,0.288-3.74,0.689-5.646,1.212c-0.5,0.172-0.909,0.456-1.211,0.839c-0.321,0.403-0.664,1.133-0.472,2.328
		c0.143,0.896,0.509,1.555,0.848,2.084c0.263,0.408,0.435,0.62,0.847,1.129l0.661,0.821c0.502,0.631,0.563,0.729,0.63,0.907
		c0.083,0.219,0.129,0.47,0.138,0.714c0.214,56.269,0.123,69.35,0.009,70.417c-0.036,0.34-0.062,0.679-0.086,1.018
		c-0.029,0.403-0.059,0.807-0.111,1.203l-0.029,0.209c-0.098,0.697-0.218,1.565-0.109,2.67c0.043,0.424,0.132,1.306,0.84,1.981
		c0.503,0.481,1.209,0.747,1.987,0.747c0.072,0,0.146-0.001,0.192-0.006c1.822-0.108,3.662-0.291,5.468-0.544
		c1.821-0.253,3.59-0.571,5.408-0.972l0.169-0.053c0.488-0.203,0.889-0.508,1.189-0.908c0.664-0.887,0.544-1.871,0.479-2.404
		c-0.061-0.484-0.167-0.792-0.359-1.344l-0.071-0.207c-0.216-0.619-0.334-0.964-0.412-1.22c-0.142-0.469-0.235-0.997-0.271-1.459
		l-0.002-31.94l12.247,34.193c0.386,1.352,1.408,2.864,3.114,3.059c0.312,0.037,0.636,0.026,0.865-0.017
		c1.466-0.166,2.937-0.362,4.373-0.585c1.809-0.281,3.641-0.614,5.403-0.983c0.526-0.088,0.984-0.299,1.362-0.63
		c1.429-1.246,0.994-3.293,0.574-5.271L519.38,124.896z"/>
	<path class="st0" d="M471.634,50.477L471.634,50.477c-1.073-0.76-2.194-0.432-3.511-0.046c-0.271,0.081-0.574,0.17-0.912,0.261
		c-0.396,0.107-0.794,0.188-1.207,0.271c-0.425,0.086-0.849,0.173-1.273,0.283c-1.81,0.469-8.333,1.401-19.482,2.785
		c-0.664,0.146-1.317,0.436-1.888,0.839c-0.873,0.619-1.386,1.374-1.663,1.898l-2.082,8.375l-0.023,0.144
		c-0.047,0.488-0.028,1.432,0.612,2.278c0.49,0.643,1.101,1.016,1.819,1.109c0.251,0.032,0.479,0.026,1.172-0.089
		c0.333-0.054,0.609-0.108,0.714-0.13l4.484-0.639v58.51c0,0.007-0.01,0.72-0.474,1.088c-0.12,0.095-0.265,0.164-0.339,0.182
		l-3.845,0.546c-0.359,0.061-1.052,0.255-1.655,0.877c-0.803,0.829-0.855,1.819-0.853,2.092l0.002,8.875
		c-0.071,1.227,0.51,1.858,0.867,2.128c0.37,0.278,0.827,0.425,1.321,0.425c0.324,0,0.596-0.06,0.788-0.109
		c0.82-0.205,2.79-0.557,4.767-0.901l13.604-1.934c1.085-0.174,1.889-0.29,2.461-0.37c0.759-0.105,1.543-0.215,2.346-0.831
		c0.545-0.419,0.87-0.896,1.024-1.123c0.377-0.551,0.641-1.146,0.824-1.905c0.184-1.177,0.423-2.372,0.712-3.552
		c0.308-1.255,0.681-2.521,1.11-3.766c0.175-0.505,0.366-1.272,0.015-2.095c-0.526-1.228-1.932-1.784-3.997-1.567l-4.62,0.649
		c-0.073-0.316-0.129-0.834-0.096-1.358l0.002-0.1c-0.139-33.519-0.143-55.944-0.01-57.129c0.036-0.305,0.133-0.485,0.185-0.563
		c0.035-0.014,0.094-0.026,0.202-0.035L466,65.381c0.422-0.033,1.063-0.163,1.734-0.597c0.836-0.543,1.257-1.274,1.435-1.663
		c0.585-1.284,1.149-2.581,1.679-3.856c0.63-1.517,1.238-3.07,1.813-4.632c0.189-0.538,0.364-1.378,0.126-2.321
		C472.71,52.007,472.476,51.073,471.634,50.477z"/>
	<path class="st0" d="M339.904,134.585c-4.914-13.252-14.99-17.455-23.88-21.163l-0.001,0c-5.965-2.488-11.116-4.636-13.598-9.287
		c-1.442-2.905-1.363-7.199,0.207-10.949c1.96-4.825,7.091-8.923,11.956-9.536l0.365-0.055c4.529-0.784,8.103,1.884,9.344,6.99
		c0.195,0.765,0.337,1.642,0.419,2.607c-0.054,0.413-0.152,0.815-0.292,1.197c-0.498,1.351-1.307,2.312-1.32,2.33l-0.182,0.2
		c-0.371,0.407-0.879,0.965-0.976,1.853c-0.077,0.697,0.127,1.405,0.575,1.996c0.854,1.126,2.207,1.224,2.857,1.271
		c2.438,0.176,3.536,0.012,3.654-0.007c1.712-0.28,3.687-0.451,6.036-0.523c0.433,0.044,1.07,0.035,1.777-0.242
		c0.966-0.379,1.555-1.059,1.82-1.431l0.256-0.359l0.021-0.438c0.222-4.474,0.33-8.841-0.759-13.078
		c-2.888-11.869-12.648-18.52-24.256-16.558c-10.309,1.317-20.36,9.261-24.441,19.309c-3.245,7.746-3.215,16.277,0.086,22.833
		l0.049,0.095c4.618,8.734,12.772,12.136,19.967,15.137c7.443,3.105,13.872,5.786,16.875,13.885
		c3.522,9.274-0.861,19.904-10.43,25.278c-4.217,2.401-9.425,3.108-13.594,1.844c-2.972-0.901-5.227-2.746-6.523-5.337
		c-3.002-5.94-0.679-14.54,2.236-20.133c0.137-0.179,0.285-0.341,0.455-0.493c0.239-0.216,0.642-0.471,1.133-0.718
		c0.4-0.201,0.697-0.314,0.921-0.399c0.492-0.188,1.166-0.446,1.503-1.268c0.438-1.072-0.108-2.149-0.714-2.749
		c-0.411-0.403-0.943-0.675-1.533-0.785c-0.225-0.048-1.467-0.479-8.044-4.037c-0.397-0.199-0.831-0.315-1.303-0.347
		c-0.263-0.014-1.057-0.061-1.87,0.415c-0.649,0.381-1.144,0.967-1.47,1.742c-6.13,10.005-9.797,25.033-4.193,36.123
		c4.034,8.054,12.697,13.057,22.607,13.057c1.274,0,2.576-0.082,3.867-0.245c4.385-0.554,8.649-1.996,12.669-4.284
		C338.315,169.263,345.932,150.455,339.904,134.585z M315.639,114.345L315.639,114.345L315.639,114.345L315.639,114.345z"/>
	<path class="st0" d="M576.044,105.1l-0.002-21.688c0.039-2.619-0.312-7.087-3.097-7.581c-0.302-0.056-0.629-0.054-0.923-0.003
		l-17.346,2.603c-0.425,0.045-1.492,0.255-2.206,1.224c-0.489,0.662-0.58,1.36-0.604,1.898c-0.054,1.271,0.307,2.463,0.604,3.016
		l-0.007,0.004c0.32,0.643,0.744,2.095,0.941,5.331c0.064,1.994,0.888,3.283,2.203,3.448c0.141,0.018,0.464,0.041,0.785-0.054
		l5.328-0.799v14.141c-1.509,1.873-4.421,4.828-8.242,5.574c-6.338,1.227-10.791-4.793-12.263-6.784
		c-3.561-4.826-3.997-10.318-4.419-15.632c-0.308-3.876-1.124-14.172,4.344-25.148c1.953-3.921,4.168-8.365,8.329-10.032
		c2.56-1.025,6.333-1.148,8.561,1.005c1.297,1.253,1.834,2.897,2.051,4.024c0.107,0.682,0.178,1.394,0.208,2.113
		c0.033,0.837,0.012,1.689-0.065,2.559c-0.005,0.081-0.016,0.215-0.036,0.373c-0.092,0.679-0.278,1.111-0.445,1.496
		c-0.229,0.533-0.544,1.263-0.19,2.112c0.64,1.544,2.56,1.497,3.412,1.479c0.371-0.011,0.676-0.056,0.82-0.084l7.781-1.111
		c1.473-0.114,2.649-0.877,3.069-1.991c0.116-0.304,0.174-0.633,0.167-0.915c0.022-1.512,0.034-14.963-6.261-21.487
		c-6.755-7-16.739-6.297-23.238-3.567c-8.951,3.757-13.33,11.902-16.528,17.85c-7.959,14.801-6.703,29.021-6.229,34.377
		c0.579,6.567,1.301,14.74,6.902,22.349c1.513,2.057,9.649,12.319,21.343,12.319c0.934,0,1.881-0.066,2.811-0.197
		c0.329-0.045,0.613-0.094,0.851-0.137c10.647-1.931,17.612-10.874,20.07-14.57c0.059-0.075,0.156-0.206,0.268-0.374
		c0.467-0.705,1.104-2.021,1.237-5.295C576.047,106.504,576.062,105.867,576.044,105.1z"/>
	<polygon class="st0" points="149.071,92.007 154.734,69.868 160.233,90.422 165.158,89.722 180.192,28.939 172.865,29.98 
		162.644,70.807 158.561,55.005 164.688,31.141 157.035,32.229 154.886,40.764 152.829,32.826 145.133,33.92 151.052,56.037 
		146.745,73.113 136.745,35.111 129.564,36.132 144.144,92.707 	"/>
	<polygon class="st0" points="191.379,48.58 191.379,41.555 176.615,43.652 176.615,76.957 191.379,74.86 191.379,67.834 
		183.62,68.936 183.62,61.696 190.753,60.683 190.753,53.658 183.62,54.671 183.62,49.683 	"/>
	<polygon class="st0" points="208.523,65.4 200.765,66.502 200.765,40.223 193.759,41.218 193.759,74.523 208.523,72.426 	"/>
	<path class="st0" d="M217.201,71.41c0.454,0,0.925-0.035,1.412-0.104l-0.14-0.99l0.141,0.99c4.531-0.643,7.465-4.042,8.722-10.104
		l0.198-0.954l-6.846-1.606l-0.141,1.1c-0.287,2.238-0.689,3.241-0.976,3.689c-0.451,0.704-0.922,0.844-1.239,0.889
		c-0.305,0.044-0.937,0.134-1.509-1.173c-0.361-0.826-0.792-2.828-0.792-7.672c0-3.099,0.153-5.558,0.455-7.311
		c0.384-2.229,0.792-2.919,0.95-3.115c0.3-0.371,0.674-0.577,1.178-0.648c0.379-0.056,0.638,0.042,0.896,0.33
		c0.157,0.176,0.555,0.795,0.853,2.739l0.213,1.39l6.641-3.511l-0.207-0.77c-1.792-6.685-5.706-7.582-8.678-7.165
		c-6.383,0.907-9.619,7.259-9.619,18.878c0,6.812,1.261,11.218,3.856,13.47C213.831,70.858,215.384,71.41,217.201,71.41z"/>
	<path class="st0" d="M236.348,68.69c0.454,0,0.925-0.035,1.412-0.104v-0.001c2.844-0.404,5.169-2.069,6.911-4.951
		c1.696-2.808,2.521-6.904,2.521-12.524c0-7.674-1.326-12.556-4.054-14.923c-1.508-1.31-3.411-1.811-5.659-1.493
		c-6.383,0.907-9.619,7.259-9.619,18.878c0,6.812,1.261,11.218,3.856,13.47C232.978,68.138,234.531,68.69,236.348,68.69z
		 M235.907,60.434c-0.361-0.826-0.792-2.828-0.792-7.672c0-3.095,0.153-5.555,0.456-7.312c0.383-2.227,0.791-2.919,0.948-3.114
		c0.301-0.371,0.675-0.577,1.178-0.648c0.09-0.013,0.172-0.019,0.245-0.019c0.334,0,0.505,0.119,0.627,0.241
		c0.073,0.073,0.457,0.548,0.851,2.722c0.301,1.665,0.454,4.077,0.454,7.17c0,2.716-0.152,4.874-0.452,6.415
		c-0.367,1.888-0.736,2.557-0.922,2.788c-0.28,0.346-0.625,0.538-1.084,0.603v-0.001C237.113,61.653,236.478,61.741,235.907,60.434z
		"/>
	<polygon class="st0" points="259.908,42.698 255.909,32.389 249.259,33.334 249.259,66.639 256.264,65.644 256.264,51.802 
		258.195,56.61 261.755,56.105 263.65,50.904 263.65,64.596 270.656,63.601 270.656,30.296 263.907,31.254 	"/>
	<polygon class="st0" points="288.426,54.05 280.667,55.152 280.667,47.912 287.8,46.899 287.8,39.874 280.667,40.887 
		280.667,35.899 288.426,34.796 288.426,27.771 273.662,29.868 273.662,63.173 288.426,61.076 	"/>
	<polygon class="st0" points="301.755,70.321 308.76,69.326 308.76,17.705 322.276,15.785 322.276,8.759 288.302,13.585 
		288.302,20.611 301.755,18.7 	"/>
	<path class="st0" d="M312.454,41.558c0,6.812,1.261,11.217,3.855,13.469c1.263,1.097,2.817,1.648,4.635,1.648
		c0.454,0,0.925-0.035,1.411-0.104h0.001c2.843-0.404,5.167-2.07,6.909-4.951c1.696-2.809,2.521-6.906,2.521-12.524
		c0-7.674-1.326-12.556-4.054-14.923c-1.509-1.309-3.411-1.812-5.658-1.493C315.69,23.587,312.454,29.939,312.454,41.558z
		 M320.5,48.419c-0.361-0.826-0.792-2.828-0.792-7.672c0-3.096,0.153-5.555,0.456-7.312c0.383-2.228,0.79-2.918,0.947-3.113
		c0.301-0.371,0.676-0.577,1.178-0.649c0.089-0.012,0.169-0.018,0.241-0.018c0.342,0,0.517,0.125,0.634,0.242
		c0.072,0.073,0.456,0.547,0.849,2.721c0.302,1.666,0.454,4.079,0.454,7.17c0,2.715-0.152,4.874-0.451,6.416
		c-0.367,1.888-0.734,2.556-0.923,2.788c-0.278,0.345-0.622,0.536-1.083,0.602v-0.001C321.708,49.638,321.072,49.727,320.5,48.419z"
		/>
</g>
</svg>
