<?xml version="1.0" encoding="UTF-8"?><svg id="Layer_1" xmlns="http://www.w3.org/2000/svg" width="944.308" height="113.825" viewBox="0 0 944.308 113.825"><defs><style>.cls-1{fill:#fff;}.cls-1,.cls-2,.cls-3,.cls-4{stroke:#000;stroke-miterlimit:10;}.cls-3{fill:#d1d3d4;}.cls-4{fill:#a7a9ac;}</style></defs><path class="cls-4" d="M68.481,58.117c-.289-4.401-.957-8.569-2.002-12.503-1.047-3.933-2.598-7.361-4.655-10.284-2.057-2.923-4.709-5.232-7.957-6.928-3.247-1.695-7.182-2.506-11.799-2.435l-34.315.324c-1.732,0-3.176.29-4.33.866-.65.362-1.191.939-1.624,1.732-.433.795-.65,1.805-.65,3.031l-.65,75.017c0,1.082.415,2.003,1.245,2.761.829.758,1.857,1.172,3.086,1.245l5.954.216c1.226.071,2.273-.344,3.139-1.245s1.299-1.966,1.299-3.193l-.108-20.351c2.453.578,5.142.957,8.065,1.136,2.923.181,6.26.235,10.013.162,5.629-.071,10.68-.775,15.155-2.111,4.474-1.335,8.244-3.247,11.312-5.737,3.066-2.49,5.358-5.538,6.874-9.147,1.516-3.608,2.165-7.794,1.949-12.557ZM45.153,72.46c-.687.83-1.607,1.461-2.76,1.894-.433.146-1.066.271-1.895.379-.83.108-1.769.2-2.815.271-1.047.073-2.111.127-3.193.162-1.082.037-2.056.054-2.923.054h-4.33c-1.732,0-3.572-.054-5.521-.162-1.948-.108-3.32-.341-4.113-.704-1.228-.433-2.002-1.064-2.327-1.894-.325-.829-.487-2.038-.487-3.627,0-1.515.162-2.687.487-3.518.325-.829,1.1-1.462,2.327-1.895.793-.36,2.165-.595,4.113-.704,1.949-.108,3.789-.162,5.521-.162h4.33c.866,0,1.84.019,2.923.054,1.082.037,2.147.091,3.193.162,1.046.073,1.984.162,2.815.271.829.108,1.461.235,1.895.379,1.153.433,2.074,1.065,2.76,1.895.685.83,1.029,2.002,1.029,3.518,0,1.588-.344,2.798-1.029,3.627Z"/><path class="cls-4" d="M136.052,66.994c-1.732-3.752-3.935-6.657-6.603-8.714-2.671-2.057-5.648-3.446-8.931-4.167-3.285-.721-6.549-1.153-9.797-1.299-2.455-.144-4.476-.324-6.062-.541-1.588-.216-2.852-.558-3.789-1.028-.939-.469-1.607-1.046-2.002-1.732-.398-.685-.595-1.57-.595-2.652,0-1.299.433-2.309,1.299-3.031.866-.721,1.911-1.245,3.139-1.57,1.226-.325,2.471-.504,3.735-.541,1.261-.036,2.327-.054,3.193-.054,1.587,0,3.464.091,5.629.27,2.165.181,4.149.416,5.954.704,2.309.362,3.751.2,4.33-.487.576-.685.829-1.749.758-3.193l-.433-8.552c-.146-1.37-.487-2.327-1.029-2.869s-1.859-.991-3.951-1.353c-2.094-.361-4.151-.65-6.17-.866-2.021-.216-4.511-.325-7.469-.325-6.928,0-12.449,1.553-16.562,4.655-4.403,3.393-6.603,8.517-6.603,15.372,0,5.196,1.37,9.166,4.113,11.907,1.443,1.445,3.318,2.598,5.629,3.464,2.309.866,5.521,1.588,9.634,2.165.576.073,1.37.181,2.381.325,1.01.145,2.002.398,2.977.758.974.362,1.821.904,2.544,1.624.721.722,1.082,1.732,1.082,3.031,0,1.372-.379,2.419-1.136,3.139-.758.722-1.696,1.209-2.815,1.461-1.12.254-2.327.379-3.626.379h-3.464c-3.031,0-6.37-.287-10.013-.866-3.645-.576-7.127-1.118-10.446-1.624-1.588-.216-2.869-.306-3.843-.27-.975.037-1.859.56-2.652,1.57-.506.722-1.011,2.039-1.516,3.951-.505,1.913-.957,4.15-1.353,6.711-.398,2.563-.722,5.25-.975,8.065-.254,2.815-.379,5.521-.379,8.118,0,2.238.271,4.059.812,5.467s1.461,2.616,2.76,3.626c4.257,3.392,13.711,5.088,28.362,5.088,1.948,0,4.203-.019,6.766-.054,2.561-.037,5.231-.308,8.011-.812,2.777-.505,5.502-1.353,8.172-2.544,2.669-1.191,5.051-2.94,7.145-5.25,2.092-2.309,3.735-5.304,4.925-8.985,1.191-3.681,1.713-8.227,1.57-13.64-.073-6.133-.974-11.077-2.706-14.83Z"/><path class="cls-4" d="M207.487,25.859l-5.738-.433c-.866-.072-1.696.216-2.49.866-.794.65-1.299,1.48-1.515,2.49-.579,2.598-1.318,5.45-2.219,8.552-.903,3.104-1.894,6.208-2.976,9.31-1.082,3.104-2.327,6.153-3.735,9.147-1.407,2.996-2.906,5.683-4.493,8.064-1.588,2.382-3.193,4.313-4.817,5.792-1.624,1.48-3.266,2.219-4.925,2.219-1.588,0-3.231-.739-4.926-2.219-1.696-1.478-3.32-3.41-4.871-5.792-1.553-2.381-3.031-5.069-4.438-8.064-1.407-2.994-2.652-6.043-3.735-9.147-1.082-3.102-2.076-6.206-2.977-9.31-.903-3.102-1.642-5.954-2.219-8.552-.217-1.01-.722-1.84-1.516-2.49-.795-.649-1.661-.937-2.598-.866l-5.629.433c-1.299.145-2.365.595-3.193,1.353-.83.758-1.174,1.642-1.029,2.652,1.516,10.321,3.392,19.143,5.629,26.467,2.236,7.326,4.98,13.585,8.227,18.782,0,2.67-.019,5.269-.054,7.794-.037,2.527-.091,5.071-.162,7.632-.073,2.562-.127,5.196-.162,7.903-.037,2.706-.054,5.647-.054,8.822,0,1.445.541,2.346,1.624,2.706,1.082.362,2.273.614,3.572.758.72.071,1.695.125,2.923.162,1.226.035,2.49.054,3.789.054h23.599c1.299,0,2.561-.019,3.789-.054,1.227-.037,2.201-.091,2.923-.162,1.299-.144,2.49-.396,3.572-.758,1.082-.36,1.624-1.261,1.624-2.706,0-3.175-.037-6.116-.108-8.822-.073-2.707-.127-5.34-.162-7.903-.037-2.561-.091-5.105-.162-7.632-.073-2.525-.108-5.123-.108-7.794,3.318-5.196,6.097-11.456,8.335-18.782,2.236-7.324,4.076-16.146,5.521-26.467.144-1.01-.181-1.894-.975-2.652-.795-.758-1.84-1.208-3.139-1.353Z"/><path class="cls-4" d="M277.866,74.463c-.722-.793-1.624-1.191-2.707-1.191-2.887.145-5.737.308-8.552.487-2.814.181-5.593.27-8.335.27-3.104,0-6.008-.162-8.714-.487-2.707-.325-5.052-1.064-7.037-2.219-1.985-1.153-3.536-2.815-4.655-4.98-1.12-2.165-1.678-5.087-1.678-8.768,0-3.391.541-6.079,1.624-8.064,1.082-1.984,2.579-3.518,4.492-4.601,1.911-1.082,4.131-1.786,6.657-2.111,2.526-.325,5.196-.487,8.011-.487,1.803,0,3.589.073,5.358.217,1.768.145,3.554.289,5.358.433,1.154.145,2.165-.216,3.031-1.082.866-.866,1.262-1.911,1.191-3.139l-.433-8.552c-.073-1.226-.487-2.219-1.245-2.976s-1.751-1.172-2.977-1.245c-1.444-.071-2.906-.144-4.384-.217-1.48-.071-2.976-.108-4.492-.108-2.598,0-5.233.108-7.902.325-2.671.216-5.304.632-7.903,1.245-2.598.614-5.106,1.461-7.523,2.544-2.419,1.082-4.709,2.49-6.874,4.222-4.547,3.609-8.119,8.3-10.717,14.073-2.598,5.774-4.005,12.557-4.221,20.351-.217,6.351.306,11.837,1.569,16.454,1.262,4.619,3.013,8.517,5.25,11.691,2.236,3.176,4.853,5.737,7.848,7.686,2.994,1.949,6.152,3.464,9.472,4.547,3.318,1.082,6.658,1.823,10.013,2.219,3.356.396,6.549.631,9.58.704h1.624c1.659,0,3.681-.091,6.062-.27,2.382-.181,4.69-.65,6.928-1.407,2.236-.758,4.149-1.857,5.738-3.302,1.586-1.443,2.417-3.391,2.49-5.846.216-7.721,0-15.515-.65-23.382-.145-1.226-.579-2.236-1.299-3.031Z"/><path class="cls-4" d="M348.319,27.157c-.795-.72-1.805-1.153-3.031-1.299l-5.629-.433c-1.082-.144-2.057.253-2.923,1.19-.866.939-1.299,2.021-1.299,3.247v15.48c0,1.228-.416,2.202-1.245,2.923-.83.722-1.823,1.155-2.977,1.299-1.948.216-4.096.398-6.441.541-2.346.145-4.565.216-6.657.216s-4.313-.071-6.657-.216c-2.346-.144-4.493-.325-6.441-.541-1.155-.144-2.148-.576-2.976-1.299-.831-.721-1.245-1.695-1.245-2.923v-15.48c0-1.226-.433-2.309-1.299-3.247-.866-.937-1.84-1.335-2.923-1.19l-5.737.433c-1.228.145-2.219.579-2.977,1.299-.758.722-1.136,1.624-1.136,2.706l-.65,77.074c0,1.082.396,2.003,1.191,2.761.793.758,1.84,1.172,3.139,1.245l5.954.216c1.153.071,2.182-.344,3.085-1.245.901-.901,1.353-1.966,1.353-3.193v-15.263c0-1.226.414-2.2,1.245-2.923.829-.721,1.821-1.153,2.976-1.299,1.949-.361,4.095-.596,6.441-.704,2.344-.108,4.563-.162,6.657-.162s4.311.054,6.657.162c2.344.108,4.493.343,6.441.704,1.154.145,2.147.578,2.977,1.299.829.722,1.245,1.696,1.245,2.923v15.263c0,1.228.433,2.292,1.299,3.193.866.901,1.912,1.316,3.139,1.245l5.954-.216c1.226-.073,2.255-.487,3.085-1.245.829-.758,1.245-1.678,1.245-2.761l-.65-77.074c0-1.082-.398-1.984-1.19-2.706Z"/><path class="cls-4" d="M431.655,51.514c-1.769-5.34-4.205-9.959-7.307-13.856-3.393-4.33-7.398-7.505-12.016-9.526-4.619-2.02-10.104-3.031-16.454-3.031s-11.837,1.011-16.454,3.031c-4.619,2.021-8.624,5.196-12.016,9.526-3.031,3.897-5.431,8.481-7.198,13.748-1.77,5.269-2.761,10.717-2.977,16.346-.145,5.486.45,10.681,1.786,15.588,1.335,4.909,3.373,9.382,6.116,13.423,3.681,5.413,8.082,9.274,13.207,11.583,5.123,2.309,10.933,3.464,17.428,3.464,6.999,0,13.026-1.281,18.078-3.843,5.051-2.561,9.309-6.368,12.774-11.42,2.741-3.897,4.78-8.281,6.116-13.152,1.335-4.871,1.93-10.013,1.786-15.426-.145-5.629-1.101-11.113-2.869-16.454ZM409.41,67.102c-1.228,2.238-3.085,4.059-5.575,5.466s-5.142,2.111-7.957,2.111c-2.744,0-5.358-.704-7.848-2.111s-4.349-3.229-5.575-5.466c-.722-1.227-1.282-2.669-1.678-4.33-.398-1.659-.595-3.427-.595-5.304,0-2.381.341-4.617,1.029-6.711.685-2.092,1.678-3.914,2.976-5.467,1.299-1.551,2.923-2.76,4.872-3.626s4.221-1.299,6.82-1.299,4.871.433,6.82,1.299,3.572,2.056,4.872,3.572c1.299,1.515,2.29,3.32,2.976,5.412.685,2.094,1.029,4.367,1.029,6.82,0,3.753-.722,6.966-2.165,9.635Z"/><path class="cls-4" d="M505.088,66.994c-1.731-3.752-3.933-6.657-6.603-8.714-2.671-2.057-5.648-3.446-8.931-4.167-3.285-.721-6.55-1.153-9.796-1.299-2.456-.144-4.476-.324-6.063-.541-1.588-.216-2.852-.558-3.788-1.028-.939-.469-1.608-1.046-2.003-1.732-.398-.685-.596-1.57-.596-2.652,0-1.299.434-2.309,1.299-3.031.866-.721,1.912-1.245,3.139-1.57,1.226-.325,2.471-.504,3.734-.541,1.262-.036,2.328-.054,3.193-.054,1.587,0,3.464.091,5.629.27,2.165.181,4.149.416,5.954.704,2.309.362,3.752.2,4.33-.487.576-.685.829-1.749.758-3.193l-.433-8.552c-.145-1.37-.487-2.327-1.029-2.869s-1.859-.991-3.951-1.353c-2.094-.361-4.151-.65-6.171-.866-2.021-.216-4.51-.325-7.468-.325-6.929,0-12.449,1.553-16.563,4.655-4.403,3.393-6.603,8.517-6.603,15.372,0,5.196,1.37,9.166,4.113,11.907,1.443,1.445,3.318,2.598,5.629,3.464,2.309.866,5.521,1.588,9.634,2.165.576.073,1.37.181,2.382.325,1.009.145,2.002.398,2.976.758.975.362,1.821.904,2.544,1.624.721.722,1.082,1.732,1.082,3.031,0,1.372-.379,2.419-1.136,3.139-.758.722-1.696,1.209-2.815,1.461-1.12.254-2.328.379-3.626.379h-3.464c-3.032,0-6.37-.287-10.013-.866-3.645-.576-7.127-1.118-10.446-1.624-1.588-.216-2.869-.306-3.843-.27-.975.037-1.859.56-2.652,1.57-.506.722-1.011,2.039-1.516,3.951-.505,1.913-.957,4.15-1.353,6.711-.398,2.563-.722,5.25-.975,8.065-.254,2.815-.379,5.521-.379,8.118,0,2.238.271,4.059.812,5.467s1.461,2.616,2.76,3.626c4.257,3.392,13.711,5.088,28.362,5.088,1.947,0,4.202-.019,6.766-.054,2.56-.037,5.231-.308,8.01-.812,2.777-.505,5.501-1.353,8.173-2.544,2.669-1.191,5.05-2.94,7.144-5.25,2.092-2.309,3.735-5.304,4.924-8.985,1.191-3.681,1.713-8.227,1.57-13.64-.073-6.133-.973-11.077-2.707-14.83Z"/><path class="cls-4" d="M569.228,27.428c-.758-.758-1.751-1.172-2.976-1.245-3.897-.144-7.902-.271-12.015-.379-4.114-.108-8.444-.162-12.991-.162s-8.877.054-12.991.162c-4.113.108-8.118.235-12.016.379-1.227.073-2.218.487-2.975,1.245-.759.758-1.174,1.75-1.245,2.976l-.867,29.661c0,1.155.396,2.13,1.191,2.923.793.795,1.803,1.228,3.03,1.299,4.041.145,7.595.27,10.663.379,3.067.108,5.863.162,8.39.162l-.65,42.109c-.073,1.082.325,2.003,1.191,2.761.866.758,1.911,1.172,3.138,1.245l6.171.216c1.153.071,2.181-.344,3.084-1.245.902-.901,1.353-1.966,1.353-3.193l-.542-41.893c3.248-.071,6.442-.144,9.58-.216,3.139-.071,6.26-.179,9.364-.325,1.226-.071,2.235-.504,3.03-1.299s1.154-1.767,1.082-2.923l-.758-29.661c-.073-1.226-.488-2.219-1.245-2.976Z"/><path class="cls-4" d="M641.036,75.654c-.722-1.227-1.515-1.895-2.381-2.003-.866-.108-1.806-.125-2.815-.054-1.229.073-2.453.145-3.68.216-1.229.073-2.456.108-3.68.108-3.682,0-6.966-.704-9.851-2.111-2.887-1.407-5.16-3.41-6.821-6.008-.216-.36-.271-.666-.161-.92.108-.252.341-.379.703-.379,3.607,0,6.891-.487,9.851-1.461,2.958-.975,5.466-2.363,7.523-4.168,2.057-1.803,3.643-4.005,4.764-6.603,1.117-2.598,1.676-5.483,1.676-8.66,0-2.526-.504-4.872-1.515-7.037s-2.398-4.041-4.167-5.629c-1.768-1.587-3.898-2.832-6.387-3.735-2.489-.902-5.215-1.316-8.173-1.245l-35.506.541c-1.155,0-2.148.398-2.978,1.19-.83.795-1.244,1.77-1.244,2.923l-.542,76.316c0,1.082.415,2.003,1.245,2.761.829.758,1.895,1.172,3.193,1.245l6.82.216c1.154.071,2.183-.344,3.086-1.245.901-.901,1.352-1.966,1.352-3.193l-.866-41.135c0-.721.361-1.01,1.082-.866.36.145.541.398.541.758.218,2.165.469,4.151.759,5.954.287,1.805.631,3.572,1.027,5.304.396,1.732.867,3.464,1.407,5.196.542,1.732,1.209,3.536,2.004,5.412,1.515,3.681,3.301,7.001,5.358,9.959,2.057,2.96,4.24,5.521,6.55,7.686,3.03,2.744,6.169,4.817,9.417,6.224,3.246,1.407,6.495,2.111,9.743,2.111,6.638,0,10.825-1.515,12.556-4.546.289-.577.559-1.478.813-2.707.251-1.226.449-2.652.595-4.276.143-1.624.271-3.372.379-5.25.108-1.876.198-3.681.271-5.412.07-3.392-.037-6.495-.324-9.31-.291-2.815-.832-4.871-1.625-6.17ZM609.049,53.571c-1.048.073-2.112.127-3.193.162-1.084.037-2.057.055-2.923.055-1.661,0-3.484-.071-5.468-.216-1.984-.144-3.374-.361-4.167-.65-1.228-.433-2.002-1.064-2.328-1.895-.324-.829-.487-2.038-.487-3.626,0-1.516.163-2.687.487-3.518.326-.829,1.1-1.461,2.328-1.894.433-.144,1.01-.271,1.732-.379.72-.108,1.532-.198,2.435-.27.903-.071,1.824-.125,2.762-.162.936-.036,1.841-.054,2.707-.054s1.839.018,2.923.054c1.081.037,2.145.091,3.193.162,1.044.073,2.002.162,2.867.27.868.108,1.517.235,1.949.379,1.154.433,2.075,1.065,2.762,1.894.685.831,1.026,2.002,1.026,3.518,0,1.588-.341,2.798-1.026,3.626-.687.831-1.608,1.462-2.762,1.895-.432.145-1.081.27-1.949.379-.866.108-1.824.2-2.867.271Z"/><path class="cls-4" d="M723.9,86.641c-1.623-6.747-3.625-13.531-6.008-20.351-2.381-6.82-4.962-13.44-7.739-19.864-2.779-6.422-5.539-12.051-8.281-16.887-1.156-2.236-2.887-3.392-5.198-3.464-1.731-.071-3.319-.125-4.761-.162-1.445-.035-2.744-.054-3.898-.054h-4.383c-1.48,0-2.942.073-4.385.216-1.372.145-2.453.47-3.248.975-.795.505-1.48,1.336-2.057,2.49-2.742,5.341-5.484,11.149-8.226,17.428-2.744,6.279-5.268,12.72-7.578,19.323-2.31,6.603-4.295,13.206-5.953,19.81-1.661,6.603-2.744,12.936-3.248,18.998-.145,1.444.181,2.671.976,3.681.793,1.011,1.839,1.515,3.138,1.515l25.547.541c1.227,0,2.165-.469,2.815-1.407.65-.937.936-2.669.866-5.196,0-.071-.018-.739-.053-2.002-.037-1.262-.02-3.264.053-6.008.07-4.763.198-8.768.379-12.016.181-3.248.449-5.917.813-8.011.359-3.031.848-5.069,1.46-6.116.612-1.045,1.641-1.57,3.086-1.57,1.299,0,2.29.542,2.978,1.624.685,1.082,1.207,3.247,1.57,6.495.216,1.949.394,4.33.54,7.144s.253,5.775.326,8.877c.143,3.464.198,6.045.163,7.74-.037,1.696-.055,2.833-.055,3.41-.073,2.743.216,4.619.866,5.629.65,1.011,1.623,1.478,2.923,1.407l25.547-.541c1.299,0,2.346-.504,3.141-1.515.793-1.01,1.117-2.236.973-3.681-.434-5.557-1.462-11.708-3.086-18.457ZM692.832,53.03c-1.335,1.082-2.94,1.624-4.817,1.624s-3.502-.541-4.872-1.624c-1.37-1.083-2.055-2.886-2.055-5.413s.685-4.33,2.055-5.412,2.995-1.624,4.872-1.624,3.482.541,4.817,1.624,2.004,2.887,2.004,5.412-.67,4.33-2.004,5.413Z"/><path class="cls-4" d="M782.512,27.428c-.758-.758-1.751-1.172-2.978-1.245-3.896-.144-7.902-.271-12.016-.379-4.114-.108-8.444-.162-12.989-.162s-8.878.054-12.989.162c-4.114.108-8.12.235-12.016.379-1.229.073-2.22.487-2.978,1.245-.758.758-1.174,1.75-1.244,2.976l-.866,29.661c0,1.155.394,2.13,1.189,2.923.795.795,1.804,1.228,3.033,1.299,4.039.145,7.594.27,10.662.379,3.066.108,5.863.162,8.389.162l-.65,42.109c-.073,1.082.326,2.003,1.191,2.761s1.912,1.172,3.141,1.245l6.169.216c1.154.071,2.183-.344,3.086-1.245.901-.901,1.352-1.966,1.352-3.193l-.54-41.893c3.246-.071,6.44-.144,9.58-.216,3.138-.071,6.259-.179,9.362-.325,1.227-.071,2.238-.504,3.033-1.299s1.152-1.767,1.081-2.923l-.758-29.661c-.073-1.226-.487-2.219-1.244-2.976Z"/><path class="cls-4" d="M855.222,27.157c-.76-.72-1.751-1.153-2.978-1.299l-5.737-.433c-1.084-.144-2.057.253-2.923,1.19-.868.939-1.299,2.021-1.299,3.247l-.108,25.764c0,3.031-.507,5.792-1.515,8.281-1.013,2.49-2.348,4.638-4.006,6.441-1.661,1.805-3.61,3.212-5.845,4.222-2.238,1.011-4.621,1.515-7.144,1.515s-4.909-.504-7.144-1.515c-2.238-1.01-4.206-2.417-5.9-4.222-1.696-1.803-3.05-3.951-4.059-6.441-1.013-2.49-1.515-5.25-1.515-8.281l-.218-25.764c0-1.226-.432-2.309-1.299-3.247-.866-.937-1.839-1.335-2.923-1.19l-5.737.433c-1.227.145-2.218.579-2.975,1.299-.758.722-1.136,1.624-1.136,2.706l-.434,42.542c0,6.135.557,11.583,1.678,16.346,1.117,4.763,2.83,8.985,5.14,12.665,2.599,4.113,6.008,7.109,10.23,8.985s9.615,2.815,16.185,2.815c6.638,0,12.087-.939,16.346-2.815,4.257-1.876,7.684-4.872,10.283-8.985,4.691-7.288,6.929-16.958,6.711-29.011l-.54-42.542c0-1.082-.379-1.984-1.136-2.706Z"/><path class="cls-4" d="M943.158,28.673c0-.866-.216-1.624-.65-2.273s-.993-1.136-1.678-1.461c-.687-.325-1.425-.469-2.218-.433-.795.037-1.553.344-2.275.921l-30.743,23.815c-1.011.722-2.057.722-3.138,0l-30.743-23.815c-.65-.577-1.372-.883-2.165-.921-.795-.035-1.535.108-2.22.433-.687.325-1.244.812-1.678,1.461-.432.65-.65,1.407-.65,2.273l-.65,78.589c0,1.082.414,2.002,1.247,2.761.828.758,1.857,1.172,3.083,1.245l5.955.216c1.227.071,2.273-.344,3.138-1.245.866-.902,1.299-1.966,1.299-3.193l-.216-30.527c0-.649.324-1.118.973-1.407.65-.288,1.262-.217,1.841.216l19.592,15.155c.793.579,1.661.866,2.599.866s1.802-.287,2.597-.866l19.486-15.155c.577-.433,1.189-.504,1.839-.216.65.289.976.758.976,1.407l-.218,30.527c0,1.228.524,2.292,1.57,3.193,1.046.901,2.147,1.316,3.301,1.245l5.955-.216c1.297-.073,2.363-.487,3.193-1.245.828-.758,1.244-1.678,1.244-2.761l-.65-78.589Z"/><path class="cls-3" d="M68.481,50.117c-.289-4.401-.957-8.569-2.002-12.503-1.047-3.933-2.598-7.361-4.655-10.284-2.057-2.923-4.709-5.232-7.957-6.928-3.247-1.695-7.182-2.506-11.799-2.435l-34.315.324c-1.732,0-3.176.29-4.33.866-.65.362-1.191.939-1.624,1.732-.433.795-.65,1.805-.65,3.031l-.65,75.017c0,1.082.415,2.003,1.245,2.761.829.758,1.857,1.172,3.086,1.245l5.954.216c1.226.071,2.273-.344,3.139-1.245s1.299-1.966,1.299-3.193l-.108-20.351c2.453.578,5.142.957,8.065,1.136,2.923.181,6.26.235,10.013.162,5.629-.071,10.68-.775,15.155-2.111,4.474-1.335,8.244-3.247,11.312-5.737,3.066-2.49,5.358-5.538,6.874-9.147,1.516-3.608,2.165-7.794,1.949-12.557ZM45.153,64.46c-.687.83-1.607,1.461-2.76,1.894-.433.146-1.066.271-1.895.379-.83.108-1.769.2-2.815.271-1.047.073-2.111.127-3.193.162-1.082.037-2.056.054-2.923.054h-4.33c-1.732,0-3.572-.054-5.521-.162-1.948-.108-3.32-.341-4.113-.704-1.228-.433-2.002-1.064-2.327-1.894-.325-.829-.487-2.038-.487-3.627,0-1.515.162-2.687.487-3.518.325-.829,1.1-1.462,2.327-1.895.793-.36,2.165-.595,4.113-.704,1.949-.108,3.789-.162,5.521-.162h4.33c.866,0,1.84.019,2.923.054,1.082.037,2.147.091,3.193.162,1.046.073,1.984.162,2.815.271.829.108,1.461.235,1.895.379,1.153.433,2.074,1.065,2.76,1.895.685.83,1.029,2.002,1.029,3.518,0,1.588-.344,2.798-1.029,3.627Z"/><path class="cls-3" d="M136.052,58.994c-1.732-3.752-3.935-6.657-6.603-8.714-2.671-2.057-5.648-3.446-8.931-4.167-3.285-.721-6.549-1.153-9.797-1.299-2.455-.144-4.476-.324-6.062-.541-1.588-.216-2.852-.558-3.789-1.028-.939-.469-1.607-1.046-2.002-1.732-.398-.685-.595-1.57-.595-2.652,0-1.299.433-2.309,1.299-3.031.866-.721,1.911-1.245,3.139-1.57,1.226-.325,2.471-.504,3.735-.541,1.261-.036,2.327-.054,3.193-.054,1.587,0,3.464.091,5.629.27,2.165.181,4.149.416,5.954.704,2.309.362,3.751.2,4.33-.487.576-.685.829-1.749.758-3.193l-.433-8.552c-.146-1.37-.487-2.327-1.029-2.869s-1.859-.991-3.951-1.353c-2.094-.361-4.151-.65-6.17-.866-2.021-.216-4.511-.325-7.469-.325-6.928,0-12.449,1.553-16.562,4.655-4.403,3.393-6.603,8.517-6.603,15.372,0,5.196,1.37,9.166,4.113,11.907,1.443,1.445,3.318,2.598,5.629,3.464,2.309.866,5.521,1.588,9.634,2.165.576.073,1.37.181,2.381.325,1.01.145,2.002.398,2.977.758.974.362,1.821.904,2.544,1.624.721.722,1.082,1.732,1.082,3.031,0,1.372-.379,2.419-1.136,3.139-.758.722-1.696,1.209-2.815,1.461-1.12.254-2.327.379-3.626.379h-3.464c-3.031,0-6.37-.287-10.013-.866-3.645-.576-7.127-1.118-10.446-1.624-1.588-.216-2.869-.306-3.843-.27-.975.037-1.859.56-2.652,1.57-.506.722-1.011,2.039-1.516,3.951-.505,1.913-.957,4.15-1.353,6.711-.398,2.563-.722,5.25-.975,8.065-.254,2.815-.379,5.521-.379,8.118,0,2.238.271,4.059.812,5.467s1.461,2.616,2.76,3.626c4.257,3.392,13.711,5.088,28.362,5.088,1.948,0,4.203-.019,6.766-.054,2.561-.037,5.231-.308,8.011-.812,2.777-.505,5.502-1.353,8.172-2.544,2.669-1.191,5.051-2.94,7.145-5.25,2.092-2.309,3.735-5.304,4.925-8.985,1.191-3.681,1.713-8.227,1.57-13.64-.073-6.133-.974-11.077-2.706-14.83Z"/><path class="cls-3" d="M207.487,17.859l-5.738-.433c-.866-.072-1.696.216-2.49.866-.794.65-1.299,1.48-1.515,2.49-.579,2.598-1.318,5.45-2.219,8.552-.903,3.104-1.894,6.208-2.976,9.31-1.082,3.104-2.327,6.153-3.735,9.147-1.407,2.996-2.906,5.683-4.493,8.064-1.588,2.382-3.193,4.313-4.817,5.792-1.624,1.48-3.266,2.219-4.925,2.219-1.588,0-3.231-.739-4.926-2.219-1.696-1.478-3.32-3.41-4.871-5.792-1.553-2.381-3.031-5.069-4.438-8.064-1.407-2.994-2.652-6.043-3.735-9.147-1.082-3.102-2.076-6.206-2.977-9.31-.903-3.102-1.642-5.954-2.219-8.552-.217-1.01-.722-1.84-1.516-2.49-.795-.649-1.661-.937-2.598-.866l-5.629.433c-1.299.145-2.365.595-3.193,1.353-.83.758-1.174,1.642-1.029,2.652,1.516,10.321,3.392,19.143,5.629,26.467,2.236,7.326,4.98,13.585,8.227,18.782,0,2.67-.019,5.269-.054,7.794-.037,2.527-.091,5.071-.162,7.632-.073,2.562-.127,5.196-.162,7.903-.037,2.706-.054,5.647-.054,8.822,0,1.445.541,2.346,1.624,2.706,1.082.362,2.273.614,3.572.758.72.071,1.695.125,2.923.162,1.226.035,2.49.054,3.789.054h23.599c1.299,0,2.561-.019,3.789-.054,1.227-.037,2.201-.091,2.923-.162,1.299-.144,2.49-.396,3.572-.758,1.082-.36,1.624-1.261,1.624-2.706,0-3.175-.037-6.116-.108-8.822-.073-2.707-.127-5.34-.162-7.903-.037-2.561-.091-5.105-.162-7.632-.073-2.525-.108-5.123-.108-7.794,3.318-5.196,6.097-11.456,8.335-18.782,2.236-7.324,4.076-16.146,5.521-26.467.144-1.01-.181-1.894-.975-2.652-.795-.758-1.84-1.208-3.139-1.353Z"/><path class="cls-3" d="M277.866,66.463c-.722-.793-1.624-1.191-2.707-1.191-2.887.145-5.737.308-8.552.487-2.814.181-5.593.27-8.335.27-3.104,0-6.008-.162-8.714-.487-2.707-.325-5.052-1.064-7.037-2.219-1.985-1.153-3.536-2.815-4.655-4.98-1.12-2.165-1.678-5.087-1.678-8.768,0-3.391.541-6.079,1.624-8.064,1.082-1.984,2.579-3.518,4.492-4.601,1.911-1.082,4.131-1.786,6.657-2.111,2.526-.325,5.196-.487,8.011-.487,1.803,0,3.589.073,5.358.217,1.768.145,3.554.289,5.358.433,1.154.145,2.165-.216,3.031-1.082.866-.866,1.262-1.911,1.191-3.139l-.433-8.552c-.073-1.226-.487-2.219-1.245-2.976s-1.751-1.172-2.977-1.245c-1.444-.071-2.906-.144-4.384-.217-1.48-.071-2.976-.108-4.492-.108-2.598,0-5.233.108-7.902.325-2.671.216-5.304.632-7.903,1.245-2.598.614-5.106,1.461-7.523,2.544-2.419,1.082-4.709,2.49-6.874,4.222-4.547,3.609-8.119,8.3-10.717,14.073-2.598,5.774-4.005,12.557-4.221,20.351-.217,6.351.306,11.837,1.569,16.454,1.262,4.619,3.013,8.517,5.25,11.691,2.236,3.176,4.853,5.737,7.848,7.686,2.994,1.949,6.152,3.464,9.472,4.547,3.318,1.082,6.658,1.823,10.013,2.219,3.356.396,6.549.631,9.58.704h1.624c1.659,0,3.681-.091,6.062-.27,2.382-.181,4.69-.65,6.928-1.407,2.236-.758,4.149-1.857,5.738-3.302,1.586-1.443,2.417-3.391,2.49-5.846.216-7.721,0-15.515-.65-23.382-.145-1.226-.579-2.236-1.299-3.031Z"/><path class="cls-3" d="M348.319,19.157c-.795-.72-1.805-1.153-3.031-1.299l-5.629-.433c-1.082-.144-2.057.253-2.923,1.19-.866.939-1.299,2.021-1.299,3.247v15.48c0,1.228-.416,2.202-1.245,2.923-.83.722-1.823,1.155-2.977,1.299-1.948.216-4.096.398-6.441.541-2.346.145-4.565.216-6.657.216s-4.313-.071-6.657-.216c-2.346-.144-4.493-.325-6.441-.541-1.155-.144-2.148-.576-2.976-1.299-.831-.721-1.245-1.695-1.245-2.923v-15.48c0-1.226-.433-2.309-1.299-3.247-.866-.937-1.84-1.335-2.923-1.19l-5.737.433c-1.228.145-2.219.579-2.977,1.299-.758.722-1.136,1.624-1.136,2.706l-.65,77.074c0,1.082.396,2.003,1.191,2.761.793.758,1.84,1.172,3.139,1.245l5.954.216c1.153.071,2.182-.344,3.085-1.245.901-.901,1.353-1.966,1.353-3.193v-15.263c0-1.226.414-2.2,1.245-2.923.829-.721,1.821-1.153,2.976-1.299,1.949-.361,4.095-.596,6.441-.704,2.344-.108,4.563-.162,6.657-.162s4.311.054,6.657.162c2.344.108,4.493.343,6.441.704,1.154.145,2.147.578,2.977,1.299.829.722,1.245,1.696,1.245,2.923v15.263c0,1.228.433,2.292,1.299,3.193.866.901,1.912,1.316,3.139,1.245l5.954-.216c1.226-.073,2.255-.487,3.085-1.245.829-.758,1.245-1.678,1.245-2.761l-.65-77.074c0-1.082-.398-1.984-1.19-2.706Z"/><path class="cls-3" d="M431.655,43.514c-1.769-5.34-4.205-9.959-7.307-13.856-3.393-4.33-7.398-7.505-12.016-9.526-4.619-2.02-10.104-3.031-16.454-3.031s-11.837,1.011-16.454,3.031c-4.619,2.021-8.624,5.196-12.016,9.526-3.031,3.897-5.431,8.481-7.198,13.748-1.77,5.269-2.761,10.717-2.977,16.346-.145,5.486.45,10.681,1.786,15.588,1.335,4.909,3.373,9.382,6.116,13.423,3.681,5.413,8.082,9.274,13.207,11.583,5.123,2.309,10.933,3.464,17.428,3.464,6.999,0,13.026-1.281,18.078-3.843,5.051-2.561,9.309-6.368,12.774-11.42,2.741-3.897,4.78-8.281,6.116-13.152,1.335-4.871,1.93-10.013,1.786-15.426-.145-5.629-1.101-11.113-2.869-16.454ZM409.41,59.102c-1.228,2.238-3.085,4.059-5.575,5.466s-5.142,2.111-7.957,2.111c-2.744,0-5.358-.704-7.848-2.111s-4.349-3.229-5.575-5.466c-.722-1.227-1.282-2.669-1.678-4.33-.398-1.659-.595-3.427-.595-5.304,0-2.381.341-4.617,1.029-6.711.685-2.092,1.678-3.914,2.976-5.467,1.299-1.551,2.923-2.76,4.872-3.626s4.221-1.299,6.82-1.299,4.871.433,6.82,1.299,3.572,2.056,4.872,3.572c1.299,1.515,2.29,3.32,2.976,5.412.685,2.094,1.029,4.367,1.029,6.82,0,3.753-.722,6.966-2.165,9.635Z"/><path class="cls-3" d="M505.088,58.994c-1.731-3.752-3.933-6.657-6.603-8.714-2.671-2.057-5.648-3.446-8.931-4.167-3.285-.721-6.55-1.153-9.796-1.299-2.456-.144-4.476-.324-6.063-.541-1.588-.216-2.852-.558-3.788-1.028-.939-.469-1.608-1.046-2.003-1.732-.398-.685-.596-1.57-.596-2.652,0-1.299.434-2.309,1.299-3.031.866-.721,1.912-1.245,3.139-1.57,1.226-.325,2.471-.504,3.734-.541,1.262-.036,2.328-.054,3.193-.054,1.587,0,3.464.091,5.629.27,2.165.181,4.149.416,5.954.704,2.309.362,3.752.2,4.33-.487.576-.685.829-1.749.758-3.193l-.433-8.552c-.145-1.37-.487-2.327-1.029-2.869s-1.859-.991-3.951-1.353c-2.094-.361-4.151-.65-6.171-.866-2.021-.216-4.51-.325-7.468-.325-6.929,0-12.449,1.553-16.563,4.655-4.403,3.393-6.603,8.517-6.603,15.372,0,5.196,1.37,9.166,4.113,11.907,1.443,1.445,3.318,2.598,5.629,3.464,2.309.866,5.521,1.588,9.634,2.165.576.073,1.37.181,2.382.325,1.009.145,2.002.398,2.976.758.975.362,1.821.904,2.544,1.624.721.722,1.082,1.732,1.082,3.031,0,1.372-.379,2.419-1.136,3.139-.758.722-1.696,1.209-2.815,1.461-1.12.254-2.328.379-3.626.379h-3.464c-3.032,0-6.37-.287-10.013-.866-3.645-.576-7.127-1.118-10.446-1.624-1.588-.216-2.869-.306-3.843-.27-.975.037-1.859.56-2.652,1.57-.506.722-1.011,2.039-1.516,3.951-.505,1.913-.957,4.15-1.353,6.711-.398,2.563-.722,5.25-.975,8.065-.254,2.815-.379,5.521-.379,8.118,0,2.238.271,4.059.812,5.467s1.461,2.616,2.76,3.626c4.257,3.392,13.711,5.088,28.362,5.088,1.947,0,4.202-.019,6.766-.054,2.56-.037,5.231-.308,8.01-.812,2.777-.505,5.501-1.353,8.173-2.544,2.669-1.191,5.05-2.94,7.144-5.25,2.092-2.309,3.735-5.304,4.924-8.985,1.191-3.681,1.713-8.227,1.57-13.64-.073-6.133-.973-11.077-2.707-14.83Z"/><path class="cls-3" d="M569.228,19.428c-.758-.758-1.751-1.172-2.976-1.245-3.897-.144-7.902-.271-12.015-.379-4.114-.108-8.444-.162-12.991-.162s-8.877.054-12.991.162c-4.113.108-8.118.235-12.016.379-1.227.073-2.218.487-2.975,1.245-.759.758-1.174,1.75-1.245,2.976l-.867,29.661c0,1.155.396,2.13,1.191,2.923.793.795,1.803,1.228,3.03,1.299,4.041.145,7.595.27,10.663.379,3.067.108,5.863.162,8.39.162l-.65,42.109c-.073,1.082.325,2.003,1.191,2.761.866.758,1.911,1.172,3.138,1.245l6.171.216c1.153.071,2.181-.344,3.084-1.245.902-.901,1.353-1.966,1.353-3.193l-.542-41.893c3.248-.071,6.442-.144,9.58-.216,3.139-.071,6.26-.179,9.364-.325,1.226-.071,2.235-.504,3.03-1.299s1.154-1.767,1.082-2.923l-.758-29.661c-.073-1.226-.488-2.219-1.245-2.976Z"/><path class="cls-3" d="M641.036,67.654c-.722-1.227-1.515-1.895-2.381-2.003-.866-.108-1.806-.125-2.815-.054-1.229.073-2.453.145-3.68.216-1.229.073-2.456.108-3.68.108-3.682,0-6.966-.704-9.851-2.111-2.887-1.407-5.16-3.41-6.821-6.008-.216-.36-.271-.666-.161-.92.108-.252.341-.379.703-.379,3.607,0,6.891-.487,9.851-1.461,2.958-.975,5.466-2.363,7.523-4.168,2.057-1.803,3.643-4.005,4.764-6.603,1.117-2.598,1.676-5.483,1.676-8.66,0-2.526-.504-4.872-1.515-7.037s-2.398-4.041-4.167-5.629c-1.768-1.587-3.898-2.832-6.387-3.735-2.489-.902-5.215-1.316-8.173-1.245l-35.506.541c-1.155,0-2.148.398-2.978,1.19-.83.795-1.244,1.77-1.244,2.923l-.542,76.316c0,1.082.415,2.003,1.245,2.761.829.758,1.895,1.172,3.193,1.245l6.82.216c1.154.071,2.183-.344,3.086-1.245.901-.901,1.352-1.966,1.352-3.193l-.866-41.135c0-.721.361-1.01,1.082-.866.36.145.541.398.541.758.218,2.165.469,4.151.759,5.954.287,1.805.631,3.572,1.027,5.304.396,1.732.867,3.464,1.407,5.196.542,1.732,1.209,3.536,2.004,5.412,1.515,3.681,3.301,7.001,5.358,9.959,2.057,2.96,4.24,5.521,6.55,7.686,3.03,2.744,6.169,4.817,9.417,6.224,3.246,1.407,6.495,2.111,9.743,2.111,6.638,0,10.825-1.515,12.556-4.546.289-.577.559-1.478.813-2.707.251-1.226.449-2.652.595-4.276.143-1.624.271-3.372.379-5.25.108-1.876.198-3.681.271-5.412.07-3.392-.037-6.495-.324-9.31-.291-2.815-.832-4.871-1.625-6.17ZM609.049,45.571c-1.048.073-2.112.127-3.193.162-1.084.037-2.057.055-2.923.055-1.661,0-3.484-.071-5.468-.216-1.984-.144-3.374-.361-4.167-.65-1.228-.433-2.002-1.064-2.328-1.895-.324-.829-.487-2.038-.487-3.626,0-1.516.163-2.687.487-3.518.326-.829,1.1-1.461,2.328-1.894.433-.144,1.01-.271,1.732-.379.72-.108,1.532-.198,2.435-.27.903-.071,1.824-.125,2.762-.162.936-.036,1.841-.054,2.707-.054s1.839.018,2.923.054c1.081.037,2.145.091,3.193.162,1.044.073,2.002.162,2.867.27.868.108,1.517.235,1.949.379,1.154.433,2.075,1.065,2.762,1.894.685.831,1.026,2.002,1.026,3.518,0,1.588-.341,2.798-1.026,3.626-.687.831-1.608,1.462-2.762,1.895-.432.145-1.081.27-1.949.379-.866.108-1.824.2-2.867.271Z"/><path class="cls-3" d="M723.9,78.641c-1.623-6.747-3.625-13.531-6.008-20.351-2.381-6.82-4.962-13.44-7.739-19.864-2.779-6.422-5.539-12.051-8.281-16.887-1.156-2.236-2.887-3.392-5.198-3.464-1.731-.071-3.319-.125-4.761-.162-1.445-.035-2.744-.054-3.898-.054h-4.383c-1.48,0-2.942.073-4.385.216-1.372.145-2.453.47-3.248.975-.795.505-1.48,1.336-2.057,2.49-2.742,5.341-5.484,11.149-8.226,17.428-2.744,6.279-5.268,12.72-7.578,19.323-2.31,6.603-4.295,13.206-5.953,19.81-1.661,6.603-2.744,12.936-3.248,18.998-.145,1.444.181,2.671.976,3.681.793,1.011,1.839,1.515,3.138,1.515l25.547.541c1.227,0,2.165-.469,2.815-1.407.65-.937.936-2.669.866-5.196,0-.071-.018-.739-.053-2.002-.037-1.262-.02-3.264.053-6.008.07-4.763.198-8.768.379-12.016.181-3.248.449-5.917.813-8.011.359-3.031.848-5.069,1.46-6.116.612-1.045,1.641-1.57,3.086-1.57,1.299,0,2.29.542,2.978,1.624.685,1.082,1.207,3.247,1.57,6.495.216,1.949.394,4.33.54,7.144s.253,5.775.326,8.877c.143,3.464.198,6.045.163,7.74-.037,1.696-.055,2.833-.055,3.41-.073,2.743.216,4.619.866,5.629.65,1.011,1.623,1.478,2.923,1.407l25.547-.541c1.299,0,2.346-.504,3.141-1.515.793-1.01,1.117-2.236.973-3.681-.434-5.557-1.462-11.708-3.086-18.457ZM692.832,45.03c-1.335,1.082-2.94,1.624-4.817,1.624s-3.502-.541-4.872-1.624c-1.37-1.083-2.055-2.886-2.055-5.413s.685-4.33,2.055-5.412,2.995-1.624,4.872-1.624,3.482.541,4.817,1.624,2.004,2.887,2.004,5.412-.67,4.33-2.004,5.413Z"/><path class="cls-3" d="M782.512,19.428c-.758-.758-1.751-1.172-2.978-1.245-3.896-.144-7.902-.271-12.016-.379-4.114-.108-8.444-.162-12.989-.162s-8.878.054-12.989.162c-4.114.108-8.12.235-12.016.379-1.229.073-2.22.487-2.978,1.245-.758.758-1.174,1.75-1.244,2.976l-.866,29.661c0,1.155.394,2.13,1.189,2.923.795.795,1.804,1.228,3.033,1.299,4.039.145,7.594.27,10.662.379,3.066.108,5.863.162,8.389.162l-.65,42.109c-.073,1.082.326,2.003,1.191,2.761s1.912,1.172,3.141,1.245l6.169.216c1.154.071,2.183-.344,3.086-1.245.901-.901,1.352-1.966,1.352-3.193l-.54-41.893c3.246-.071,6.44-.144,9.58-.216,3.138-.071,6.259-.179,9.362-.325,1.227-.071,2.238-.504,3.033-1.299s1.152-1.767,1.081-2.923l-.758-29.661c-.073-1.226-.487-2.219-1.244-2.976Z"/><path class="cls-3" d="M855.222,19.157c-.76-.72-1.751-1.153-2.978-1.299l-5.737-.433c-1.084-.144-2.057.253-2.923,1.19-.868.939-1.299,2.021-1.299,3.247l-.108,25.764c0,3.031-.507,5.792-1.515,8.281-1.013,2.49-2.348,4.638-4.006,6.441-1.661,1.805-3.61,3.212-5.845,4.222-2.238,1.011-4.621,1.515-7.144,1.515s-4.909-.504-7.144-1.515c-2.238-1.01-4.206-2.417-5.9-4.222-1.696-1.803-3.05-3.951-4.059-6.441-1.013-2.49-1.515-5.25-1.515-8.281l-.218-25.764c0-1.226-.432-2.309-1.299-3.247-.866-.937-1.839-1.335-2.923-1.19l-5.737.433c-1.227.145-2.218.579-2.975,1.299-.758.722-1.136,1.624-1.136,2.706l-.434,42.542c0,6.135.557,11.583,1.678,16.346,1.117,4.763,2.83,8.985,5.14,12.665,2.599,4.113,6.008,7.109,10.23,8.985s9.615,2.815,16.185,2.815c6.638,0,12.087-.939,16.346-2.815,4.257-1.876,7.684-4.872,10.283-8.985,4.691-7.288,6.929-16.958,6.711-29.011l-.54-42.542c0-1.082-.379-1.984-1.136-2.706Z"/><path class="cls-3" d="M943.158,20.673c0-.866-.216-1.624-.65-2.273s-.993-1.136-1.678-1.461c-.687-.325-1.425-.469-2.218-.433-.795.037-1.553.344-2.275.921l-30.743,23.815c-1.011.722-2.057.722-3.138,0l-30.743-23.815c-.65-.577-1.372-.883-2.165-.921-.795-.035-1.535.108-2.22.433-.687.325-1.244.812-1.678,1.461-.432.65-.65,1.407-.65,2.273l-.65,78.589c0,1.082.414,2.002,1.247,2.761.828.758,1.857,1.172,3.083,1.245l5.955.216c1.227.071,2.273-.344,3.138-1.245.866-.902,1.299-1.966,1.299-3.193l-.216-30.527c0-.649.324-1.118.973-1.407.65-.288,1.262-.217,1.841.216l19.592,15.155c.793.579,1.661.866,2.599.866s1.802-.287,2.597-.866l19.486-15.155c.577-.433,1.189-.504,1.839-.216.65.289.976.758.976,1.407l-.218,30.527c0,1.228.524,2.292,1.57,3.193,1.046.901,2.147,1.316,3.301,1.245l5.955-.216c1.297-.073,2.363-.487,3.193-1.245.828-.758,1.244-1.678,1.244-2.761l-.65-78.589Z"/><path class="cls-1" d="M68.481,42.117c-.289-4.401-.957-8.569-2.002-12.503-1.047-3.933-2.598-7.361-4.655-10.284-2.057-2.923-4.709-5.232-7.957-6.928-3.247-1.695-7.182-2.506-11.799-2.435l-34.315.324c-1.732,0-3.176.29-4.33.866-.65.362-1.191.939-1.624,1.732-.433.795-.65,1.805-.65,3.031l-.65,75.017c0,1.082.415,2.003,1.245,2.761.829.758,1.857,1.172,3.086,1.245l5.954.216c1.226.071,2.273-.344,3.139-1.245s1.299-1.966,1.299-3.193l-.108-20.351c2.453.578,5.142.957,8.065,1.136,2.923.181,6.26.235,10.013.162,5.629-.071,10.68-.775,15.155-2.111,4.474-1.335,8.244-3.247,11.312-5.737,3.066-2.49,5.358-5.538,6.874-9.147,1.516-3.608,2.165-7.794,1.949-12.557ZM45.153,56.46c-.687.83-1.607,1.461-2.76,1.894-.433.146-1.066.271-1.895.379-.83.108-1.769.2-2.815.271-1.047.073-2.111.127-3.193.162-1.082.037-2.056.054-2.923.054h-4.33c-1.732,0-3.572-.054-5.521-.162-1.948-.108-3.32-.341-4.113-.704-1.228-.433-2.002-1.064-2.327-1.894-.325-.829-.487-2.038-.487-3.627,0-1.515.162-2.687.487-3.518.325-.829,1.1-1.462,2.327-1.895.793-.36,2.165-.595,4.113-.704,1.949-.108,3.789-.162,5.521-.162h4.33c.866,0,1.84.019,2.923.054,1.082.037,2.147.091,3.193.162,1.046.073,1.984.162,2.815.271.829.108,1.461.235,1.895.379,1.153.433,2.074,1.065,2.76,1.895.685.83,1.029,2.002,1.029,3.518,0,1.588-.344,2.798-1.029,3.627Z"/><path class="cls-1" d="M136.052,50.994c-1.732-3.752-3.935-6.657-6.603-8.714-2.671-2.057-5.648-3.446-8.931-4.167-3.285-.721-6.549-1.153-9.797-1.299-2.455-.144-4.476-.324-6.062-.541-1.588-.216-2.852-.558-3.789-1.028-.939-.469-1.607-1.046-2.002-1.732-.398-.685-.595-1.57-.595-2.652,0-1.299.433-2.309,1.299-3.031.866-.721,1.911-1.245,3.139-1.57,1.226-.325,2.471-.504,3.735-.541,1.261-.036,2.327-.054,3.193-.054,1.587,0,3.464.091,5.629.27,2.165.181,4.149.416,5.954.704,2.309.362,3.751.2,4.33-.487.576-.685.829-1.749.758-3.193l-.433-8.552c-.146-1.37-.487-2.327-1.029-2.869s-1.859-.991-3.951-1.353c-2.094-.361-4.151-.65-6.17-.866-2.021-.216-4.511-.325-7.469-.325-6.928,0-12.449,1.553-16.562,4.655-4.403,3.393-6.603,8.517-6.603,15.372,0,5.196,1.37,9.166,4.113,11.907,1.443,1.445,3.318,2.598,5.629,3.464,2.309.866,5.521,1.588,9.634,2.165.576.073,1.37.181,2.381.325,1.01.145,2.002.398,2.977.758.974.362,1.821.904,2.544,1.624.721.722,1.082,1.732,1.082,3.031,0,1.372-.379,2.419-1.136,3.139-.758.722-1.696,1.209-2.815,1.461-1.12.254-2.327.379-3.626.379h-3.464c-3.031,0-6.37-.287-10.013-.866-3.645-.576-7.127-1.118-10.446-1.624-1.588-.216-2.869-.306-3.843-.27-.975.037-1.859.56-2.652,1.57-.506.722-1.011,2.039-1.516,3.951-.505,1.913-.957,4.15-1.353,6.711-.398,2.563-.722,5.25-.975,8.065-.254,2.815-.379,5.521-.379,8.118,0,2.238.271,4.059.812,5.467s1.461,2.616,2.76,3.626c4.257,3.392,13.711,5.088,28.362,5.088,1.948,0,4.203-.019,6.766-.054,2.561-.037,5.231-.308,8.011-.812,2.777-.505,5.502-1.353,8.172-2.544,2.669-1.191,5.051-2.94,7.145-5.25,2.092-2.309,3.735-5.304,4.925-8.985,1.191-3.681,1.713-8.227,1.57-13.64-.073-6.133-.974-11.077-2.706-14.83Z"/><path class="cls-1" d="M207.487,9.859l-5.738-.433c-.866-.072-1.696.216-2.49.866-.794.65-1.299,1.48-1.515,2.49-.579,2.598-1.318,5.45-2.219,8.552-.903,3.104-1.894,6.208-2.976,9.31-1.082,3.104-2.327,6.153-3.735,9.147-1.407,2.996-2.906,5.683-4.493,8.064-1.588,2.382-3.193,4.313-4.817,5.792-1.624,1.48-3.266,2.219-4.925,2.219-1.588,0-3.231-.739-4.926-2.219-1.696-1.478-3.32-3.41-4.871-5.792-1.553-2.381-3.031-5.069-4.438-8.064-1.407-2.994-2.652-6.043-3.735-9.147-1.082-3.102-2.076-6.206-2.977-9.31-.903-3.102-1.642-5.954-2.219-8.552-.217-1.01-.722-1.84-1.516-2.49-.795-.649-1.661-.937-2.598-.866l-5.629.433c-1.299.145-2.365.595-3.193,1.353-.83.758-1.174,1.642-1.029,2.652,1.516,10.321,3.392,19.143,5.629,26.467,2.236,7.326,4.98,13.585,8.227,18.782,0,2.67-.019,5.269-.054,7.794-.037,2.527-.091,5.071-.162,7.632-.073,2.562-.127,5.196-.162,7.903-.037,2.706-.054,5.647-.054,8.822,0,1.445.541,2.346,1.624,2.706,1.082.362,2.273.614,3.572.758.72.071,1.695.125,2.923.162,1.226.035,2.49.054,3.789.054h23.599c1.299,0,2.561-.019,3.789-.054,1.227-.037,2.201-.091,2.923-.162,1.299-.144,2.49-.396,3.572-.758,1.082-.36,1.624-1.261,1.624-2.706,0-3.175-.037-6.116-.108-8.822-.073-2.707-.127-5.34-.162-7.903-.037-2.561-.091-5.105-.162-7.632-.073-2.525-.108-5.123-.108-7.794,3.318-5.196,6.097-11.456,8.335-18.782,2.236-7.324,4.076-16.146,5.521-26.467.144-1.01-.181-1.894-.975-2.652-.795-.758-1.84-1.208-3.139-1.353Z"/><path class="cls-1" d="M277.866,58.463c-.722-.793-1.624-1.191-2.707-1.191-2.887.145-5.737.308-8.552.487-2.814.181-5.593.27-8.335.27-3.104,0-6.008-.162-8.714-.487-2.707-.325-5.052-1.064-7.037-2.219-1.985-1.153-3.536-2.815-4.655-4.98-1.12-2.165-1.678-5.087-1.678-8.768,0-3.391.541-6.079,1.624-8.064,1.082-1.984,2.579-3.518,4.492-4.601,1.911-1.082,4.131-1.786,6.657-2.111,2.526-.325,5.196-.487,8.011-.487,1.803,0,3.589.073,5.358.217,1.768.145,3.554.289,5.358.433,1.154.145,2.165-.216,3.031-1.082.866-.866,1.262-1.911,1.191-3.139l-.433-8.552c-.073-1.226-.487-2.219-1.245-2.976s-1.751-1.172-2.977-1.245c-1.444-.071-2.906-.144-4.384-.217-1.48-.071-2.976-.108-4.492-.108-2.598,0-5.233.108-7.902.325-2.671.216-5.304.632-7.903,1.245-2.598.614-5.106,1.461-7.523,2.544-2.419,1.082-4.709,2.49-6.874,4.222-4.547,3.609-8.119,8.3-10.717,14.073-2.598,5.774-4.005,12.557-4.221,20.351-.217,6.351.306,11.837,1.569,16.454,1.262,4.619,3.013,8.517,5.25,11.691,2.236,3.176,4.853,5.737,7.848,7.686,2.994,1.949,6.152,3.464,9.472,4.547,3.318,1.082,6.658,1.823,10.013,2.219,3.356.396,6.549.631,9.58.704h1.624c1.659,0,3.681-.091,6.062-.27,2.382-.181,4.69-.65,6.928-1.407,2.236-.758,4.149-1.857,5.738-3.302,1.586-1.443,2.417-3.391,2.49-5.846.216-7.721,0-15.515-.65-23.382-.145-1.226-.579-2.236-1.299-3.031Z"/><path class="cls-1" d="M348.319,11.157c-.795-.72-1.805-1.153-3.031-1.299l-5.629-.433c-1.082-.144-2.057.253-2.923,1.19-.866.939-1.299,2.021-1.299,3.247v15.48c0,1.228-.416,2.202-1.245,2.923-.83.722-1.823,1.155-2.977,1.299-1.948.216-4.096.398-6.441.541-2.346.145-4.565.216-6.657.216s-4.313-.071-6.657-.216c-2.346-.144-4.493-.325-6.441-.541-1.155-.144-2.148-.576-2.976-1.299-.831-.721-1.245-1.695-1.245-2.923v-15.48c0-1.226-.433-2.309-1.299-3.247-.866-.937-1.84-1.335-2.923-1.19l-5.737.433c-1.228.145-2.219.579-2.977,1.299-.758.722-1.136,1.624-1.136,2.706l-.65,77.074c0,1.082.396,2.003,1.191,2.761.793.758,1.84,1.172,3.139,1.245l5.954.216c1.153.071,2.182-.344,3.085-1.245.901-.901,1.353-1.966,1.353-3.193v-15.263c0-1.226.414-2.2,1.245-2.923.829-.721,1.821-1.153,2.976-1.299,1.949-.361,4.095-.596,6.441-.704,2.344-.108,4.563-.162,6.657-.162s4.311.054,6.657.162c2.344.108,4.493.343,6.441.704,1.154.145,2.147.578,2.977,1.299.829.722,1.245,1.696,1.245,2.923v15.263c0,1.228.433,2.292,1.299,3.193.866.901,1.912,1.316,3.139,1.245l5.954-.216c1.226-.073,2.255-.487,3.085-1.245.829-.758,1.245-1.678,1.245-2.761l-.65-77.074c0-1.082-.398-1.984-1.19-2.706Z"/><path class="cls-1" d="M431.655,35.514c-1.769-5.34-4.205-9.959-7.307-13.856-3.393-4.33-7.398-7.505-12.016-9.526-4.619-2.02-10.104-3.031-16.454-3.031s-11.837,1.011-16.454,3.031c-4.619,2.021-8.624,5.196-12.016,9.526-3.031,3.897-5.431,8.481-7.198,13.748-1.77,5.269-2.761,10.717-2.977,16.346-.145,5.486.45,10.681,1.786,15.588,1.335,4.909,3.373,9.382,6.116,13.423,3.681,5.413,8.082,9.274,13.207,11.583,5.123,2.309,10.933,3.464,17.428,3.464,6.999,0,13.026-1.281,18.078-3.843,5.051-2.561,9.309-6.368,12.774-11.42,2.741-3.897,4.78-8.281,6.116-13.152,1.335-4.871,1.93-10.013,1.786-15.426-.145-5.629-1.101-11.113-2.869-16.454ZM409.41,51.102c-1.228,2.238-3.085,4.059-5.575,5.466s-5.142,2.111-7.957,2.111c-2.744,0-5.358-.704-7.848-2.111s-4.349-3.229-5.575-5.466c-.722-1.227-1.282-2.669-1.678-4.33-.398-1.659-.595-3.427-.595-5.304,0-2.381.341-4.617,1.029-6.711.685-2.092,1.678-3.914,2.976-5.467,1.299-1.551,2.923-2.76,4.872-3.626s4.221-1.299,6.82-1.299,4.871.433,6.82,1.299,3.572,2.056,4.872,3.572c1.299,1.515,2.29,3.32,2.976,5.412.685,2.094,1.029,4.367,1.029,6.82,0,3.753-.722,6.966-2.165,9.635Z"/><path class="cls-1" d="M505.088,50.994c-1.731-3.752-3.933-6.657-6.603-8.714-2.671-2.057-5.648-3.446-8.931-4.167-3.285-.721-6.55-1.153-9.796-1.299-2.456-.144-4.476-.324-6.063-.541-1.588-.216-2.852-.558-3.788-1.028-.939-.469-1.608-1.046-2.003-1.732-.398-.685-.596-1.57-.596-2.652,0-1.299.434-2.309,1.299-3.031.866-.721,1.912-1.245,3.139-1.57,1.226-.325,2.471-.504,3.734-.541,1.262-.036,2.328-.054,3.193-.054,1.587,0,3.464.091,5.629.27,2.165.181,4.149.416,5.954.704,2.309.362,3.752.2,4.33-.487.576-.685.829-1.749.758-3.193l-.433-8.552c-.145-1.37-.487-2.327-1.029-2.869s-1.859-.991-3.951-1.353c-2.094-.361-4.151-.65-6.171-.866-2.021-.216-4.51-.325-7.468-.325-6.929,0-12.449,1.553-16.563,4.655-4.403,3.393-6.603,8.517-6.603,15.372,0,5.196,1.37,9.166,4.113,11.907,1.443,1.445,3.318,2.598,5.629,3.464,2.309.866,5.521,1.588,9.634,2.165.576.073,1.37.181,2.382.325,1.009.145,2.002.398,2.976.758.975.362,1.821.904,2.544,1.624.721.722,1.082,1.732,1.082,3.031,0,1.372-.379,2.419-1.136,3.139-.758.722-1.696,1.209-2.815,1.461-1.12.254-2.328.379-3.626.379h-3.464c-3.032,0-6.37-.287-10.013-.866-3.645-.576-7.127-1.118-10.446-1.624-1.588-.216-2.869-.306-3.843-.27-.975.037-1.859.56-2.652,1.57-.506.722-1.011,2.039-1.516,3.951-.505,1.913-.957,4.15-1.353,6.711-.398,2.563-.722,5.25-.975,8.065-.254,2.815-.379,5.521-.379,8.118,0,2.238.271,4.059.812,5.467s1.461,2.616,2.76,3.626c4.257,3.392,13.711,5.088,28.362,5.088,1.947,0,4.202-.019,6.766-.054,2.56-.037,5.231-.308,8.01-.812,2.777-.505,5.501-1.353,8.173-2.544,2.669-1.191,5.05-2.94,7.144-5.25,2.092-2.309,3.735-5.304,4.924-8.985,1.191-3.681,1.713-8.227,1.57-13.64-.073-6.133-.973-11.077-2.707-14.83Z"/><path class="cls-1" d="M569.228,11.428c-.758-.758-1.751-1.172-2.976-1.245-3.897-.144-7.902-.271-12.015-.379-4.114-.108-8.444-.162-12.991-.162s-8.877.054-12.991.162c-4.113.108-8.118.235-12.016.379-1.227.073-2.218.487-2.975,1.245-.759.758-1.174,1.75-1.245,2.976l-.867,29.661c0,1.155.396,2.13,1.191,2.923.793.795,1.803,1.228,3.03,1.299,4.041.145,7.595.27,10.663.379,3.067.108,5.863.162,8.39.162l-.65,42.109c-.073,1.082.325,2.003,1.191,2.761.866.758,1.911,1.172,3.138,1.245l6.171.216c1.153.071,2.181-.344,3.084-1.245.902-.901,1.353-1.966,1.353-3.193l-.542-41.893c3.248-.071,6.442-.144,9.58-.216,3.139-.071,6.26-.179,9.364-.325,1.226-.071,2.235-.504,3.03-1.299s1.154-1.767,1.082-2.923l-.758-29.661c-.073-1.226-.488-2.219-1.245-2.976Z"/><path class="cls-1" d="M641.036,59.654c-.722-1.227-1.515-1.895-2.381-2.003-.866-.108-1.806-.125-2.815-.054-1.229.073-2.453.145-3.68.216-1.229.073-2.456.108-3.68.108-3.682,0-6.966-.704-9.851-2.111-2.887-1.407-5.16-3.41-6.821-6.008-.216-.36-.271-.666-.161-.92.108-.252.341-.379.703-.379,3.607,0,6.891-.487,9.851-1.461,2.958-.975,5.466-2.363,7.523-4.168,2.057-1.803,3.643-4.005,4.764-6.603,1.117-2.598,1.676-5.483,1.676-8.66,0-2.526-.504-4.872-1.515-7.037s-2.398-4.041-4.167-5.629c-1.768-1.587-3.898-2.832-6.387-3.735-2.489-.902-5.215-1.316-8.173-1.245l-35.506.541c-1.155,0-2.148.398-2.978,1.19-.83.795-1.244,1.77-1.244,2.923l-.542,76.316c0,1.082.415,2.003,1.245,2.761.829.758,1.895,1.172,3.193,1.245l6.82.216c1.154.071,2.183-.344,3.086-1.245.901-.901,1.352-1.966,1.352-3.193l-.866-41.135c0-.721.361-1.01,1.082-.866.36.145.541.398.541.758.218,2.165.469,4.151.759,5.954.287,1.805.631,3.572,1.027,5.304.396,1.732.867,3.464,1.407,5.196.542,1.732,1.209,3.536,2.004,5.412,1.515,3.681,3.301,7.001,5.358,9.959,2.057,2.96,4.24,5.521,6.55,7.686,3.03,2.744,6.169,4.817,9.417,6.224,3.246,1.407,6.495,2.111,9.743,2.111,6.638,0,10.825-1.515,12.556-4.546.289-.577.559-1.478.813-2.707.251-1.226.449-2.652.595-4.276.143-1.624.271-3.372.379-5.25.108-1.876.198-3.681.271-5.412.07-3.392-.037-6.495-.324-9.31-.291-2.815-.832-4.871-1.625-6.17ZM609.049,37.571c-1.048.073-2.112.127-3.193.162-1.084.037-2.057.055-2.923.055-1.661,0-3.484-.071-5.468-.216-1.984-.144-3.374-.361-4.167-.65-1.228-.433-2.002-1.064-2.328-1.895-.324-.829-.487-2.038-.487-3.626,0-1.516.163-2.687.487-3.518.326-.829,1.1-1.461,2.328-1.894.433-.144,1.01-.271,1.732-.379.72-.108,1.532-.198,2.435-.27.903-.071,1.824-.125,2.762-.162.936-.036,1.841-.054,2.707-.054s1.839.018,2.923.054c1.081.037,2.145.091,3.193.162,1.044.073,2.002.162,2.867.27.868.108,1.517.235,1.949.379,1.154.433,2.075,1.065,2.762,1.894.685.831,1.026,2.002,1.026,3.518,0,1.588-.341,2.798-1.026,3.626-.687.831-1.608,1.462-2.762,1.895-.432.145-1.081.27-1.949.379-.866.108-1.824.2-2.867.271Z"/><path class="cls-1" d="M723.9,70.641c-1.623-6.747-3.625-13.531-6.008-20.351-2.381-6.82-4.962-13.44-7.739-19.864-2.779-6.422-5.539-12.051-8.281-16.887-1.156-2.236-2.887-3.392-5.198-3.464-1.731-.071-3.319-.125-4.761-.162-1.445-.035-2.744-.054-3.898-.054h-4.383c-1.48,0-2.942.073-4.385.216-1.372.145-2.453.47-3.248.975-.795.505-1.48,1.336-2.057,2.49-2.742,5.341-5.484,11.149-8.226,17.428-2.744,6.279-5.268,12.72-7.578,19.323-2.31,6.603-4.295,13.206-5.953,19.81-1.661,6.603-2.744,12.936-3.248,18.998-.145,1.444.181,2.671.976,3.681.793,1.011,1.839,1.515,3.138,1.515l25.547.541c1.227,0,2.165-.469,2.815-1.407.65-.937.936-2.669.866-5.196,0-.071-.018-.739-.053-2.002-.037-1.262-.02-3.264.053-6.008.07-4.763.198-8.768.379-12.016.181-3.248.449-5.917.813-8.011.359-3.031.848-5.069,1.46-6.116.612-1.045,1.641-1.57,3.086-1.57,1.299,0,2.29.542,2.978,1.624.685,1.082,1.207,3.247,1.57,6.495.216,1.949.394,4.33.54,7.144s.253,5.775.326,8.877c.143,3.464.198,6.045.163,7.74-.037,1.696-.055,2.833-.055,3.41-.073,2.743.216,4.619.866,5.629.65,1.011,1.623,1.478,2.923,1.407l25.547-.541c1.299,0,2.346-.504,3.141-1.515.793-1.01,1.117-2.236.973-3.681-.434-5.557-1.462-11.708-3.086-18.457ZM692.832,37.03c-1.335,1.082-2.94,1.624-4.817,1.624s-3.502-.541-4.872-1.624c-1.37-1.083-2.055-2.886-2.055-5.413s.685-4.33,2.055-5.412,2.995-1.624,4.872-1.624,3.482.541,4.817,1.624,2.004,2.887,2.004,5.412-.67,4.33-2.004,5.413Z"/><path class="cls-1" d="M782.512,11.428c-.758-.758-1.751-1.172-2.978-1.245-3.896-.144-7.902-.271-12.016-.379-4.114-.108-8.444-.162-12.989-.162s-8.878.054-12.989.162c-4.114.108-8.12.235-12.016.379-1.229.073-2.22.487-2.978,1.245-.758.758-1.174,1.75-1.244,2.976l-.866,29.661c0,1.155.394,2.13,1.189,2.923.795.795,1.804,1.228,3.033,1.299,4.039.145,7.594.27,10.662.379,3.066.108,5.863.162,8.389.162l-.65,42.109c-.073,1.082.326,2.003,1.191,2.761s1.912,1.172,3.141,1.245l6.169.216c1.154.071,2.183-.344,3.086-1.245.901-.901,1.352-1.966,1.352-3.193l-.54-41.893c3.246-.071,6.44-.144,9.58-.216,3.138-.071,6.259-.179,9.362-.325,1.227-.071,2.238-.504,3.033-1.299s1.152-1.767,1.081-2.923l-.758-29.661c-.073-1.226-.487-2.219-1.244-2.976Z"/><path class="cls-1" d="M855.222,11.157c-.76-.72-1.751-1.153-2.978-1.299l-5.737-.433c-1.084-.144-2.057.253-2.923,1.19-.868.939-1.299,2.021-1.299,3.247l-.108,25.764c0,3.031-.507,5.792-1.515,8.281-1.013,2.49-2.348,4.638-4.006,6.441-1.661,1.805-3.61,3.212-5.845,4.222-2.238,1.011-4.621,1.515-7.144,1.515s-4.909-.504-7.144-1.515c-2.238-1.01-4.206-2.417-5.9-4.222-1.696-1.803-3.05-3.951-4.059-6.441-1.013-2.49-1.515-5.25-1.515-8.281l-.218-25.764c0-1.226-.432-2.309-1.299-3.247-.866-.937-1.839-1.335-2.923-1.19l-5.737.433c-1.227.145-2.218.579-2.975,1.299-.758.722-1.136,1.624-1.136,2.706l-.434,42.542c0,6.135.557,11.583,1.678,16.346,1.117,4.763,2.83,8.985,5.14,12.665,2.599,4.113,6.008,7.109,10.23,8.985s9.615,2.815,16.185,2.815c6.638,0,12.087-.939,16.346-2.815,4.257-1.876,7.684-4.872,10.283-8.985,4.691-7.288,6.929-16.958,6.711-29.011l-.54-42.542c0-1.082-.379-1.984-1.136-2.706Z"/><path class="cls-1" d="M943.158,12.673c0-.866-.216-1.624-.65-2.273s-.993-1.136-1.678-1.461c-.687-.325-1.425-.469-2.218-.433-.795.037-1.553.344-2.275.921l-30.743,23.815c-1.011.722-2.057.722-3.138,0l-30.743-23.815c-.65-.577-1.372-.883-2.165-.921-.795-.035-1.535.108-2.22.433-.687.325-1.244.812-1.678,1.461-.432.65-.65,1.407-.65,2.273l-.65,78.589c0,1.082.414,2.002,1.247,2.761.828.758,1.857,1.172,3.083,1.245l5.955.216c1.227.071,2.273-.344,3.138-1.245.866-.902,1.299-1.966,1.299-3.193l-.216-30.527c0-.649.324-1.118.973-1.407.65-.288,1.262-.217,1.841.216l19.592,15.155c.793.579,1.661.866,2.599.866s1.802-.287,2.597-.866l19.486-15.155c.577-.433,1.189-.504,1.839-.216.65.289.976.758.976,1.407l-.218,30.527c0,1.228.524,2.292,1.57,3.193,1.046.901,2.147,1.316,3.301,1.245l5.955-.216c1.297-.073,2.363-.487,3.193-1.245.828-.758,1.244-1.678,1.244-2.761l-.65-78.589Z"/><path class="cls-2" d="M68.481,34.117c-.289-4.401-.957-8.569-2.002-12.503-1.047-3.933-2.598-7.361-4.655-10.284-2.057-2.923-4.709-5.232-7.957-6.928-3.247-1.695-7.182-2.506-11.799-2.435l-34.315.324c-1.732,0-3.176.29-4.33.866-.65.362-1.191.939-1.624,1.732-.433.795-.65,1.805-.65,3.031l-.65,75.017c0,1.082.415,2.003,1.245,2.761.829.758,1.857,1.172,3.086,1.245l5.954.216c1.226.071,2.273-.344,3.139-1.245s1.299-1.966,1.299-3.193l-.108-20.351c2.453.578,5.142.957,8.065,1.136,2.923.181,6.26.235,10.013.162,5.629-.071,10.68-.775,15.155-2.111,4.474-1.335,8.244-3.247,11.312-5.737,3.066-2.49,5.358-5.538,6.874-9.147,1.516-3.608,2.165-7.794,1.949-12.557ZM45.153,48.46c-.687.83-1.607,1.461-2.76,1.894-.433.146-1.066.271-1.895.379-.83.108-1.769.2-2.815.271-1.047.073-2.111.127-3.193.162-1.082.037-2.056.054-2.923.054h-4.33c-1.732,0-3.572-.054-5.521-.162-1.948-.108-3.32-.341-4.113-.704-1.228-.433-2.002-1.064-2.327-1.894-.325-.829-.487-2.038-.487-3.627,0-1.515.162-2.687.487-3.518.325-.829,1.1-1.462,2.327-1.895.793-.36,2.165-.595,4.113-.704,1.949-.108,3.789-.162,5.521-.162h4.33c.866,0,1.84.019,2.923.054,1.082.037,2.147.091,3.193.162,1.046.073,1.984.162,2.815.271.829.108,1.461.235,1.895.379,1.153.433,2.074,1.065,2.76,1.895.685.83,1.029,2.002,1.029,3.518,0,1.588-.344,2.798-1.029,3.627Z"/><path class="cls-2" d="M136.052,42.994c-1.732-3.752-3.935-6.657-6.603-8.714-2.671-2.057-5.648-3.446-8.931-4.167-3.285-.721-6.549-1.153-9.797-1.299-2.455-.144-4.476-.324-6.062-.541-1.588-.216-2.852-.558-3.789-1.028-.939-.469-1.607-1.046-2.002-1.732-.398-.685-.595-1.57-.595-2.652,0-1.299.433-2.309,1.299-3.031.866-.721,1.911-1.245,3.139-1.57,1.226-.325,2.471-.504,3.735-.541,1.261-.036,2.327-.054,3.193-.054,1.587,0,3.464.091,5.629.27,2.165.181,4.149.416,5.954.704,2.309.362,3.751.2,4.33-.487.576-.685.829-1.749.758-3.193l-.433-8.552c-.146-1.37-.487-2.327-1.029-2.869s-1.859-.991-3.951-1.353c-2.094-.361-4.151-.65-6.17-.866-2.021-.216-4.511-.325-7.469-.325-6.928,0-12.449,1.553-16.562,4.655-4.403,3.393-6.603,8.517-6.603,15.372,0,5.196,1.37,9.166,4.113,11.907,1.443,1.445,3.318,2.598,5.629,3.464,2.309.866,5.521,1.588,9.634,2.165.576.073,1.37.181,2.381.325,1.01.145,2.002.398,2.977.758.974.362,1.821.904,2.544,1.624.721.722,1.082,1.732,1.082,3.031,0,1.372-.379,2.419-1.136,3.139-.758.722-1.696,1.209-2.815,1.461-1.12.254-2.327.379-3.626.379h-3.464c-3.031,0-6.37-.287-10.013-.866-3.645-.576-7.127-1.118-10.446-1.624-1.588-.216-2.869-.306-3.843-.27-.975.037-1.859.56-2.652,1.57-.506.722-1.011,2.039-1.516,3.951-.505,1.913-.957,4.15-1.353,6.711-.398,2.563-.722,5.25-.975,8.065-.254,2.815-.379,5.521-.379,8.118,0,2.238.271,4.059.812,5.467s1.461,2.616,2.76,3.626c4.257,3.392,13.711,5.088,28.362,5.088,1.948,0,4.203-.019,6.766-.054,2.561-.037,5.231-.308,8.011-.812,2.777-.505,5.502-1.353,8.172-2.544,2.669-1.191,5.051-2.94,7.145-5.25,2.092-2.309,3.735-5.304,4.925-8.985,1.191-3.681,1.713-8.227,1.57-13.64-.073-6.133-.974-11.077-2.706-14.83Z"/><path class="cls-2" d="M207.487,1.859l-5.738-.433c-.866-.072-1.696.216-2.49.866-.794.65-1.299,1.48-1.515,2.49-.579,2.598-1.318,5.45-2.219,8.552-.903,3.104-1.894,6.208-2.976,9.31-1.082,3.104-2.327,6.153-3.735,9.147-1.407,2.996-2.906,5.683-4.493,8.064-1.588,2.382-3.193,4.313-4.817,5.792-1.624,1.48-3.266,2.219-4.925,2.219-1.588,0-3.231-.739-4.926-2.219-1.696-1.478-3.32-3.41-4.871-5.792-1.553-2.381-3.031-5.069-4.438-8.064-1.407-2.994-2.652-6.043-3.735-9.147-1.082-3.102-2.076-6.206-2.977-9.31-.903-3.102-1.642-5.954-2.219-8.552-.217-1.01-.722-1.84-1.516-2.49-.795-.649-1.661-.937-2.598-.866l-5.629.433c-1.299.145-2.365.595-3.193,1.353-.83.758-1.174,1.642-1.029,2.652,1.516,10.321,3.392,19.143,5.629,26.467,2.236,7.326,4.98,13.585,8.227,18.782,0,2.67-.019,5.269-.054,7.794-.037,2.527-.091,5.071-.162,7.632-.073,2.562-.127,5.196-.162,7.903-.037,2.706-.054,5.647-.054,8.822,0,1.445.541,2.346,1.624,2.706,1.082.362,2.273.614,3.572.758.72.071,1.695.125,2.923.162,1.226.035,2.49.054,3.789.054h23.599c1.299,0,2.561-.019,3.789-.054,1.227-.037,2.201-.091,2.923-.162,1.299-.144,2.49-.396,3.572-.758,1.082-.36,1.624-1.261,1.624-2.706,0-3.175-.037-6.116-.108-8.822-.073-2.707-.127-5.34-.162-7.903-.037-2.561-.091-5.105-.162-7.632-.073-2.525-.108-5.123-.108-7.794,3.318-5.196,6.097-11.456,8.335-18.782,2.236-7.324,4.076-16.146,5.521-26.467.144-1.01-.181-1.894-.975-2.652-.795-.758-1.84-1.208-3.139-1.353Z"/><path class="cls-2" d="M277.866,50.463c-.722-.793-1.624-1.191-2.707-1.191-2.887.145-5.737.308-8.552.487-2.814.181-5.593.27-8.335.27-3.104,0-6.008-.162-8.714-.487-2.707-.325-5.052-1.064-7.037-2.219-1.985-1.153-3.536-2.815-4.655-4.98-1.12-2.165-1.678-5.087-1.678-8.768,0-3.391.541-6.079,1.624-8.064,1.082-1.984,2.579-3.518,4.492-4.601,1.911-1.082,4.131-1.786,6.657-2.111,2.526-.325,5.196-.487,8.011-.487,1.803,0,3.589.073,5.358.217,1.768.145,3.554.289,5.358.433,1.154.145,2.165-.216,3.031-1.082.866-.866,1.262-1.911,1.191-3.139l-.433-8.552c-.073-1.226-.487-2.219-1.245-2.976s-1.751-1.172-2.977-1.245c-1.444-.071-2.906-.144-4.384-.217-1.48-.071-2.976-.108-4.492-.108-2.598,0-5.233.108-7.902.325-2.671.216-5.304.632-7.903,1.245-2.598.614-5.106,1.461-7.523,2.544-2.419,1.082-4.709,2.49-6.874,4.222-4.547,3.609-8.119,8.3-10.717,14.073-2.598,5.774-4.005,12.557-4.221,20.351-.217,6.351.306,11.837,1.569,16.454,1.262,4.619,3.013,8.517,5.25,11.691,2.236,3.176,4.853,5.737,7.848,7.686,2.994,1.949,6.152,3.464,9.472,4.547,3.318,1.082,6.658,1.823,10.013,2.219,3.356.396,6.549.631,9.58.704h1.624c1.659,0,3.681-.091,6.062-.27,2.382-.181,4.69-.65,6.928-1.407,2.236-.758,4.149-1.857,5.738-3.302,1.586-1.443,2.417-3.391,2.49-5.846.216-7.721,0-15.515-.65-23.382-.145-1.226-.579-2.236-1.299-3.031Z"/><path class="cls-2" d="M348.319,3.157c-.795-.72-1.805-1.153-3.031-1.299l-5.629-.433c-1.082-.144-2.057.253-2.923,1.19-.866.939-1.299,2.021-1.299,3.247v15.48c0,1.228-.416,2.202-1.245,2.923-.83.722-1.823,1.155-2.977,1.299-1.948.216-4.096.398-6.441.541-2.346.145-4.565.216-6.657.216s-4.313-.071-6.657-.216c-2.346-.144-4.493-.325-6.441-.541-1.155-.144-2.148-.576-2.976-1.299-.831-.721-1.245-1.695-1.245-2.923V5.864c0-1.226-.433-2.309-1.299-3.247-.866-.937-1.84-1.335-2.923-1.19l-5.737.433c-1.228.145-2.219.579-2.977,1.299-.758.722-1.136,1.624-1.136,2.706l-.65,77.074c0,1.082.396,2.003,1.191,2.761.793.758,1.84,1.172,3.139,1.245l5.954.216c1.153.071,2.182-.344,3.085-1.245.901-.901,1.353-1.966,1.353-3.193v-15.263c0-1.226.414-2.2,1.245-2.923.829-.721,1.821-1.153,2.976-1.299,1.949-.361,4.095-.596,6.441-.704,2.344-.108,4.563-.162,6.657-.162s4.311.054,6.657.162c2.344.108,4.493.343,6.441.704,1.154.145,2.147.578,2.977,1.299.829.722,1.245,1.696,1.245,2.923v15.263c0,1.228.433,2.292,1.299,3.193.866.901,1.912,1.316,3.139,1.245l5.954-.216c1.226-.073,2.255-.487,3.085-1.245.829-.758,1.245-1.678,1.245-2.761l-.65-77.074c0-1.082-.398-1.984-1.19-2.706Z"/><path class="cls-2" d="M431.655,27.514c-1.769-5.34-4.205-9.959-7.307-13.856-3.393-4.33-7.398-7.505-12.016-9.526-4.619-2.02-10.104-3.031-16.454-3.031s-11.837,1.011-16.454,3.031c-4.619,2.021-8.624,5.196-12.016,9.526-3.031,3.897-5.431,8.481-7.198,13.748-1.77,5.269-2.761,10.717-2.977,16.346-.145,5.486.45,10.681,1.786,15.588,1.335,4.909,3.373,9.382,6.116,13.423,3.681,5.413,8.082,9.274,13.207,11.583,5.123,2.309,10.933,3.464,17.428,3.464,6.999,0,13.026-1.281,18.078-3.843,5.051-2.561,9.309-6.368,12.774-11.42,2.741-3.897,4.78-8.281,6.116-13.152,1.335-4.871,1.93-10.013,1.786-15.426-.145-5.629-1.101-11.113-2.869-16.454ZM409.41,43.102c-1.228,2.238-3.085,4.059-5.575,5.466s-5.142,2.111-7.957,2.111c-2.744,0-5.358-.704-7.848-2.111s-4.349-3.229-5.575-5.466c-.722-1.227-1.282-2.669-1.678-4.33-.398-1.659-.595-3.427-.595-5.304,0-2.381.341-4.617,1.029-6.711.685-2.092,1.678-3.914,2.976-5.467,1.299-1.551,2.923-2.76,4.872-3.626s4.221-1.299,6.82-1.299,4.871.433,6.82,1.299,3.572,2.056,4.872,3.572c1.299,1.515,2.29,3.32,2.976,5.412.685,2.094,1.029,4.367,1.029,6.82,0,3.753-.722,6.966-2.165,9.635Z"/><path class="cls-2" d="M505.088,42.994c-1.731-3.752-3.933-6.657-6.603-8.714-2.671-2.057-5.648-3.446-8.931-4.167-3.285-.721-6.55-1.153-9.796-1.299-2.456-.144-4.476-.324-6.063-.541-1.588-.216-2.852-.558-3.788-1.028-.939-.469-1.608-1.046-2.003-1.732-.398-.685-.596-1.57-.596-2.652,0-1.299.434-2.309,1.299-3.031.866-.721,1.912-1.245,3.139-1.57,1.226-.325,2.471-.504,3.734-.541,1.262-.036,2.328-.054,3.193-.054,1.587,0,3.464.091,5.629.27,2.165.181,4.149.416,5.954.704,2.309.362,3.752.2,4.33-.487.576-.685.829-1.749.758-3.193l-.433-8.552c-.145-1.37-.487-2.327-1.029-2.869s-1.859-.991-3.951-1.353c-2.094-.361-4.151-.65-6.171-.866-2.021-.216-4.51-.325-7.468-.325-6.929,0-12.449,1.553-16.563,4.655-4.403,3.393-6.603,8.517-6.603,15.372,0,5.196,1.37,9.166,4.113,11.907,1.443,1.445,3.318,2.598,5.629,3.464,2.309.866,5.521,1.588,9.634,2.165.576.073,1.37.181,2.382.325,1.009.145,2.002.398,2.976.758.975.362,1.821.904,2.544,1.624.721.722,1.082,1.732,1.082,3.031,0,1.372-.379,2.419-1.136,3.139-.758.722-1.696,1.209-2.815,1.461-1.12.254-2.328.379-3.626.379h-3.464c-3.032,0-6.37-.287-10.013-.866-3.645-.576-7.127-1.118-10.446-1.624-1.588-.216-2.869-.306-3.843-.27-.975.037-1.859.56-2.652,1.57-.506.722-1.011,2.039-1.516,3.951-.505,1.913-.957,4.15-1.353,6.711-.398,2.563-.722,5.25-.975,8.065-.254,2.815-.379,5.521-.379,8.118,0,2.238.271,4.059.812,5.467s1.461,2.616,2.76,3.626c4.257,3.392,13.711,5.088,28.362,5.088,1.947,0,4.202-.019,6.766-.054,2.56-.037,5.231-.308,8.01-.812,2.777-.505,5.501-1.353,8.173-2.544,2.669-1.191,5.05-2.94,7.144-5.25,2.092-2.309,3.735-5.304,4.924-8.985,1.191-3.681,1.713-8.227,1.57-13.64-.073-6.133-.973-11.077-2.707-14.83Z"/><path class="cls-2" d="M569.228,3.428c-.758-.758-1.751-1.172-2.976-1.245-3.897-.144-7.902-.271-12.015-.379-4.114-.108-8.444-.162-12.991-.162s-8.877.054-12.991.162c-4.113.108-8.118.235-12.016.379-1.227.073-2.218.487-2.975,1.245-.759.758-1.174,1.75-1.245,2.976l-.867,29.661c0,1.155.396,2.13,1.191,2.923.793.795,1.803,1.228,3.03,1.299,4.041.145,7.595.27,10.663.379,3.067.108,5.863.162,8.39.162l-.65,42.109c-.073,1.082.325,2.003,1.191,2.761.866.758,1.911,1.172,3.138,1.245l6.171.216c1.153.071,2.181-.344,3.084-1.245.902-.901,1.353-1.966,1.353-3.193l-.542-41.893c3.248-.071,6.442-.144,9.58-.216,3.139-.071,6.26-.179,9.364-.325,1.226-.071,2.235-.504,3.03-1.299s1.154-1.767,1.082-2.923l-.758-29.661c-.073-1.226-.488-2.219-1.245-2.976Z"/><path class="cls-2" d="M641.036,51.654c-.722-1.227-1.515-1.895-2.381-2.003-.866-.108-1.806-.125-2.815-.054-1.229.073-2.453.145-3.68.216-1.229.073-2.456.108-3.68.108-3.682,0-6.966-.704-9.851-2.111-2.887-1.407-5.16-3.41-6.821-6.008-.216-.36-.271-.666-.161-.92.108-.252.341-.379.703-.379,3.607,0,6.891-.487,9.851-1.461,2.958-.975,5.466-2.363,7.523-4.168,2.057-1.803,3.643-4.005,4.764-6.603,1.117-2.598,1.676-5.483,1.676-8.66,0-2.526-.504-4.872-1.515-7.037s-2.398-4.041-4.167-5.629c-1.768-1.587-3.898-2.832-6.387-3.735-2.489-.902-5.215-1.316-8.173-1.245l-35.506.541c-1.155,0-2.148.398-2.978,1.19-.83.795-1.244,1.77-1.244,2.923l-.542,76.316c0,1.082.415,2.003,1.245,2.761.829.758,1.895,1.172,3.193,1.245l6.82.216c1.154.071,2.183-.344,3.086-1.245.901-.901,1.352-1.966,1.352-3.193l-.866-41.135c0-.721.361-1.01,1.082-.866.36.145.541.398.541.758.218,2.165.469,4.151.759,5.954.287,1.805.631,3.572,1.027,5.304.396,1.732.867,3.464,1.407,5.196.542,1.732,1.209,3.536,2.004,5.412,1.515,3.681,3.301,7.001,5.358,9.959,2.057,2.96,4.24,5.521,6.55,7.686,3.03,2.744,6.169,4.817,9.417,6.224,3.246,1.407,6.495,2.111,9.743,2.111,6.638,0,10.825-1.515,12.556-4.546.289-.577.559-1.478.813-2.707.251-1.226.449-2.652.595-4.276.143-1.624.271-3.372.379-5.25.108-1.876.198-3.681.271-5.412.07-3.392-.037-6.495-.324-9.31-.291-2.815-.832-4.871-1.625-6.17ZM609.049,29.571c-1.048.073-2.112.127-3.193.162-1.084.037-2.057.055-2.923.055-1.661,0-3.484-.071-5.468-.216-1.984-.144-3.374-.361-4.167-.65-1.228-.433-2.002-1.064-2.328-1.895-.324-.829-.487-2.038-.487-3.626,0-1.516.163-2.687.487-3.518.326-.829,1.1-1.461,2.328-1.894.433-.144,1.01-.271,1.732-.379.72-.108,1.532-.198,2.435-.27.903-.071,1.824-.125,2.762-.162.936-.036,1.841-.054,2.707-.054s1.839.018,2.923.054c1.081.037,2.145.091,3.193.162,1.044.073,2.002.162,2.867.27.868.108,1.517.235,1.949.379,1.154.433,2.075,1.065,2.762,1.894.685.831,1.026,2.002,1.026,3.518,0,1.588-.341,2.798-1.026,3.626-.687.831-1.608,1.462-2.762,1.895-.432.145-1.081.27-1.949.379-.866.108-1.824.2-2.867.271Z"/><path class="cls-2" d="M723.9,62.641c-1.623-6.747-3.625-13.531-6.008-20.351-2.381-6.82-4.962-13.44-7.739-19.864-2.779-6.422-5.539-12.051-8.281-16.887-1.156-2.236-2.887-3.392-5.198-3.464-1.731-.071-3.319-.125-4.761-.162-1.445-.035-2.744-.054-3.898-.054h-4.383c-1.48,0-2.942.073-4.385.216-1.372.145-2.453.47-3.248.975-.795.505-1.48,1.336-2.057,2.49-2.742,5.341-5.484,11.149-8.226,17.428-2.744,6.279-5.268,12.72-7.578,19.323-2.31,6.603-4.295,13.206-5.953,19.81-1.661,6.603-2.744,12.936-3.248,18.998-.145,1.444.181,2.671.976,3.681.793,1.011,1.839,1.515,3.138,1.515l25.547.541c1.227,0,2.165-.469,2.815-1.407.65-.937.936-2.669.866-5.196,0-.071-.018-.739-.053-2.002-.037-1.262-.02-3.264.053-6.008.07-4.763.198-8.768.379-12.016.181-3.248.449-5.917.813-8.011.359-3.031.848-5.069,1.46-6.116.612-1.045,1.641-1.57,3.086-1.57,1.299,0,2.29.542,2.978,1.624.685,1.082,1.207,3.247,1.57,6.495.216,1.949.394,4.33.54,7.144s.253,5.775.326,8.877c.143,3.464.198,6.045.163,7.74-.037,1.696-.055,2.833-.055,3.41-.073,2.743.216,4.619.866,5.629.65,1.011,1.623,1.478,2.923,1.407l25.547-.541c1.299,0,2.346-.504,3.141-1.515.793-1.01,1.117-2.236.973-3.681-.434-5.557-1.462-11.708-3.086-18.457ZM692.832,29.03c-1.335,1.082-2.94,1.624-4.817,1.624s-3.502-.541-4.872-1.624c-1.37-1.083-2.055-2.886-2.055-5.413s.685-4.33,2.055-5.412,2.995-1.624,4.872-1.624,3.482.541,4.817,1.624,2.004,2.887,2.004,5.412-.67,4.33-2.004,5.413Z"/><path class="cls-2" d="M782.512,3.428c-.758-.758-1.751-1.172-2.978-1.245-3.896-.144-7.902-.271-12.016-.379-4.114-.108-8.444-.162-12.989-.162s-8.878.054-12.989.162c-4.114.108-8.12.235-12.016.379-1.229.073-2.22.487-2.978,1.245-.758.758-1.174,1.75-1.244,2.976l-.866,29.661c0,1.155.394,2.13,1.189,2.923.795.795,1.804,1.228,3.033,1.299,4.039.145,7.594.27,10.662.379,3.066.108,5.863.162,8.389.162l-.65,42.109c-.073,1.082.326,2.003,1.191,2.761s1.912,1.172,3.141,1.245l6.169.216c1.154.071,2.183-.344,3.086-1.245.901-.901,1.352-1.966,1.352-3.193l-.54-41.893c3.246-.071,6.44-.144,9.58-.216,3.138-.071,6.259-.179,9.362-.325,1.227-.071,2.238-.504,3.033-1.299s1.152-1.767,1.081-2.923l-.758-29.661c-.073-1.226-.487-2.219-1.244-2.976Z"/><path class="cls-2" d="M855.222,3.157c-.76-.72-1.751-1.153-2.978-1.299l-5.737-.433c-1.084-.144-2.057.253-2.923,1.19-.868.939-1.299,2.021-1.299,3.247l-.108,25.764c0,3.031-.507,5.792-1.515,8.281-1.013,2.49-2.348,4.638-4.006,6.441-1.661,1.805-3.61,3.212-5.845,4.222-2.238,1.011-4.621,1.515-7.144,1.515s-4.909-.504-7.144-1.515c-2.238-1.01-4.206-2.417-5.9-4.222-1.696-1.803-3.05-3.951-4.059-6.441-1.013-2.49-1.515-5.25-1.515-8.281l-.218-25.764c0-1.226-.432-2.309-1.299-3.247-.866-.937-1.839-1.335-2.923-1.19l-5.737.433c-1.227.145-2.218.579-2.975,1.299-.758.722-1.136,1.624-1.136,2.706l-.434,42.542c0,6.135.557,11.583,1.678,16.346,1.117,4.763,2.83,8.985,5.14,12.665,2.599,4.113,6.008,7.109,10.23,8.985s9.615,2.815,16.185,2.815c6.638,0,12.087-.939,16.346-2.815,4.257-1.876,7.684-4.872,10.283-8.985,4.691-7.288,6.929-16.958,6.711-29.011l-.54-42.542c0-1.082-.379-1.984-1.136-2.706Z"/><path class="cls-2" d="M943.158,4.673c0-.866-.216-1.624-.65-2.273s-.993-1.136-1.678-1.461c-.687-.325-1.425-.469-2.218-.433-.795.037-1.553.344-2.275.921l-30.743,23.815c-1.011.722-2.057.722-3.138,0l-30.743-23.815c-.65-.577-1.372-.883-2.165-.921-.795-.035-1.535.108-2.22.433-.687.325-1.244.812-1.678,1.461-.432.65-.65,1.407-.65,2.273l-.65,78.589c0,1.082.414,2.002,1.247,2.761.828.758,1.857,1.172,3.083,1.245l5.955.216c1.227.071,2.273-.344,3.138-1.245.866-.902,1.299-1.966,1.299-3.193l-.216-30.527c0-.649.324-1.118.973-1.407.65-.288,1.262-.217,1.841.216l19.592,15.155c.793.579,1.661.866,2.599.866s1.802-.287,2.597-.866l19.486-15.155c.577-.433,1.189-.504,1.839-.216.65.289.976.758.976,1.407l-.218,30.527c0,1.228.524,2.292,1.57,3.193,1.046.901,2.147,1.316,3.301,1.245l5.955-.216c1.297-.073,2.363-.487,3.193-1.245.828-.758,1.244-1.678,1.244-2.761l-.65-78.589Z"/></svg>