<?xml version="1.0" encoding="UTF-8"?><svg id="Layer_1" xmlns="http://www.w3.org/2000/svg" viewBox="0 0 494 334"><defs><style>.cls-1{fill:#1c3c83;}.cls-1,.cls-2{stroke-width:0px;}.cls-2{fill:#c93e30;}</style></defs><path class="cls-2" d="M138.57,3.725c-.193-.689-.872-1.006-.993-1.062-.423-.197-.798-.168-1.335-.168-.586,0-1.383.027-2.337.144-1.662.158-3.324.316-4.985.474-.104.005-.773.046-1.204.595-.262.333-.305.687-.314.84v50.731c-.04,1.256.036,2.335-.711,3.873-.438.9-1.049,1.856-2.444,2.48-.311.139-1.598.687-3.098.326-2.29-.55-3.401-2.817-3.6-3.926-.026-.142-.083-.522-.123-.978-.091-1.02-.044-1.772-.038-1.888.051-1.061.041-21.108,0-50.414.013-.194.014-.464-.043-.779-.052-.288-.202-1.115-.797-1.579-.452-.352-.8-.458-1.831-.358-.788.076-1.57.204-2.347.347,0,0-.36.067-2.326.305-1.694.206-6.831.309-13.74.151-.27.041-.986.186-1.601.779-.863.832-.865,1.905-.861,2.105v53.266c.074,1.947.488,5.01,2.283,8.209,3.087,5.501,8.423,7.793,9.662,8.293,3.121,1.26,5.642,1.352,8.727,1.465,3.141.115,10.051.286,16.295-3.438,3.154-1.881,4.618-3.849,5.07-4.496,1.288-1.84,1.849-3.643,1.953-3.985.242-.8.349-1.421.459-2.077.198-1.178.39-2.851.33-4.918V4.151c.004-.104-.002-.255-.05-.426Z"/><path class="cls-2" d="M214.779,26.906c-.301,1.743-.019,39.946.01,43.722.002.637.023,1.341.073,2.105.137,2.094.403,3.203-.206,3.641-.195.14-.422.171-.595.172-2.117-.028-4.234-.056-6.352-.083-.454-.022-1.589-.141-2.45-.979-.663-.646-.873-1.431-1.078-2.229-.228-.89-.217-1.599-.216-1.75.014-1.623.004-19.71,0-44.605.008-.096.037-.589-.336-1.008-.45-.505-1.104-.471-1.178-.466-1.517-.022-3.033-.044-4.55-.067-.161.007-1.658.052-2.588-1.099-.569-.705-.617-1.477-.62-1.761-.142-4.205-.179-7.26-.184-9.328-.01-4.209-.172-7.026-.172-7.833,0-.674-.271-.953.216-1.486.386-.423.744-.536,1.627-.531.248.001.43.013.786.039.539.041.93.087,1.09.105.587.065,1.635.106,1.778.11.869.026,10.379.033,23.398,0,.319.007.832.007,1.464-.049.778-.069.958-.153,1.396-.092.251.035.894.159,1.455.667.149.135.519.478.69,1.052.082.275.092.515.086.677-.06,3.009-.088,6.071-.083,9.186.005,2.584.033,5.132.083,7.643.008.403-.079,1.297-.747,1.954-.646.636-1.541.734-1.979.75h-9.293c-.171-.005-.463.012-.756.173,0,0-.591.342-.769,1.371Z"/><path class="cls-2" d="M349.457,26.906c-.301,1.743-.019,39.946.01,43.722.002.637.023,1.341.073,2.105.137,2.094.403,3.203-.206,3.641-.195.14-.422.171-.595.172-2.117-.028-4.234-.056-6.352-.083-.454-.022-1.589-.141-2.45-.979-.663-.646-.873-1.431-1.078-2.229-.228-.89-.217-1.599-.216-1.75.014-1.623.004-19.71,0-44.605.008-.096.037-.589-.336-1.008-.45-.505-1.104-.471-1.178-.466-1.517-.022-3.033-.044-4.55-.067-.161.007-1.658.052-2.588-1.099-.569-.705-.617-1.477-.62-1.761-.142-4.205-.179-7.26-.184-9.328-.01-4.209-.172-7.026-.172-7.833,0-.674-.271-.953.216-1.486.386-.423.744-.536,1.627-.531.248.001.43.013.786.039.539.041.93.087,1.09.105.587.065,1.635.106,1.778.11.869.026,10.379.033,23.398,0,.319.007.832.007,1.464-.049.778-.069.958-.153,1.396-.092.251.035.894.159,1.455.667.149.135.519.478.69,1.052.082.275.092.515.086.677-.06,3.009-.088,6.071-.083,9.186.005,2.584.033,5.132.083,7.643.008.403-.079,1.297-.747,1.954-.646.636-1.541.734-1.979.75h-9.293c-.171-.005-.463.012-.756.173,0,0-.591.342-.769,1.371Z"/><path class="cls-2" d="M87.313,60.257c.019-4.918.202-53.961,0-56.111-.024-.256-.092-.958-.615-1.383-.216-.176-.57-.361-1.608-.356-.88.004-1.451.14-2.316.314,0,0,0,0,0,0-.582.114-1.802.363-3.645.608-.44.058-1.04.134-1.759.21-.132.034-.386.119-.612.341-.268.263-.383.855-.392.98-.075,1.011-.018,60.853,0,63.925.017,2.906.05,4.671.532,5.617.348.683.815,1.048.815,1.048.403.262.759.425,1.28.601.505.171.946.266,1.272.322h6.198c.392,0,1.002-.111,1.544-.546.518-.415.734-.967.829-1.3.207-1.343.452-2.734.743-4.168.398-1.959.843-3.814,1.315-5.561.037-.093.242-.636-.043-1.202-.054-.108-.247-.456-.643-.643-.222-.105-.29-.056-.886-.154-.459-.075-.689-.113-.886-.21-.412-.203-.619-.55-.758-.783-.367-.616-.382-1.234-.364-1.551Z"/><path class="cls-2" d="M69.886,70.051c.113-36.411.121-63.086,0-64.838-.022-.317-.087-1.203-.729-1.798-.627-.581-1.417-.616-1.801-.633-.268-.012-.37.015-1.801.307-1.292.264-1.481.297-1.744.326-.734.079-1.343.043-1.744,0h-11.509c-.364.043-1.414.218-2.202,1.072-.714.774-.839,1.702-.915,2.264-.06.445-.05.822-.029,1.09v62.238c-.043.736-.099,1.338-.143,1.761-.058.558-.091,1.118-.143,1.677-.045.487-.08.829.057,1.258.062.193.165.503.458.727.168.128.341.185.543.252.278.091.519.125.686.14,2.555.496,5.641.903,9.15.978,3.817.081,7.164-.252,9.894-.699.137-.034.334-.098.536-.231.418-.273.654-.702.901-1.572.227-.803.32-1.476.386-2.096.06-.567.124-1.322.15-2.222Z"/><path class="cls-2" d="M387.04,70.051c.099-36.411.106-63.086,0-64.838-.019-.317-.076-1.203-.64-1.798-.551-.581-1.245-.616-1.582-.633-.236-.012-.325.015-1.582.307-1.134.264-1.301.297-1.532.326-.644.079-1.179.043-1.532,0h-10.107c-.32.043-1.242.218-1.933,1.072-.627.774-.737,1.702-.804,2.264-.053.445-.044.822-.025,1.09v62.238c-.038.736-.087,1.338-.126,1.761-.051.558-.08,1.118-.126,1.677-.039.487-.07.829.05,1.258.054.193.145.503.402.727.147.128.299.185.477.252.244.091.456.125.603.14,2.244.496,4.954.903,8.035.978,3.352.081,6.291-.252,8.688-.699.12-.034.293-.098.471-.231.367-.273.575-.702.791-1.572.2-.803.281-1.476.339-2.096.053-.567.109-1.322.132-2.222Z"/><path class="cls-2" d="M285.876,154.902c.098-36.819.106-63.794,0-65.565-.021-.354-.006-1.361-.635-1.818-.23-.167-.464-.204-1.437-.179-1.372.035-2.213.141-3.221.179-.379.014-.898.023-1.519,0h-10.025c-.317.044-1.232.22-1.918,1.084-.622.783-.731,1.721-.797,2.289-.052.45-.044.831-.025,1.102v62.936c-.037.745-.086,1.353-.125,1.78-.051.564-.08,1.131-.125,1.696-.039.492-.069.838.05,1.272.054.195.144.508.399.735.146.13.297.187.473.254.242.092.452.127.598.141,2.504.26,5.22.443,8.124.497,3.029.057,5.86-.034,8.465-.215.118-.036.291-.103.467-.233.438-.322.597-.819.785-1.59.198-.812.279-1.492.336-2.12.053-.573.108-1.337.131-2.247Z"/><path class="cls-2" d="M189.056,29.527c-5.109.001-10.218.002-15.326.003-.302.006-2.484.029-3.017-1.09-.194-.407-.139-.9-.043-1.763.11-.987.306-1.167.272-1.735-.049-.81-.505-1.391-.829-1.804-1.426-1.817-3.764-2.107-3.917-2.124-.524-.057-3.093-.339-4.489,1.374-1.531,1.878-.346,4.548-.057,5.136.52,1.059,1.27,1.769,2.23,2.498,2.767,2.103,5.434,2.975,6.948,3.525,0,0,4.58,1.645,9.322,4.691,2.873,1.846,5.567,3.576,7.753,6.932,2.783,4.271,3.059,8.589,3.045,10.564-.024,3.593-1.053,6.283-1.501,7.336-2.668,6.272-8.023,9.249-10.184,10.45-5.408,3.007-10.39,3.343-13.125,3.387-6.333.102-10.8-1.906-14.154-3.414,0,0-4.523-2.033-7.949-5.996-.603-.697-.829-1.471-.829-1.471-.134-.457-.151-.86-.143-1.138v-17.475c.013-.148.023-.367-.004-.631-.051-.506-.18-.633-.197-.909-.031-.519.361-1.159.944-1.374.589-.218,1.16.076,1.458.229.348.179.459.337,1.072.937,0,0,.599.586,1.308,1.208.587.514,1.061.851,1.566,1.208,2.169,1.532,3.659,2.583,5.794,3.602.604.288,3.311,1.552,6.834,2.082,1.011.152,2.118.248,3.317-.222.44-.173,1.489-.601,2.145-1.666.666-1.082.532-2.181.429-3.026-.24-1.975-1.337-3.264-1.687-3.664-.699-.8-1.409-1.251-1.716-1.443-2.987-1.87-7.685-4.695-9.064-5.58-1.433-.919-4.122-2.678-6.319-5.718-3.451-4.775-3.567-9.78-3.574-10.771-.013-1.83.231-6.287,3.288-10.632,4.177-5.935,10.622-7.421,12.867-7.939,3.776-.871,6.827-.593,8.321-.444,1.977.197,6.577.707,11.352,3.748,5.581,3.554,7.973,8.383,8.864,10.243,2.105,4.395,2.46,8.385,2.488,10.687-.008.25-.06.656-.322,1.041-.444.653-1.215.842-1.855.999-.551.135-1.019.153-1.315.149Z"/><path class="cls-2" d="M383.441,114.025c-5.378.001-10.756.002-16.133.003-.318.006-2.614.029-3.176-1.09-.204-.407-.146-.9-.045-1.763.116-.987.322-1.167.286-1.735-.051-.81-.531-1.391-.873-1.804-1.501-1.817-3.962-2.107-4.124-2.124-.551-.057-3.255-.339-4.726,1.374-1.612,1.878-.364,4.548-.06,5.136.547,1.059,1.337,1.769,2.348,2.498,2.913,2.103,5.72,2.975,7.314,3.525,0,0,4.822,1.645,9.813,4.691,3.024,1.846,5.86,3.576,8.161,6.932,2.929,4.271,3.22,8.589,3.206,10.564-.026,3.593-1.109,6.283-1.58,7.336-2.808,6.272-8.446,9.249-10.72,10.45-5.693,3.007-10.937,3.343-13.816,3.387-6.666.102-11.369-1.906-14.899-3.414,0,0-4.761-2.033-8.368-5.996-.634-.697-.873-1.471-.873-1.471-.141-.457-.159-.86-.151-1.138v-17.475c.014-.148.024-.367-.004-.631-.053-.506-.189-.633-.207-.909-.033-.519.38-1.159.993-1.374.62-.218,1.221.076,1.535.229.366.179.483.337,1.129.937,0,0,.631.586,1.377,1.208.618.514,1.116.851,1.648,1.208,2.284,1.532,3.851,2.583,6.099,3.602.636.288,3.486,1.552,7.194,2.082,1.064.152,2.229.248,3.492-.222.464-.173,1.568-.601,2.257-1.666.701-1.082.56-2.181.451-3.026-.253-1.975-1.407-3.264-1.776-3.664-.736-.8-1.483-1.251-1.806-1.443-3.144-1.87-8.089-4.695-9.542-5.58-1.509-.919-4.34-2.678-6.652-5.718-3.632-4.775-3.755-9.78-3.762-10.771-.014-1.83.243-6.287,3.461-10.632,4.397-5.935,11.182-7.421,13.545-7.939,3.975-.871,7.186-.593,8.759-.444,2.081.197,6.923.707,11.95,3.748,5.875,3.554,8.393,8.383,9.331,10.243,2.216,4.395,2.589,8.385,2.619,10.687-.008.25-.063.656-.339,1.041-.467.653-1.279.842-1.953.999-.58.135-1.072.153-1.385.149Z"/><path class="cls-2" d="M284.162,71.87c-.213-.342-.466-.566-.901-.95-.425-.375-.593-.445-.986-.769-.287-.235-.688-.601-1.115-1.132-3.138-3.69-6.383-7.792-9.629-12.318-3.336-4.651-6.242-9.148-8.771-13.394-.072-.113-.308-.51-.229-1.031.112-.736.756-1.087.831-1.127,1.842-.371,5.536-1.371,9.012-4.328,5.943-5.055,6.586-11.861,6.67-12.933.104-1.338.462-7.814-4.375-13.519-5.465-6.447-13.243-6.816-14.454-6.854-7.856.009-15.712.019-23.569.028-.318-.016-.793-.048-1.368-.117-.912-.111-1.033-.19-1.441-.155-.251.022-1.014.098-1.641.692-.545.517-.684,1.138-.72,1.312-.05.24-.056.446-.051.592-.023,6.559-.222,66.127,0,68.415.09.924.593,1.487.593,1.487.516.58,1.239.763,1.93.859,2.652.37,7.232-.198,7.903-.283.374-.092.537-.26.615-.374.207-.304.112-.739-.077-1.61-.07-.32-.128-.512-.174-.888-.033-.273-.041-.5-.043-.65v-18.668c-.006-.373.223-.709.564-.836.386-.144.842.007,1.074.369,4.945,6.605,9.89,13.21,14.835,19.815.374.453.993,1.1,1.909,1.656,1.244.755,2.383.947,3.882,1.184.983.156,2.37.298,4.053.22,4.619-.07,9.238-.14,13.857-.21.268-.046.94-.197,1.487-.762.638-.658.693-1.454.722-1.879.02-.297.075-1.092-.393-1.845ZM255.949,25.212c-.592.416-1.214.477-1.503.487h-11.774c-.055,0-.284-.006-.483-.178-.19-.164-.228-.372-.236-.428v-4.854c0-.048.004-.213.129-.356.18-.208.454-.191.482-.189h11.334c.292.013,1.258.091,2.094.828.135.119,1.165,1.059,1.08,2.515-.013.225-.084,1.443-1.124,2.175Z"/><path class="cls-2" d="M263.201,241.859c-.213-.342-.466-.566-.901-.95-.425-.375-.593-.445-.986-.769-.287-.235-.688-.601-1.115-1.132-3.138-3.69-6.383-7.792-9.629-12.318-3.336-4.651-6.242-9.148-8.771-13.394-.072-.113-.308-.51-.229-1.031.112-.736.756-1.087.831-1.127,1.842-.371,5.536-1.371,9.012-4.328,5.943-5.055,6.586-11.861,6.67-12.933.104-1.338.462-7.814-4.375-13.519-5.465-6.447-13.243-6.816-14.454-6.854-7.856.009-15.712.019-23.569.028-.318-.016-.793-.048-1.368-.117-.912-.111-1.033-.19-1.441-.155-.251.022-1.014.098-1.641.692-.545.517-.684,1.138-.72,1.312-.05.24-.056.446-.051.592-.023,6.559-.222,66.127,0,68.415.09.924.593,1.487.593,1.487.516.58,1.239.763,1.93.859,2.652.37,7.232-.198,7.903-.283.374-.092.537-.26.615-.374.207-.304.112-.739-.077-1.61-.07-.32-.128-.512-.174-.888-.033-.273-.041-.5-.043-.65v-18.668c-.006-.373.223-.709.564-.836.386-.144.842.007,1.074.369,4.945,6.605,9.89,13.21,14.835,19.815.374.453.993,1.1,1.909,1.656,1.244.755,2.383.947,3.882,1.184.983.156,2.37.298,4.053.22,4.619-.07,9.238-.14,13.857-.21.268-.046.94-.197,1.487-.762.638-.658.693-1.454.722-1.879.02-.297.075-1.092-.393-1.845ZM234.989,195.201c-.592.416-1.214.477-1.503.487h-11.774c-.055,0-.284-.006-.483-.178-.19-.164-.228-.372-.236-.428v-4.854c0-.048.004-.213.129-.356.18-.208.454-.191.482-.189h11.334c.292.013,1.258.091,2.094.828.135.119,1.165,1.059,1.08,2.515-.013.225-.084,1.443-1.124,2.175Z"/><path class="cls-2" d="M335.676,73.172c-2.306-8.142-4.578-16.389-6.813-24.742-3.529-13.192-6.845-26.204-9.961-39.025-.168-.712-.281-1.293-.354-1.691-.113-.62-.132-.822-.247-1.169-.027-.08-.267-.788-.74-1.378-.899-1.121-2.313-1.411-2.734-1.482-4.275-.421-8.981-.669-14.058-.612-2.976.033-5.811.168-8.492.376-.252.018-3.164.273-4.396,2.568-.466.867-.524,1.712-.506,2.248.124,44.492.107,62.753,0,63.798-.062.604-.047,1.216-.139,1.816-.115.749-.246,1.116-.046,1.58.195.455.578.699.726.793.646.413,1.325.354,1.537.327.993-.096,2.04-.169,3.138-.209,1.631-.059,3.162-.038,4.579.035.106.01.499.035.859-.223.519-.372.502-.999.499-1.054v-2.839c.008-.098.079-.796.653-1.124.16-.092.321-.132.452-.149h10.113c.164.016.654.083,1.09.47.484.429.579.964.6,1.113.069.733.138,1.466.207,2.199.035.225.136.657.477,1.06.651.769,1.632.796,1.789.798,3.297-.11,6.698-.169,10.197-.164,2.907.004,5.745.051,8.51.136,1.726.033,3.077-.847,3.328-1.952.136-.598-.076-1.151-.268-1.503ZM307.304,60.441c-.111.062-.282.123-.536.111h-7.778c-.265.005-.463-.054-.597-.111-.597-.257-.964-.945-.99-1.754V22.509c-.024-.791.23-1.355.472-1.378.24-.023.6.476.74,1.242,3.031,11.895,6.062,23.79,9.093,35.684.337,1.109.151,2.072-.404,2.383Z"/><path class="cls-2" d="M34.988,62.058V16.113c.029-.177.16-.856.793-1.383.643-.535,1.364-.547,1.544-.545h5.34c.18-.021.536-.088.865-.349.663-.528.621-1.376.615-1.474-.04-1.244-.062-2.52-.064-3.829-.002-1.443.021-2.848.064-4.213-.003-.229-.046-.567-.268-.863-.351-.468-.957-.572-1.673-.636-1.549-.137-2.731-.002-3.91.084-.546.04-1.371.09-2.391.108H10.465c-.822.009-1.689-.006-2.598-.052-1.14-.058-2.213-.159-3.21-.286-.185-.014-.833-.042-1.365.391-.496.403-.601.969-.658,1.279-.031.168-.049.359.086,1.74.031.317.059.582.079.769v5.792c.006.114.048.672.529,1.111.475.434,1.039.441,1.158.44h6.048c.24.039.617.136.972.412.9.699.819,1.892.808,2.019v45.77c-.007.213-.054.387-.114.527-.53,1.235-2.686,1.254-2.777,1.254h-4.7c-.281-.017-.499.032-.661.094-.825.316-1.321,1.387-1.297,2.688v7.01c.026.323.12.807.443,1.275.912,1.319,2.762,1.221,2.888,1.212,5.447.189,11.089.284,16.913.265,5.605-.018,11.039-.141,16.291-.349.293-.022,4.457-.379,5.011-2.414.047-.173.07-.365.057-.58v-7.511c.002-.259-.058-.455-.122-.594-.304-.663-1.162-1.052-2.173-1.041h-5.097c-.181-.018-.831-.105-1.365-.643-.615-.62-.623-1.381-.622-1.534Z"/><path class="cls-2" d="M392.798,72.092V16.481c-.033-2.542-.123-5.165-.282-7.865-.077-1.301-.167-2.582-.269-3.842.004-.127.033-.547.363-.927.368-.423.852-.502.971-.519,1.23-.056,2.495-.093,3.792-.11,1.874-.024,3.684-.003,5.423.056.087-.002.5,0,.81.305.036.036.263.265.297.601.02.202-.044.285-.067.667-.01.158-.007.288-.004.375v46.211c-.044.48.041.849.179.878.141.03.386-.284.551-.78,2.898-7.311,5.785-14.693,8.658-22.147,3.117-8.086,6.165-16.119,9.146-24.098.044-.103.095-.201.15-.293,1.062-1.763,4.116-1.759,5.162-1.72,4.527.004,9.054.008,13.582.012.615-.022,1.285-.07,1.998-.159.708-.087,1.363-.202,1.961-.329.809-.087,1.526.101,1.753.533.113.214.131.538.139.675.018.322-.03.589-.075.768-3.681,9.847-7.396,19.719-11.145,29.616-5.152,13.603-10.32,27.129-15.505,40.58-.051.102-.184.332-.46.506-.267.168-.526.196-.642.201-4.331.537-9.186.897-14.484.902-3.461.004-6.719-.144-9.748-.39-.545-.089-.892-.293-1.09-.439-1.117-.821-1.158-2.471-1.175-3.147-.005-.215.002-.393.009-.512Z"/><path class="cls-2" d="M487.372,3.177c-8.457-.012-16.914-.024-25.371-.037-1.747-.072-3.513-.134-5.3-.184-1.345-.038-2.68-.068-4.003-.092-.374-.015-1.108.011-1.87.42-.203.109-.658.36-1.043.865-.427.562-.528,1.122-.601,1.561-.117.699-.047,1.256.094,2.37.061.482.124.808.169,1.451.029.408.036.745.038.974v62.936c.017.594-.015,1.04-.05,1.347-.017.146-.042.338.013.585.019.085.094.406.338.664.461.488,1.195.403,1.278.392,6.222-.038,12.482-.055,18.781-.049,6.857.006,13.669.039,20.435.098.325.048.56-.012.702-.067.658-.256,1.068-1.085,1.015-2.076v-18.387c.005-.202-.014-.628-.291-1.029-.359-.518-.925-.671-1.25-.753-.551-.14-.723-.018-2.011.055-.506.029-.945.031-1.823.037-.757.005-1.376-.007-1.785-.018h-11.571c-.113.004-.232.011-.355.022-.171.016-.332.037-.481.062-.066.016-.159.024-.248-.017-.169-.08-.262-.316-.198-.577v-4.385c.024-.076.111-.326.373-.505.285-.194.581-.173.658-.165h15.599c.134.006,1.627.052,2.471-1.084.439-.59.493-1.215.498-1.497.1-2.066.2-4.133.301-6.199.023-.176.047-.557-.168-.937-.298-.528-.931-.836-1.627-.808-3.142.051-6.334.075-9.573.07-2.626-.004-5.221-.028-7.784-.07-.17.023-.282-.023-.332-.049-.241-.125-.366-.456-.288-.82v-11.162c.003-.053.036-.579.486-.851.247-.15.498-.148.604-.141h15.937c.158.015,1.282.105,2.105-.716.509-.508.638-1.101.677-1.341V6.795c.024-.289.112-1.688-.883-2.737-.234-.246-.78-.822-1.56-.906-.193-.021-.294,0-1.052.015-.444.009-.809.01-1.053.01Z"/><path class="cls-2" d="M199.735,172.998c-8.457-.012-16.914-.024-25.371-.037-1.747-.072-3.513-.134-5.3-.184-1.345-.038-2.68-.068-4.003-.092-.374-.015-1.108.011-1.87.42-.203.109-.658.36-1.043.865-.427.562-.528,1.122-.601,1.561-.117.699-.047,1.256.094,2.37.061.482.124.808.169,1.451.029.408.036.745.038.974v62.936c.017.594-.015,1.04-.05,1.347-.017.146-.042.338.013.585.019.085.094.406.338.664.461.488,1.195.403,1.278.392,6.222-.038,12.482-.055,18.781-.049,6.857.006,13.669.039,20.435.098.325.048.56-.012.702-.067.658-.256,1.068-1.085,1.015-2.076v-18.387c.005-.202-.014-.628-.291-1.029-.359-.518-.925-.671-1.25-.753-.551-.14-.723-.018-2.011.055-.506.029-.945.031-1.823.037-.757.005-1.376-.007-1.785-.018h-11.571c-.113.004-.232.011-.355.022-.171.016-.332.037-.481.062-.066.016-.159.024-.248-.017-.169-.08-.262-.316-.198-.577v-4.385c.024-.076.111-.326.373-.505.285-.194.581-.173.658-.165h15.599c.134.006,1.627.052,2.471-1.084.439-.59.493-1.215.498-1.497.1-2.066.2-4.133.301-6.199.023-.176.047-.557-.168-.937-.298-.528-.931-.836-1.627-.808-3.142.051-6.334.075-9.573.07-2.626-.004-5.221-.028-7.784-.07-.17.023-.282-.023-.332-.049-.241-.125-.366-.456-.288-.82v-11.162c.003-.053.036-.579.486-.851.247-.15.498-.148.604-.141h15.937c.158.015,1.282.105,2.105-.716.509-.508.638-1.101.677-1.341v-16.274c.024-.289.112-1.688-.883-2.737-.234-.246-.78-.822-1.56-.906-.193-.021-.294,0-1.052.015-.444.009-.809.01-1.053.01Z"/><path class="cls-2" d="M147.954,258.172c-8.457-.012-16.914-.024-25.371-.037-1.747-.072-3.513-.134-5.3-.184-1.345-.038-2.68-.068-4.003-.092-.374-.015-1.108.011-1.87.42-.203.109-.658.36-1.043.865-.427.562-.528,1.122-.601,1.561-.117.699-.047,1.256.094,2.37.061.482.124.808.169,1.451.029.408.036.745.038.974v62.936c.017.594-.015,1.04-.05,1.347-.017.146-.042.338.013.585.019.085.094.406.338.664.461.488,1.195.403,1.278.392,6.222-.038,12.482-.055,18.781-.049,6.857.006,13.669.039,20.435.098.325.048.56-.012.702-.067.658-.256,1.068-1.085,1.015-2.076v-18.387c.005-.202-.014-.628-.291-1.029-.359-.518-.925-.671-1.25-.753-.551-.14-.723-.018-2.011.055-.506.029-.945.031-1.823.037-.757.005-1.376-.007-1.785-.018h-11.571c-.113.004-.232.011-.355.022-.171.016-.332.037-.481.062-.066.016-.159.024-.248-.017-.169-.08-.262-.316-.198-.577v-4.385c.024-.076.111-.326.373-.505.285-.194.581-.173.658-.165h15.599c.134.006,1.627.052,2.471-1.084.439-.59.493-1.215.498-1.497.1-2.066.2-4.133.301-6.199.023-.176.047-.557-.168-.937-.298-.528-.931-.836-1.627-.808-3.142.051-6.334.075-9.573.07-2.626-.004-5.221-.028-7.784-.07-.17.023-.282-.023-.332-.049-.241-.125-.366-.456-.288-.82v-11.162c.003-.053.036-.579.486-.851.247-.15.498-.148.604-.141h15.937c.158.015,1.282.105,2.105-.716.509-.508.638-1.101.677-1.341v-16.274c.024-.289.112-1.688-.883-2.737-.234-.246-.78-.822-1.56-.906-.193-.021-.294,0-1.052.015-.444.009-.809.01-1.053.01Z"/><path class="cls-2" d="M45.127,111.775c-7.763.06-13.423.055-14.123,0-.46-.036-.899-.222-.899-.222-.265-.115-.531-.23-.737-.493-.313-.401-.283-.884-.262-1.06v-2.675c.011-.187.014-.463-.037-.789-.251-1.578-1.503-2.556-2.16-3.069-1.156-.903-3.649-2.313-6.743-1.763-.758.135-3.486.62-4.982,3.032-.762,1.228-.894,2.455-.912,3.143-.022,3.498-.036,7.009-.041,10.534-.007,5.375.007,10.719.041,16.031-.039.916.008,2.318.512,3.92.39,1.24,1.058,3.36,3.091,4.845,2.488,1.817,5.357,1.465,6.682,1.302.634-.078,1.785-.231,3.002-.969.36-.219.638-.435.824-.592.042-.033.08-.068.114-.103.376-.388.384-.942.366-1.212v-5.798c.019-.235-.033-.398-.099-.512-.347-.604-1.592-.723-3.091-.265-.637.23-1.274.46-1.911.69-.235.064-.644.136-1.111.012-.874-.232-1.278-.967-1.374-1.159-.19-.378-.23-.729-.237-.937v-8.037c.02-.113.053-.255.114-.408,0,0,.101-.255.273-.48.232-.303.956-.698,1.973-.801,3.561.116,7.213.184,10.951.197,4.655.016,9.179-.055,13.562-.197.305.006.775.004,1.348-.045,1.012-.086,1.336-.232,1.661-.004.454.318.508,1.083.512,1.159.008.129-.001.258.012.789.004.166.009.303.012.394v16.025c.05,1.64-.084,4.196-1.174,7.051-2.234,5.852-6.869,8.723-8.192,9.517-2.764,1.658-5.211,2.207-7.243,2.663-4.317.969-7.761.733-10.589.518-2.934-.223-5.631-.429-8.966-1.701-2.221-.848-4.772-1.821-7.118-4.265-3.241-3.377-4.036-7.422-4.371-9.245-.298-1.627-.342-3.009-.325-3.969v-32.125c-.065-1.582.002-3.855.649-6.484,1.491-6.049,5.017-9.741,5.819-10.552,3.471-3.51,7.287-5.01,9.316-5.646.914-.24,2.157-.528,3.646-.764,1.531-.243,4.9-.679,9.266-.321,3.655.3,6.058.498,8.991,1.8,1.606.713,4.945,2.246,7.467,5.843,2.936,4.187,2.953,8.584,2.872,10.232v3.033c-.068.556-.282,1.614-1.086,2.576-.284.34-.761.897-1.566,1.171-.322.11-.579.133-1.25.158-.622.023-1.464.041-2.478.028Z"/><path class="cls-2" d="M98.484,281.775c-7.763.06-13.423.055-14.123,0-.46-.036-.899-.222-.899-.222-.265-.115-.531-.23-.737-.493-.313-.401-.283-.884-.262-1.06v-2.675c.011-.187.014-.463-.037-.789-.251-1.578-1.503-2.556-2.16-3.069-1.156-.903-3.649-2.313-6.743-1.763-.758.135-3.486.62-4.982,3.032-.762,1.228-.894,2.455-.912,3.143-.022,3.498-.036,7.009-.041,10.534-.007,5.375.007,10.719.041,16.031-.039.916.008,2.318.512,3.92.39,1.24,1.058,3.36,3.091,4.845,2.488,1.817,5.357,1.465,6.682,1.302.634-.078,1.785-.231,3.002-.969.36-.219.638-.435.824-.592.042-.033.08-.068.114-.103.376-.388.384-.942.366-1.212v-5.798c.019-.235-.033-.398-.099-.512-.347-.604-1.592-.723-3.091-.265-.637.23-1.274.46-1.911.69-.235.064-.644.136-1.111.012-.874-.232-1.278-.967-1.374-1.159-.19-.378-.23-.729-.237-.937v-8.037c.02-.113.053-.255.114-.408,0,0,.101-.255.273-.48.232-.303.956-.698,1.973-.801,3.561.116,7.213.184,10.951.197,4.655.016,9.179-.055,13.562-.197.305.006.775.004,1.348-.045,1.012-.086,1.336-.232,1.661-.004.454.318.508,1.083.512,1.159.008.129-.001.258.012.789.004.166.009.303.012.394v16.025c.05,1.64-.084,4.196-1.174,7.051-2.234,5.852-6.869,8.723-8.192,9.517-2.764,1.658-5.211,2.207-7.243,2.663-4.317.969-7.761.733-10.589.518-2.934-.223-5.631-.429-8.966-1.701-2.221-.848-4.772-1.821-7.118-4.265-3.241-3.377-4.036-7.422-4.371-9.245-.298-1.627-.342-3.009-.325-3.969v-32.125c-.065-1.582.002-3.855.649-6.484,1.491-6.049,5.017-9.741,5.819-10.552,3.471-3.51,7.287-5.01,9.316-5.646.914-.24,2.157-.528,3.646-.764,1.531-.243,4.9-.679,9.266-.321,3.655.3,6.058.498,8.991,1.8,1.606.713,4.945,2.246,7.467,5.843,2.936,4.187,2.953,8.584,2.872,10.232v3.033c-.068.556-.282,1.614-1.086,2.576-.284.34-.761.897-1.566,1.171-.322.11-.579.133-1.25.158-.622.023-1.464.041-2.478.028Z"/><path class="cls-2" d="M109.225,159.019c-.15-.276-.352-.454-.487-.555-2.88-2.892-5.772-5.826-8.672-8.802-2.574-2.641-5.115-5.273-7.624-7.896-.444-.417-.475-.964-.244-1.193.192-.19.536-.132.599-.12,1.415-.18,3.586-.683,5.688-2.188,2.971-2.127,4.089-5.029,4.645-6.533.677-1.831.884-3.447.949-4.536.369-4.449.549-9.417.375-14.817-.154-4.76-.56-9.158-1.099-13.141-.158-.661-.426-1.569-.899-2.589-1.653-3.564-4.401-5.457-5.445-6.157-2.512-1.685-4.874-2.256-6.106-2.543-1.077-.25-2.007-.371-2.697-.435-4.379-.323-9.087-.508-14.086-.481-3.9.021-7.615.169-11.126.407-.934.091-2.728.334-4.196,1.035-.346.165-.657.348-.949.653-.573.598-.728,1.306-.874,1.972-.091.416-.181,1.016-.15,1.75.124,9.769.191,19.635.2,29.597.01,11.397-.059,22.669-.2,33.813.02.562.011,1.015,0,1.307-.056,1.525-.278,2.241.175,2.761.175.2.434.353.462.37.377.22.738.266.933.277,2.988.219,6.167.36,9.519.388,3.539.03,6.889-.07,10.027-.259.226-.009.527-.046.862-.16.548-.187.921-.489,1.127-.686.074-.06.186-.17.247-.337.035-.096.077-.278-.055-.687-.112-.348-.263-.588-.299-.649-.172-.284-.343-.745-.307-1.512-.088-2.088-.135-4.259-.131-6.509.004-2.052.05-4.038.131-5.954.007-.449.141-.539.196-.563.23-.101.665.262,1.116.896,2.122,2.047,4.258,4.151,6.406,6.311,3.04,3.059,5.965,6.094,8.779,9.097.055.056.114.112.178.166.549.459,1.203.574,1.643.599,1.629-.071,3.33-.109,5.097-.105,1.78.004,3.492.05,5.132.129.158.013.67.035,1.04-.305.516-.475.393-1.324.122-1.821ZM84.6,129.982c-1.174.284-2.187.345-2.897.345-.078-.003-.615-.03-.947-.469-.184-.243-.219-.498-.227-.619v-29.557c-.008-.065-.074-.653.375-1.072.326-.305.719-.33.824-.333.593-.05,1.467-.081,2.51.037,1.249.142,3.057.347,4.758,1.59,1.305.954,1.971,2.097,2.472,2.959.655,1.124.988,2.124,1.236,2.995.308,1.082,1.479,5.473.974,12.426-.144,1.987-.32,2.734-.437,3.168-.285,1.061-.961,3.45-3.147,5.572-2.191,2.126-4.626,2.748-5.494,2.959Z"/><path class="cls-2" d="M492.386,119.232c.071-.247.118-.298.166-.507.032-.138.134-.581-.009-.985-.164-.463-.585-.687-.902-.856-.652-.347-1.295-.352-1.658-.322-2.498.097-5.081.152-7.745.157-2.889.004-5.685-.052-8.38-.157-.222-.008-.454,0-.694.028-1.829.216-3.074,1.496-3.634,2.173-16.122,13.451-32.244,26.903-48.366,40.354-.284.191-.591.385-.92.578-.328.192-.645.364-.95.518-.106.073-.312.24-.388.515-.118.427.125.943.624,1.241.63.137,1.292.263,1.984.371,1.443.226,2.796.342,4.034.387,2.448-.013,4.92-.042,7.416-.089,1.416-.026,2.824-.058,4.224-.095.064-.004.125-.011.183-.021.819-.143,1.331-.883,1.56-1.28.695-.885,1.312-1.565,1.737-2.014,1.736-1.83,3-3.131,4.918-3.592.708-.17,1.307-.178,1.658-.166h27.75c.788.005,1.48.42,1.763,1.061.237.537.106,1.05.054,1.223-.444.979-.888,1.959-1.332,2.938-.224.471-.174,1.011.129,1.381.296.361.718.422.824.434,2.458.159,5.068.253,7.814.256,2.638.003,5.149-.079,7.521-.221.186-.037.48-.129.638-.381.155-.245.1-.514.037-.909-.057-.359-.129-.869-.184-1.51-.071-4.161-.121-8.355-.147-12.58-.057-9.163-.005-18.184.147-27.056.003-.207.025-.516.129-.875ZM475.367,142.798c-.491.332-1.006.37-1.271.368h-11.984c-.266-.004-.619-.057-.955-.267-.157-.099-.307-.192-.359-.359-.083-.266.111-.617.491-.884,4.576-3.987,9.152-7.973,13.728-11.96.051-.057.268-.291.565-.282.372.01.742.397.774.945v10.069c.1.969-.27,1.884-.988,2.37Z"/><path class="cls-2" d="M462.601,102.113c-2.627-20.374-20.988-20.992-24.033-.419-1.398,8.983.997,25.828,12.237,26.106l.099-.003c10.602-.898,12.975-16.756,11.697-25.684ZM453.439,118.585l-.038-.002c-1.72-.325-2.388-4.857-2.65-7.487-.369-4.36-.312-10.019,1.221-13.758,2.303-4.823,3.988,3.061,4.127,5.603.412,3.447.415,15.038-2.66,15.644Z"/><path class="cls-2" d="M435.418,86.513c-3.413-.174-6.99-.274-10.719-.276-3.802-.002-7.448.099-10.922.276-.275.029-.828.129-1.345.54-1.001.798-.987,2.07-.982,2.235.061.979.119,1.965.172,2.959.07,1.31.131,2.607.184,3.892.087,3.729.149,7.494.184,11.296.08,8.766.013,17.347-.184,25.736-.184,7.629-.368,15.258-.553,22.888-.033,1.208.527,2.067,1.134,2.147.103.014.398.03.79-.28,1.54-1.296,3.163-2.609,4.873-3.93,1.88-1.452,3.726-2.807,5.525-4.07.133-.066.327-.181.505-.377.622-.686.425-1.689.269-3.362-.061-.649-.134-1.601-.166-2.781v-23.078c-.01-.185-.018-.781.392-1.324.636-.841,1.702-.793,1.793-.788h7.061c.477.047.848.147,1.105.233.345.116.518.219.847.221.147,0,.433-.001.718-.184.257-.165.377-.389.424-.479.117-.226.142-.434.147-.553.146-1.66.228-3.478.203-5.433-.019-1.419-.092-2.76-.203-4.015-.034-.151-.155-.596-.571-.958-.384-.333-.8-.405-.958-.424-1.553-.115-3.221-.184-4.991-.184-1.763,0-3.425.07-4.973.184-.059.006-.397.036-.684-.211-.331-.284-.315-.694-.312-.742v-2.073c.005-.092.029-.23.118-.361.166-.244.488-.363.832-.319,1.584-.098,3.266-.152,5.038-.144,1.518.007,2.969.059,4.347.144.1.007,1.037.057,1.648-.678.422-.507.435-1.083.433-1.252-.075-2.229-.109-4.533-.092-6.907.011-1.541.042-3.052.092-4.531.021-.337.07-.825.197-1.406.124-.567.226-.781.127-1.019-.09-.218-.384-.539-1.503-.614Z"/><path class="cls-2" d="M493.337,110.96c-.081-.275-.266-.444-.356-.516-3.061-2.677-6.123-5.354-9.185-8.03-.238-.198-.31-.526-.184-.786.106-.217.336-.356.589-.356.747.086,2.307.163,4.04-.577.633-.271,2.47-1.087,3.61-3.131.079-.142,1.742-3.242.258-6.336-.626-1.304-1.539-2.041-2.173-2.542-2.485-1.961-5.341-2.173-6.704-2.173-2.494-.085-5.07-.129-7.723-.123-2.294.006-4.53.048-6.704.123-.404.008-1.964.083-2.971,1.179-.177.193-.495.539-.639,1.081-.15.567-.043,1.1.049,1.559.089.445.182.6.258,1.13.047.333.059.611.061.798v18.989c.011.219-.02.385-.049.497-.032.123-.065.183-.055.276.016.159.139.276.239.35,1.534.286,3.351.516,5.397.571,2.146.057,4.053-.092,5.654-.313.25-.1.365-.245.414-.322.171-.266.122-.581.064-.949-.009-.057-.049-.222-.129-.553-.109-.451-.133-.521-.166-.7-.027-.147-.06-.368-.074-.645v-3.205c.001-.033.013-.293.201-.417.207-.136.558-.062.766.232,2.792,2.124,5.585,4.248,8.377,6.373.214.114.485.236.81.332.43.126.813.165,1.105.172h3.819c.114-.007.283-.031.467-.111.733-.318.906-1.177.933-1.314.066-.326.015-.513,0-.565ZM480.727,96.864c-.937.959-2.122,1.162-2.579,1.216-.094.011-.274.02-.479-.055-.085-.032-.289-.11-.442-.322-.168-.233-.169-.478-.166-.561v-6.355c-.002-.06.001-.252.138-.424.211-.264.55-.242.58-.239.221-.013,2.274-.097,3.463,1.437,1.245,1.607.766,3.991-.516,5.304Z"/><path class="cls-2" d="M155.513,98.365c-.004-.291-.024-.695-.092-1.169-.297-2.049-1.225-3.471-1.634-4.082-.284-.424-1.598-2.315-4.162-3.708-1.655-.899-3.183-1.238-4.162-1.382-3.816-.529-8.287-.897-13.282-.841-5.266.059-9.946.576-13.899,1.244-.548.082-1.376.271-2.255.761-1.287.719-1.984,1.708-2.36,2.241-2.086,2.957-2.457,7.866-2.504,8.562.077,10.628.112,21.325.105,32.091-.006,8.884-.041,17.722-.105,26.513,0,.236.03.919.517,1.579.557.754,1.335.969,1.55,1.021h13.376c.493.039,1.2.091,2.057.144.618.038.976.06,1.418.075.582.02,1.398.033,2.391-.007.065,0,.933-.018,1.248-.614.045-.085.091-.206.105-.364v-4.158c-.005-.105-.009-.466.249-.784.405-.499,1.076-.424,1.117-.419,1.437.051,2.924.077,4.458.073,1.299-.004,2.564-.029,3.793-.073.034-.002.621-.022.877.392.076.123.101.249.108.346v4.671c-.058,1.038.421,1.957,1.206,2.32.478.221.947.18,1.206.134.889-.131,2.136-.411,3.507-1.057,1.43-.673,2.467-1.494,3.138-2.114.434-.449,1.098-1.25,1.551-2.424.398-1.03.476-1.943.48-2.533-.1-11.835-.138-23.765-.111-35.788.016-6.915.053-13.799.111-20.651ZM144.438,131.735c.001.038.006.448-.314.665-.137.093-.279.114-.36.118-1.384-.047-2.812-.073-4.282-.073-1.467,0-2.892.026-4.273.073-.451.011-.842-.165-.997-.474-.034-.068-.071-.171-.073-.31v-23.143c-.003-.192.013-.445.091-.727.499-1.811,3.015-2.951,5.132-2.952,2.111-.001,4.624,1.13,5.021,2.815.049.206.058.388.055.525v23.482Z"/><path class="cls-2" d="M205.183,95.226c-4.915-6.863-13.239-7.401-14.402-7.457-3.647-.205-7.425-.345-11.327-.404-5.411-.082-10.597,0-15.536.205-.413.036-.743.143-1.001.264-2.043.959-2.128,4.043-2.132,4.276.15,9.866.235,19.846.249,29.938.017,12.121-.069,24.081-.249,35.877-.004.371.051.886.323,1.411.843,1.627,2.957,1.78,3.12,1.789,2.494.129,5.112.201,7.843.199,3.026-.003,5.914-.097,8.651-.258.279-.019.726-.094,1.156-.386,1.13-.769,1.033-2.293,1.025-2.393v-16.239c.013-.352.181-.654.449-.776.119-.054.236-.063.328-.058,2.134-.016,5.606-.286,9.521-1.791,2.375-.913,8.163-3.233,11.957-9.3,2.244-3.59,2.971-7.181,3.182-9.767v-15.902c-.093-1.843-.556-5.594-3.157-9.227ZM192.542,107.29v13.141c-.033.538-.124,1.275-.373,2.117-.751,2.541-2.365,4.073-2.852,4.509-2.322,2.077-4.957,2.411-5.836,2.485-.06-.009-.154-.032-.248-.093-.231-.151-.279-.415-.295-.499-.028-.153-.005-.247.018-.43.022-.179.042-.434.028-.751v-28.172c.059-.886.509-1.542,1.052-1.637.113-.02.304-.028.555.082,1.043.25,2.557.765,4.074,1.886.809.599,2.235,1.68,3.132,3.663.686,1.517.763,2.899.746,3.699Z"/><path class="cls-2" d="M213.224,88.495c-.012,40.845-.012,70.735,0,71.568.003.201.037.537.262.813.352.432.877.443.949.444,1.225-.087,2.531-.141,3.908-.148,1.299-.006,2.533.031,3.696.099.216,0,.675-.031,1.111-.33.902-.618.842-1.787.836-1.864v-45.46c0-.209.022-.772.412-1.193.286-.308.676-.436,1.011-.49,1.562-.115,3.24-.184,5.02-.185,1.801,0,3.497.069,5.076.185.111.011,1.175.128,1.667,1.017.223.403.236.797.225,1.011v44.345c-.055,1.173.458,2.226,1.347,2.697.509.27,1.019.284,1.332.261,2.978-.162,6.13-.246,9.44-.222,2.845.021,5.571.12,8.166.277.335.016.593-.048.78-.123.935-.377,1.492-1.588,1.461-3.045v-67.981c0-.225-.031-.954-.574-1.627-.64-.793-1.528-.935-1.723-.961-2.778-.142-5.678-.23-8.691-.247-2.994-.017-5.878.038-8.641.148-.791.051-1.27.355-1.483.515-.834.627-1.028,1.639-1.164,2.345-.09.47-.104.867-.1,1.134v8.169c-.003.066-.054.974-.777,1.359-.269.143-.534.162-.702.157-1.659-.138-3.463-.221-5.394-.213-1.683.007-3.267.083-4.739.203-.433.059-.792.064-1.049.055-.4-.013-.525-.058-.618-.148-.141-.137-.172-.346-.206-.573-.025-.169-.024-.311-.019-.407v-11.661c-.033-.096-.085-.208-.169-.32-.278-.374-.701-.473-.843-.499-1.351-.127-2.824-.21-4.402-.222-1.62-.012-3.13.054-4.514.166-.065.004-.401.03-.656.314-.234.262-.238.564-.237.635Z"/><path class="cls-2" d="M291.486,100.41c.108,5.875.175,11.819.196,17.83.032,8.983-.036,17.819-.196,26.503-.109,1.394-.108,3.769.908,6.42,2.047,5.342,6.646,7.711,7.878,8.321,3.102,1.539,5.74,1.626,9.313,1.744,3.479.115,8.416.279,13.485-2.507,1.219-.67,3.638-2.033,5.718-4.797,1.734-2.305,2.461-4.558,2.773-5.778.446-1.747.523-3.262.503-4.336.029-1.861.057-3.723.086-5.584.014-.128.092-.985-.466-1.429-.383-.305-.908-.29-1.313-.279-.323.009-.429.065-1.031.121-.34.032-.618.044-.798.048-2.692.077-5.458.116-8.295.109-2.383-.006-4.715-.044-6.994-.109-.289.01-1.434.081-2.38.981-1.189,1.131-1.096,2.647-1.08,2.859v4.615c.009.348.016,2.026-1.288,3.331-.266.266-1.502,1.502-3.203,1.272-1.393-.189-2.192-1.239-2.43-1.55-.765-1.004-.848-2.064-.859-2.471v-41.559c-.193-2.311.627-4.361,2.16-5.166.731-.383,1.479-.407,1.742-.406,1.97.009,3.178,1.557,3.338,1.768.917,1.215.905,2.531.883,2.956v8.091c-.003.211.007,1.268.847,2.108,1.06,1.059,2.512.841,2.65.818,2.436-.179,5.05-.288,7.822-.291,2.848-.003,5.53.107,8.025.291.153.008,1.234.049,2.043-.799.739-.775.708-1.723.699-1.89v-6.341c.061-2.67-.479-4.748-.92-6.032-.371-1.081-2.132-6.212-6.884-8.812-1.739-.952-3.877-1.563-5.08-1.908-1.743-.499-3.103-.736-3.479-.799-5.507-.93-9.686-.051-10.638.164-1.044.235-1.793.476-1.951.527-.89.289-3.164,1.094-5.706,2.907-1.203.858-2.66,1.915-4.012,3.743-1.403,1.895-1.769,3.371-1.877,3.87-.128.59-.173,1.093-.19,1.447Z"/><path class="cls-2" d="M27.408,175.457c-.043-.258-.238-1.237-1.133-1.978-.772-.639-1.609-.723-1.896-.739-2.658-.217-5.513-.355-8.544-.369-3.552-.017-6.871.136-9.922.394-.734.067-1.103.369-1.259.525-.734.735-.589,2.065-.538,2.528.03.274.104.697.123,1.379.007.261.004.475,0,.616.048,8.949.077,17.93.086,26.942.013,13.022-.016,25.979-.086,38.871,0,.254-.001.619-.012,1.059-.028,1.133-.082,1.363.074,1.563.361.464,1.418.212,1.859.086,3.104-.098,6.298-.15,9.578-.148,3.003.002,5.934.049,8.79.135.245.004.448-.042.615-.111,1.076-.442,1.59-2.195,1.403-4.358-.086-2.443-.144-4.931-.172-7.46-.055-4.95.01-9.746.172-14.379.02-.393.182-.733.41-.799.295-.085.797.261.945.959,1.51,6.371,3.019,12.741,4.529,19.112.032.184.091.414.203.665.174.388.404.662.572.831.748.625,1.496,1.25,2.244,1.874.055.054.31.295.692.292.366-.003.706-.227.881-.576,2.578-8.626,5.202-17.294,7.872-26.002,2.114-6.894,4.238-13.751,6.371-20.571.132-.557.394-.971.62-.964.25.007.54.531.563,1.321v48.603c-.015.126-.063.643.282,1.108.509.684,1.393.608,1.44.603,2.52.053,5.039.107,7.559.16.302.014.538-.042.714-.111.892-.35,1.435-1.5,1.44-2.893v-67.751c.007-.153.024-.385.068-.665.064-.413.123-.515.185-.905.082-.519.123-.778,0-.979-.134-.218-.374-.305-.702-.425-.261-.095-.49-.132-.646-.148-1.424-.203-3.09-.337-4.949-.295-1.256.028-2.413.133-3.453.277-.159.042-.38.12-.609.277-.385.263-.579.599-.665.776-4.662,14.014-9.323,28.027-13.985,42.041-.378,1.05-.921,1.669-1.243,1.588-.287-.072-.441-.709-.431-1.465-3.348-13.498-6.697-26.996-10.045-40.494Z"/><path class="cls-2" d="M103.668,223.459c-.166-5.585-.049-16.177,0-30.169-.008-.39-.027-.935-.074-1.586-.139-1.942-.463-5.929-2.619-10.216-.219-.436-.462-.918-.811-1.475-2.4-3.822-7.484-7.402-13.609-7.561-.27-.007-6.785-.088-11.396,4.094-.469.425-.824.81-.996.996-.651.707-3.304,3.707-4.463,8.778-.112.489-.171.83-.258,1.328-.587,3.362-.624,6.115-.553,7.966v30.169c-.101,1.669-.071,4.161.664,7.057.4,1.573,1.015,3.908,2.766,6.442,2.214,3.204,4.902,4.783,5.541,5.145.662.375,3.976,2.189,8.658,2.121,1.491-.022,5.017-.12,8.63-2.397,3.464-2.183,5.081-5.145,5.717-6.344.268-.505.711-1.403,1.217-2.914,1.805-5.393,1.615-10.46,1.586-11.433ZM93.023,199.411v22.622c.018.722-.038,1.827-.455,3.086-.348,1.049-.802,1.769-.922,1.955-.448.691-1.952,3.014-4.831,3.393-2.135.281-4.139-.624-5.385-1.918-1.329-1.38-1.644-3.046-1.807-3.909-.211-1.112-.17-2.059-.098-2.692v-23.247c-.076-.652-.189-2.387.787-4.229.259-.489,1.078-1.986,2.861-2.914,1.892-.984,4.358-1.062,6.383.086,2.803,1.589,3.274,4.684,3.418,5.63.132.867.104,1.609.049,2.137Z"/><path class="cls-2" d="M154.521,190.782c-.512-1.136-3.288-7.088-9.884-11.802-6.776-4.842-13.701-5.605-16.72-5.754-4.657-.107-9.315-.213-13.972-.32-.081-.003-.195-.005-.332,0-.319.013-1.17.056-2.029.59-1.183.735-1.594,1.909-1.715,2.342-.036.128-.059.237-.074.314v48.832c.003.083.008.213.016.372.055,1,.177,1.648.242,2.099.03.205.307,2.196.029,3.337-.031.127-.155.596-.177,1.236-.005.163-.003.298,0,.387v10.542c-.004.347.035,1.129.541,1.905.463.711,1.072,1.038,1.414,1.217.784.41,1.52.476,1.946.479,3.186.087,6.448.134,9.783.135,2.917.001,5.778-.033,8.581-.098,2.492-.521,6.602-1.711,10.843-4.672,4.655-3.25,7.097-6.978,8.36-8.95,4.175-6.517,5.225-13.002,5.508-16.818v-16.524c-.214-2.142-.772-5.328-2.36-8.851ZM134.948,214.829c-.668,3.444-1.731,5.636-3.147,8.557-.724,1.492-1.506,2.881-3.049,3.983-1.029.735-2.045,1.093-2.754,1.279-2.476.654-4.635.459-5.219-.526-.148-.25-.33-.779-.436-1.281-.15-.714-.136-1.324-.098-1.733.031-.421.081-1.096.14-1.924.264-3.702.43-6.46.438-6.59.185-3.095.002-12.445-.578-24.926-.009-.099-.011-.243.034-.403.162-.579.783-.855,1.134-1.005.464-.199,1.114-.374,2.471-.314.543.024,1.554.069,2.508.344.797.23,2.438.876,4.377,3.295,2.796,3.489,3.687,7.517,4.082,9.393.478,2.27,1.115,6.609.098,11.852Z"/><path class="cls-2" d="M266.376,174.856c.54,15.681.446,26.256.245,33.142-.074,2.532-.115,5.294-.222,9.721-.213,8.786.282,17.582-.023,26.365-.019.559.026,1.013.074,1.331.059.394.118.557.239.699.241.283.604.336.764.35,1.611.071,3.297.106,5.05.092,1.359-.01,2.675-.049,3.946-.11.087.004.209-.004.329-.068.161-.086.295-.262.404-.787.119-.577.1-1.053.086-1.261-.033-.512-.105-.612-.147-1.214-.022-.317-.022-.579-.018-.754v-29.48c.074-.867.59-1.371.938-1.325.278.037.526.432.613.92,3.463,10.544,6.926,21.089,10.389,31.633.137.33.42.89.981,1.398.773.701,1.621.895,1.987.957,3.098.336,6.569.541,10.352.491,2.812-.037,5.437-.211,7.85-.466.228-.02.508-.082.785-.245.992-.584,1.014-1.922,1.014-2.039-.15-14.668-.204-29.481-.156-44.435.025-7.729.077-15.42.156-23.072.004-.183.021-2.621-1.701-3.618-.263-.152-.659-.324-1.202-.38-2.493-.021-5.024-.019-7.592.006-3.211.032-6.364.101-9.457.202-.323-.015-.878.014-1.398.35-.886.571-1.301,1.793-1.03,3.073.086.405.161.867.202,1.38.046.559.044,1.067.018,1.509v27.506c-.027.655-.119,1.761-.506,1.84-.437.089-1.034-1.176-1.26-1.656-1.444-3.06-6.649-20.609-9.911-31.78-.058-.223-.257-.875-.889-1.392-.509-.416-1.074-.532-1.453-.589-1.284-.193-4.308-.307-8.279-.239-.268.006-.441.09-.534.147-.425.262-.523.799-.595,1.189-.047.257-.052.472-.049.614Z"/><path class="cls-2" d="M56.456,328.786c-5.911-21.484-11.821-42.968-17.732-64.452-.215-.732-.845-2.723-1.95-4.231-.44-.6-.83-.952-1.269-1.214-.577-.343-1.131-.466-1.49-.515-3.973-.303-8.222-.493-12.716-.515-5.013-.024-9.727.165-14.102.49-1.202.285-2.553.83-2.981,1.949-.156.407-.135.759-.134.872.128,12.61.187,25.34.172,38.185-.012,10.162-.07,20.25-.172,30.264-.012.097-.13,1.239.632,1.796.116.085.289.184.533.239,1.733.092,3.556.134,5.463.11,1.032-.013,2.038-.044,3.017-.092.088-.002.161-.02.221-.045.375-.158.565-.727.522-1.42v-6.647c0-.299.124-.798.517-1.085.266-.194.574-.219.769-.215,2.354-.212,4.918-.348,7.664-.356,2.829-.008,5.466.121,7.882.33.087.015.199.048.313.12.348.223.405.634.414.708.584,2.414,1.169,4.827,1.754,7.241.04.165.153.528.479.846.458.449,1.015.495,1.165.503,3.737.147,7.586.237,11.539.258,3.069.016,6.074-.01,9.013-.074.179-.015.309-.069.405-.135.558-.381.58-1.554.074-2.918ZM26.861,307.614c-.118.252-.288.6-.681.837-.339.204-.679.226-.858.224-3.467.013-6.081.04-7.259.049-.373.003-1.185.008-2.256.123-.331.035-.603.072-.785.098-.048.008-.118.009-.186-.023-.137-.064-.218-.235-.2-.429v-36.765c-.011-.083-.062-.532.252-.92.063-.078.263-.305.601-.392.49-.127.907.134,1.104.258.325.204.511.466.65.662.141.199.234.381.294.515,1.805,5.562,3.567,11.356,5.261,17.376,1.554,5.525,2.959,10.918,4.231,16.162.095.397.258,1.325-.166,2.226Z"/><path class="cls-1" d="M469.152,309.189c-.079-.054-.155-.095-.224-.126-.035-.011-.091-.023-.159-.016-.023.002-.096.012-.173.059-.052.032-.06.053-.122.104-.057.047-.109.077-.143.096-.414.21-1.4.641-2.705.546-1.227-.09-2.099-.597-2.485-.856-.139-.096-.442-.28-.872-.326-.45-.048-.798.079-.953.147-.79.245-1.47.35-1.964.399-.854.084-1.455.137-2.135-.147-.452-.189-.772-.456-.97-.652-.04-.045-.39-.428-.73-.333-.034.01-.071.025-.109.048-.191.168-.383.337-.574.505-.029.023-.064.057-.09.106-.084.161.005.336.016.359.173.473.412.795.64,1.019,1.21,1.19,3.631,1.107,6.081-.133.108-.057.202-.071.258-.075.063-.004.121-.007.183.024.079.04.116.109.13.139.109.168.284.397.55.611,0,0,.146.117.314.216.828.486,2.731.535,2.731.535,1.628.042,2.293-.142,2.673-.304.137-.059.414-.179.706-.435.295-.258.471-.535.57-.722.012-.039.024-.096.02-.166-.006-.109-.048-.19-.073-.23-.078-.113-.203-.262-.391-.391Z"/><path class="cls-1" d="M491.972,302.239c-.05-.229-.156-.359-.196-.404-.096-.072-.195-.15-.296-.234-1.088-13.974-12.367-25.087-26.413-25.913v-.002c-1.615-.181-3.441-.237-5.427-.046-7.833.752-13.412,4.886-16.101,7.236-.135.136-.28.308-.413.521-.297.478-.402.952-.439,1.299-4.643,5.024-7.482,11.741-7.482,19.121,0,6.111,1.946,11.768,5.251,16.385.17.512.384,1.03.655,1.546.329.627.698,1.171,1.072,1.639.066.07.21.202.434.263.296.08.548-.014.674-.077,5.112,5.199,12.226,8.424,20.093,8.424,15.564,0,28.181-12.617,28.181-28.181,0-.055-.002-.109-.002-.163.177-.322.31-.638.407-.917.015-.069.051-.265,0-.498ZM487.615,297.08c.021-.017.168-.132.359-.092.168.036.302.179.335.362.072.279.142.567.208.864.121.546.22,1.074.299,1.579.053.317-.089.575-.274.624-.116.031-.227-.026-.282-.06-.408-.311-.817-.623-1.225-.934-.061-.05-.148-.133-.223-.255-.083-.135-.112-.253-.13-.331-.046-.194-.042-.373-.022-.516.002-.049.012-.122.049-.201.019-.04.04-.072.06-.098.095-.132.203-.271.326-.413.178-.205.356-.38.521-.527ZM485.275,290.426c.035-.016.104.045.209.182.174.308.425.759.724,1.31.726,1.34.789,1.534.834,1.733.064.286.269,1.268-.272,2.19-.213.363-.474.602-.652.741-.008.012-.073.103-.139.094-.069-.01-.138-.129-.114-.297.049-.965.032-2.09-.126-3.333-.087-.677-.204-1.305-.338-1.878-.143-.467-.185-.714-.126-.741ZM485.124,302.762c.089-.291.175-.663.212-1.1.035-.413.018-.776-.016-1.067-.046-.127-.024-.265.057-.342.115-.11.348-.099.489.073.269.239.578.491.929.741.312.223.614.415.896.579.042.02.099.052.163.098.113.082.192.171.22.209.167.23-.025.671-.038.701-.246.55-.888.742-1.105.807-.636.19-1.193.049-1.456-.038-.046-.01-.183-.046-.282-.174-.163-.208-.075-.467-.068-.486ZM450.948,281.257c.293-.157.722-.381,1.25-.628,5.899-2.769,11.311-2.581,12.563-2.516,3.874.201,7.008,1.256,9.148,2.206.22.12,2.988,1.657,4.025,3.708.524,1.036.63,2.021.63,2.021.012.116.066.649-.022,1.325-.315,2.43-1.901,4.976-1.901,4.976-1.057,1.696-2.288,3.672-4.769,5.405-2.854,1.993-5.631,2.458-6.801,2.64-1.02.159-1.883.197-2.493.201-.024,0-.265-.005-.414-.214-.144-.202-.078-.424-.07-.449.161-.636.348-1.297.565-1.977.436-1.37.927-2.614,1.43-3.728.034-.052.17-.27.118-.55-.012-.066-.054-.294-.249-.416-.199-.125-.485-.093-.713.081-2.443,2.041-6.762,5.018-12.776,6.16-1.865.354-3.591.474-5.117.467-.169-.007-.425-.041-.695-.179-.12-.061-.613-.323-.793-.902-.087-.279-.068-.526-.043-.674.068-.916.227-2.172.619-3.618.203-.749,1.132-3.993,3.83-7.382.919-1.155,2.336-2.694,4.38-4.164.045-.045.123-.137.155-.273.029-.124.006-.223-.02-.334-.023-.095-.07-.24-.177-.399-.047-.06-.132-.151-.263-.204-.078-.031-.143-.038-.179-.041-.31-.027-.934-.024-.995-.023-.253-.021-.406-.193-.39-.327.013-.114.147-.183.168-.194ZM442.175,301.939c-.009.129-.022.233-.033.301-.612,1.611-1.224,3.653-1.581,6.062-.255,1.722-.328,3.287-.31,4.636-.012.149-.115.274-.253.31-.156.041-.327-.04-.399-.196-.381-.845-.765-1.837-1.092-2.966-.381-1.317-.599-2.523-.723-3.559-.125-1.147-.171-2.547.006-4.124.094-.837.237-1.602.402-2.287.142-.409.43-.697.753-.725.069-.006.165-.002.279.04.296.108.608.214.934.315.407.126.799.234,1.173.326.045.021.105.053.174.098.052.034.313.208.489.497.238.391.21.813.179,1.271ZM442.078,297.939c-.301.176-.623.131-.75.106-.483-.104-1.15-.31-1.852-.741-.39-.239-.704-.496-.951-.728-.043-.038-.1-.101-.12-.19-.083-.373.58-.811.733-.918.511-.357,1.338-1.218,2.727-3.433.177-.402.442-1.021.733-1.787.526-1.382.815-2.387.88-2.591.351-1.093,1.796-2.591,6.649-4.335.034-.011.356-.109.41-.019.043.072-.09.251-.329.443-.999.837-2.087,1.903-3.129,3.243-2.795,3.595-3.82,7.322-4.237,9.631-.088.396-.239.68-.348.853-.128.202-.226.355-.418.467ZM448.596,323.708c-.084.488-.322.829-.583.85-.05.004-.115-.002-.194-.041-.785-.411-1.845-1.076-2.901-2.119-.947-.936-1.584-1.873-1.999-2.597-.055-.096-.11-.208-.158-.337-.11-.293-.141-.56-.146-.758-.103-.815-.219-1.927-.285-3.251-.059-1.194-.115-3.309.114-5.948.085-.982.228-2.247.481-3.716.068-.338.335-.555.587-.538.212.015.347.19.375.228.383.46.765,1.01,1.092,1.662.072.143.236.48.79,2.078.491,1.414.474,1.469.66,1.899.222.512.603,1.253,1.271,2.086.303.537.676,1.362.774,2.412.028.303.009.354-.019,1.418-.041,1.584-.062,2.376-.014,3.088.066.973.165,1.157.187,2.159.013.601-.01,1.096-.033,1.423ZM452.486,325.447c-.417.16-.772.124-.858.114-.65-.078-1.196-.529-1.459-1.076-.2-.416-.2-.811-.179-1.035.008-.632.006-1.281-.008-1.947-.021-1.002-.068-1.968-.134-2.893,0-.063.005-.522.143-.55.025-.005.093-.003.209.178.628,1.145.989,1.944,1.206,2.477.035.085.106.263.232.489.261.472.628,1.134,1.279,1.368.296.107.668.076,1.412.011.288-.025.524-.06.684-.087.212-.049.399.088.418.244.014.113-.06.237-.185.301-.665.388-1.102.796-1.374,1.089-.551.594-.751,1.071-1.385,1.315ZM452.285,318.504c.008-.033.043-.186.19-.255.142-.067.279-.004.299.005.31.101.639.221.983.364.412.172.788.353,1.124.532.114.078.333.251.478.554.09.187.12.36.13.478.009.051.017.124.016.212-.002.139-.004.281-.092.337-.021.013-.058.029-.12.022-.248.015-.503.034-.766.06-.229.022-.452.048-.668.076-.059.008-.292.035-.516-.114-.177-.117-.252-.279-.277-.342-.058-.192-.13-.4-.223-.619-.137-.325-.289-.606-.435-.842-.031-.044-.075-.115-.103-.212-.021-.071-.045-.154-.022-.255ZM469.431,328.901c-.088.144-.225.206-.285.228-2.139.635-5.887,1.406-10.316.489-1.794-.372-3.316-.941-4.541-1.516-.27-.11-.42-.398-.356-.672.066-.286.34-.452.558-.446.275.008.47.29.554.402.28.373.816.833,1.944,1.205,0,0,.156.037.326.065,4.166.699,8.843-1.543,8.843-1.543.509-.244,1.228-.617,2.053-1.152.158-.126.373-.151.554-.065.188.089.306.284.299.494.024.265.064.561.13.88.064.309.143.589.224.835.069.168.083.313.086.403.003.132.006.261-.073.391ZM474.04,325.62c-.038.096-.101.157-.141.19-.164.196-.431.464-.82.69-.551.32-1.073.394-1.363.413-.113.003-.268-.009-.435-.076-.345-.139-.508-.419-.554-.505-.071-.134-.101-.258-.114-.342-.101-.63-.614-1.566-.76-2.173-.443-1.834,1.689-3.72,2.004-3.971.299-.238.691-.346.951-.473.055-.027.205-.091.364-.038.223.074.376.349.334.668.002.072.005.18.008.31.026,1.132,0,1.833,0,2.167,0,.541.074,1.318.407,2.314.012.044.031.112.054.196.065.231.078.265.087.342.01.095.019.185-.022.288ZM470.384,318.61c-1.038.383-1.95.543-2.58.617-.17.004-.487.039-.75.261-.327.277-.381.686-.429,1.097-.056.479-.005.834.068,1.321.133.885.23,1.516.28,1.84.023.154.103.791-.31,1.266-.092.106-.192.185-.288.244-.736.415-1.764.893-3.053,1.206-1.718.418-3.196.373-4.175.263-.119-.022-1.53-.308-1.854-1.361-.044-.142-.077-.327-.061-.554.028-.686.04-1.401.033-2.143-.012-1.166-.071-2.269-.163-3.3-.039-.228-.168-.801-.652-1.32-.437-.468-.933-.646-1.157-.712-1.121-.386-4.148-1.598-6.301-4.737-.375-.547-1.766-2.673-2.119-5.769-.13-1.145-.083-2.114-.011-2.803.011-.455.104-.815.185-1.054.106-.314.27-.781.706-1.195.311-.295.637-.446.85-.524,1.587-.39,2.933-.65,3.936-.823,1.805-.311,2.736-.467,3.993-.473,1.538-.006,2.8.216,3.65.416.089.028.221.084.326.204.153.174.127.344.22.611.051.147.15.432.383.603.202.148.474.153,1.019.163.194.003.355-.002.464-.008,2.249-.359,4.153-.459,5.573-.473,1.248-.012,2.439-.018,4.009.228,1.575.247,2.862.642,3.781.978.3.131.84.415,1.308.986.64.781.755,1.619.782,1.947.094,1.083.112,2.749-.395,4.685-.229.876-.678,2.533-1.964,4.286-.614.838-2.318,2.924-5.304,4.025ZM481.493,316.706c-.019,1.856-.053,3.453-.086,4.715-.015.413-.11.908-.414,1.361-.026.04-.054.078-.081.114-.453.521-1.061,1.131-1.85,1.727-.833.63-1.628,1.063-2.279,1.361-.054.005-.234.015-.413-.103-.195-.129-.253-.321-.266-.369-.318-1.19-.611-2.721-.668-4.514-.044-1.374.06-2.59.212-3.601.014-.233.069-.612.285-1.014.117-.218.251-.386.367-.509.811-.854,1.723-1.966,2.567-3.365.499-.828.893-1.622,1.206-2.347.082-.415.356-.634.538-.595.164.036.241.28.253.318.078.294.188.734.293,1.271.344,1.755.361,3.109.337,5.552ZM482.769,303.979c-.441.134-.799.022-.799.022-.324-.101-.52-.316-.603-.418-.861-.969-1.731-1.982-2.607-3.042-.999-1.208-1.94-2.398-2.827-3.563-.05-.073-.12-.198-.143-.367-.049-.371.177-.646.221-.698,1.211-1.576,1.93-3.051,2.358-4.107.493-1.217,1.043-2.613,1.097-4.519.038-1.351-.187-2.461-.391-3.199-.016-.067-.067-.303.038-.386.122-.096.432.033.764.35,1.264,1.369,3.461,4.147,4.375,8.249.428,1.922.463,3.63.375,4.954-.013.111-.034.291-.061.513-.166,1.378-.236,1.799-.314,2.542-.032.311-.077.782-.114,1.366-.182,1.207-.733,2.111-1.369,2.303ZM488.925,307.068c-.213,1.685-.659,3.878-1.627,6.302-.81,2.028-1.768,3.671-2.621,4.922-.226.286-.47.398-.598.444-.137.049-.431.155-.569.012-.08-.082-.074-.212-.065-.282.099-1.615.18-3.267.239-4.954.047-1.344.079-2.666.098-3.965,0-.176,0-1.349.261-2.195.102-.332.226-.554.348-.771.142-.255.233-.363.359-.445.175-.115.356-.141.467-.147.736.065,1.219-.027,1.532-.13.012-.004.309-.102.717-.196.485-.111.591-.092.636-.081.415.093.631.532.69.652.168.342.156.668.136.835Z"/></svg>