<?xml version="1.0" encoding="UTF-8"?>
<svg id="Layer_1" data-name="Layer 1" xmlns="http://www.w3.org/2000/svg" viewBox="0 0 64 64">
  <defs>
    <style>
      .cls-1 {
        fill: #1c3c83;
        stroke-width: 0px;
      }
    </style>
  </defs>
  <path class="cls-1" d="M47.06,51.85H14.98c-3.33,0-6.05-3.07-6.05-6.85v-25.87c-.07-.96.01-2.64,1.17-4.27,1.54-2.17,3.86-2.6,4.53-2.69l.35-.02h14.26c1.57,0,2.85,1.28,2.85,2.85s-1.28,2.85-2.85,2.85h-14.02c-.13.03-.34.12-.48.3-.16.23-.14.52-.13.55l.02.3v26c0,.71.32,1.11.44,1.17l31.71-.02c.17-.03.32-.09.36-.12.03-.06.12-.31.14-1.03v-9.11c0-1.57,1.28-2.85,2.85-2.85s2.85,1.28,2.85,2.85v9.26c-.02.74-.08,2.71-1.33,4.36-1.43,1.87-3.6,2.25-4.46,2.33h-.12Z"/>
  <path class="cls-1" d="M59.29,7.52c-7.67,2.45-15.94,2.22-23.66.45,2.41,2.67,6.26,5.69,10.1,7.16l-21.91,18.65c-1.26,1.07-1.41,2.97-.34,4.23.59.7,1.44,1.06,2.29,1.06.69,0,1.38-.24,1.94-.72l21.93-18.67c.84,4.02,3.15,7.98,5.43,11.14-.18-7.92.48-16.2,4.22-23.29Z"/>
</svg>