<?xml version="1.0" encoding="UTF-8"?><svg id="Layer_1" xmlns="http://www.w3.org/2000/svg" viewBox="0 0 62.177 55.461"><defs><style>.cls-1{fill:#fff;stroke-width:0px;}</style></defs><path class="cls-1" d="M61.253,52.974c-7.387-9.572-14.773-19.144-22.16-28.716C45.332,16.173,51.572,8.087,57.811.002h-15.093c-3.724,4.825-7.448,9.651-11.172,14.476-3.412-4.421-6.824-8.842-10.235-13.263-.224-.261-.726-.773-1.54-1.043-.482-.16-.909-.181-1.202-.17H2.902C1.344-.042.171.779.017,1.724c-.025.154-.08.657.358,1.296,6.669,8.642,13.338,17.284,20.007,25.926C13.588,37.75,6.794,46.553,0,55.357c1.001.123,2.121.152,3.327,0h11.766l12.835-16.632,12.835,16.632h20.974c.179-.016.277-.076.335-.141.292-.328-.051-1.216-.82-2.242Z"/></svg>