<?xml version="1.0" encoding="UTF-8"?>
<svg id="Layer_1" xmlns="http://www.w3.org/2000/svg" viewBox="0 0 430 190">
  <defs>
    <style>
      .cls-1 {
        fill: #fff;
      }
    </style>
  </defs>
  <path class="cls-1" d="M235.41,74.04c.99.14,2.15.27,3.63.24,1.64-.21,7.06-.35,8.92-4.33.78-1.66.9-3.79.03-5.58-1.73-3.57-7.33-3.76-9.47-3.87v-.02c-1.66-.12-2.96.08-3.94.27.21,2.14.27,4.44.5,6.73.23,2.29.27,4.42.33,6.56Z"/>
  <path class="cls-1" d="M325.39,121.4l-.03.02c-14.3.2-26.24,1.66-34.93,3.02,1.11-1.34,2.39-2.69,4-4.05,3.7-3.22,7.43-5.12,10.2-6.17-12.61,1.79-27.31,4.97-43.45,10.46-11.08,3.73-20.99,7.93-29.6,12.08-2.93-5.67-6.55-11.99-11.48-18.6-2.72-3.72-5.43-7.09-8.14-9.98,1.14-.03,2.8.09,4.62.54,1.16.3,2.15.77,2.98,1.07.01.66.2,1.47.23,2.45.2.98.2,1.47.38,1.79.69,1.29,2.83,1.57,3.99,1.7,4.26-.27,8.53-.71,14.1-1.17,0,0,3.45-.26,12.45-1.46.98-.2,2.95-.41,5.39-1.28,2.77-.89,4.54-2.09,5.04-2.26,1.78-1.19,3.22-2.38,4.18-3.39,1.5,1.28,4.53,3.51,8.98,4.54,1.49.29,4.95,1.02,9.19-.08,3.1-.74,5.37-2.27,6.65-3.3.17.33.51.98,1.19,1.44,1.17.8,2.32.6,2.81.59,5.24-.63,19.5-2.14,27.06-2.17,3.12-.08,5.75-.15,9.06.59,6.44,1.31,11.27,4.15,14.28,6.21.6-8.89,1.19-17.77,1.79-26.5.36-4.94.98-13.17,1.19-18.1.83.15,1.64.12,2.47.27.83.15,2.15.44,3.28-.41,1.13-.69,1.43-1.85,1.58-2.5,3.34-11.09,4.56-20.98,4.56-20.98.14-.99.42-2.63.71-4.79-1.81-.12-8.56-.6-15.47-.92-4.6-.21-7.73-.3-10.85-.23-.17,0-5.75.15-13.47,0-.5,0-1.47.03-2.45.72-.65.35-.96.84-1.28,1.19-.17-.33-.53-1.29-1.37-1.94-.66-.48-1.32-.62-1.66-.62-3.45.26-7.22.02-11.32.78-3.43.74-6.53,1.47-9.47,2.38-.48.18-1.63.69-2.42,1.87-.48.66-.78,1.5-.77,1.99-1.67-1.11-5.01-3.49-10.13-4.02-5.43-.68-9.51,1.07-11.12,1.93-4.23,1.91-6.95,4.77-8.38,6.29-1.17-.96-2.84-2.06-5.01-3.16-2-.93-4.15-1.53-7.12-2.29-2.48-.44-6.61-1.14-17.44-.87l-8.38.21c.32-.5.78-1.66,1.07-2.98,0-.17.87-4.62-1.29-5.88-.83-.47-1.82-.29-2.47-.27-8.01,1.52-16.31,4.85-16.48,4.85-.81.35-1.96.71-3.42,1.4.27-2.47-.27-4.26-.63-5.24-.35-.98-.71-1.79-1.7-2.42-1.16-.63-2.3-.27-2.96-.26-5.06,1.28-13.84,4.62-19.07,6.06-.98.35-2.45.72-4.24,1.1.3-.83.44-2.15.56-3.79.12-1.47.33-6.41-2.17-7.67,0,0-.5-.15-1.64-.12-1.97.05-3.45.42-3.76.59-3.75,1.25-11.75,3.25-17.79,4.73-3.1.74-7.67,1.67-13.75,1.66-.18-.65-.54-1.79-1.38-2.92-.17-.17-.84-.96-1.52-1.44-2.66-1.58-5.91.15-6.23.48-4.23,1.75-8.62,3.34-13.02,4.94-3.91,1.41-7.66,2.66-11.41,3.9-.18-.81-1.07-3.1-3.07-4.53-.51-.48-1.85-1.43-3.64-1.22-.98.03-1.64.38-1.96.54-3.58,1.57-11.11,2.9-13.06,3.28-2.95.57-5.24.63-9.51.9-2.45.23-4.59.29-6.06.32.36,1.31,1.07,3.27,1.78,5.54,4.67,15.65,6.47,28.26,6.91,32.69.69,7.7,1.43,17.38,1.05,28.73,4.56-1.76,11.39-4.23,19.89-6.09,25.49-5.73,46.42-2.98,57.97-1.46,10.71,1.53,16.16,2.23,23.13,4.85,6.8,2.62,24.89,9.72,36.06,28.83,7.37,12.46,8.68,24.75,8.86,31.98,4.63-5.21,11.36-11.78,20.59-17.77,11.96-7.86,23.54-11.6,31.38-13.6-1.11,1.34-2.39,3.02-3.49,5.18-2.66,5.16-3.21,9.95-3.3,12.9,9.19-6.64,22.32-14.37,39.26-20.04,28.02-9.42,52.7-8.4,67.04-6.62,1.32.14-19.5-4.27-43.14-4ZM318.59,54.87c.11-2.47.38-4.62.65-6.76v-.02c5.57-.14,11.15-.27,16.75.08,5.58-.14,11.18-.12,16.76-.09-.29,1.66-.41,3.3-.69,5.12-.41,3.46-.98,6.76-1.72,9.9-1.16-.3-2.48-.6-3.96-.72-1.97-.29-3.63-.41-5.27-.36-.33,6.09-.68,12.17-1.17,18.43-.48,7.07-1.13,13.83-1.79,20.42-1.66-.62-3.81-1.05-6.28-1.32-1.99-.29-3.79-.23-5.27-.2.83-5.94,1.49-12.54,1.97-19.44.32-6.74.33-12.99.18-18.74-2.3-.11-4.76-.05-7.22.02l-3.28.09c.12-1.97.23-4.11.33-6.41ZM316.4,65.93c2.45-.23,4.76-.45,6.89-.33.21,1.97.42,3.45.45,4.59.02.83.05,1.97-.06,3.94.03,1.31-.11,2.47-.09,3.13-.8.84-2.72,2.69-5.82,3.43-1.47.36-2.78.41-3.78.26.12-1.97.06-3.94.18-5.91l-.02-.02c.09-3.13.18-6.08.44-8.88.66-.02,1.14-.2,1.81-.21ZM298.5,59.82c-.03-1.16-.08-2.8-.62-4.76-.2-1.32-.72-2.45-1.07-3.43,2.29-.72,4.89-1.44,7.67-2,3.93-.75,7.54-1.01,10.49-1.08v.03c-1.26,2.33-3.15,5.84-4.02,10.13-.74,3.15-.84,5.61-1.01,11.86-.23,4.11-.24,10.19-.08,16.6,1.14-.03,3.78-.09,6.73-.33.83-.03,1.81-.05,2.95-.57.32-.18.81-.36,1.78-1.04.81-.51,2.11-1.37,3.39-2.71.08,2.95-.02,5.75-.74,9.71-.44,2.8-1.02,5.28-1.79,7.43-4.11-.23-8.71-.27-13.8.18-4.42.44-8.35,1.02-11.95,1.61.45-1.49,1.22-3.66,1.64-6.46.26-2.3.38-4.11.36-4.94.24-10.02-.18-20.21.06-30.23ZM278.18,49.48c9.21-.23,17.07,11.72,17.28,26.68.21,14.96-6.86,27.3-16.07,27.52-9.21.23-17.06-11.72-17.28-26.68-.21-14.96,6.88-27.3,16.07-27.52ZM221.43,53.54c.15-.33.32-.51.63-.84,2.29-.39,5.55-.96,9.66-1.23,5.9-.48,9.01-.72,12.82.17,2.48.59,11.57,2.66,14.57,10.47.35.81,2.45,6.18-.21,11.35-.93,2.17-2.54,3.52-3.51,4.2v.02c1.19,1.29,4.56,4.65,5.52,10.22.2,1.31,1.35,8.35-2.78,13.54-3.84,4.71-10.07,5.03-21.55,5.81-4.44.29-8.05.21-10.52.11-.14-5.43-.08-9.86-.15-12.66,0,0,.12-21.2-1.47-32.34-.21-1.97-.92-3.93-.92-3.93-.18-.48-.35-.81-.53-1.29-.87-1.96-1.87-2.75-1.57-3.58ZM101.42,90.71c-2.45.23-4.59.45-6.55.83-1.02-1.44-2.05-3.07-3.07-4.68-1.87-2.74-3.25-5.49-4.47-8.1.77,4.41,1.7,8.65,2.47,13.08-3.76.75-7.36,1.34-11.12,2.09-1.01-7.03-2.17-14.24-3.51-21.59-1.7-9-3.4-17.67-5.42-25.99,3.3.08,7.06-.18,11.32-.95,3.45-.59,6.38-1.47,8.98-2.36-.75,2.81-1.49,6.12-2.06,9.59-.72,3.97-1.13,7.74-1.2,11.03,2.08-2.36,4.3-5.04,6.36-8.05,1.75-2.68,3.33-5.18,4.57-7.51,2.29-.39,4.74-1.11,7.51-2,3.09-1.07,5.85-2.12,8.13-3.33-.47.99-1.08,2.33-1.87,4.15-3.12,6.8-6.28,11.81-9.27,16.66-1.6,2.35-3.48,5.52-6.02,9.19,1.37,2.44,3.09,4.85,4.95,7.43,3.05,4.03,6.26,7.55,9.13,10.61-2.63-.26-5.6-.35-8.88-.11ZM119.31,89.97h.01s-2.8.06-2.8.06c-.02-.83.12-1.64.27-2.47.14-.99.29-1.82.42-2.63,1.16.14,2.3.11,3.46.24.53,1.63,1.07,3.27,1.6,4.89-.99-.14-1.97-.12-2.96-.09ZM132.33,90.61c-1.64-.14-3.3-.09-4.94-.21-.53-1.46-1.23-3.08-1.93-4.71-.87-2.12-1.73-3.9-2.6-5.69-1.31-.14-2.8-.26-4.27-.23-1.97-.11-3.94.11-5.75.15-.27,2.3-.54,4.79-.81,7.09-2.18-2.08-4.03-3.84-5.39-5.28-1.01-.96-2.18-2.26-3.22-4.03-.53-.98-.87-1.46-1.22-2.44-.36-1.46-.41-2.95-.29-4.76.14-1.16.11-1.97.26-2.63l3.45-.09c.92-2.65,1.85-4.82,2.47-6.31,1.57-3.16,2.51-4.67,5.33-10.32.8-1.34,1.25-2.5,1.87-4.32.6-1.99.89-3.79,1.02-4.95,1.47-.2,3.12-.57,4.74-1.1,2.78-.72,4.89-1.76,6.83-2.8-1.28,1.52-2.54,3.36-3.81,5.52-.47,1.01-.95,1.84-1.25,2.66,1.23,2.77,2.45,5.52,3.51,8.46,1.6,4.39,3.18,8.46,4.42,12.54l2,.93c1.17.63,2.33,1.43,3.18,2.06-.48.66-.95,1.34-1.43,2-.48.68-1.11,1.34-1.6,1.85.71,2.12,1.58,4.06,2.29,6.18h0c1.25,3.73,2.65,7.31,3.4,10.91-1.97-.11-4.12-.39-6.26-.5ZM150.78,91.8c-2.48-.44-4.62-.54-6.76-.65-1.49-6.86-2.98-14.06-4.32-21.41-.98-6.05-1.94-11.78-2.57-17.52h-.03c-1.31.36-2.45.56-3.93.75-1.64.38-3.27.57-4.91.78-.36-1.14-.72-2.45-.92-3.93-.41-2.78-.47-5.25-.18-7.22,2.95-.24,6.73-.5,11.15-1.1,2.78-.41,7.54-1.01,13.57-2.65,3.6-.92,7.99-2.17,12.88-3.94-.29,1.97-.71,4.45-1.46,7.1-.6,2.15-1.38,3.97-2.15,5.64-2.12.71-4.41,1.26-7.01,1.82-1.96.38-3.76.75-5.57.96.29,5.09.93,10.82,2.06,16.7,1.73,9.81,4.24,18.63,6.74,25.96-1.99-.44-4.12-.89-6.61-1.31ZM162.2,89.7c-1.23-3.08-2.47-6.68-3.72-10.58-.9-3.43-1.64-6.53-2.21-9.48.65-.18,1.31-.36,1.96-.54.98-.35,2.12-.54,3.1-.9.21,1.64.42,3.61.65,6.06.2,1.14.27,4.26.38,8.2.06,2.14-.05,4.44-.15,7.24ZM175.67,96.26c-3.15-.92-6.11-1.32-8.58-1.6.53-5.12.87-10.86.72-16.94.02-6.25-.47-11.99-1.08-17.07-1.79.38-3.6.75-5.39,1.13-2.29.54-4.57,1.1-6.7,1.81-.69-1.46-1.23-3.6-1.46-5.88-.23-1.96-.27-3.76-.14-5.09,5.9-.81,15.05-2.84,22.06-4.83,6.69-1.8,12.7-4.09,18.07-6.19,0,0,0,0,0,0h.02s-.01,0-.02,0c-.44,1.82-1.04,4.14-1.95,6.95-1.07,2.81-2.17,5.15-3.27,7.15-1.63.71-3.58,1.58-5.7,2.12-1.31.36-2.62.72-3.76.92.15,5.58.47,11.81,1.13,18.54.84,7.86,2.18,15.06,3.66,21.43-2.15-.93-4.8-1.69-7.61-2.44ZM209.77,100.16c-.03-1.31-.24-2.62-.44-4.09-.21-2.12-.75-3.93-1.13-5.72-1.96.21-4.09.27-6.06.48-1.81.21-3.61.26-5.42.47-.27,1.97-.38,4.27-.32,6.91.05,1.64.09,3.12.29,4.59-1.5-.95-2.68-1.58-3.67-2.05-.99-.47-2.48-1.1-4.47-1.53-1.16-.3-1.97-.44-2.63-.42.12-1.82.24-3.63.2-5.43l-.12-4.76c-.18-.66-.21-1.64-.56-2.62-.36-1.29-.89-2.27-1.23-3.08,1.46-.69,2.77-1.22,4.23-1.91.56-3.96,1.28-7.93,2.15-12.22,1.32-6.11,2.83-11.74,4.33-17.03,2.59-1.55,5.67-3.27,9.09-4.67,4.06-1.75,7.81-2.83,11.24-3.73-.8.68-1.93,1.69-2.87,3.02-.96,1.34-1.75,2.68-2.21,3.67,1.13,5.57,2.41,11.12,3.7,16.67.75,3.93,1.67,7.67,2.59,11.44.5.15.98.14,1.49.45.51.32,1.01.47,1.34.78-.44,2.32-.86,4.79-1.29,7.1h-.03c.24,2.95.63,5.09,1.16,6.71.2,1.47.56,2.29.93,4.41.39,1.96.75,3.6.95,4.74-2-.93-4.65-1.69-7.78-2.11-1.14-.14-2.47-.11-3.45-.08Z"/>
  <path class="cls-1" d="M118.2,57.64c-.63,1.49-1.4,3.16-2.02,4.98-.77,2.32-1.2,4.45-1.49,6.28l3.45-.09h.02c1.31-.03,2.47-.06,3.78-.09-.36-1.63-.74-3.27-1.28-5.22-.72-2.29-1.6-4.23-2.45-5.85Z"/>
  <path class="cls-1" d="M239.12,83.49c-1.32.03-2.47.23-3.61.26l.17,6.41c.06,2.45-.05,4.76.01,7.22,1.82.12,3.96.08,6.25-.15,1.64-.05,3.12-.26,4.59-.45.65-.18,1.63-.54,2.75-1.38,2.09-1.69,2.18-4.15,2.18-4.65.26-2.65-1.43-4.41-1.78-5.06-1.85-1.93-4.32-2.18-4.82-2.18-1.81-.12-3.78-.06-5.75-.02Z"/>
  <path class="cls-1" d="M202.25,61.26c-.6,2.15-1.2,4.3-1.81,6.46-.75,2.81-1.5,5.61-2.09,8.43.98-.2,1.97-.38,2.95-.41v.02c1.66-.05,3.13-.24,4.6-.12-.38-1.97-.77-4.09-1.31-6.22-.74-2.93-1.63-5.55-2.35-8.16Z"/>
  <path class="cls-1" d="M279.37,89.87c2.63-.06,4.6-6.03,4.59-13.42-.2-7.39-2.32-13.26-5.1-13.18-2.78.08-4.79,6.03-4.59,13.42.2,7.39,2.47,13.24,5.1,13.18Z"/>
</svg>