<?xml version="1.0" encoding="UTF-8"?><svg id="Layer_1" xmlns="http://www.w3.org/2000/svg" viewBox="0 0 64 64"><defs><style>.cls-1{fill:#1c3c83;stroke-width:0px;}</style></defs><path class="cls-1" d="M14.47,8.38c7.07,5.33,14.72,16.18,17.53,21.99,2.81-5.81,10.46-16.66,17.53-21.99,5.13-3.88,13.47-6.88,13.47,2.62,0,1.94-1.07,15.89-1.74,18.21-2.23,7.94-10.27,9.88-17.44,8.72,12.5,2.13,15.69,9.2,8.82,16.27-13.08,13.47-18.79-3.39-20.25-7.65-.29-.77-.39-1.16-.39-.87,0-.29-.1.1-.39.87-1.45,4.26-7.17,21.12-20.25,7.65-6.88-7.07-3.68-14.14,8.82-16.27-7.17,1.26-15.21-.77-17.44-8.72-.68-2.23-1.74-16.28-1.74-18.12,0-9.49,8.33-6.59,13.47-2.71h0Z"/></svg>