<?xml version="1.0" encoding="UTF-8"?><svg id="Layer_1" xmlns="http://www.w3.org/2000/svg" viewBox="0 0 866.5 205.7"><defs><style>.cls-1{fill:#1c3c83;stroke-width:0px;}</style></defs><path class="cls-1" d="M123.588,122.575c-.286-.196-.563-.345-.814-.459-.128-.04-.331-.084-.577-.059-.084.008-.349.042-.629.215-.187.115-.218.191-.444.377-.207.17-.395.281-.518.348-1.504.764-5.085,2.329-9.828,1.983-4.458-.325-7.626-2.17-9.029-3.108-.504-.35-1.605-1.016-3.167-1.184-1.635-.176-2.9.287-3.464.533-2.872.891-5.34,1.273-7.134,1.451-3.101.307-5.288.497-7.756-.533-1.642-.685-2.804-1.658-3.523-2.368-.146-.164-1.415-1.555-2.654-1.211-.125.035-.258.09-.396.174-.696.612-1.391,1.224-2.087,1.835-.106.083-.232.207-.326.385-.307.585.016,1.221.059,1.303.628,1.717,1.497,2.887,2.324,3.7,4.397,4.323,13.191,4.022,22.093-.483.392-.208.735-.258.937-.271.229-.015.438-.026.666.089.286.144.423.394.474.503.396.611,1.032,1.442,1.998,2.22,0,0,.53.426,1.14.784,3.007,1.766,9.922,1.944,9.922,1.944,5.915.152,8.331-.517,9.71-1.105.498-.213,1.504-.652,2.566-1.579,1.071-.936,1.71-1.942,2.072-2.625.042-.14.086-.349.072-.602-.022-.397-.176-.69-.266-.836-.285-.412-.738-.954-1.421-1.421Z"/><path class="cls-1" d="M206.496,97.325c-.183-.833-.565-1.306-.71-1.469-.349-.261-.709-.544-1.077-.85C200.757,44.237,159.777,3.865,108.747.862l.003-.007c-5.87-.656-12.505-.86-19.721-.168-28.457,2.731-48.728,17.751-58.495,26.287-.49.494-1.017,1.119-1.5,1.895-1.08,1.735-1.461,3.458-1.593,4.721C10.571,51.843.258,76.245.258,103.06c0,22.203,7.07,42.754,19.079,59.528.616,1.86,1.395,3.742,2.38,5.618,1.196,2.279,2.537,4.254,3.896,5.955.239.253.765.735,1.578.956,1.075.292,1.991-.05,2.45-.281,18.574,18.889,44.417,30.607,73.001,30.607,56.545,0,102.384-45.839,102.384-102.384,0-.199-.006-.396-.007-.594.644-1.168,1.126-2.316,1.478-3.333.055-.251.186-.962,0-1.808ZM190.665,78.582c.075-.061.611-.481,1.303-.336.612.129,1.098.65,1.218,1.314.263,1.015.515,2.061.754,3.137.441,1.985.798,3.9,1.086,5.735.193,1.151-.322,2.088-.995,2.266-.421.112-.826-.093-1.026-.217-1.483-1.131-2.967-2.263-4.45-3.394-.223-.183-.537-.484-.809-.928-.3-.489-.406-.92-.474-1.204-.168-.706-.154-1.354-.079-1.875.008-.177.043-.442.178-.73.068-.145.146-.263.217-.355.344-.48.737-.984,1.184-1.5.648-.746,1.292-1.381,1.895-1.914ZM182.164,54.407c.126-.058.38.162.761.66.631,1.12,1.545,2.759,2.629,4.758,2.639,4.868,2.868,5.573,3.03,6.297.233,1.039.979,4.607-.988,7.957-.773,1.317-1.722,2.186-2.368,2.694-.031.044-.263.374-.503.34-.252-.035-.5-.468-.414-1.08.179-3.507.118-7.595-.459-12.107-.314-2.461-.743-4.741-1.229-6.823-.52-1.698-.673-2.596-.459-2.694ZM181.616,99.225c.322-1.058.634-2.409.77-3.996.128-1.502.064-2.82-.059-3.878-.169-.463-.089-.961.207-1.243.419-.4,1.266-.359,1.776.266.979.87,2.101,1.783,3.375,2.694,1.134.811,2.229,1.506,3.256,2.102.152.074.361.189.592.355.411.297.698.621.799.76.607.835-.09,2.439-.138,2.546-.894,1.999-3.226,2.695-4.016,2.931-2.311.689-4.335.179-5.289-.138-.166-.036-.664-.168-1.026-.632-.592-.757-.271-1.698-.247-1.766ZM57.453,21.094c1.064-.572,2.625-1.383,4.542-2.283,21.433-10.058,41.094-9.376,45.642-9.14,14.074.73,25.462,4.562,33.236,8.016.798.434,10.854,6.019,14.624,13.473,1.904,3.765,2.289,7.341,2.289,7.341.045.42.24,2.357-.079,4.815-1.144,8.829-6.907,18.077-6.907,18.077-3.84,6.162-8.313,13.34-17.327,19.636-10.367,7.241-20.458,8.929-24.708,9.591-3.705.577-6.842.716-9.058.73-.086,0-.964-.019-1.502-.777-.522-.735-.282-1.541-.254-1.631.586-2.312,1.265-4.711,2.052-7.184,1.585-4.978,3.368-9.497,5.195-13.543.125-.189.618-.98.429-1.998-.045-.241-.198-1.067-.903-1.51-.724-.455-1.764-.34-2.59.296-8.875,7.416-24.567,18.232-46.417,22.38-6.777,1.286-13.047,1.723-18.59,1.697-.615-.024-1.543-.149-2.526-.651-.435-.223-2.227-1.175-2.881-3.276-.316-1.015-.246-1.911-.158-2.447.248-3.327.824-7.889,2.25-13.144.739-2.723,4.113-14.507,13.913-26.82,3.338-4.195,8.486-9.787,15.911-15.127.164-.165.446-.498.562-.992.106-.449.023-.81-.074-1.214-.083-.344-.255-.873-.644-1.451-.171-.22-.478-.548-.955-.74-.282-.114-.519-.137-.651-.148-1.127-.097-3.392-.086-3.616-.084-.919-.077-1.474-.702-1.417-1.189.049-.414.533-.666.612-.706ZM25.581,96.236c-.031.467-.081.848-.118,1.095-2.222,5.853-4.448,13.273-5.743,22.024-.926,6.258-1.19,11.942-1.125,16.844-.044.541-.417.994-.918,1.125-.568.148-1.189-.146-1.451-.71-1.384-3.07-2.779-6.674-3.967-10.775-1.385-4.784-2.176-9.168-2.626-12.931-.453-4.167-.623-9.254.02-14.984.341-3.041.862-5.821,1.46-8.309.516-1.485,1.561-2.534,2.735-2.633.252-.021.599-.006,1.014.146,1.077.393,2.209.777,3.394,1.145,1.477.458,2.901.85,4.263,1.184.162.078.383.194.632.355.189.123,1.138.754,1.776,1.806.864,1.422.762,2.954.651,4.618ZM25.225,81.701c-1.095.641-2.262.477-2.723.385-1.754-.379-4.18-1.126-6.73-2.694-1.415-.87-2.558-1.801-3.454-2.644-.155-.138-.362-.368-.434-.691-.301-1.354,2.106-2.945,2.664-3.335,1.856-1.298,4.862-4.425,9.907-12.473.645-1.462,1.604-3.708,2.664-6.493,1.911-5.021,2.959-8.672,3.197-9.414,1.274-3.973,6.523-9.412,24.156-15.749.125-.039,1.295-.397,1.49-.069.155.26-.329.912-1.194,1.608-3.628,3.041-7.583,6.913-11.367,11.782-10.153,13.062-13.877,26.602-15.393,34.99-.321,1.439-.867,2.471-1.263,3.098-.463.735-.822,1.289-1.52,1.697ZM48.907,175.324c-.304,1.774-1.17,3.012-2.117,3.089-.181.015-.419-.009-.706-.148-2.853-1.495-6.704-3.909-10.539-7.697-3.441-3.399-5.753-6.803-7.263-9.433-.199-.348-.399-.756-.574-1.223-.398-1.065-.512-2.034-.531-2.754-.374-2.963-.797-7.001-1.036-11.811-.216-4.339-.416-12.021.414-21.61.309-3.569.828-8.165,1.747-13.499.247-1.227,1.216-2.017,2.131-1.954.769.053,1.261.692,1.362.829,1.393,1.671,2.779,3.669,3.967,6.039.261.521.856,1.744,2.871,7.549,1.784,5.138,1.721,5.339,2.398,6.897.808,1.859,2.192,4.553,4.618,7.578,1.102,1.953,2.455,4.949,2.812,8.762.103,1.1.031,1.284-.069,5.151-.149,5.756-.224,8.634-.049,11.219.238,3.534.6,4.203.681,7.845.048,2.185-.037,3.982-.118,5.171ZM63.038,181.639c-1.515.582-2.806.452-3.118.414-2.361-.283-4.343-1.923-5.299-3.908-.728-1.512-.726-2.945-.651-3.76.029-2.296.022-4.655-.03-7.075-.077-3.642-.247-7.148-.488-10.509.001-.231.019-1.897.518-1.998.092-.019.337-.012.76.646,2.283,4.159,3.594,7.064,4.381,8.999.126.309.385.954.841,1.778.949,1.713,2.281,4.12,4.645,4.971,1.077.388,2.427.276,5.131.039,1.045-.091,1.904-.218,2.487-.316.772-.178,1.45.319,1.52.888.05.412-.219.86-.671,1.095-2.417,1.41-4.005,2.891-4.993,3.957-2.001,2.159-2.727,3.89-5.032,4.776ZM62.308,156.418c.028-.12.156-.676.691-.928.517-.243,1.014-.014,1.085.02,1.127.366,2.323.802,3.572,1.322,1.499.624,2.861,1.282,4.085,1.934.414.283,1.211.913,1.737,2.013.326.681.436,1.307.474,1.737.031.184.064.45.059.77-.007.505-.014,1.02-.335,1.224-.077.049-.212.105-.434.079-.899.053-1.828.124-2.783.217-.833.081-1.642.174-2.427.276-.215.031-1.059.126-1.875-.414-.644-.427-.915-1.014-1.006-1.243-.21-.699-.474-1.455-.809-2.25-.498-1.182-1.049-2.202-1.579-3.059-.114-.159-.273-.419-.375-.77-.075-.258-.163-.561-.079-.928ZM124.601,194.191c-.319.523-.818.747-1.036.829-7.772,2.307-21.387,5.11-37.477,1.776-6.516-1.35-12.048-3.418-16.499-5.506-.98-.398-1.525-1.446-1.295-2.442.24-1.039,1.236-1.643,2.028-1.622,1,.027,1.708,1.054,2.013,1.46,1.016,1.354,2.964,3.025,7.062,4.38,0,0,.567.133,1.184.237,15.136,2.538,32.129-5.605,32.129-5.605,1.85-.887,4.461-2.243,7.46-4.184.573-.457,1.357-.549,2.013-.237.683.325,1.111,1.033,1.085,1.796.086.964.232,2.038.474,3.197.234,1.123.518,2.138.814,3.034.25.612.303,1.137.311,1.465.011.478.022.948-.266,1.421ZM141.347,182.271c-.138.347-.368.571-.513.691-.598.711-1.564,1.686-2.98,2.506-2.003,1.161-3.899,1.43-4.954,1.5-.41.012-.972-.032-1.579-.276-1.255-.505-1.847-1.522-2.013-1.835-.258-.488-.365-.939-.414-1.243-.368-2.289-2.231-5.69-2.763-7.894-1.609-6.662,6.137-13.513,7.282-14.426,1.085-.865,2.509-1.256,3.454-1.717.2-.098.746-.329,1.322-.138.809.269,1.367,1.269,1.214,2.427.008.263.019.653.03,1.125.094,4.111-.002,6.658,0,7.874.003,1.966.27,4.789,1.48,8.407.044.16.112.408.197.71.237.841.285.961.316,1.243.037.344.069.673-.079,1.046ZM128.065,156.803c-3.772,1.391-7.083,1.971-9.374,2.24-.618.015-1.771.141-2.723.947-1.188,1.006-1.384,2.493-1.559,3.986-.204,1.74-.019,3.031.247,4.801.483,3.217.835,5.509,1.016,6.685.085.559.375,2.875-1.125,4.598-.334.383-.698.671-1.046.888-2.675,1.508-6.409,3.243-11.091,4.381-6.24,1.518-11.61,1.354-15.166.957-.432-.081-5.557-1.12-6.735-4.944-.159-.517-.278-1.189-.222-2.013.101-2.492.146-5.09.118-7.786-.043-4.238-.26-8.243-.592-11.989-.141-.828-.609-2.91-2.368-4.796-1.587-1.702-3.389-2.348-4.204-2.585-4.071-1.404-15.071-5.804-22.893-17.209-1.364-1.989-6.417-9.711-7.697-20.959-.473-4.158-.303-7.681-.039-10.183.04-1.653.378-2.962.671-3.829.385-1.139.981-2.839,2.566-4.342,1.129-1.07,2.315-1.62,3.089-1.904,5.767-1.418,10.657-2.362,14.298-2.99,6.558-1.13,9.939-1.698,14.505-1.717,5.588-.024,10.173.785,13.262,1.51.323.102.802.305,1.184.74.556.633.462,1.248.799,2.22.185.533.545,1.569,1.391,2.191.734.539,1.723.557,3.7.592.706.013,1.289-.008,1.687-.03,8.171-1.305,15.088-1.669,20.248-1.717,4.534-.042,8.862-.064,14.565.829,5.723.896,10.397,2.331,13.736,3.552,1.09.476,3.051,1.509,4.751,3.582,2.327,2.836,2.743,5.882,2.842,7.075.342,3.934.406,9.987-1.436,17.022-.833,3.182-2.465,9.203-7.134,15.571-2.232,3.044-8.42,10.623-19.271,14.624ZM168.423,149.885c-.068,6.743-.192,12.544-.313,17.13-.055,1.501-.401,3.298-1.502,4.944-.096.144-.195.282-.296.414-1.644,1.891-3.854,4.11-6.72,6.276-3.026,2.287-5.916,3.862-8.279,4.944-.195.018-.851.053-1.5-.375-.709-.468-.919-1.166-.967-1.342-1.157-4.324-2.219-9.886-2.427-16.4-.16-4.99.217-9.409.77-13.084.051-.847.25-2.222,1.036-3.686.425-.792.912-1.403,1.332-1.85,2.948-3.102,6.26-7.144,9.325-12.226,1.815-3.009,3.246-5.892,4.381-8.526.298-1.506,1.295-2.304,1.954-2.161.595.129.876,1.018.918,1.154.284,1.069.682,2.665,1.066,4.618,1.251,6.374,1.313,11.295,1.224,20.169ZM173.061,103.646c-1.601.485-2.901.079-2.901.079-1.177-.368-1.891-1.147-2.191-1.52-3.126-3.519-6.29-7.202-9.473-11.052-3.628-4.388-7.049-8.711-10.272-12.946-.182-.265-.437-.721-.518-1.332-.178-1.349.643-2.347.804-2.536,4.4-5.727,7.011-11.083,8.565-14.92,1.79-4.42,3.791-9.492,3.986-16.42.138-4.907-.68-8.94-1.421-11.624-.056-.245-.245-1.101.138-1.401.444-.348,1.57.118,2.774,1.273,4.593,4.974,12.573,15.065,15.895,29.968,1.557,6.983,1.681,13.187,1.362,17.998-.047.403-.125,1.059-.222,1.865-.604,5.005-.858,6.535-1.14,9.236-.118,1.13-.281,2.841-.414,4.963-.662,4.383-2.664,7.668-4.973,8.368ZM195.423,114.868c-.773,6.121-2.394,14.091-5.913,22.896-2.944,7.368-6.424,13.336-9.524,17.883-.82,1.038-1.708,1.446-2.174,1.614-.497.179-1.565.564-2.067.044-.289-.299-.27-.771-.237-1.026.36-5.867.653-11.868.868-17.998.172-4.882.288-9.686.355-14.407-.003-.639,0-4.9.947-7.973.372-1.207.822-2.014,1.263-2.802.517-.925.847-1.318,1.303-1.618.634-.418,1.292-.512,1.697-.533,2.674.236,4.428-.097,5.565-.474.045-.015,1.123-.372,2.605-.71,1.763-.402,2.147-.332,2.309-.296,1.507.338,2.292,1.933,2.506,2.368.612,1.243.567,2.426.496,3.032Z"/><path class="cls-1" d="M312.6,73.3v-10.6c0-.5-.2-1-.4-1.6-1.3-3.2-4.8-4.3-5.4-4.5-.4,0-3.7-1-6.8.8-.7.5-2.6,1.6-3.2,3.7-.2.6-.2,1.2-.2,1.6v5.7c.4,1.8,1.6,3,2.3,3.6,7.9,7.3,13.9,12.7,18.1,16.4,1.7,1.6,5.5,4.8,10,9.7,3.8,4.2,5.7,6.9,6.8,8.4,1.8,2.7,3.6,5.4,4.9,9.3,1.2,3.3,1.6,6.1,1.8,8.1.4,2.8.5,5.3.5,7.1v22.5c-.2,1.7-.5,3.8-1,6.4-.5,2-1.4,5.5-3.2,9.5-.9,2.1-2.6,5.7-5.8,9.8-1.4,1.7-4,5-8.5,8.1-3.2,2.2-5.8,3.3-8,4.2s-4.8,1.9-8.4,2.5c-1.6.2-2.9.3-3.9.3h-29.6c-1.1,0-2.6-.2-4.5-.6-5.7-1.4-9.4-4.6-12.2-6.9-1.1-1-4.2-3.7-7.1-8.1-1.2-1.7-3.3-5-4.8-9.8-1.3-4-1.6-7.5-1.6-9.2v-28.9c0-.55.047-.871.098-1.221.031-.212.122-.817.325-1.431.28-.845.67-2.026,1.777-2.648.725-.407,1.453-.404,1.7-.4.643.01,1.142.193,1.426.322,4.875,1.388,9.8,2.765,14.774,4.128,4.935,1.352,9.836,2.669,14.7,3.95.3,0,1.3.4,1.9,1.5.6,1,.5,2.1.5,2.4v7.9c0,.5,0,1.6.5,2.6.3.5.8,1.6,2.4,2.7,3.8,2.7,8.6,2.5,9,2.5,1.1,0,3.5-.3,5.9-1.8.9-.5,2.1-1.4,2.8-2.9.5-1.2.6-2.4.6-3v-15.9c0-.7,0-1.8-.4-3.1s-.8-2.9-2.6-5.8c-1.1-1.7-2.9-4.2-5.6-6.9-8.1-6.8-16.3-13.5-24.4-20.2-1.4-1.1-3.2-2.7-5-4.9-.6-.8-1.8-2.1-3-4-1.1-1.7-2.6-4.1-3.7-7.5-.5-1.6-1-3.9-1-6.9v-20.3c0-2,0-5.1,1.2-8.7,1.4-4.2,3.6-6.9,4.8-8.3,3.4-4.1,7-6.1,9.7-7.7,4.8-2.7,9-3.8,10.7-4.2,2.6-.5,4.8-.8,6.3-.9h21.5c3.3,0,7.9.4,13.4,1.9,4.8,1.4,9.5,2.7,14.2,6.8,5.9,5.2,8,11.5,8.7,13.6,1,3.3,1.3,6.2,1.4,8.2v13.6c0,1.4,0,3.5-.9,5.8-.5,1.2-.9,2.6-2.2,3.8-1.9,2-4.4,2.5-5.6,2.6h-24.1c-.105-.008-.268-.033-.444-.12-.207-.102-.329-.239-.456-.38,0,0,0,0,0,0-.206-.227-.62-.978-.69-2.242-.004-.069-.01-.196-.01-.358Z"/><path class="cls-1" d="M385.3,140.7V22.5c0-.3,0-.6-.3-1.1,0-.3-.4-.7-.9-1-.8-.5-1.6-.5-1.9-.5h-20.9c-.9,0-2.6.4-4.2,1.5-2.6,1.6-3.5,4.1-4,5.6-.5,1.1-1,2.9-.9,5.4v116.3c0,5.8.5,10.8,1.2,14.3.6,4.1,1.2,7.5,2.9,11.7,2.1,5.3,4.9,9.2,7,11.7.3.2.8.5,1.6.6,1.4.2,2.4-.5,2.6-.7,8.3-4.8,16.7-9.7,25-14.5.4-.3.5-.5.5-.7.6-1.4-.5-2.8-.5-2.9-1.3-2.3-2.7-5.2-4-8.9-.3-.8-1.4-3.9-2.1-8.2-.6-2.8-1.1-6.3-1.2-10.3h0l.1-.1Z"/><path class="cls-1" d="M416.7,27.5c.022-.578.104-2.428-.5-4.7-.25-.939-.688-2.661-2-4.3-1.2-1.5-2.5-2.4-3.3-2.8-5.4-2.2-10.9-4.4-16.3-6.6-.7-.3-1.5,0-1.8.4-.3.4-.4.7-.4.9v50.5c0,1.7,0,4.5,1,7.6.5,1.7,1.7,5.2,5,8.2s6.9,3.9,8.3,4.3c1.9.5,3.6.5,4.7.5h13c1,0,2.4,0,4-.7,1.8-.6,3.1-1.6,3.8-2.2v28.8c0,.6,0,2.2-1,3.7-1,1.6-2.6,2.3-3.2,2.6-1.7.7-3.2.5-4,.5-.9,0-2.7-.4-4.3-1.7-1-.9-1.4-2-1.6-2.5-.5-1.4-.5-2.6-.5-3.3v-7.7c0-.4,0-.9-.5-1.6-.5-.9-1.3-1.3-1.6-1.5-2.8-1.3-5.9-2.8-9.2-4.8-3.5-2.1-6.4-4.2-9-6.2-.2-.2-.9-.5-1.8-.5-.8,0-1.4.5-1.6.8-.6.5-1,1.2-1.4,2.3-.4,1-.7,2.6-.6,4.8v23c0,2.4,0,5.9,1.4,10,.6,2,1.8,5.8,4.9,9.8,1.4,1.7,4.3,5.4,9.6,7.6,4.1,1.7,7.9,1.8,10,1.8h14.4c1.9-.2,4.7-.7,7.8-2,4.4-1.7,7.1-4.1,9.5-6.1,2.7-2.4,5.6-4.8,7.9-8.9,2-3.6,2.6-6.7,3.2-9.3.9-4.4,1-8.1.8-10.7V11.8c0-.3,0-1.1-.6-1.9-1-1.2-2.5-1-2.6-1h-17.5c-1.3,0-3.3.2-4.9,1.6-2.3,1.8-2.6,5-2.7,5.2v30.2c0,.5.2,1.6-.3,2.6-.2.4-.7,1.8-2.3,2.6-.8.5-1.6.5-2.1.5h-9.1c-.332.006-.566-.071-.712-.138-1.183-.535-1.407-2.503-1.53-3.582-.037-.328-.052-.6-.058-.781-.296-9.467-.431-16.183-.3-19.6Z"/><path class="cls-1" d="M502.1,19.9h-21.6c-.9.2-1.6.5-1.9.7-2.9,1.9-2.6,6.2-2.6,6.6v152.6c0,2.1.2,5.1,1,8.1.3,1.1.7,2.4,1.6,3.7s1.9,1.8,2.1,2c.7.5,1.4.6,1.9.7,1,.3,2,.4,2.8.4h53.3c1.1-.2,2.3-.5,3.6-.8,1.6-.5,2.9-1,4.2-1.5,5-2.6,10-5,15-7.6.5-.3,1.4-.8,2.1-1.7.3-.4.6-1,.8-1.8.2-1.3-.4-2.3-.5-2.6-4.6-7.8-9.1-15.5-13.8-23.3,0,0-.5-.6-1.1-.7-.8,0-1.3.5-1.4.5-2.5,1.5-4.9,2.9-7.5,4.4-.7.3-1.5.5-2.3.6-1.9.5-3.7.5-5.1.6h-14.9c-.7,0-2.1-.3-3.5-1.2-.5-.4-1.2-.8-1.6-1.8-.4-.9-.4-1.6-.3-2.1V32.2c0-.8.5-4.5-2.1-7.9-3.1-4.1-7.6-4.5-8.2-4.5v.1Z"/><path class="cls-1" d="M552.4,11.5c0-.3,0-1-.5-1.6-.9-1.1-2.5-.9-2.6-.8h-23.1c-.6,0-1.2.2-1.6.4-3.5,1.5-3.9,6.5-3.9,6.9v96.3c.2,2.6.8,7,3.3,11.9,2.5,4.8,5.7,7.9,7.7,9.7.2.2.7.6,1.6.7,1.1,0,1.9-.5,2.1-.7,7.5-5.5,15-11.1,22.4-16.5,0,0,.6-.5.7-1.2,0-.6-.3-1.4-.9-1.7-.9-.7-2.1-1.8-3-3.4-.7-1.3-1.1-2.4-1.4-3.2-.4-1.2-.6-2.7-.7-4.5-.033-30.767-.067-61.533-.1-92.3Z"/><path class="cls-1" d="M669.8,168c0-.3,0-.9-.4-1.5-.5-.7-1.1-1-1.2-1-.5-.3-1-.2-1.3-.2h-4.1c-5.1-.5-9.7-8.7-10-16.3V49.3c0-2.9-.2-11-5.8-18.1-4-5-9-7.2-11.7-8.4-5.6-2.5-10.6-2.9-13.7-2.9h-35.5c-2.1,0-7.5.6-12.4,4.6-.6.5-4,3.2-6.2,8.1-1.7,3.8-2.1,7.3-2.1,9.3v23.1c0,1.3.4,2.2.6,2.8.5,1.4,1,1.6,1.1,1.7.5.3,1,.3,1.7.3s1.1,0,1.5-.3c7-1.9,14.1-3.9,21.1-5.8.2,0,.8-.3,1.3-.9s.5-1.3.5-1.5v-5.8c0-.8.2-3.2,1.9-4.8,1.6-1.7,4-1.8,4.8-1.8h9.1c1.5,0,4,.4,6.7,1.9,1.5.8,4.5,2.9,6,6.9.8,2.1.9,3.9.8,5v10.4c0,.6-.2,9.9-.8,10.8-1.7,2.6-5.4,2.6-5.6,2.6h-28.5c-2.1,0-5.9.4-10.1,2.4-2,.9-5.4,2.6-8,6.4-3,4.2-3.4,8.7-3.4,10.6v70.9c0,1.1,0,7.9,5.3,12.8,3.9,3.7,8.4,4.3,10,4.5h39.1c1.5,0,4.1-.4,7-1.9,3.7-1.9,5.6-4.8,6.3-6.1,1.6,1.6,3.7,3.4,6.1,5.2,1.5,1,3.4,2.4,6.2,3.7,1.3.6,3.1,1.3,5.3,1.9h17.7c.5,0,.8,0,1.1-.4.2-.3.2-.5.2-.6-.4-15.4-.5-26.5-.5-27.8h0l-.1-.1ZM621.6,155c-.5.4-1,.5-1.3.5h-19.1c-.9,0-2.6-.2-4.4-1.2-.7-.4-2.4-1.4-3.5-3.4-.9-1.8-.9-3.5-.9-4.3v-19.7c0-.5-.3-4.3,2.6-7,2.2-2,4.8-2.2,5.5-2.2h15.3c.5,0,2.6,0,4.4,1.6,2,1.7,2.1,4.2,2.1,4.6v28.5c0,.3.3,1.8-.8,2.7l.1-.1Z"/><path class="cls-1" d="M666.6,19.9c-1.2,0-2.6.5-3.6,1.5-1.2,1.3-1.4,3-1.4,3.6v130.3c0,.2,0,.7.4,1.2.5.5,1.2.7,1.8.5h26.1c.4,0,.9-.2,1.5-.5,2.1-.8,3.1-2.6,3.6-3.3,1-1.7,1.1-3.5,1.1-4.3v-77.6c0-3,.8-5.3,1.6-6.1.5-.5,1.1-.8,1.1-.8.7-.4,1.4-.5,1.7-.5h3.5c.6,0,1.7.3,2.8,1.1,2.5,1.8,2.4,5.1,2.4,5.5v49.8c0,.2,0,.9.5,1.6.5.6,1.2.7,1.5.8,1,.2,1.7-.3,1.9-.4,6.2-3.3,12.3-6.7,18.5-10,.3-.2.7-.5,1.1-.8.8-1,.8-2.1.8-2.5v-38.1c0-.2,0-4.5,2.8-5.8.4-.2.9-.4,1.6-.4h3.7c.5,0,2.2,0,3.7,1.4,1.6,1.4,1.9,3.7,2,4.8.3,4.4.4,38,0,83.8,0,.4.3,1.1,1,1.8,1,1,2.4,1,2.6,1h23c.7,0,2.6-.5,4.1-2.1,2.4-2.4,2.1-5.5,2.1-6V43.8c-.2-2-.7-5.3-2.6-8.7-2.9-5.4-7.2-7.9-10.1-9.8-6.4-3.8-12.7-4.6-16.5-4.8h-48.5c-.8,0-1.5.3-2,.5-3.8,1.8-3.8,7.9-3.8,8.1s0,0,0,0h-.2c0-.7,0-4.6-3.2-7.3-1.7-1.5-3.4-1.9-4.4-2.1-7.4.067-14.8.133-22.2.2Z"/><path class="cls-1" d="M866.3,153.9c-.6-.8-1.5-1.9-2.1-3.4-.7-1.6-1-3-1.2-4.1V45.4c0-2.4-.4-9.4-5.4-15.8-7.5-9.5-19-9.8-20.6-9.8h-49.1c-.2,0-1.4,0-2.2,1.1-.9,1.1-.7,2.4-.7,2.6v20.4c0,.5,0,1.6.7,2.6.9,1.4,2.3,1.8,3.4,2.2.7.3,2,.5,3.7.5h32.1c.6,0,2.2.3,3.5,1.6,2.3,2.1,1.9,5.2,1.9,5.6v10.5s0,.5-.4.9c-.3.4-.6.4-.8.4h-27.2c-1,0-6.8-.2-11.6,4.2-4.8,4.6-5,10.5-5,11.5v58c0,1.3,0,3.2.7,5.4.5,1.6,1.5,4.6,4.3,6.4,1.9,1.3,3.9,1.6,5.2,1.6h29.9c.5,0,2,0,3.4-1.1,1-.7,1.5-1.6,1.6-2.1,0-.2.2-.3.3-.3.2,0,.3,0,.4.3,0,.4.3,1.7,1.5,2.7,1,1,2.2,1.2,2.6,1.3h27.7c.5,0,1.2,0,2-.3.5-.2,1-.4,1.3-.5,0,0,.4-.2.5-.6,0-.2-.2-.5-.2-.5h0l-.2-.3ZM830.2,125.5c-.3.4-.6.5-.7.5h-13.3c-1.2-.2-2.3-.4-3-1.2-.2-.3-.7-.9-.8-2.1v-22.5c0-.3,0-.7.2-1.3.5-2.2,2.1-3.5,2.6-3.8,1.6-1.2,3.3-1.4,4-1.4h8.7s1.3-.3,2.2.6c.7.7.7,1.6.6,1.7v28.3s0,.7-.5,1.2h0Z"/></svg>