<?xml version="1.0" encoding="UTF-8"?>
<svg id="Layer_1" xmlns="http://www.w3.org/2000/svg" viewBox="0 0 430 190">
  <defs>
    <style>
      .cls-1 {
        fill: #fff;
      }

      .cls-2 {
        fill: #1c3c83;
      }
    </style>
  </defs>
  <path class="cls-1" d="M231.06,42.07h0v48.92h-13.49c-4.34,0-10.9,0-10.9,7.44,0,1.42-.61,2.78-1.7,3.79-1.12,1.06-2.62,1.64-4.23,1.64-2.96,0-5.4-2.01-5.83-4.62,2.03-.97,19.65-9.41,19.65-9.41l.83-.41c2.31-1.11,7.72-3.73,7.72-10.58,0-11.95-10.03-21.67-22.37-21.67s-22.4,9.72-22.4,21.67v12.14h-6.89v-11.14l.03-.94v-.06c0-11.95-10.05-21.67-22.38-21.67-3.21,0-6.44.76-9.44,2.12-1.39-1.01-3.06-1.59-4.8-1.59-4.54,0-8.25,3.7-8.25,8.25v24.91h-6.15v-25.89c0-4.15-3.62-7.39-8.25-7.39s-8.25,3.24-8.25,7.39v25.89h-6.94v-11.03l.03-.94v-.06c0-11.95-10.05-21.67-22.38-21.67-3.18,0-6.38.75-9.38,2.09-1.39-1-3.03-1.56-4.76-1.56-4.54,0-8.25,3.7-8.25,8.25v12.23l.03-.03c-.03.23-.03.45-.05.59,0,.02,0,7.99-.02,11.68h-3.49c-2.2,0-4.27.86-5.83,2.42s-2.42,3.63-2.42,5.83c0,4.54,3.7,8.25,8.25,8.25h3.53v29.22c0,2.2.86,4.27,2.42,5.83s3.63,2.42,5.83,2.42,4.27-.86,5.83-2.42,2.42-3.63,2.42-5.83v-16.38c1.93.51,3.9.8,5.88.8,9,0,17.1-5.26,20.59-13.21h8.7v5.57c0,4.55,3.7,8.25,8.25,8.25s8.25-3.7,8.25-8.25v-5.57h6.15v28.78c0,2.2.86,4.27,2.42,5.83s3.63,2.42,5.83,2.42,4.27-.86,5.83-2.42,2.42-3.63,2.42-5.83v-16.41c1.97.53,3.96.83,5.99.83,8.94,0,17.02-5.21,20.53-13.09h10.59c3.51,7.88,11.59,13.09,20.53,13.09s17.02-5.21,20.53-13.09h9.78v4.77c0,4.55,3.7,8.25,8.25,8.25s8.25-3.7,8.25-8.25v-4.77h7.33v6.08c0,4.55,3.7,8.25,8.25,8.25s8.25-3.7,8.25-8.25v-6.1h6.94v6.08c0,4.55,3.7,8.25,8.25,8.25s8.25-3.7,8.25-8.25v-34.69c0-2.96,2.68-5.37,5.94-5.37s5.93,2.42,5.93,5.4v34.68c0,4.54,3.7,8.25,8.25,8.25s8.25-3.7,8.25-8.25v-6.11h8.83c3.51,7.88,11.59,13.09,20.53,13.09s17.11-5.26,20.59-13.21h8.11c2.2,0,4.27-.86,5.83-2.42s2.42-3.63,2.42-5.83c0-4.55-3.7-8.25-8.25-8.25h-11.89c-4.07,0-10.9,0-10.9,7.5,0,3.03-2.65,5.49-5.91,5.49-2.96,0-5.4-2.01-5.83-4.62,2.04-.97,19.67-9.41,19.67-9.41l.84-.41c2.29-1.11,7.72-3.73,7.72-10.58,0-11.95-10.05-21.67-22.38-21.67s-22.4,9.72-22.4,21.67v12.14h-6.94v-12.09c0-11.96-10.05-21.71-22.42-21.71-3,0-6.02.66-8.84,1.86-1.48-1.29-3.37-2.04-5.35-2.04-4.54,0-8.25,3.7-8.25,8.25v25.75h-6.94v-25.75c0-4.54-3.7-8.25-8.25-8.25s-8.25,3.7-8.25,8.25v25.75h-7.33v-48.92c0-2.2-.86-4.27-2.42-5.83s-3.63-2.42-5.83-2.42c-4.54,0-8.25,3.7-8.25,8.25M68.77,98.67v-19.55c0-3.01,2.65-5.44,5.91-5.44,1.62,0,3.15.59,4.27,1.67,1.06,1.01,1.64,2.34,1.65,3.74,0,.09-.02.59-.02.59v18.44s.02.47.02.56c0,3-2.65,5.41-5.91,5.41s-5.91-2.43-5.91-5.43M143.17,98.67v-19.55c0-3.01,2.65-5.44,5.91-5.44s5.91,2.43,5.91,5.41c0,.09-.02.59-.02.59v18.44s.02.47.02.56c0,2.98-2.67,5.41-5.91,5.41s-5.91-2.43-5.91-5.43M194.82,78.89c0-3,2.65-5.44,5.91-5.44,1.97,0,3.77.95,4.85,2.42-2.4,1.15-9.47,4.52-10.78,5.15v-2.12M346.6,78.89c0-3,2.65-5.44,5.91-5.44,1.97,0,3.77.95,4.85,2.42-2.17,1.03-7.66,3.67-10.78,5.15v-2.12"/>
  <path class="cls-2" d="M232.92,42.07h0v50.76h-15.33c-4.45,0-9.06,0-9.06,5.6,0,4.01-3.48,7.27-7.77,7.27s-7.77-3.26-7.77-7.27v-.31c1.92-.92,20.79-9.95,20.79-9.95l.81-.41c2.17-1.05,6.69-3.23,6.69-8.92,0-10.92-9.2-19.81-20.53-19.81s-20.54,8.89-20.54,19.81v13.98h-10.58v-13.01l.03-.94v-.03c0-10.92-9.22-19.81-20.54-19.81-3.42,0-6.72.86-9.72,2.43-1.19-1.2-2.79-1.9-4.51-1.9-3.53,0-6.4,2.87-6.4,6.4v26.75h-9.84v-27.74c0-3.1-2.81-5.54-6.4-5.54s-6.4,2.43-6.4,5.54v27.74h-10.62v-12.9l.03-.94v-.03c0-10.92-9.22-19.81-20.54-19.81-3.39,0-6.68.86-9.66,2.39-1.19-1.17-2.78-1.86-4.48-1.86-3.53,0-6.4,2.87-6.4,6.4v12.84s-.03,9.42-.05,13.48h-5.33c-1.72,0-3.32.67-4.52,1.87s-1.87,2.81-1.87,4.52c0,3.53,2.87,6.4,6.4,6.4h5.38v31.07c0,1.72.67,3.32,1.87,4.52,1.2,1.2,2.82,1.87,4.52,1.87s3.32-.67,4.52-1.87,1.87-2.82,1.87-4.52v-18.91c2.45.97,5.07,1.48,7.72,1.48,8.74,0,16.49-5.37,19.34-13.21h11.78v7.41c0,3.53,2.87,6.41,6.4,6.41s6.4-2.87,6.4-6.4v-7.41h9.84v30.62c0,1.72.67,3.32,1.87,4.52,1.2,1.2,2.81,1.87,4.52,1.87s3.32-.67,4.52-1.87c1.2-1.2,1.87-2.82,1.87-4.52v-18.95c2.48,1,5.13,1.53,7.83,1.53,8.67,0,16.41-5.32,19.31-13.09h13.04c2.9,7.77,10.64,13.09,19.31,13.09s16.41-5.32,19.31-13.09h12.85v6.61c0,3.53,2.87,6.41,6.4,6.41s6.4-2.87,6.4-6.4v-6.63h11.01v7.94c0,3.54,2.87,6.41,6.4,6.41s6.4-2.87,6.4-6.4v-7.94h10.64v7.94c0,3.54,2.87,6.41,6.4,6.41s6.4-2.87,6.4-6.4v-34.69c0-3.98,3.51-7.21,7.78-7.21s7.77,3.24,7.77,7.24v34.68c0,3.53,2.87,6.4,6.41,6.4s6.4-2.87,6.4-6.4v-7.97h11.89c2.9,7.77,10.64,13.09,19.31,13.09s16.49-5.37,19.36-13.21h9.34c1.72,0,3.32-.67,4.52-1.87,1.2-1.22,1.87-2.82,1.87-4.52,0-3.53-2.87-6.4-6.4-6.4h-11.89c-4.24,0-9.06,0-9.06,5.66,0,4.04-3.48,7.33-7.77,7.33s-7.77-3.26-7.77-7.27v-.31c1.92-.92,20.81-9.95,20.81-9.95l.81-.41c2.17-1.05,6.69-3.23,6.69-8.92,0-10.92-9.22-19.81-20.54-19.81s-20.54,8.89-20.54,19.81v13.98h-10.64v-13.93c0-10.95-9.22-19.86-20.56-19.86-3.23,0-6.38.78-9.25,2.17-1.2-1.47-3-2.37-4.94-2.37-3.53,0-6.4,2.87-6.4,6.4v27.59h-10.64v-27.59c0-3.53-2.87-6.4-6.4-6.4s-6.4,2.87-6.4,6.4v27.59h-11.01v-50.76c0-1.72-.67-3.32-1.87-4.52s-2.82-1.87-4.52-1.87c-3.53,0-6.4,2.87-6.4,6.4M66.93,79.12c0-4.02,3.48-7.28,7.77-7.28,2.11,0,4.07.78,5.55,2.18,1.42,1.37,2.22,3.17,2.22,5.09,0,.09-.02.61-.02.61v18.38s.02.5.02.58c0,4.01-3.48,7.27-7.77,7.27s-7.77-3.26-7.77-7.27h0c0-.31-.02-13.65-.02-13.65v-5.9h.02ZM141.33,79.12c0-4.02,3.48-7.28,7.77-7.28s7.77,3.26,7.77,7.27c0,.09-.02.61-.02.61v18.38s.02.48.02.58c0,4.01-3.48,7.27-7.77,7.27s-7.77-3.26-7.77-7.27h0c0-.31-.02-13.65-.02-13.65v-5.9h.02ZM192.98,78.89c0-4.02,3.48-7.28,7.77-7.28,3.42,0,6.36,2.12,7.36,5.1-2.18,1.05-14.02,6.71-15.15,7.24,0-1.25.02-5.05.02-5.05M344.76,78.89c0-4.02,3.48-7.28,7.77-7.28,3.42,0,6.36,2.12,7.36,5.1-1.97.94-11.53,5.51-15.15,7.24,0-1.25.02-5.05.02-5.05"/>
  <path class="cls-1" d="M234.76,42.07h0v52.6h-17.19c-4.49,0-7.21,0-7.21,3.76,0,5.02-4.31,9.13-9.61,9.13s-9.61-4.09-9.61-9.13v-1.47c1.93-.92,21.85-10.45,21.85-10.45l.8-.39c2.12-1.01,5.66-2.73,5.66-7.27,0-9.91-8.38-17.97-18.69-17.97s-18.7,8.06-18.7,17.97v15.83h-14.27v-14.88c0-.17.03-.94.03-.94,0-9.91-8.39-17.97-18.69-17.97-3.68,0-7.21,1.05-10.23,2.95-.76-1.44-2.26-2.42-3.99-2.42-2.51,0-4.55,2.04-4.55,4.55v28.59h-13.52v-29.58c0-2.07-2-3.7-4.55-3.7s-4.55,1.62-4.55,3.7v29.58h-14.32v-14.77c0-.17.03-.94.03-.94,0-9.91-8.39-17.97-18.69-17.97-3.63,0-7.14,1.01-10.16,2.9-.78-1.4-2.25-2.37-3.96-2.37-2.51,0-4.55,2.04-4.55,4.55v12.23c0,.11-.02.66-.02.66,0,0-.02,12.34-.03,15.27h-7.18c-1.22,0-2.36.47-3.21,1.34-.86.86-1.34,2.01-1.34,3.21,0,2.51,2.04,4.55,4.55,4.55h7.22v32.91c0,1.22.47,2.37,1.33,3.23s2.01,1.34,3.21,1.34,2.36-.47,3.21-1.34c.86-.86,1.34-2.01,1.34-3.21v-21.81c2.87,1.65,6.16,2.54,9.56,2.54,8.49,0,15.82-5.48,18.02-13.21h14.96v9.25c0,2.51,2.04,4.55,4.55,4.55s4.55-2.04,4.55-4.55v-9.25h13.52v32.48c0,1.22.47,2.37,1.34,3.23.86.86,2.01,1.34,3.21,1.34s2.36-.47,3.21-1.34c.86-.86,1.34-2.01,1.34-3.21v-21.89c2.9,1.68,6.22,2.61,9.67,2.61,8.42,0,15.74-5.43,17.99-13.09h15.68c2.25,7.67,9.56,13.09,17.99,13.09s15.74-5.43,17.99-13.09h16.02v8.47c0,2.51,2.04,4.55,4.55,4.55s4.55-2.04,4.55-4.55v-8.47h14.71v9.78c0,2.51,2.04,4.55,4.55,4.55s4.55-2.04,4.55-4.55v-9.78h14.34v9.78c0,2.51,2.04,4.55,4.55,4.55s4.55-2.04,4.55-4.55v-34.69c0-4.99,4.34-9.06,9.64-9.06s9.61,4.07,9.61,9.09v34.68c0,2.51,2.04,4.55,4.55,4.55s4.55-2.04,4.55-4.55v-9.81h15.05c2.25,7.67,9.56,13.09,17.99,13.09s15.82-5.48,18.02-13.21h10.69c1.22,0,2.36-.47,3.21-1.33.86-.86,1.33-2.01,1.33-3.21,0-2.51-2.04-4.55-4.55-4.55h-11.89c-4.34,0-7.21,0-7.21,3.81,0,5.05-4.31,9.17-9.61,9.17s-9.61-4.09-9.61-9.13v-1.47c1.93-.92,21.87-10.45,21.87-10.45l.8-.39c2.12-1.01,5.66-2.73,5.66-7.27,0-9.91-8.39-17.97-18.69-17.97s-18.7,8.06-18.7,17.97v15.83h-14.32v-15.79c0-9.94-8.39-18.02-18.72-18.02-3.54,0-6.99.97-9.95,2.76-.66-1.72-2.31-2.95-4.24-2.95-2.51,0-4.55,2.04-4.55,4.55v29.44h-14.34v-29.44c0-2.51-2.04-4.55-4.55-4.55s-4.55,2.04-4.55,4.55v29.44h-14.71v-52.63c0-1.22-.47-2.36-1.34-3.21-.86-.86-2.01-1.33-3.21-1.33-2.51,0-4.55,2.04-4.55,4.55M65.07,79.1c0-5.04,4.31-9.13,9.61-9.13,2.59,0,5.01.97,6.83,2.7,1.79,1.72,2.79,3.99,2.79,6.43v.64l-.02,18.31v.61c.02,5.02-4.29,9.13-9.59,9.13s-9.61-4.09-9.61-9.13v-.05l-.02-13.59.02-5.91M139.48,79.1c0-5.04,4.31-9.13,9.61-9.13s9.61,4.09,9.61,9.13v.64l-.02,18.31v.61c.02,5.02-4.29,9.13-9.59,9.13s-9.61-4.09-9.61-9.13v-.05l-.02-13.59.02-5.91M191.14,78.89c0-5.04,4.31-9.13,9.61-9.13,4.88,0,8.89,3.49,9.48,7.97-1.86.89-15.22,7.28-19.12,9.14v-2.07l.02-5.91M342.91,78.89c0-5.04,4.31-9.13,9.61-9.13,4.88,0,8.89,3.49,9.48,7.97-1.86.89-15.22,7.28-19.12,9.14v-2.07l.02-5.91"/>
</svg>