<?xml version="1.0" encoding="UTF-8"?><svg id="Layer_1" xmlns="http://www.w3.org/2000/svg" viewBox="0 0 64 64"><defs><style>.cls-1{fill:#fff;stroke-width:0px;}</style></defs><path class="cls-1" d="M62.55,19.86c-.2-.1-.4-.07-.49-.05-9.65,4.81-19.3,9.62-28.95,14.42-.06.02-.22.08-.29.1-.07.02-.13.06-.2.07-.21.05-.41.09-.62.09,0,0,0,0,0,0h0s0,0,0,0c-.21,0-.42-.03-.62-.09-.07-.02-.14-.05-.2-.07-.06-.02-.22-.08-.29-.1-9.65-4.81-19.3-9.62-28.95-14.42-.09-.02-.29-.05-.49.05-.28.14-.46.46-.45.83v30.31c0,1.1.9,2,2,2h58c1.1,0,2-.9,2-2v-30.31c.01-.37-.16-.69-.45-.83Z"/><path class="cls-1" d="M1.59,14.06c10.14,5.05,20.27,10.1,30.41,15.15h0s0,0,0,0c10.14-5.05,20.27-10.1,30.41-15.15.09-.05.3-.18.45-.44.15-.26.15-.51.15-.62,0-.13-.01-.84-.59-1.41s-1.28-.59-1.41-.59H3c-.13,0-.84.01-1.41.59-.57.57-.59,1.28-.59,1.41,0,.1,0,.35.15.62.15.26.36.39.45.44Z"/></svg>