<?xml version="1.0" encoding="UTF-8"?><svg id="Layer_1" xmlns="http://www.w3.org/2000/svg" width="6.329cm" height="2.891cm" viewBox="0 0 179.415 81.956"><defs><style>.cls-1{fill:#c9005a;}.cls-1,.cls-2,.cls-3,.cls-4{stroke-width:0px;}.cls-2{fill:none;}.cls-3{fill:#231f20;}.cls-4{fill:#fff;}</style></defs><path class="cls-1" d="M74.11,77.519H20.077c-7.552,0-13.695-6.144-13.695-13.695V18.132c0-7.552,6.144-13.695,13.695-13.695h54.033c7.552,0,13.695,6.144,13.695,13.695v45.692c0,7.552-6.144,13.695-13.695,13.695ZM20.077,9.937c-4.519,0-8.195,3.676-8.195,8.195v45.692c0,4.519,3.676,8.195,8.195,8.195h54.033c4.519,0,8.195-3.676,8.195-8.195V18.132c0-4.519-3.676-8.195-8.195-8.195H20.077Z"/><path class="cls-3" d="M42.675,16.262c-.233-.635-.779-1.048-1.384-1.048h-6.527c-.599,0-1.141.406-1.378,1.032l-18.367,48.56c-.199.527-.152,1.133.125,1.613s.749.768,1.253.768h9.023c.604,0,1.148-.411,1.382-1.044l3.389-9.149h15.223l3.389,9.149c.234.633.779,1.044,1.382,1.044h8.959c.502,0,.971-.286,1.249-.761.278-.475.329-1.077.135-1.604l-17.855-48.56ZM41.772,45.865h-7.745l3.873-11.13,3.873,11.13Z"/><path class="cls-3" d="M70.977,15.214h-8.319c-.829,0-1.5.764-1.5,1.706v48.56c0,.943.671,1.706,1.5,1.706h8.319c.829,0,1.5-.764,1.5-1.706V16.921c0-.943-.671-1.706-1.5-1.706Z"/><path class="cls-1" d="M9.245,74.645c-.136,0-.272-.006-.408-.02-1.247-.122-2.381-.799-3.114-1.859-1.406-2.032-.976-4.918.959-6.434L80.814,8.237c.773-.605,1.687-.926,2.644-.926,1.392,0,2.708.702,3.522,1.879,1.406,2.031.975,4.917-.959,6.434L11.89,73.72c-.773.605-1.688.925-2.645.925h0Z"/><path class="cls-4" d="M83.458,7.986c1.134,0,2.248.549,2.967,1.588,1.208,1.746.841,4.217-.82,5.519L11.473,73.188c-.673.527-1.455.782-2.227.782-.115,0-.229-.006-.343-.017-1.013-.099-1.978-.637-2.624-1.571-1.208-1.746-.841-4.217.82-5.519L81.23,8.768c.673-.527,1.455-.782,2.228-.782M83.458,6.636c-1.11,0-2.168.37-3.06,1.069L6.266,65.801c-2.21,1.732-2.703,5.029-1.098,7.349.846,1.223,2.159,2.005,3.603,2.146.157.015.316.023.474.023,1.109,0,2.167-.37,3.06-1.069L86.437,16.155c2.21-1.732,2.703-5.029,1.098-7.349-.939-1.358-2.463-2.17-4.077-2.17h0Z"/><rect class="cls-2" x="4.148" y="4.676" width="84.407" height="72.604" rx="14.389" ry="14.389"/><path class="cls-3" d="M105.772,35.06c-.673.561-1.702.846-3.062.846-1.279,0-2.303-.322-3.045-.956-.744-.636-1.247-1.659-1.494-3.04l-.042-.237-4.822.468.032.265c.295,2.513,1.223,4.458,2.756,5.78,1.53,1.32,3.741,1.989,6.57,1.989,1.934,0,3.576-.277,4.881-.823,1.323-.553,2.361-1.411,3.087-2.551.723-1.137,1.09-2.374,1.09-3.677,0-1.431-.308-2.655-.916-3.637-.606-.98-1.457-1.763-2.528-2.327-1.05-.553-2.681-1.093-4.85-1.604-2.109-.498-3.444-.974-3.968-1.415-.381-.32-.566-.691-.566-1.134,0-.485.195-.861.597-1.152.68-.493,1.647-.744,2.874-.744,1.182,0,2.073.231,2.648.685.569.451.947,1.216,1.126,2.274l.038.228,4.925-.216-.009-.259c-.072-2.084-.841-3.776-2.286-5.029-1.436-1.245-3.589-1.877-6.398-1.877-1.716,0-3.206.264-4.427.785-1.237.527-2.199,1.309-2.859,2.323-.659,1.012-.994,2.117-.994,3.282,0,1.808.71,3.361,2.11,4.615.986.884,2.708,1.635,5.117,2.232,1.834.456,3.022.777,3.527.951.711.253,1.21.547,1.484.873.266.319.396.699.396,1.159,0,.734-.325,1.363-.993,1.92Z"/><path class="cls-3" d="M114.318,33.905c0,1.519.045,2.505.138,3.008.116.726.33,1.315.636,1.751.312.443.802.807,1.454,1.079.639.267,1.364.403,2.154.403,1.269,0,2.423-.219,3.43-.651l.178-.077-.417-3.79-.313.114c-.707.258-1.247.388-1.604.388-.226,0-.409-.053-.56-.161-.145-.104-.234-.23-.274-.385-.028-.107-.075-.536-.075-2.205v-6.153h2.878v-3.88h-2.878v-5.813l-4.749,2.761v3.051h-1.933v3.88h1.933v6.678Z"/><path class="cls-3" d="M127.043,39.129c1.354.675,2.798,1.017,4.29,1.017,2.419,0,4.456-.826,6.054-2.454,1.595-1.626,2.405-3.702,2.405-6.17,0-2.447-.801-4.503-2.383-6.11-1.583-1.608-3.637-2.424-6.106-2.424-1.595,0-3.062.359-4.359,1.066-1.303.711-2.325,1.756-3.036,3.105-.706,1.341-1.064,2.748-1.064,4.183,0,1.864.358,3.471,1.066,4.778.712,1.317,1.767,2.329,3.133,3.009ZM127.683,31.567c0-1.505.356-2.667,1.058-3.453.704-.788,1.547-1.172,2.577-1.172s1.871.383,2.57,1.171c.697.786,1.05,1.938,1.05,3.423,0,1.525-.353,2.697-1.05,3.483-.699.788-1.54,1.171-2.57,1.171s-1.873-.383-2.577-1.172c-.702-.785-1.058-1.947-1.058-3.452Z"/><path class="cls-3" d="M149.904,40.146c1.918,0,3.571-.774,4.917-2.299,1.336-1.517,2.014-3.66,2.014-6.37,0-2.641-.673-4.736-2-6.228-1.334-1.5-2.982-2.261-4.9-2.261-1.1,0-2.117.264-3.023.784-.653.376-1.215.838-1.676,1.381v-1.806h-4.449v22.493h4.734v-7.637c.648.631,1.279,1.098,1.879,1.391.747.366,1.59.551,2.506.551ZM146.477,35.094c-.665-.802-1.003-2.079-1.003-3.797,0-1.488.322-2.618.955-3.36.634-.74,1.407-1.1,2.365-1.1.916,0,1.664.366,2.286,1.119.627.758.944,1.952.944,3.55,0,1.718-.307,2.96-.913,3.692-.603.728-1.337,1.082-2.242,1.082-.946,0-1.728-.388-2.391-1.187Z"/><path class="cls-3" d="M103.095,61.64h5.081v2.397c-.628.47-1.38.877-2.239,1.212-.899.351-1.808.529-2.7.529-1.792,0-3.259-.628-4.36-1.868-1.11-1.248-1.672-3.164-1.672-5.694,0-2.339.554-4.119,1.646-5.292,1.087-1.168,2.578-1.76,4.432-1.76,1.216,0,2.24.299,3.045.886.802.587,1.357,1.4,1.649,2.416l.065.229,4.905-.918-.058-.263c-.452-2.072-1.48-3.72-3.059-4.897-1.573-1.173-3.775-1.768-6.548-1.768-2.13,0-3.94.378-5.38,1.123-1.887.97-3.341,2.382-4.322,4.2-.975,1.809-1.47,3.903-1.47,6.223,0,2.139.442,4.145,1.314,5.965.878,1.834,2.211,3.264,3.959,4.251,1.739.982,3.805,1.48,6.138,1.48,1.832,0,3.666-.352,5.452-1.045,1.787-.693,3.175-1.511,4.126-2.431l.08-.077v-9.124h-10.084v4.224Z"/><path class="cls-3" d="M121.841,52.92c-2.173,0-3.998.782-5.422,2.325-1.418,1.537-2.137,3.681-2.137,6.374,0,2.254.546,4.151,1.624,5.64,1.375,1.871,3.513,2.82,6.356,2.82,1.794,0,3.313-.422,4.517-1.253,1.205-.833,2.098-2.059,2.653-3.643l.103-.292-4.732-.795-.064.225c-.213.743-.527,1.282-.931,1.606-.406.325-.897.483-1.5.483-.902,0-1.634-.313-2.237-.959-.555-.593-.87-1.425-.937-2.475h10.534l.005-.256c.061-3.279-.621-5.756-2.028-7.363-1.414-1.616-3.366-2.435-5.801-2.435ZM119.198,59.874c.034-.956.307-1.726.814-2.292.553-.617,1.234-.917,2.083-.917.792,0,1.445.285,1.998.87.507.536.796,1.322.861,2.339h-5.757Z"/><path class="cls-3" d="M144.607,54.807c-.421-.553-1.043-1.011-1.849-1.363-.799-.348-1.691-.524-2.653-.524-1.953,0-3.626.753-4.983,2.241v-1.881h-4.434v16.438h4.734v-7.47c0-1.743.104-2.947.309-3.576.198-.609.555-1.085,1.091-1.454.533-.367,1.143-.553,1.815-.553.513,0,.955.126,1.313.373.357.247.62.6.78,1.049.168.474.254,1.566.254,3.247v8.384h4.734v-10.153c0-1.242-.081-2.215-.239-2.892-.162-.691-.455-1.319-.871-1.867Z"/><path class="cls-3" d="M160.559,47.226h-5.046l-8.623,22.137-.138.356h5.271l1.813-4.991h8.42l1.918,4.991h5.391l-8.94-22.329-.066-.164ZM160.636,60.503h-5.245l2.596-7.134,2.65,7.134Z"/><rect class="cls-3" x="170.308" y="47.226" width="4.958" height="22.493"/></svg>