<?xml version="1.0" encoding="UTF-8"?>
<svg id="Layer_1" xmlns="http://www.w3.org/2000/svg" viewBox="0 0 142.46 72.16">
  <defs>
    <style>
      .cls-1 {
        fill: #fff;
      }

      .cls-2 {
        fill: none;
        stroke-width: .8px;
      }

      .cls-2, .cls-3 {
        stroke: #1c3c83;
        stroke-miterlimit: 10;
      }

      .cls-3 {
        stroke-width: .5px;
      }

      .cls-3, .cls-4 {
        fill: #1c3c83;
      }
    </style>
  </defs>
  <g>
    <g>
      <path class="cls-4" d="M13.15,26.35c.02-.37-.04-1.02.09-1.06.42-.13.91-.04,1.37-.02.06,0,.12.07.17.12.06.06.12.14.18.21,0-.09,0-.18-.02-.26-.02-.13-.06-.25-.09-.38.11.08.26.13.34.24.39.53.76,1.08,1.14,1.61.03.05.1.07.15.1.04-.08.12-.19.1-.25-.14-.36-.26-.74-.48-1.04-.24-.33-.58-.62-.17-.99.41-.38.84-.29,1.2.14.09.11.19.2.29.3-.06-.14-.09-.36-.2-.42-.43-.23-.89-.42-1.35-.6-.24-.09-.51-.11-.75-.21-.09-.03-.13-.18-.2-.28.12-.01.23,0,.35-.04.1-.03.25-.07.27-.14.27-1,1.08-.71,1.74-.71.6,0,.89.42,1.03.96.03.11.1.22.15.33.04-.14.14-.29.1-.4-.14-.41-.33-.8-.47-1.2-.03-.09.05-.22.08-.33.05.09.11.18.16.27.23.44.31.97,1.03,1,.58.02.93.97.78,1.74-.02.1,0,.2,0,.3.07-.06.15-.12.2-.19.05-.05.07-.12.1-.19.14-.33.24-.92.41-.94.5-.05,1.62.99,1.7,1.43.02.12.07.24.11.37.04-.13.14-.31.1-.39-.31-.55-.56-1.19-1.01-1.59-.44-.39-.54-.68-.28-1.16.1-.18.14-.38.21-.57-.07-.02-.16-.07-.19-.04-.18.14-.39.27-.52.45-.1.14-.09.35-.13.53-.17-.17-.36-.32-.49-.51-.11-.18-.2-.41-.19-.61.02-.29.24-.66-.34-.34-.04.02-.11-.04-.17-.06.08-.11.13-.26.24-.34.5-.33,1.68,0,2.01.55.08.13.16.25.23.38,0-.17.06-.37,0-.5-.19-.36-.48-.66-.65-1.03-.15-.33-.26-.7-.26-1.05,0-.12.45-.37.62-.32.32.1.58.38.86.59.04.03.06.16.08.16.13-.02.39-.48.32.08-.02.19-.34.34-.52.5-.09-.17-.17-.35-.26-.51-.09-.16-.17-.37-.32-.46-.09-.06-.42.05-.43.11-.03.18.01.4.1.58.28.59.57,1.19.92,1.74.14.22.49.28.68.48.17.16.25.41.37.61,0-.27-.02-.53,0-.8.04-.55.26-.93.9-.85.07,0,.21-.08.21-.1-.09-.32-.88-.5-1.15-.27-.07.06-.15.11-.23.16-.02-.11-.11-.28-.06-.32.16-.16.35-.37.54-.39.59-.06,1.59.84,1.61,1.44,0,.25.08.31.29.42.24.13.39.4.59.61.45-.44,1.22-.44,1.52-1.09.06-.13.12-.27.2-.39.05-.07.14-.12.22-.17.03.09.1.21.07.25-.32.44,0,.8.07,1.21.07.41-.1.86-.22,1.28-.03.1-.27.13-.41.2-.05-.14-.09-.29-.16-.43-.13-.27-.23-.56-.41-.79-.06-.08-.39-.07-.48.02-.1.09-.15.39-.08.48.44.6.07.99-.31,1.38-.06.07-.15.11-.22.17.11.01.23.05.34.03.11-.02.22-.11.33-.13.31-.05.73-.2.9-.07.27.21.38.63.52.97.04.1,0,.25-.02.37.1-.1.2-.2.28-.3.13-.15.25-.31.37-.46-.04.24-.02.53-.14.71-.22.31-.54.55-.81.82-.05.05-.07.12-.1.18.08,0,.17.01.25-.01.11-.04.21-.15.32-.16.32-.04.72-.17.94-.03.21.14.25.56.35.86.02.06-.01.15-.02.22.07-.03.18-.04.19-.08.09-.34.29-.71.22-1.02-.08-.37-.32-.61.29-.34.12.05.33-.12.51-.19-.14-.06-.29-.13-.43-.19-.07-.03-.15-.06-.22-.09.07-.06.13-.14.21-.17.5-.15,1.07.27,1.2.85.02.11.07.21.11.31.07-.09.19-.17.21-.27.05-.2.02-.42.07-.61.07-.24.17-.47.31-.67.04-.06.22-.03.33-.04-.04.09-.11.17-.12.26-.15.75-.3,1.51-.44,2.26-.01.07.05.15.08.23.06-.07.18-.13.19-.2.04-.31-.02-.64.08-.93.06-.18.32-.29.48-.43-.04.16-.1.32-.13.48-.05.23-.11.47-.14.7-.07.7-.45.96-1.16.93-.37-.02-.74.16-1.11.27-.03,0-.02.17-.03.26.06-.03.13-.07.19-.08.27-.04.54-.11.8-.09.12.01.22.22.33.35-.12.02-.25.02-.34.08-.08.05-.1.19-.16.28-.28.41-.57.83-.86,1.23-.05.07-.13.11-.19.17.09-.01.19-.01.28-.04.97-.35,1.04-.29,1.04.77,0,.07,0,.14-.01.21.08-.04.21-.05.23-.11.11-.33.19-.68.3-1.01.03-.1.14-.26.19-.25.45.1.9.22,1.35.35.72.2,1.02.65.83,1.37-.13.49-.03.29.19.12.05-.04.28.02.3.08.17.5.32,1.01.46,1.51.02.09,0,.19,0,.28.08-.05.15-.14.23-.16.35-.09.76-.3,1.05-.2.22.08.31.55.46.85.05.1.07.2.11.3.07-.1.2-.2.19-.29-.05-.38-.11-.76-.24-1.12-.16-.45-.25-.91.16-1.19.28-.19.81-.34,1.05-.2.34.2.52.67.75,1.04.06.1.05.24.07.37.06-.12.16-.24.18-.37.03-.28.02-.57.03-.85,0-.08.04-.16.07-.24,0,0,.11,0,.13.04.38.67.76,1.35,1.11,2.03.04.09-.08.26-.13.4-.05.03-.1.06-.15.08-.11-.41-.19-.83-.34-1.22-.12-.31-.31-.36-.47.02-.07.17-.17.37-.31.48-.14.1-.35.1-.53.15-.04-.16-.1-.33-.11-.49,0-.16.08-.34.06-.5-.05-.5-.41-.75-.85-.68-.44.07-.58.44-.45.9.12.43.21.89.22,1.33,0,.23-.15.5-.3.7-.11.15-.35.2-.53.29-.03-.2-.15-.43-.09-.58.18-.45.05-.82-.33-.97-.18-.07-.5.21-.75.34-.33.18-.65.4-1,.53-.12.05-.33-.12-.49-.19.1-.14.18-.3.3-.42.1-.1.32-.14.35-.24.09-.3.17-.63.11-.92-.02-.12-.42-.18-.65-.22-.11-.02-.26.11-.34.07-.17-.08-.37-.21-.42-.37-.04-.13.1-.44.21-.46.57-.11.42-.49.26-.76-.27-.47-1.41-.39-1.74.05-.25.33-.58.63-.93.85-.23.15-.66.3-.59-.31-.13,0-.29-.08-.38-.02-1.41.89-2.29,2.16-2.56,3.79-.21,1.28-.45,2.59-.42,3.88.03,1.23.38,2.45.61,3.67.36,1.98,1.64,3.48,2.64,5.12.29.47.71.9.86,1.41.56,1.88,2.03,2.95,3.44,4.09.61.5,1.22,1,1.83,1.5h-.29c-.27-.13-.54-.3-.82-.38-.56-.15-1.17-.16-1.69-.39-2.04-.89-3.85-2.1-5.23-3.9-.54-.71-1.13-1.39-1.74-2.05-.21-.23-.54-.45-.83-.49-1.39-.15-2.69-.46-3.79-1.4-.24-.21-.66-.25-1.01-.28-1.08-.11-1.53.72-1.95,1.47-.58,1-1.28,1.86-2.22,2.55-.56.41-1.04.93-1.55,1.41-.58.55-1.1,1.17-1.73,1.63-.74.54-1.54.94-2.51,1.03-.55.06-1.06.51-1.58.78h-2.04c-.23-.12-.45-.25-.68-.37-.04-.04-.08-.08-.13-.12,0-.15-.02-.31-.02-.46-.03-.04-.07-.09-.1-.13-.13.02-.25.05-.38.07,0,0,0,0,0,0-.08.02-.16.03-.23.05-.33.09-.66.19-.99.28-.04,0-.07,0-.09-.03v-9.47c.85,0,.99.14,1,1.01,0,.09,0,.18.01.28.08-.08.21-.15.22-.24.06-.4-.01-.86.16-1.2.15-.3.56-.66.85-.66.67.01.88-.36,1.07-.85.03-.07.11-.13.16-.19.05.07.16.17.14.21-.23.47-.05.86.18,1.26.05.09,0,.24-.02.35-.04.13-.11.24-.17.36.12-.11.31-.19.35-.32.12-.41.2-.82.77-.77.01,0,.05-.1.05-.15.01-.09.01-.19.01-.28.09.06.27.12.27.19.03.48.03.96.04,1.44-.22-.06-.73.08-.3-.43.06-.08.08-.19.12-.29-.15-.01-.42-.07-.44-.03-.08.21-.09.44-.14.67-.06.29-.12.58-.2.87-.02.08-.11.13-.17.2.09-.01.18-.03.27-.04.27-.03.74-.15.78-.06.17.35.22.77.29,1.16.02.12-.06.25-.09.37.12-.07.25-.13.35-.22.12-.12.19-.3.32-.39.4-.26.84-.61,1.21.02.26.43.45.91.66,1.37.03.07.05.14.08.22.03-.06.08-.12.1-.19.26-.95-.25-1.88-1.15-2.12-.09-.02-.23-.1-.22-.15.02-.39.13-.81-.45-.89.03-.06.05-.13.09-.19.09-.12.18-.22.28-.34-.21.04-.46.03-.63.14-.24.15-.4.42-.62.6-.09.07-.26.05-.39.08.09-.12.17-.24.26-.36.14-.13.3-.24.4-.39.46-.69,1.11-.67,1.48.07.14.29.09.61.58.21.51-.42,1.5.34,1.62,1.18.01.09,0,.18,0,.28.04-.1.12-.21.1-.29-.14-.46-.3-.92-.48-1.37-.07-.19-.29-.38-.27-.55.05-.39.22-.78-.4-.34-.03.02-.17-.05-.17-.05.05-.23.04-.52.18-.66.19-.19.62-.27-.02-.4,0,0,.03-.19.05-.28.18.09.37.16.53.27.1.07.16.21.24.31,0-.17.09-.43.02-.48-.23-.17-.51-.31-.79-.34-.12-.01-.39.28-.39.43,0,.68-.37.97-.99,1-.17,0-.35-.09-.52-.14.11-.13.21-.27.33-.39.06-.06.14-.11.21-.16-.09-.04-.18-.09-.27-.13-.06-.03-.12-.08-.18-.12.05-.05.13-.14.15-.13.22.11.44.23.65.38.07.05.09.17.13.26.06-.1.19-.21.17-.3-.16-.91.26-1.12,1.08-.99.16.02.36-.26.55-.4-.3-.27-.57-.56-.9-.78-.07-.05-.32.15-.48.26-.16.11-.28.27-.45.36-.87.46-2.86-.6-2.94-1.57-.03-.4,0-.81-.02-1.22,0-.16-.08-.31-.12-.46-.12.09-.24.18-.35.27-.06.05-.11.12-.16.18-.04-.1-.15-.26-.12-.3.16-.19.35-.35.54-.52.11-.1.24-.17.35-.26-.16-.06-.32-.17-.48-.17-.19,0-.37.08-.56.11-.14.02-.28,0-.42.01.13-.1.24-.25.39-.28.53-.1,1.14-.53,1.48.32.02.05.13.07.21.11.05-.13.1-.26.14-.4.05-.17.08-.34.11-.51.09.18.18.35.26.53.16.37.32.75.48,1.13.06-.04.15-.06.17-.11.07-.18.08-.39.19-.54.08-.12.27-.17.41-.25-.04.13-.1.25-.11.38-.02.22-.04.45-.02.67.03.4.1.8.13,1.2,0,.08-.04.16-.06.24.08-.04.19-.07.24-.14.14-.19.34-.39.37-.61.08-.6.52-.7.95-.66.18.02.33.4.5.62.05.06.1.12.16.18.05-.06.13-.11.13-.17,0-.24.04-.49-.03-.71-.23-.69-.04-1.14.64-1.28.13-.03.29.05.43.08-.1.08-.2.18-.31.24-.13.06-.3.05-.4.13-.09.08-.1.25-.15.37.1-.02.2-.04.31-.05.16-.02.32-.03.48-.04.18-.01.5.01.51-.04.05-.21.09-.49-.02-.65-.14-.23-.42-.37-.63-.57-.09-.09-.15-.22-.22-.34.16,0,.41-.07.46,0,.3.41.56.86.81,1.3.04.07.01.18.01.28.07-.08.17-.15.21-.25.06-.15.11-.33.11-.49,0-.56.36-.64.78-.58.19.03.35.19.53.29-.16,0-.31-.03-.47-.03-.14,0-.38-.01-.4.05-.23.59-.46,1.18-.6,1.8-.09.4-.03.84-.03,1.26.32-.28.6-.6.96-.81.19-.11.5-.02.75.03.08.02.13.18.2.27-.11,0-.22,0-.32.01-.07,0-.14,0-.21,0,.04.07.08.15.12.22.23.49.59.96.1,1.5-.03.04-.04.09-.07.14.05-.01.11-.02.14-.05.15-.17.28-.35.43-.51.19-.19.38-.37.6-.52.04-.03.19.09.29.14-.35.69.91,1.19.23,1.93-.01.01.02.06.03.09.03-.04.07-.07.09-.11.11-.21.27-.41.32-.64.2-.87.59-1.09,1.47-.78.14.05.27.09.41.13-.08-.15-.13-.33-.25-.43-.14-.11-.36-.13-.52-.23-.22-.14-.6-.35-.58-.46.2-.96-.43-.44-.75-.44-.09,0-.19.04-.28.06-.15.04-.3.08-.46.12.07-.14.18-.26.22-.41.06-.23.11-.47.1-.7,0-.14-.13-.27-.2-.4.11.02.27,0,.33.06.13.14.34.4.29.49-.34.67.04.51.39.35.52-.25.81.06,1.1.41.08.09.2.15.3.22,0-.11.02-.23.02-.34,0-.3-.06-.62-.01-.91.1-.58-.05-.74-.62-.61-.12.03-.27-.03-.4-.04.12-.1.23-.23.37-.28.15-.05.34-.01.5-.03.05,0,.15-.1.14-.14-.03-.1-.09-.19-.14-.29.17.04.35.08.52.13.21.06.08.84.58.28.02.12.1.28.05.35-.18.25-.4.47-.6.71-.04.05-.04.12-.06.18.06-.03.12-.05.18-.09.98-.69,1.55-.52,1.97.61.02.05.06.09.08.13.03-.06.11-.15.09-.19-.16-.4-.32-.81-.52-1.19-.1-.18-.33-.27-.44-.45-.06-.1-.22-.43.26-.27.24.08.64-.32.96-.5-.02-.02-.03-.06-.05-.06-.12-.03-.24-.1-.35-.08-.82.09-1.63.17-2.38-.32-.1-.07-.41.1-.57.23-.86.73-1.88.58-2.37-.41-.15-.31-.19-.57-.58-.27-.04.03-.13,0-.19,0,.02-.09,0-.23.05-.25.25-.11.59-.33.77-.25.32.14.55.48.81.75.06.06.06.17.09.26.05-.1.11-.2.14-.31.02-.07.02-.16,0-.21-.55-.9.17-.96.73-1.13.07-.02.14-.06.2-.09-.06-.03-.13-.09-.19-.08-.35.07-.7.2-1.05.21-.22,0-.44-.16-.66-.25.17-.12.34-.24.52-.35.04-.03.11,0,.17,0-.05-.05-.12-.14-.16-.13-.4.08-.93.05-1.15.29-.98,1.11-2.58,1.39-3.09-.3-.1-.34-.93-.43-.34-1.01-.12-.01-.24-.03-.36-.04-.11,0-.21,0-.32,0,.07-.09.12-.2.21-.26.09-.07.22-.1.33-.15-.19-.04-.39-.1-.58-.11-.14,0-.28.05-.43.08.13-.12.25-.3.4-.36.5-.2,1.04.1,1.3.74.11.28.16.38.47.21.42-.24.68-.01.82.4.03.08.09.15.13.23,0-.09.03-.19.02-.28-.03-.65-.42-1.06-1.04-1.11-.08,0-.21-.08-.22-.13-.01-.11.03-.24.09-.33.35-.52,1.4-.58,1.85-.11.06.06.1.14.15.21-.02-.09-.01-.19-.06-.26-.36-.6-.79-.64-1.48-.39-.41.15-.91.07-1.37.04-.07,0-.22-.39-.17-.43.48-.46-.01-.35-.22-.37-.24-.01-.5-.03-.72.05-1.34.49-2.33.02-3.33-1.03-.8-.84-.8-1.77-.89-2.72-.04-.4.18-.93.47-1.21.33-.32.85-.31,1.2.16.02.03.1.02.16.03-.02-.07-.03-.14-.05-.2-.06-.14-.13-.28-.19-.42.14.09.3.17.42.29.1.09.15.23.23.35,0-.16.02-.33,0-.49-.02-.16-.07-.31-.1-.47.12.1.24.21.37.28.09.05.21.04.32.05.37.02.74.02,1.11.04.11.31.23.61.34.92.04.1.06.21.09.32.04-.12.11-.25.12-.37.05-.6-.35-1.35.59-1.63.02,0,.03-.06.04-.1-.07-.01-.16-.07-.2-.04-.19.13-.37.28-.53.43-.16.15-.3.32-.46.48ZM9.94,55.2c.18-.08.34-.15.51-.22-.14-.09-.28-.22-.43-.26-.37-.1-.81-.06-1.11-.25-.62-.38-1,.22-1.5.27-.06,0-.17.32-.13.35.24.22.49.47.79.58.19.07.54-.01.69-.16.35-.35.58-.87,1.2-.31ZM15.03,44.06c-.79-.05-1.03.32-.66,1.21.02.06.05.11.07.17.04-.06.1-.11.1-.17,0-.54.26-.98.77-.94.34.03.65.46.96.72.07.05.1.15.15.22,0-.09.04-.2.01-.28-.2-.59-.64-.9-1.4-.94Z"/>
      <path class="cls-1" d="M9.66,55.92c.53-.27,1.03-.73,1.58-.78.97-.1,1.78-.5,2.51-1.03.64-.46,1.15-1.09,1.73-1.63.51-.48.99-1,1.55-1.41.94-.69,1.64-1.55,2.22-2.55.43-.75.87-1.58,1.95-1.47.35.03.77.07,1.01.28,1.1.95,2.4,1.25,3.79,1.4.3.03.62.26.83.49.61.66,1.19,1.34,1.74,2.05,1.38,1.8,3.19,3.01,5.23,3.9.52.23,1.13.24,1.69.39.29.08.55.25.82.38h-4.66c-.22-.15-.45-.29-.65-.46-.13-.11-.21-.27-.3-.42,0,0,.14-.13.22-.16.09-.03.2,0,.3,0-.05-.11-.08-.26-.16-.31-.22-.12-.49-.16-.7-.3-.25-.17-.46-.41-.69-.62.55-.44.18-.38-.19-.38-.11,0-.25-.11-.34-.2-.19-.2-.35-.41-.52-.62.11.3.21.62.34.91.07.15.21.27.32.4.55.66,1.21,1.26,1.35,2.18H9.66Z"/>
      <path class="cls-4" d="M48.13,31.15c-.14.15-.28.3-.42.45-.09-.15-.14-.34-.27-.46-.31-.28-.65-.74-.97-.74-.4,0-.84.35-1.19.64-.68.57-.36,1.46-.54,2.19-.03.1.41.38.67.48.69.27,1.28.65,1.52,1.39.06.2,0,.48-.09.69-.05.12-.28.15-.44.23.03-.14.08-.28.08-.42,0-.26.09-.61-.04-.77-.56-.69-1.36-1.04-2.21-1.05-.53,0-.6-.09-.46-.54.06-.2.35-.7-.29-.34-.03-.13-.1-.28-.08-.4.02-.14.12-.27.19-.4-.09-.03-.22-.11-.26-.08-.14.11-.33.24-.36.39-.06.28-.01.58-.04.87-.01.1-.12.19-.18.28-.06-.09-.12-.17-.18-.26-.1-.13-.23-.24-.31-.38-.17-.29-.52-.65-.44-.87.18-.54-.03-.47-.37-.38-.1.03-.2.07-.3.1.03-.11.02-.26.09-.32.15-.13.45-.34.5-.29.24.21.44.48.61.75.08.12.07.31.1.46.1-.13.18-.31.32-.37.28-.13.77-.36.87-.26.29.3.44.74.62,1.14.05.11,0,.26-.01.39.07-.14.22-.29.21-.42-.05-.55-.13-1.09-.26-1.62-.02-.09-.4-.09-.61-.12-.12-.02-.24,0-.36,0,.08-.11.17-.22.26-.32.03-.03.08-.05.13-.07.2-.08.41-.15.61-.23-.21-.1-.41-.2-.62-.31-.06-.03-.12-.06-.18-.09.07-.05.13-.13.21-.13.67-.08.98.28,1.09.89.01.08.06.16.1.24.07-.06.16-.11.2-.18.13-.24.25-.7.36-.7.7.02,1.51-.45,2.09.34.09.12.22.22.33.33-.06-.17-.07-.41-.19-.5-.46-.34-.81-.96-1.56-.65-.14.06-.44-.02-.53-.14-.15-.21-.19-.5-.28-.75.25,0,.51-.02.75.03.13.03.24.17.36.27-.08-.15-.12-.38-.24-.43-.45-.17-.92-.28-1.38-.42-.16-.05-.31-.11-.47-.16.17-.07.35-.2.51-.19.8.08,1.61.07,1.96,1.09.13.4.66.65,1,.99.17.17.3.37.45.56v.58Z"/>
      <path class="cls-4" d="M5,40.33c.39.18.74.23,1.15-.05.22-.14.59-.11.88-.06.12.02.21.28.31.43-.14-.05-.29-.16-.41-.13-.36.08-.94.14-1.02.36-.14.37-.1.97.13,1.26.32.41.78.72.6,1.28-.18.56-.48,1.09-.77,1.61-.05.1-.34.13-.49.08-.12-.04-.25-.25-.24-.38.01-.11.25-.32.32-.29.6.24.24-.63.66-.56-.14-.19-.34-.55-.42-.52-.25.07-.47.29-.7.46,0-.19,0-.39,0-.58.37-.39.73-.41,1.1,0,.07.08.17.13.26.2.01-.12.07-.24.03-.34-.05-.15-.17-.28-.24-.42-.25-.52-.49-1.04-.76-1.55-.08-.15-.26-.25-.39-.37,0-.15,0-.29,0-.44Z"/>
      <path class="cls-1" d="M5,40.77c.13.12.31.22.39.37.27.51.5,1.03.76,1.55.07.15.19.27.24.42.03.1-.02.23-.03.34-.09-.07-.19-.12-.26-.2-.37-.42-.73-.4-1.1,0,0-.83,0-1.65,0-2.48Z"/>
      <path class="cls-4" d="M30.64,55.92c-.14-.92-.8-1.51-1.35-2.18-.11-.13-.25-.25-.32-.4-.14-.29-.23-.61-.34-.91.17.21.34.43.52.62.09.09.23.2.34.2.37,0,.74-.06.19.38.23.21.44.45.69.62.21.14.48.18.7.3.08.05.11.2.16.31-.1,0-.21-.02-.3,0-.09.03-.23.15-.22.16.09.15.17.31.3.42.2.17.43.31.65.46h-1.02Z"/>
      <path class="cls-4" d="M6.6,55.92h-.58c-.09-.15-.19-.3-.28-.45.05-.09.09-.19.14-.28,0,0,0,0,0,0,.15-.1.29-.2.44-.29,0,0,0,0,0,0,.13-.02.25-.05.38-.07.03.04.07.09.1.13-.18.21-.35.43-.53.64.18-.06.37-.12.55-.18.04.04.08.08.13.12-.11.12-.23.25-.34.37Z"/>
      <path class="cls-1" d="M6.6,55.92c.11-.12.23-.25.34-.37.23.12.45.25.68.37h-1.02Z"/>
      <path class="cls-1" d="M5.74,55.47c.09.15.19.3.28.45h-.73c.05-.09.09-.19.14-.28,0,0,.02-.01.02-.01.09-.04.18-.09.27-.13,0,0,.02-.02.02-.02Z"/>
      <path class="cls-4" d="M5.09,55.23c.33-.09.66-.19.99-.28-.07.08-.14.17-.21.25,0,0,0,0,0,0-.29.1-.59.2-.88.29,0-.05,0-.1,0-.15.03-.04.06-.07.09-.11Z"/>
      <path class="cls-1" d="M5,55.48c.29-.1.59-.2.88-.29-.05.09-.09.19-.14.28,0,0-.02.02-.02.02-.09.04-.18.09-.27.13,0,0-.02.01-.02.01-.14.05-.29.09-.43.14,0-.1,0-.19,0-.29Z"/>
      <path class="cls-4" d="M5,55.78c.14-.05.29-.09.43-.14-.05.09-.09.19-.14.28-.1-.05-.19-.1-.29-.15Z"/>
      <path class="cls-1" d="M5.09,55.23s-.06.07-.09.11c0-.05,0-.1,0-.15.02.03.05.04.09.03Z"/>
      <path class="cls-4" d="M33.6,30.66c.07-.29.18-.6.19-.91,0-.07-.3-.18-.47-.24-.11-.04-.23-.01-.35-.01.08-.11.15-.23.24-.33.04-.05.13-.09.2-.08.75.04,1.09-.2.68-.97-.02-.03.04-.16.06-.16.07,0,.15.02.19.07.34.31.36.65.1,1.04-.11.17-.24.36-.26.55-.03.28.03.57.06.86.11-.22.2-.46.34-.66.08-.11.25-.15.38-.21,0,.11,0,.23.02.34.01.11.02.23.07.32.12.23.25.45.38.68.05.09.12.18.18.26.03-.09.07-.18.08-.27,0-.37.17-.46.55-.45.18,0,.42-.27.55-.46.07-.09-.01-.43-.06-.44-.21-.04-.43.01-.64.03-.09,0-.17.02-.26.02.01-.38-.02-.77.05-1.14.06-.3.36-.58.36-.87,0-.41-.23-.63-.67-.29-.24.19-.52.35-.81.46-.1.04-.3-.11-.42-.21-.05-.04-.02-.17-.03-.26.13.02.27.08.39.04.2-.06.47-.13.57-.28.32-.47.89-.51,1.15.02.15.31.08.73.1,1.1,0,.1-.05.2-.08.3.1-.07.21-.12.29-.2.61-.63.96-.69,1.36-.2.07.08.09.21.13.31-.1-.02-.23,0-.3-.06-.56-.54-.8.08-1.11.33-.07.05.13.4.16.61.05.39.06.78.08,1.17.34-.03.75-.19,1.02-.06.28.13.44.52.62.82.06.09.04.22.05.33.07-.1.14-.19.2-.29.09-.15.17-.3.26-.45,0,.21.01.42-.02.62-.03.16-.09.34-.2.46-.16.16-.37.27-.55.41-.04-.2-.08-.41-.13-.61-.08-.31-.08-.72-.28-.89-.14-.12-.56.08-.85.15-.26.06-.52.22-.76.2-.53-.06-.54.09-.33.5.36.69.33.69.87.17.14-.14.38-.22.58-.25.1-.01.23.14.35.22-.11.05-.22.08-.32.14-.18.12-.39.24-.52.41-.16.2-.23.48-.38.69-.12.15-.31.25-.47.37-.04-.19-.08-.38-.11-.58-.05-.28-.07-.57-.18-.82-.03-.05-.41.07-.63.1-.11.01-.32,0-.32-.01-.03-.3-.04-.61-.04-.91,0-.16.05-.32.07-.47-.16.06-.32.11-.48.17-.21.08-.42.19-.65.23-.05,0-.14-.24-.25-.46Z"/>
      <path class="cls-4" d="M29.15,16.1c-.09-.24-.14-.51-.28-.72-.15-.23-.35-.52-.59-.6-1.73-.55-3.5-.85-5.32-.55-.14.02-.28.09-.42.12-.82.18-1.63.47-2.45.49-1.31.04-2.54.22-3.7.87-.47.26-1.05.33-1.58.48-.03-.04-.07-.08-.1-.12.77-.34,1.52-.81,2.32-1.01,1.21-.29,2.46-.39,3.7-.59.54-.09,1.06-.26,1.59-.35,1.51-.25,3.01-.68,4.54-.07.36.14.76.16,1.11.3.37.15.87.29,1.03.58.29.55.7.51,1.18.58,1.45.24,2.81.7,3.83,1.84.47.52.99.87,1.73.92.96.07,2.06,1.3,1.92,2.04-.03.15-.12.29-.18.43-.12-.1-.25-.19-.35-.3-.11-.13-.16-.31-.29-.4-.09-.07-.27-.02-.4-.02.02.13,0,.27.07.37.08.14.23.25.32.39.04.06,0,.17-.03.25,0,.02-.16.02-.19-.01-.22-.25-.47-.5-.63-.79-.06-.12.03-.47.12-.5.25-.07.54-.05.81-.03.15.01.29.11.43.17-.1-.13-.19-.26-.3-.38-.6-.58-1.25-.97-2.12-1.11-.47-.08-.86-.65-1.28-1.01-1.05-.91-2.25-1.46-3.65-1.5-.26,0-.52.18-.78.27-.03-.03-.05-.06-.08-.09Z"/>
      <path class="cls-4" d="M36.34,24.13c.08-.33.12-.67.25-.97.12-.28.28-.7.49-.76.28-.07.64.16.96.28.07.03.1.14.15.22-.02-.09,0-.22-.05-.26-.45-.32-.87-.73-1.38-.88-.53-.16-1.15-.04-1.72-.09-.19-.02-.37-.17-.55-.27-.2-.11-.39-.25-.6-.36-.11-.06-.24-.08-.36-.12.15-.05.31-.16.46-.14.18.02.34.16.51.24.18.09.37.17.56.25.1-.24.25-.46.29-.71.04-.25-.11-.54-.05-.78.04-.18.27-.33.43-.47.03-.03.16.06.24.09-.04.05-.07.12-.12.14-.57.29-.26.79-.13,1.08.14.31.56.52.88.73.56.35,1.17.64,1.71,1.02.17.12.24.47.24.71,0,.18-.18.35-.28.53-.12-.14-.23-.28-.35-.41-.18-.19-.37-.38-.55-.57-.16.24-.39.46-.45.72-.08.34-.18.9,0,1.05.49.4,1.08.83,1.78.48,1.26-.62,2.41-.36,3.52.36.07.05.2.07.26.04.83-.38,1.49.2,2.19.44.26.09.46.52.57.84.06.17-.12.42-.19.63-.15-.17-.31-.34-.46-.51.04-.04.08-.08.12-.12.02-.11.1-.26.06-.32-.27-.39-1.69-.79-2.2-.69-.21.04-.48-.02-.67-.12-.82-.44-1.65-.8-2.58-.44-.82.32-1.58.37-2.34-.17-.19-.13-.5-.11-.75-.15-.2-.04-.4-.08-.6-.12.17-.08.35-.16.52-.24.07-.07.13-.13.2-.2Z"/>
      <path class="cls-4" d="M42.34,38.2c.73.18.75-.39.66-.77-.11-.49.05-.42.38-.35.2.04.42,0,.62.03.16.02.32.07.47.11-.15-.09-.3-.23-.46-.26-.51-.12-.91-.34-.98-.92-.06-.52.22-.8.68-.97.07-.03.11-.16.16-.25-.19-.08-.38-.18-.57-.24-.07-.02-.18.05-.25.11-.13.12-.24.26-.36.39-.03-.09-.11-.22-.08-.25.16-.18.33-.44.54-.49.78-.19,1.31.31,1.34,1.18,0,.1.03.2.05.3.08-.08.22-.17.21-.25,0-.34-.07-.69-.09-1.03,0-.09.06-.19.09-.28.54.23,1.08.44,1.61.7.08.04.09.23.13.36-.1-.03-.22-.05-.31-.11-.58-.38-.76-.23-1.14.41-.44.73-.56,1.17.06,1.78.14.14.07.54.02.81-.03.15-.24.26-.36.38-.09-.13-.17-.27-.28-.38-.19-.21-.36-.51-.6-.56-.15-.04-.46.25-.58.46-.22.4-.48.67-.96.61-.12-.02-.22-.15-.34-.22.09-.12.18-.24.26-.36.03.03.05.06.08.09Z"/>
      <path class="cls-4" d="M31.8,22.51s.15.28.23.27c.74-.09.86.36.89.93,0,.09.05.18.07.26.06-.07.17-.13.18-.21.03-.37.04-.74.05-1.11,0-.1,0-.21,0-.31.1.07.22.11.28.2.32.47-.06,1.81-.58,2-.13.05-.39-.02-.47-.13-.42-.56-.79-.36-1.12.05-.24.3-.39.67-.64.96-.11.12-.37.11-.56.16.08-.12.18-.23.25-.35.12-.21.25-.41.33-.63.19-.54.9-.94,1.46-.79.14.04.29.04.44.06-.05-.21-.07-.44-.18-.61-.05-.08-.29-.11-.42-.08-.25.06-.48.21-.73.27-.11.03-.26-.08-.39-.12.05-.12.08-.26.16-.35.6-.66.58-.7-.26-1.05-.11-.04-.23-.38-.17-.45.29-.37.19-.66-.07-.97-.06-.07-.06-.18-.08-.28.11.04.25.04.31.12.13.17.22.37.31.57.06.12.09.26.13.39.03-.14.08-.28.09-.42.02-.44-.08-.81-.58-.96-.17-.05-.33-.2-.45-.34-.07-.09-.05-.26-.07-.4.1.06.2.12.3.18.2.13.42.24.6.39.16.13.39.29.42.46.12.7.18,1.41.27,2.27Z"/>
      <path class="cls-4" d="M10.12,34c.06.03.12.06.18.09-.03.06-.06.12-.1.17-.11.13-.24.23-.32.37-.03.05.04.17.06.26.09-.03.22-.03.27-.1.47-.63,1.12-.21,1.68-.29.03,0,.08.05.12.07-.05.04-.11.1-.16.11-.17.02-.34.02-.51.02-.58-.02-.86.11-.67.81.08.31-.13.75-.3,1.08-.17.32-.21.3.17.48.07.03.08.2.12.31-.19.06-.4.19-.57.15-.14-.03-.24-.26-.34-.41-.06-.1-.05-.22-.08-.34-.12.05-.26.08-.36.17-.09.09-.14.23-.2.34-.06-.07-.18-.15-.18-.21,0-.15.03-.39.13-.44.35-.2.84-.28.42-.85.2.02.4.02.59.06.13.03.25.12.38.18-.05-.17-.06-.38-.17-.5-.16-.17-.43-.25-.57-.43-.12-.15-.21-.4-.17-.58.06-.25.25-.47.38-.7.07.06.14.12.21.19Z"/>
      <path class="cls-4" d="M42.26,38.11c-.02-.27-.04-.53-.06-.8-.23.05-.47.09-.7.14-.04,0-.08.07-.12.07-.28,0-.55,0-.83,0,.11-.24.22-.48.34-.72.16-.32.42-.62.46-.95.08-.52-.2-.72-.71-.46-.09.04-.18.12-.26.12-.15,0-.29-.07-.43-.11.12-.1.24-.2.35-.29.05-.03.1-.06.15-.08.14-.13.26-.29.43-.37.2-.1.44-.12.66-.18-.04.13-.13.27-.1.38.07.26.23.51.3.77.05.18.06.41,0,.57-.14.32-.35.62-.53.92.29-.12.61-.37.86-.31.25.06.53.4.61.68.06.18-.21.46-.33.7-.03-.03-.05-.06-.08-.09Z"/>
      <path class="cls-4" d="M44.58,26.7c-.41-.25-.8-.49-.93.26,0,.04-.2.12-.26.08-.43-.25-.75-.64-1.36-.6-.31.02-.65-.4-.95-.65-.04-.03.06-.31.08-.31.23.03.52.01.67.15.43.39.81.5,1.44.43.33-.04,1.2-.25,1.44.52-.04.04-.08.08-.12.12Z"/>
      <path class="cls-4" d="M14.3,23.82c-.14.23-.26.43-.38.62-.13-.17-.24-.34-.38-.5-.15-.16-.32-.41-.49-.42-.18-.01-.4.19-.55.34-.15.14-.2.42-.37.5-.12.06-.37-.07-.52-.18-.13-.09-.21-.27-.31-.41-.08-.09-.17-.17-.25-.26.14,0,.31-.05.41.02.37.25.61.35.96-.12.14-.19.74-.05,1.14-.05.08,0,.17.04.25.07-.05-.08-.09-.16-.15-.23-.09-.1-.19-.19-.29-.28.16.02.4-.03.47.06.19.23.3.52.46.83Z"/>
      <path class="cls-4" d="M14.24,22.98c.07-.19.09-.39.2-.5.38-.38.15-.65-.1-.96-.08-.1-.1-.26-.15-.39.16.06.42.08.46.18.33.87,1.06.17,1.57.4.26.11.51,0,.45.39-.02.15-.13.3-.24.4-.04.03-.27-.08-.33-.17-.42-.6-.72-.37-1.04.1-.15.21-.35.39-.51.59-.08.1-.13.22-.19.33-.04-.13-.09-.25-.13-.36Z"/>
      <path class="cls-4" d="M40.89,31.02c-.45.08-.56,0-.37-.45.07-.17-.11-.54-.29-.69-.11-.09-.43.07-.65.13-.11.03-.21.09-.32.13.02-.13,0-.29.07-.39.35-.51,1.04-.44,1.44.13.08.11.15.22.22.33.03-.13.04-.27.09-.4.07-.18.17-.34.25-.52.01.18.04.36.04.54,0,.19-.1.42-.03.57.35.65-.09.62-.47.61Z"/>
      <path class="cls-4" d="M27.99,20.14c-.2.29-.3.43-.41.58-.02-.14-.03-.29-.07-.43-.03-.11-.09-.29-.17-.3-.66-.13-1.33-.23-1.99-.32-.08-.01-.17.04-.26.06,0-.09-.02-.24.04-.27.15-.11.33-.17.5-.26.22-.11.42-.26.64-.33.22-.08.46-.08.69-.12-.02.15-.06.31-.04.45.01.09.1.19.17.26.27.23.55.44.89.69Z"/>
      <path class="cls-4" d="M39.85,28.35c0-.83-.42-1.07-1.15-.86-.12.03-.24.03-.36.05.07-.13.12-.32.23-.39.44-.29,1.14-.08,1.53.43.07.09.14.18.21.27.02-.11.03-.22.06-.33.03-.11.09-.21.14-.31.08.1.24.22.22.3-.11.36-.25.72-.41,1.06-.03.06-.27.12-.3.08-.11-.13-.17-.3-.17-.3Z"/>
      <path class="cls-4" d="M13.79,35.48c-1.15.18-.13.54-.27.8-.13.25-.22.52-.36.76-.03.06-.21.03-.32.04.02-.1.03-.19.06-.29.06-.21.12-.41.18-.62-.2.04-.41.07-.61.13-.18.06-.35.19-.53.21-.14,0-.29-.12-.43-.19.12-.04.25-.07.36-.13.22-.12.44-.27.66-.4.27-.15.53-.31.81-.44.07-.03.19.05.45.14Z"/>
      <path class="cls-4" d="M29.03,22.32c-.03-.35-.11-.54-.06-.68.2-.47.24-.88-.24-1.2-.05-.03-.08-.11-.12-.16.09-.02.23-.08.25-.06.19.27.35.56.52.84.04.07.06.17.08.25.06-.06.12-.13.17-.2.11-.13.19-.29.32-.38.1-.07.26-.05.39-.07-.06.1-.13.2-.19.31-.15.24-.28.5-.46.73-.14.18-.34.31-.67.61Z"/>
      <path class="cls-4" d="M31.18,18.24c-.14.16-.24.38-.42.47-.3.16-.52.15-.57-.32-.03-.31-.27-.61-.42-.91-.04-.09-.1-.18-.14-.27.11-.02.3-.09.33-.05.25.32.47.67.69,1.01.04.06.04.14.05.22.05-.05.1-.1.15-.16.19-.24.35-.5.56-.71.07-.07.26,0,.39,0-.07.09-.15.18-.22.26-.1.12-.21.23-.31.35-.03.04-.06.07-.09.11Z"/>
      <path class="cls-4" d="M25.22,17.84c.07.02.2.06.34.1-.12.06-.23.14-.36.16-.4.07-.44.3-.45.68,0,.28-.26.55-.4.83-.15-.18-.31-.35-.46-.53-.03-.04-.04-.09-.07-.12-.1-.12-.2-.24-.3-.35.21.07.44.11.64.21.11.05.16.2.24.31.02-.16.07-.32.04-.47-.12-.59.17-.8.78-.81Z"/>
      <path class="cls-4" d="M37.48,26.38c-.06.25-.06.43-.14.57-.09.15-.26.25-.39.37-.08-.14-.21-.27-.22-.41-.04-.55-.29-.84-.87-.81-.07,0-.15-.07-.23-.11.09-.07.21-.23.25-.21.36.17.72.36,1.06.57.07.04.06.21.09.32.05-.1.08-.21.14-.3.05-.09.12-.17.18-.25.06.11.11.22.14.27Z"/>
      <path class="cls-4" d="M10,18.94c-.17.14-.24.21-.31.26-.88.58-1.76,1.16-2.64,1.73-.11.07-.25.08-.37.12.03-.08.03-.2.09-.24.93-.62,1.87-1.22,2.81-1.82.08-.05.2-.02.43-.04Z"/>
      <path class="cls-4" d="M36.34,24.13c-.07.07-.13.13-.2.2-.53-.14-.72-.44-.48-.96,0-.02.03-.04.03-.06.03-.21.05-.41.08-.62.18.27.39.52.52.81.08.18.04.42.05.64Z"/>
      <path class="cls-4" d="M30.46,24.76c-.15.14-.23.28-.33.3-.29.08-.59.11-.88.16.11-.13.21-.26.32-.39.07-.08.14-.14.21-.22-.11-.02-.23-.07-.33-.04-.13.04-.23.16-.36.23-.13.06-.27.1-.4.15.06-.15.08-.4.18-.43.35-.11.72-.2,1.08-.2.16,0,.31.25.52.43Z"/>
      <path class="cls-4" d="M31.27,18.13c.64-.04.96.21.84.89-.02.1.01.2.02.3.08-.07.16-.15.25-.22.11-.08.23-.15.34-.23-.03.15-.01.33-.09.45-.11.15-.27.27-.44.35-.13.06-.32.08-.45.03-.06-.02-.1-.28-.05-.39.24-.56.04-.9-.5-1.1.03-.04.06-.07.09-.11Z"/>
      <path class="cls-4" d="M27.51,21.33c-.22-.07-.36-.1-.49-.15-.13-.06-.24-.15-.36-.22.15-.04.31-.15.43-.12.57.17.88.03.91-.61,0-.13.09-.29.19-.37.11-.1.28-.13.42-.19-.04.12-.08.24-.12.35-.11.29-.17.62-.34.86-.16.21-.44.32-.64.46Z"/>
      <path class="cls-4" d="M14.81,16.2c-.95.57-1.9,1.14-2.85,1.7-.09.05-.21.06-.32.08.04-.1.05-.24.12-.29.9-.69,1.76-1.45,2.95-1.61.03.04.07.08.1.12Z"/>
      <path class="cls-4" d="M18.56,40.13c-.02.11-.04.22-.06.33-.11-.07-.25-.11-.32-.21-.15-.23-.26-.48-.39-.72.15-.04.34-.16.45-.1.26.12.49.3.7.49.05.05,0,.22,0,.33-.09-.06-.18-.12-.27-.19-.07-.06-.13-.13-.19-.19,0,.09,0,.17.01.26.02,0,.04,0,.06,0Z"/>
      <path class="cls-4" d="M24.44,16.39c.43-.01,1.05.77.92.98-.04.06-.16.09-.24.08-.29-.03-.57-.08-.86-.12.09-.1.21-.18.25-.3.03-.08-.02-.23-.08-.29-.09-.08-.22-.1-.34-.14.15-.09.3-.19.35-.21Z"/>
      <path class="cls-4" d="M29.23,16.18c-.03.21-.04.43-.12.62-.04.1-.32.2-.33.19-.23-.34-.43-.7-.89-.27.02-.16.06-.32.07-.48.05-.45.19-.57.51-.16.22.28.45.19.68,0,.03.03.05.06.08.09Z"/>
      <path class="cls-4" d="M20.84,20.17c-.1.17-.15.37-.27.43-.09.05-.27-.08-.41-.14-.13-.05-.25-.13-.39-.16-.15-.03-.3-.01-.45-.02.16-.13.31-.28.49-.37.19-.09.6.22.52-.32.06,0,.16-.02.18.01.12.17.21.36.33.56Z"/>
      <path class="cls-4" d="M38.07,29.87c-.05-.11-.15-.23-.14-.32.02-.15.11-.4.2-.41.58-.08.57-.47.53-.9,0-.07.04-.15.06-.22.07.03.18.05.19.09.02.24.08.51,0,.72-.15.35-.39.67-.59,1-.08.01-.16.03-.24.04Z"/>
      <path class="cls-1" d="M10.1,46.16c-.09.12-.17.24-.26.36.13-.02.3,0,.39-.08.22-.18.39-.44.62-.6.17-.11.42-.09.63-.14-.09.11-.19.22-.28.34-.04.05-.06.12-.09.19.58.08.47.5.45.89,0,.05.14.13.22.15.89.23,1.41,1.17,1.15,2.12-.02.07-.07.13-.1.19-.02-.07-.04-.15-.08-.22-.22-.46-.4-.93-.66-1.37-.37-.62-.81-.28-1.21-.02-.13.09-.2.27-.32.39-.1.09-.23.15-.35.22.03-.12.11-.26.09-.37-.07-.4-.12-.81-.29-1.16-.04-.08-.51.03-.78.06-.09,0-.18.03-.27.04.06-.07.15-.12.17-.2.08-.29.14-.58.2-.87.05-.22.06-.46.14-.67.02-.04.29.01.44.03-.04.1-.06.21-.12.29-.43.52.08.37.3.43,0,0,0,0,0,0Z"/>
      <path class="cls-1" d="M9.94,55.2c-.61-.56-.85-.04-1.2.31-.15.15-.5.23-.69.16-.3-.11-.55-.36-.79-.58-.04-.03.07-.34.13-.35.5-.05.88-.66,1.5-.27.31.19.74.15,1.11.25.16.04.29.17.43.26-.17.07-.33.15-.51.22Z"/>
      <path class="cls-1" d="M15.03,44.06c.76.05,1.2.36,1.4.94.03.08,0,.18-.01.28-.05-.08-.08-.17-.15-.22-.31-.26-.62-.69-.96-.72-.51-.05-.78.4-.77.94,0,.06-.07.11-.1.17-.02-.06-.05-.11-.07-.17-.36-.9-.13-1.26.66-1.21Z"/>
      <path class="cls-1" d="M13.15,26.35c.15-.16.3-.33.46-.48.17-.16.35-.3.53-.43.04-.03.13.02.2.04-.01.03-.02.09-.04.1-.94.28-.54,1.03-.59,1.63-.01.13-.08.25-.12.37-.03-.11-.05-.21-.09-.32-.11-.31-.23-.61-.34-.92,0,0,0,0,0,0Z"/>
      <path class="cls-1" d="M6.82,55.42c-.18.06-.37.12-.55.18.18-.21.35-.43.53-.64,0,.15.02.31.02.46Z"/>
      <path class="cls-1" d="M6.69,54.83c-.13.02-.25.05-.38.07.13-.02.25-.05.38-.07Z"/>
      <path class="cls-1" d="M5.87,55.2c.07-.08.14-.17.21-.25.08-.02.16-.03.23-.05-.15.1-.29.2-.44.29Z"/>
      <path class="cls-4" d="M5.45,55.62c.09-.04.18-.09.27-.13-.09.04-.18.09-.27.13Z"/>
    </g>
    <rect class="cls-2" x="5" y="12.18" width="43.74" height="43.74"/>
  </g>
  <g>
    <polygon class="cls-3" points="59.26 33.41 59.26 22.7 61.66 22.7 61.66 20.91 54.78 20.91 54.78 22.7 57.18 22.7 57.18 35.34 59.26 33.41"/>
    <rect class="cls-3" x="62.97" y="20.91" width="2.08" height="10.68"/>
    <path class="cls-3" d="M74.14,30.56c1.41-.99,2.15-2.53,2.15-4.31s-.75-3.33-2.05-4.31c-1.18-.88-2.48-1.04-3.97-1.04h-2.79v10.68h2.75c1.49,0,2.66-.14,3.91-1.02ZM69.56,29.79v-7.09h.64c.7,0,1.76.06,2.62.7.85.64,1.31,1.73,1.31,2.85s-.48,2.22-1.33,2.83c-.93.67-2.08.7-2.61.7h-.64Z"/>
    <path class="cls-3" d="M79.88,29.34h4.31l.94,2.24h2.24l-4.47-10.68h-1.63l-4.59,10.68h2.26l.94-2.24ZM82.06,23.81l1.52,3.84h-3.04l1.52-3.84Z"/>
    <polygon class="cls-3" points="90.7 20.91 88.62 20.91 88.62 31.58 94 31.58 94 29.79 90.7 29.79 90.7 20.91"/>
    <polygon class="cls-3" points="101.26 31.58 103.71 24.81 106.05 31.58 107.62 31.58 111.57 20.91 109.36 20.91 106.8 28.18 104.34 20.81 103.18 20.81 100.57 28.18 98.19 20.91 95.98 20.91 99.69 31.58 101.26 31.58"/>
    <path class="cls-3" d="M115.55,20.91l-4.59,10.68h2.26l.94-2.24h4.31l.94,2.24h2.24l-4.47-10.68h-1.63ZM114.81,27.65l1.52-3.84,1.52,3.84h-3.04Z"/>
    <polygon class="cls-3" points="125.84 28.08 122.99 20.91 120.72 20.91 125.2 31.58 126.45 31.58 130.96 20.91 128.69 20.91 125.84 28.08"/>
    <polygon class="cls-3" points="138.85 22.92 138.85 20.91 132.2 20.91 132.2 32.88 138.85 32.88 138.85 30.87 134.54 30.87 134.54 27.6 138.67 27.6 138.67 25.59 134.54 25.59 134.54 22.92 138.85 22.92"/>
    <path class="cls-3" d="M64.5,41.99h2.89c-.18.81-.62,1.38-1.06,1.71-.62.47-1.46.67-2.2.67-1.19,0-1.98-.47-2.49-.96-.47-.45-1.11-1.34-1.11-2.84,0-1.26.49-2.34,1.13-2.96.69-.67,1.7-.99,2.59-.99.52,0,1.11.12,1.58.35.35.18.92.57,1.31,1.33l1.9-1.03c-.59-1.01-1.38-1.68-2.1-2.05-.86-.45-1.75-.59-2.59-.59-2.17,0-3.58.86-4.42,1.71-.67.67-1.65,2-1.65,4.17,0,2.52,1.28,3.93,1.66,4.32,1.23,1.23,2.67,1.51,4.07,1.51s2.82-.32,3.98-1.48c1.55-1.53,1.65-3.88,1.65-4.64v-.13h-5.14v1.88Z"/>
    <path class="cls-3" d="M74.9,34.9l-4.82,11.21h2.37l.99-2.35h4.52l.99,2.35h2.35l-4.69-11.21h-1.71ZM74.12,41.98l1.6-4.03,1.6,4.03h-3.19Z"/>
    <polygon class="cls-3" points="91.78 34.9 88.67 42.03 85.7 34.9 84.12 34.9 82.03 46.11 84.25 46.11 85.4 39.2 88.27 46.11 89.01 46.11 92.02 39.2 93.02 46.11 95.24 46.11 93.36 34.9 91.78 34.9"/>
    <polygon class="cls-3" points="97.22 46.11 103.44 46.11 103.44 44.23 99.4 44.23 99.4 41.17 103.27 41.17 103.27 39.29 99.4 39.29 99.4 36.78 103.44 36.78 103.44 34.9 97.22 34.9 97.22 46.11"/>
    <path class="cls-3" d="M109.38,39.2c-.71-.25-1.08-.39-1.34-.64-.27-.24-.35-.49-.35-.76,0-.57.37-1.31,1.55-1.31.4,0,1.18.08,1.83.96l1.14-1.5c-1.14-1.18-2.47-1.31-3.18-1.31-2.49,0-3.6,1.65-3.6,3.29,0,1.14.52,1.76.89,2.08.57.5,1.28.77,1.86.97.64.22,1.31.44,1.73.82.3.29.44.6.44,1.01,0,.94-.74,1.55-1.73,1.55-.79,0-1.81-.4-2.35-1.5l-1.43,1.36c.59.86,1.8,2.12,3.87,2.12,2.32,0,3.9-1.5,3.9-3.68,0-1.14-.45-1.9-.96-2.35-.57-.52-1.39-.82-2.27-1.13Z"/>
  </g>
</svg>