<?xml version="1.0" encoding="UTF-8"?>
<svg id="Layer_1" xmlns="http://www.w3.org/2000/svg" viewBox="0 0 142.46 72.16">
  <defs>
    <style>
      .cls-1 {
        fill: #fff;
      }

      .cls-2 {
        fill: #1c3c83;
      }
    </style>
  </defs>
  <path class="cls-2" d="M65.77,17.83h0v16.88h-4.66c-1.5,0-3.76,0-3.76,2.57,0,.49-.21.96-.59,1.31-.39.37-.9.57-1.46.57-1.02,0-1.86-.69-2.01-1.59.7-.33,6.78-3.25,6.78-3.25l.29-.14c.8-.38,2.66-1.29,2.66-3.65,0-4.12-3.46-7.48-7.72-7.48s-7.73,3.35-7.73,7.48v4.19h-2.38v-4.17s.01-.02.01-.02c0-4.12-3.47-7.48-7.72-7.48-1.11,0-2.22.26-3.26.73-.48-.35-1.06-.55-1.66-.55-1.57,0-2.85,1.28-2.85,2.85v8.6h-2.12v-8.94c0-1.43-1.25-2.55-2.85-2.55s-2.85,1.12-2.85,2.55v8.94h-2.4v-4.13s.01-.02.01-.02c0-4.12-3.47-7.48-7.72-7.48-1.1,0-2.2.26-3.24.72-.48-.35-1.05-.54-1.64-.54-1.57,0-2.85,1.28-2.85,2.85v4.22h.01c-.01.07-.01.14-.02.19,0,0,0,2.76,0,4.03h-1.2c-.76,0-1.47.3-2.01.84s-.84,1.25-.84,2.01c0,1.57,1.28,2.85,2.85,2.85h1.22v10.08c0,.76.3,1.47.84,2.01s1.25.84,2.01.84,1.47-.3,2.01-.84.84-1.25.84-2.01v-5.65c.67.18,1.35.28,2.03.28,3.11,0,5.9-1.82,7.11-4.56h3v1.92c0,1.57,1.28,2.85,2.85,2.85s2.85-1.28,2.85-2.85v-1.92h2.12v9.93c0,.76.3,1.47.84,2.01.54.54,1.25.84,2.01.84s1.47-.3,2.01-.84.84-1.25.84-2.01v-5.66c.68.18,1.37.29,2.07.29,3.09,0,5.87-1.8,7.09-4.52h3.65c1.21,2.72,4,4.52,7.09,4.52s5.87-1.8,7.09-4.52h3.38v1.65c0,1.57,1.28,2.85,2.85,2.85s2.85-1.28,2.85-2.85v-1.65h2.53v2.1c0,1.57,1.28,2.85,2.85,2.85s2.85-1.28,2.85-2.85v-2.11h2.4v2.1c0,1.57,1.28,2.85,2.85,2.85s2.85-1.28,2.85-2.85v-11.97c0-1.02.92-1.85,2.05-1.85s2.05.84,2.05,1.86v11.97c0,1.57,1.28,2.85,2.85,2.85s2.85-1.28,2.85-2.85v-2.11h3.05c1.21,2.72,4,4.52,7.09,4.52s5.91-1.82,7.11-4.56h2.8c.76,0,1.47-.3,2.01-.84s.84-1.25.84-2.01c0-1.57-1.28-2.85-2.85-2.85h-4.1c-1.4,0-3.76,0-3.76,2.59,0,1.05-.91,1.89-2.04,1.89-1.02,0-1.86-.69-2.01-1.59.7-.33,6.79-3.25,6.79-3.25l.29-.14c.79-.38,2.66-1.29,2.66-3.65,0-4.12-3.47-7.48-7.72-7.48s-7.73,3.35-7.73,7.48v4.19h-2.4v-4.17c0-4.13-3.47-7.49-7.74-7.49-1.04,0-2.08.23-3.05.64-.51-.45-1.16-.7-1.85-.7-1.57,0-2.85,1.28-2.85,2.85v8.89h-2.4v-8.89c0-1.57-1.28-2.85-2.85-2.85s-2.85,1.28-2.85,2.85v8.89h-2.53v-16.88c0-.76-.3-1.47-.84-2.01s-1.25-.84-2.01-.84c-1.57,0-2.85,1.28-2.85,2.85M9.76,37.36v-6.75c0-1.04.91-1.88,2.04-1.88.56,0,1.09.2,1.47.58.37.35.57.81.57,1.29,0,.03,0,.2,0,.2v6.36s0,.16,0,.19c0,1.04-.91,1.87-2.04,1.87s-2.04-.84-2.04-1.87M35.43,37.36v-6.75c0-1.04.91-1.88,2.04-1.88s2.04.84,2.04,1.87c0,.03,0,.2,0,.2v6.36s0,.16,0,.19c0,1.03-.92,1.87-2.04,1.87s-2.04-.84-2.04-1.87M53.26,30.54c0-1.04.91-1.88,2.04-1.88.68,0,1.3.33,1.67.84-.83.4-3.27,1.56-3.72,1.78v-.73M105.64,30.54c0-1.04.91-1.88,2.04-1.88.68,0,1.3.33,1.67.84-.75.36-2.64,1.27-3.72,1.78v-.73"/>
  <path class="cls-1" d="M66.41,17.83h0v17.52h-5.29c-1.54,0-3.13,0-3.13,1.93,0,1.38-1.2,2.51-2.68,2.51s-2.68-1.13-2.68-2.51v-.11c.66-.32,7.18-3.43,7.18-3.43l.28-.14c.75-.36,2.31-1.11,2.31-3.08,0-3.77-3.18-6.84-7.09-6.84s-7.09,3.07-7.09,6.84v4.82h-3.65v-4.81s.01-.01.01-.01c0-3.77-3.18-6.84-7.09-6.84-1.18,0-2.32.3-3.35.84-.41-.41-.96-.66-1.56-.66-1.22,0-2.21.99-2.21,2.21v9.23h-3.4v-9.57c0-1.07-.97-1.91-2.21-1.91s-2.21.84-2.21,1.91v9.57h-3.67v-4.78s.01-.01.01-.01c0-3.77-3.18-6.84-7.09-6.84-1.17,0-2.31.3-3.33.82-.41-.4-.96-.64-1.55-.64-1.22,0-2.21.99-2.21,2.21v4.43s-.01,3.25-.02,4.65h-1.84c-.59,0-1.15.23-1.56.65s-.65.97-.65,1.56c0,1.22.99,2.21,2.21,2.21h1.86v10.72c0,.59.23,1.15.65,1.56s.97.65,1.56.65,1.15-.23,1.56-.65c.41-.41.65-.97.65-1.56v-6.53c.85.33,1.75.51,2.66.51,3.02,0,5.69-1.85,6.67-4.56h4.07v2.56c0,1.22.99,2.21,2.21,2.21s2.21-.99,2.21-2.21v-2.56h3.4v10.57c0,.59.23,1.15.65,1.56s.97.65,1.56.65,1.15-.23,1.56-.65.65-.97.65-1.56v-6.54c.86.35,1.77.53,2.7.53,2.99,0,5.66-1.84,6.66-4.52h4.5c1,2.68,3.67,4.52,6.66,4.52s5.66-1.84,6.66-4.52h4.43v2.28c0,1.22.99,2.21,2.21,2.21s2.21-.99,2.21-2.21v-2.29h3.8v2.74c0,1.22.99,2.21,2.21,2.21s2.21-.99,2.21-2.21v-2.74h3.67v2.74c0,1.22.99,2.21,2.21,2.21s2.21-.99,2.21-2.21v-11.97c0-1.37,1.21-2.49,2.69-2.49s2.68,1.12,2.68,2.5v11.97c0,1.22.99,2.21,2.21,2.21s2.21-.99,2.21-2.21v-2.75h4.1c1,2.68,3.67,4.52,6.66,4.52s5.69-1.85,6.68-4.56h3.22c.59,0,1.15-.23,1.56-.65.41-.42.65-.97.65-1.56,0-1.22-.99-2.21-2.21-2.21h-4.1c-1.46,0-3.13,0-3.13,1.95,0,1.39-1.2,2.53-2.68,2.53s-2.68-1.13-2.68-2.51v-.11c.66-.32,7.18-3.43,7.18-3.43l.28-.14c.75-.36,2.31-1.11,2.31-3.08,0-3.77-3.18-6.84-7.09-6.84s-7.09,3.07-7.09,6.84v4.82h-3.67v-4.81c0-3.78-3.18-6.85-7.1-6.85-1.11,0-2.2.27-3.19.75-.41-.51-1.04-.82-1.7-.82-1.22,0-2.21.99-2.21,2.21v9.52h-3.67v-9.52c0-1.22-.99-2.21-2.21-2.21s-2.21.99-2.21,2.21v9.52h-3.8v-17.52c0-.59-.23-1.15-.65-1.56s-.97-.65-1.56-.65c-1.22,0-2.21.99-2.21,2.21M9.12,30.62c0-1.39,1.2-2.51,2.68-2.51.73,0,1.4.27,1.92.75.49.47.77,1.09.77,1.76,0,.03,0,.21,0,.21v6.34s0,.17,0,.2c0,1.38-1.2,2.51-2.68,2.51s-2.68-1.13-2.68-2.51h0c0-.11,0-4.71,0-4.71v-2.04h0,0ZM34.8,30.62c0-1.39,1.2-2.51,2.68-2.51s2.68,1.13,2.68,2.51c0,.03,0,.21,0,.21v6.34s0,.17,0,.2c0,1.38-1.2,2.51-2.68,2.51s-2.68-1.13-2.68-2.51h0c0-.11,0-4.71,0-4.71v-2.04h0ZM52.63,30.54c0-1.39,1.2-2.51,2.68-2.51,1.18,0,2.2.73,2.54,1.76-.75.36-4.84,2.32-5.23,2.5,0-.43,0-1.74,0-1.74M105.01,30.54c0-1.39,1.2-2.51,2.68-2.51,1.18,0,2.2.73,2.54,1.76-.68.32-3.98,1.9-5.23,2.5,0-.43,0-1.74,0-1.74"/>
  <path class="cls-2" d="M67.04,17.83h0v18.15h-5.93c-1.55,0-2.49,0-2.49,1.3,0,1.73-1.49,3.15-3.32,3.15s-3.32-1.41-3.32-3.15v-.51c.67-.32,7.54-3.61,7.54-3.61l.28-.13c.73-.35,1.95-.94,1.95-2.51,0-3.42-2.89-6.2-6.45-6.2s-6.45,2.78-6.45,6.2v5.46h-4.92v-5.14c0-.06.01-.32.01-.32,0-3.42-2.9-6.2-6.45-6.2-1.27,0-2.49.36-3.53,1.02-.26-.5-.78-.84-1.38-.84-.87,0-1.57.7-1.57,1.57v9.87h-4.67v-10.21c0-.71-.69-1.28-1.57-1.28s-1.57.56-1.57,1.28v10.21h-4.94v-5.1c0-.06.01-.32.01-.32,0-3.42-2.9-6.2-6.45-6.2-1.25,0-2.46.35-3.51,1-.27-.48-.78-.82-1.37-.82-.87,0-1.57.7-1.57,1.57v4.22s0,.23,0,.23c0,0,0,4.26-.01,5.27h-2.48c-.42,0-.81.16-1.11.46-.3.3-.46.69-.46,1.11,0,.87.7,1.57,1.57,1.57h2.49v11.36c0,.42.16.82.46,1.11s.69.46,1.11.46.81-.16,1.11-.46c.3-.3.46-.69.46-1.11v-7.53c.99.57,2.13.88,3.3.88,2.93,0,5.46-1.89,6.22-4.56h5.16v3.19c0,.87.7,1.57,1.57,1.57s1.57-.7,1.57-1.57v-3.19h4.67v11.21c0,.42.16.82.46,1.11.3.3.69.46,1.11.46s.81-.16,1.11-.46c.3-.3.46-.69.46-1.11v-7.55c1,.58,2.15.9,3.34.9,2.91,0,5.43-1.87,6.21-4.52h5.41c.78,2.65,3.3,4.52,6.21,4.52s5.43-1.87,6.21-4.52h5.53v2.92c0,.87.7,1.57,1.57,1.57s1.57-.7,1.57-1.57v-2.92h5.08v3.38c0,.87.7,1.57,1.57,1.57s1.57-.7,1.57-1.57v-3.38h4.95v3.38c0,.87.7,1.57,1.57,1.57s1.57-.7,1.57-1.57v-11.97c0-1.72,1.5-3.13,3.33-3.13s3.32,1.4,3.32,3.14v11.97c0,.87.7,1.57,1.57,1.57s1.57-.7,1.57-1.57v-3.39h5.19c.78,2.65,3.3,4.52,6.21,4.52s5.46-1.89,6.22-4.56h3.69c.42,0,.81-.16,1.11-.46.3-.3.46-.69.46-1.11,0-.87-.7-1.57-1.57-1.57h-4.1c-1.5,0-2.49,0-2.49,1.31,0,1.74-1.49,3.16-3.32,3.16s-3.32-1.41-3.32-3.15v-.51c.67-.32,7.55-3.61,7.55-3.61l.28-.13c.73-.35,1.95-.94,1.95-2.51,0-3.42-2.9-6.2-6.45-6.2s-6.45,2.78-6.45,6.2v5.46h-4.94v-5.45c0-3.43-2.9-6.22-6.46-6.22-1.22,0-2.41.33-3.43.95-.23-.59-.8-1.02-1.46-1.02-.87,0-1.57.7-1.57,1.57v10.16h-4.95v-10.16c0-.87-.7-1.57-1.57-1.57s-1.57.7-1.57,1.57v10.16h-5.08v-18.16c0-.42-.16-.81-.46-1.11-.3-.3-.69-.46-1.11-.46-.87,0-1.57.7-1.57,1.57M8.48,30.61c0-1.74,1.49-3.15,3.32-3.15.89,0,1.73.33,2.36.93.62.59.96,1.38.96,2.22v6.54s0,.21,0,.21c0,1.73-1.48,3.15-3.31,3.15s-3.32-1.41-3.32-3.15v-4.71s0-2.04,0-2.04M34.16,30.61c0-1.74,1.49-3.15,3.32-3.15s3.32,1.41,3.32,3.15v6.54s0,.21,0,.21c0,1.73-1.48,3.15-3.31,3.15s-3.32-1.41-3.32-3.15v-4.71s0-2.04,0-2.04M51.99,30.54c0-1.74,1.49-3.15,3.32-3.15,1.68,0,3.07,1.2,3.27,2.75-.64.31-5.25,2.51-6.6,3.15v-2.75M104.37,30.54c0-1.74,1.49-3.15,3.32-3.15,1.68,0,3.07,1.2,3.27,2.75-.64.31-5.25,2.51-6.6,3.15v-2.75"/>
</svg>