<?xml version="1.0" encoding="UTF-8"?>
<svg id="Layer_1" xmlns="http://www.w3.org/2000/svg" viewBox="0 0 142.46 72.16">
  <defs>
    <style>
      .cls-1 {
        fill: #1c3c83;
      }
    </style>
  </defs>
  <path class="cls-1" d="M55.41,31.67c.32.04.68.09,1.16.08.52-.07,2.25-.11,2.84-1.38.25-.53.29-1.21,0-1.78-.55-1.14-2.33-1.2-3.02-1.23h0c-.53-.04-.94.02-1.25.08.07.68.09,1.41.16,2.14s.09,1.41.11,2.09Z"/>
  <path class="cls-1" d="M84.06,46.75h0c-4.55.07-8.36.53-11.12.97.35-.43.76-.86,1.27-1.29,1.18-1.03,2.37-1.63,3.25-1.96-4.02.57-8.7,1.58-13.84,3.33-3.53,1.19-6.68,2.53-9.43,3.85-.93-1.81-2.09-3.82-3.66-5.92-.87-1.18-1.73-2.26-2.59-3.18.36,0,.89.03,1.47.17.37.1.68.25.95.34,0,.21.06.47.07.78.06.31.06.47.12.57.22.41.9.5,1.27.54,1.36-.09,2.72-.23,4.49-.37,0,0,1.1-.08,3.96-.46.31-.06.94-.13,1.72-.41.88-.28,1.45-.67,1.6-.72.57-.38,1.03-.76,1.33-1.08.48.41,1.44,1.12,2.86,1.45.47.09,1.58.32,2.93-.03.99-.24,1.71-.72,2.12-1.05.05.11.16.31.38.46.37.25.74.19.89.19,1.67-.2,6.21-.68,8.62-.69.99-.03,1.83-.05,2.88.19,2.05.42,3.59,1.32,4.55,1.98.19-2.83.38-5.66.57-8.44.11-1.57.31-4.19.38-5.76.26.05.52.04.79.09.26.05.68.14,1.04-.13.36-.22.46-.59.5-.8,1.06-3.53,1.45-6.68,1.45-6.68.04-.32.13-.84.23-1.53-.58-.04-2.73-.19-4.93-.29-1.46-.07-2.46-.1-3.45-.07-.05,0-1.83.05-4.29,0-.16,0-.47,0-.78.23-.21.11-.31.27-.41.38-.05-.11-.17-.41-.44-.62-.21-.15-.42-.2-.53-.2-1.1.08-2.3,0-3.6.25-1.09.24-2.08.47-3.02.76-.15.06-.52.22-.77.6-.15.21-.25.48-.25.63-.53-.35-1.6-1.11-3.23-1.28-1.73-.22-3.03.34-3.54.61-1.35.61-2.21,1.52-2.67,2-.37-.31-.9-.66-1.6-1.01-.64-.3-1.32-.49-2.27-.73-.79-.14-2.1-.36-5.55-.28l-2.67.07c.1-.16.25-.53.34-.95,0-.05.28-1.47-.41-1.87-.26-.15-.58-.09-.79-.09-2.55.48-5.19,1.54-5.25,1.54-.26.11-.62.23-1.09.45.09-.79-.09-1.36-.2-1.67-.11-.31-.23-.57-.54-.77-.37-.2-.73-.09-.94-.08-1.61.41-4.41,1.47-6.07,1.93-.31.11-.78.23-1.35.35.1-.26.14-.68.18-1.21.04-.47.11-2.04-.69-2.44,0,0-.16-.05-.52-.04-.63.02-1.1.13-1.2.19-1.19.4-3.74,1.03-5.66,1.51-.99.24-2.44.53-4.38.53-.06-.21-.17-.57-.44-.93-.05-.05-.27-.31-.48-.46-.85-.5-1.88.05-1.98.15-1.35.56-2.74,1.06-4.15,1.57-1.25.45-2.44.85-3.63,1.24-.06-.26-.34-.99-.98-1.44-.16-.15-.59-.46-1.16-.39-.31,0-.52.12-.62.17-1.14.5-3.54.92-4.16,1.04-.94.18-1.67.2-3.03.29-.78.07-1.46.09-1.93.1.11.42.34,1.04.57,1.76,1.49,4.98,2.06,9,2.2,10.41.22,2.45.46,5.53.33,9.15,1.45-.56,3.63-1.35,6.33-1.94,8.12-1.82,14.78-.95,18.46-.46,3.41.49,5.15.71,7.37,1.54,2.17.83,7.93,3.1,11.48,9.18,2.35,3.97,2.76,7.88,2.82,10.18,1.47-1.66,3.62-3.75,6.56-5.66,3.81-2.5,7.5-3.69,9.99-4.33-.35.43-.76.96-1.11,1.65-.85,1.64-1.02,3.17-1.05,4.11,2.93-2.11,7.11-4.58,12.5-6.38,8.92-3,16.78-2.67,21.35-2.11.42.04-6.21-1.36-13.74-1.27h0ZM81.89,25.57c.04-.79.12-1.47.21-2.15h0c1.77-.05,3.55-.09,5.33.02,1.78-.04,3.56-.04,5.34-.03-.09.53-.13,1.05-.22,1.63-.13,1.1-.31,2.15-.55,3.15-.37-.1-.79-.19-1.26-.23-.63-.09-1.16-.13-1.68-.11-.11,1.94-.22,3.88-.37,5.87-.15,2.25-.36,4.4-.57,6.5-.53-.2-1.21-.33-2-.42-.63-.09-1.21-.07-1.68-.06.26-1.89.47-3.99.63-6.19.1-2.15.11-4.14.06-5.97-.73-.04-1.52-.02-2.3,0l-1.04.03c.04-.63.07-1.31.11-2.04h0ZM81.2,29.09c.78-.07,1.52-.14,2.19-.11.07.63.13,1.1.14,1.46,0,.26.02.63-.02,1.25,0,.42-.04.79-.03,1-.25.27-.87.86-1.85,1.09-.47.11-.89.13-1.2.08.04-.63.02-1.25.06-1.88h0c.03-1,.06-1.94.14-2.83.21,0,.36-.06.58-.07h0ZM75.5,27.14c0-.37-.03-.89-.2-1.52-.06-.42-.23-.78-.34-1.09.73-.23,1.56-.46,2.44-.64,1.25-.24,2.4-.32,3.34-.34h0c-.4.75-1,1.87-1.28,3.24-.24,1-.27,1.79-.32,3.78-.07,1.31-.08,3.24-.03,5.29.36,0,1.2-.03,2.14-.11.26,0,.58-.02.94-.18.1-.06.26-.11.57-.33.26-.16.67-.44,1.08-.86.03.94,0,1.83-.24,3.09-.14.89-.32,1.68-.57,2.37-1.31-.07-2.77-.09-4.39.06-1.41.14-2.66.32-3.81.51.14-.47.39-1.17.52-2.06.08-.73.12-1.31.11-1.57.08-3.19-.06-6.44.02-9.63h0ZM69.03,23.85c2.93-.07,5.44,3.73,5.5,8.5.07,4.76-2.18,8.69-5.12,8.76-2.93.07-5.43-3.73-5.5-8.5-.07-4.76,2.19-8.69,5.12-8.76ZM50.95,25.14c.05-.11.1-.16.2-.27.73-.12,1.77-.31,3.08-.39,1.88-.15,2.87-.23,4.08.05.79.19,3.68.85,4.64,3.33.11.26.78,1.97-.07,3.61-.3.69-.81,1.12-1.12,1.34h0c.38.42,1.45,1.49,1.76,3.26.06.42.43,2.66-.89,4.31-1.22,1.5-3.21,1.6-6.86,1.85-1.41.09-2.56.07-3.35.04-.04-1.73-.03-3.14-.05-4.03,0,0,.04-6.75-.47-10.3-.07-.63-.29-1.25-.29-1.25-.06-.15-.11-.26-.17-.41-.28-.62-.6-.88-.5-1.14h0ZM12.74,36.98c-.78.07-1.46.14-2.09.26-.32-.46-.65-.98-.98-1.49-.6-.87-1.03-1.75-1.42-2.58.25,1.4.54,2.75.79,4.17-1.2.24-2.34.43-3.54.67-.32-2.24-.69-4.53-1.12-6.87-.54-2.87-1.08-5.63-1.73-8.28,1.05.03,2.25-.06,3.6-.3,1.1-.19,2.03-.47,2.86-.75-.24.89-.47,1.95-.66,3.05-.23,1.26-.36,2.46-.38,3.51.66-.75,1.37-1.6,2.03-2.56.56-.85,1.06-1.65,1.46-2.39.73-.12,1.51-.35,2.39-.64.98-.34,1.86-.68,2.59-1.06-.15.32-.34.74-.6,1.32-.99,2.17-2,3.76-2.95,5.31-.51.75-1.11,1.76-1.92,2.93.44.78.98,1.54,1.58,2.37.97,1.28,1.99,2.4,2.91,3.38-.84-.08-1.78-.11-2.83-.04h0ZM18.44,36.74h0l-.89.02c0-.26.04-.52.09-.79.04-.32.09-.58.13-.84.37.04.73.04,1.1.08.17.52.34,1.04.51,1.56-.32-.04-.63-.04-.94-.03ZM22.58,36.95c-.52-.04-1.05-.03-1.57-.07-.17-.46-.39-.98-.61-1.5-.28-.68-.55-1.24-.83-1.81-.42-.04-.89-.08-1.36-.07-.63-.04-1.25.04-1.83.05-.09.73-.17,1.53-.26,2.26-.69-.66-1.28-1.22-1.72-1.68-.32-.31-.69-.72-1.03-1.28-.17-.31-.28-.46-.39-.78-.11-.46-.13-.94-.09-1.52.04-.37.04-.63.08-.84l1.1-.03c.29-.84.59-1.53.79-2.01.5-1.01.8-1.49,1.7-3.29.25-.43.4-.8.6-1.38.19-.63.28-1.21.32-1.58.47-.06.99-.18,1.51-.35.89-.23,1.56-.56,2.17-.89-.41.48-.81,1.07-1.21,1.76-.15.32-.3.59-.4.85.39.88.78,1.76,1.12,2.69.51,1.4,1.01,2.69,1.41,3.99l.64.3c.37.2.74.46,1.01.66-.15.21-.3.43-.46.64-.15.22-.35.43-.51.59.23.68.5,1.29.73,1.97h0c.4,1.19.84,2.33,1.08,3.47-.63-.04-1.31-.12-1.99-.16h0ZM28.46,37.33c-.79-.14-1.47-.17-2.15-.21-.47-2.18-.95-4.48-1.38-6.82-.31-1.93-.62-3.75-.82-5.58h0c-.42.11-.78.18-1.25.24-.52.12-1.04.18-1.56.25-.11-.36-.23-.78-.29-1.25-.13-.89-.15-1.67-.06-2.3.94-.08,2.14-.16,3.55-.35.89-.13,2.4-.32,4.32-.84,1.15-.29,2.54-.69,4.1-1.25-.09.63-.23,1.42-.46,2.26-.19.68-.44,1.26-.68,1.8-.68.23-1.4.4-2.23.58-.62.12-1.2.24-1.77.31.09,1.62.3,3.45.66,5.32.55,3.12,1.35,5.93,2.15,8.27-.63-.14-1.31-.28-2.1-.42h0ZM32.09,36.66c-.39-.98-.79-2.13-1.18-3.37-.29-1.09-.52-2.08-.7-3.02.21-.06.42-.11.62-.17.31-.11.68-.17.99-.29.07.52.13,1.15.21,1.93.06.36.09,1.36.12,2.61.02.68-.02,1.41-.05,2.31h0ZM36.38,38.75c-1-.29-1.95-.42-2.73-.51.17-1.63.28-3.46.23-5.39,0-1.99-.15-3.82-.34-5.44-.57.12-1.15.24-1.72.36-.73.17-1.46.35-2.13.58-.22-.46-.39-1.15-.46-1.87-.07-.62-.09-1.2-.04-1.62,1.88-.26,4.79-.9,7.02-1.54,2.13-.57,4.04-1.3,5.75-1.97h0,0c-.14.58-.33,1.32-.62,2.21-.34.89-.69,1.64-1.04,2.28-.52.23-1.14.5-1.82.68-.42.11-.83.23-1.2.29.05,1.78.15,3.76.36,5.9.27,2.5.69,4.8,1.17,6.82-.68-.3-1.53-.54-2.42-.78h0ZM47.24,39.99c0-.42-.08-.83-.14-1.3-.07-.68-.24-1.25-.36-1.82-.62.07-1.3.09-1.93.15-.58.07-1.15.08-1.73.15-.09.63-.12,1.36-.1,2.2.02.52.03.99.09,1.46-.48-.3-.85-.5-1.17-.65s-.79-.35-1.42-.49c-.37-.1-.63-.14-.84-.13.04-.58.08-1.16.06-1.73l-.04-1.52c-.06-.21-.07-.52-.18-.83-.11-.41-.28-.72-.39-.98.46-.22.88-.39,1.35-.61.18-1.26.41-2.53.68-3.89.42-1.95.9-3.74,1.38-5.42.82-.49,1.81-1.04,2.89-1.49,1.29-.56,2.49-.9,3.58-1.19-.25.22-.61.54-.91.96-.31.43-.56.85-.7,1.17.36,1.77.77,3.54,1.18,5.31.24,1.25.53,2.44.82,3.64.16.05.31.04.47.14.16.1.32.15.43.25-.14.74-.27,1.53-.41,2.26h0c.08.94.2,1.62.37,2.14.06.47.18.73.3,1.4.12.62.24,1.15.3,1.51-.64-.3-1.48-.54-2.48-.67-.36-.04-.79-.04-1.1-.03h0Z"/>
  <path class="cls-1" d="M18.08,26.45c-.2.47-.45,1.01-.64,1.59-.25.74-.38,1.42-.47,2l1.1-.03h0c.42,0,.79-.02,1.2-.03-.11-.52-.24-1.04-.41-1.66-.23-.73-.51-1.35-.78-1.86h0Z"/>
  <path class="cls-1" d="M56.59,34.68c-.42,0-.79.07-1.15.08l.05,2.04c.02.78-.02,1.52,0,2.3.58.04,1.26.03,1.99-.05.52-.02.99-.08,1.46-.14.21-.06.52-.17.88-.44.67-.54.69-1.32.69-1.48.08-.84-.46-1.4-.57-1.61-.59-.61-1.38-.69-1.53-.69-.58-.04-1.2-.02-1.83,0h0Z"/>
  <path class="cls-1" d="M44.85,27.6c-.19.68-.38,1.37-.58,2.06-.24.89-.48,1.79-.67,2.68.31-.06.63-.12.94-.13h0c.53,0,1-.07,1.46-.03-.12-.63-.25-1.3-.42-1.98-.24-.93-.52-1.77-.75-2.6h0Z"/>
  <path class="cls-1" d="M69.4,36.71c.84-.02,1.46-1.92,1.46-4.27-.06-2.35-.74-4.22-1.62-4.2s-1.53,1.92-1.46,4.27c.06,2.35.79,4.22,1.62,4.2Z"/>
</svg>