<?xml version="1.0" encoding="utf-8"?>
<!-- Generator: Adobe Illustrator 28.0.0, SVG Export Plug-In . SVG Version: 6.00 Build 0)  -->
<svg version="1.1" xmlns="http://www.w3.org/2000/svg" xmlns:xlink="http://www.w3.org/1999/xlink" x="0px" y="0px"
	 viewBox="0 0 246.6 246.6" style="enable-background:new 0 0 246.6 246.6;" xml:space="preserve">
<style type="text/css">
	.st0{fill:none;stroke:#1D1D1B;stroke-width:3;stroke-linecap:round;stroke-miterlimit:10;}
	.st1{fill:none;stroke:#1D1D1B;stroke-width:3;stroke-linecap:round;stroke-linejoin:round;stroke-miterlimit:10;}
	.st2{fill:#1D1D1B;}
</style>
<g id="Layer_1">
	
		<image style="overflow:visible;" width="474" height="474" xlink:href="C:\Users\alaing\My Drive\Llama\Llama.png"  transform="matrix(1 0 0 1 -596.8324 -185.3455)">
	</image>
</g>
<g id="Layer_2">
</g>
<g id="Layer_3">
	<path class="st0" d="M186.5,50.4c0.1-1,0.2-2.6,0-4.4c-0.5-4.1-2.3-7-3.2-8.3c-5.5-8-16.1-14.2-16.1-14.2s-15.4-9-32.7-11.4
		c-5.5-0.8-10.3-0.9-15.3,1.1c-3.1,1.3-5.4,2.9-6.9,4.2"/>
	<path class="st0" d="M93.6,19.3c-2.8,0.7-6.5,1.6-10.9,2.8c-8.8,2.3-13.3,3.6-18.6,6.2c-4.7,2.3-7.4,4.4-8.8,7.6
		C54.9,37,54,39.1,55,41.1c1.1,2.1,3.6,2.5,4.1,2.6"/>
	<path class="st1" d="M171.8,55.5c5.8,1.3,10,3.5,12.5,5.2c5.8,3.8,6.7,6.8,6.9,8c0.4,1.9-0.2,2.7-0.3,3c-1.1,1.5-3.8,1.9-7,0.8
		c6.5,4.7,11.1,9.5,14.1,12.9c6.5,7.5,7.8,11.8,8.3,14.4c0.4,2.2,1.4,7.6-1.5,10.1c-2.5,2.1-6.5,1-8.1,0.5c-5-1.4-8-5-11.2-9
		c-1.7-2.2-4-5.5-6.1-10"/>
	<path class="st1" d="M167.3,73.2c1,0.6,3.3,2.1,4.7,4.9c0.5,1,2.1,4.1,1,6.6c-1.1,2.7-4.7,3.6-8.8,4.2c-13.7,2.1-25.3-0.5-26.5-0.8
		c-5-1.2-11.9-3.2-19.8-7.2"/>
	<path class="st1" d="M134,91.9c0.2,1.2,0.3,3-0.5,4.9c-0.6,1.3-2.1,3.9-7.8,5.9c-11,3.9-23.1,0.4-27-0.9c-4-1.3-9.9-3.8-16.3-8.4"
		/>
	<path class="st1" d="M180.4,93.3c0.2,3.1,0.3,7.5,0.2,12.8c-0.4,10.7-1,17.8-4,26.7c-3.6,10.8-10.8,17.7-13.5,20.2
		c-4.3,4.1-8.6,6.6-11.6,8.2c-0.1,3.2-0.3,7.1-1.1,11.3c-0.8,4.7-2.1,8.7-3.3,12c0.7,2.4,1.5,5.7,1.6,9.8c0.2,6.3-1.3,11-1.8,12.4
		c-1.9,5.4-4.7,9.2-6.7,11.5c-3.6-2.6-9.4-7.7-14-15.8c-3.7-6.7-5.2-12.8-5.8-16.9c0.4-2.6,0.7-5.8,0.5-9.5
		c-0.2-4.1-0.9-7.7-1.6-10.4c-4.4,0.1-14.9-0.3-25.8-6.7c-10.8-6.3-16.3-15-18.4-18.9"/>
	<path class="st1" d="M147.1,184.5c2.3,2.2,5.6,4.9,9.8,7.3c3.9,2.2,7.5,3.5,10.4,4.4c0.8,0.2,3.4,1,5.2,3.6c1.1,1.6,1.4,3.2,1.5,4
		c0,3.6-0.5,9.2-2.8,15.4c-1.9,5.1-4.4,9-6.4,11.6c-0.6,0.6-1.5,1.3-2.8,1.7c-3.9,1.2-7.4-2.2-7.6-2.4c-1.6-1.4-3.3-2.8-4.9-4.3
		c-3.1-2.7-6.2-5.2-9.2-7.7"/>
	<path class="st1" d="M150.1,126.9c-0.1,0.7-0.4,1.9-1.1,3.2c-1.9,3.7-5.6,5.7-8.5,6.2c-0.8,0.1-2.1,0.4-3.7-0.2
		c-0.8-0.3-1.4-0.6-1.8-0.9c-0.7,0.9-1.7,2.2-3.3,3.4c-1.1,0.9-2.4,1.9-4.4,2.5c-1,0.3-4.2,1.3-7.2-0.3c-1.3-0.7-2.1-1.7-2.5-2.3"/>
	<path class="st1" d="M161.7,154.3c1.4,6,2.3,10.8,2.9,14.1c0.7,4.2,1.2,7,2.4,11.3c1.5,5,3.6,9.9,6.7,10.8c1.5,0.4,2.9,0.2,2.9,0.2
		c1.2-0.2,2.2-0.8,3-1.5c5.6-4.7,9.6-12.5,9.6-12.5c1.8-3.4,4-8.3,5.4-14.3c0.6-2.3,1.5-6.8,1.7-12.5c0.4-13.8-4-24.5-6.5-30.4
		c-1.8-4.2-4.6-9.9-9.2-16.3"/>
	<path class="st1" d="M120.4,185.4c-0.8,0.3-1.7,0.8-2.7,1.4c-1,0.7-1.8,1.3-2.5,1.9c-1.9,2-5.6,5.6-7.9,7.7
		c-2.1,2.1-4.2,3.9-6.2,5.7c-0.4,0.4-1.3,1.4-1.6,3.1c-0.3,1.4,0.1,2.6,0.3,3.1c0.8,3.2,2.2,7.5,4.9,11.9
		c5.2,8.4,12.1,12.7,15.8,14.7c0.4,0.1,1.4,0.3,2.6,0c1.4-0.4,2.2-1.3,2.5-1.6c1.1-2,4.4-6.1,6.8-8.7c2.6-2.9,5.5-4.8,7.7-6.3"/>
	<path class="st1" d="M51.1,54c-2.9,3.3-6.4,7.8-9.3,13.8c-1.7,3.5-5.1,10.8-5.3,20.6c-0.1,4.4-0.1,10.6,3.8,15.8
		c1.1,1.5,3.4,4.5,7,4.7c0.6,0.1,3.2,0.2,5.1-1.7c1.5-1.5,1.8-3.3,1.9-3.9"/>
	<path class="st1" d="M52.4,115.9c0.9,4.5,1.8,9.5,2.3,14.9c1.4,14.4,2.3,21.6-0.3,29.6c-1.1,3.3-2.4,6-3.9,12
		c-1.1,4.5-1.7,7.1-1.8,10.5c0,2.8-0.2,12.7,6.8,19.1c1.3,1.2,5.2,4.7,10.5,4.5c3.6-0.1,6.2-1.9,7.5-2.8c1.5-1,4.6-3.5,7.5-11.4
		c2.3-6.1,3-11.4,3.4-15.7c0.5-6.1,0.8-14.8-0.5-25.4"/>
	<path class="st2" d="M98.7,109.4c-1.8-2.6-4.7-3.7-6.5-2.4c-0.3,0.2-0.5,0.5-0.7,0.8c0.7,0.1,1.4,0.6,2,1.4c0.9,1.3,0.8,2.8,0,3.4
		c-0.6,0.4-1.4,0.3-2.1-0.1c0.2,0.5,0.5,1.1,0.8,1.6c1.8,2.6,4.7,3.7,6.5,2.4C100.5,115.1,100.5,112,98.7,109.4z"/>
	<path class="st2" d="M149.3,89.3c-1.9-0.2-3.8-0.3-5.6-0.5c0.8,1,0.6,2.3-0.2,2.8c-0.6,0.4-1.4,0.3-2.1-0.1
		c0.2,0.5,0.5,1.1,0.8,1.6c1.4,2,4.7,3.7,6.5,2.4C150.1,94.5,150.5,91.8,149.3,89.3z"/>
	<path class="st1" d="M74.9,101.4c2,7.6,2.7,14,2.9,18.6c0,0.5,0.4,10.5-2.7,19.9c-0.5,1.4-1.4,4-4,5.9c-0.6,0.4-3.4,2.4-5.9,1.3
		c-1.8-0.8-2.5-3-2.8-4.3c-1.7-6.3,1.1-12.7,2.7-15.7"/>
	<path class="st1" d="M46.4,112.5c-0.2,1.2-0.7,3-2,4.8c-1.5,2.2-2.7,2.2-3.9,4.2c-0.4,0.6-2.2,3.8-0.8,6.6c1.3,2.5,4.2,3.1,4.7,3.2
		c3.1,0.5,5.3-1.3,5.7-1.6"/>
	<path class="st1" d="M120.3,170.4c-0.6,0.7-2.2,2.4-4.8,3.1c-3.9,1-7-1.1-7.8-1.7c-4.3-2.9-4.8-7.9-4.9-8.7"/>
</g>
</svg>
