<?xml version="1.0" encoding="UTF-8"?><svg id="Layer_1" xmlns="http://www.w3.org/2000/svg" width="859.419" height="142.065" viewBox="0 0 859.419 142.065"><defs><style>.cls-1{fill:#000;}.cls-1,.cls-2{stroke-width:0px;}.cls-2{fill:#fff;}</style></defs><path class="cls-1" d="M325.51,15.794v.003s.001,46.994.001,46.994h-12.967c-4.172,0-10.475,0-10.475,7.153,0,1.368-.578,2.663-1.627,3.646-1.08,1.014-2.524,1.571-4.061,1.571-2.847,0-5.189-1.934-5.601-4.44,1.956-.936,18.885-9.033,18.885-9.033l.8-.392c2.212-1.067,7.42-3.577,7.42-10.166,0-11.477-9.645-20.815-21.499-20.815s-21.521,9.337-21.522,20.815c0,0-.007,8.99-.01,11.661h-6.622v-10.702c.002-.058.03-.903.03-.903v-.056c0-11.477-9.648-20.815-21.508-20.815-3.083,0-6.185.727-9.066,2.043-1.34-.981-2.931-1.531-4.611-1.531-4.369,0-7.923,3.554-7.923,7.923v23.931h-5.909v-24.874c0-3.981-3.481-7.099-7.923-7.099s-7.923,3.118-7.923,7.099v24.874h-6.663v-10.592c.002-.048.029-.903.029-.903v-.056c0-11.477-9.648-20.815-21.507-20.815-3.057,0-6.136.717-9.001,2.012-1.334-.96-2.909-1.5-4.567-1.5-4.369,0-7.923,3.554-7.923,7.923v11.748s.024-.023.024-.024c-.029.227-.035.43-.04.565,0,.018-.013,7.679-.02,11.221h-3.359c-2.116,0-4.107.824-5.604,2.321-1.495,1.496-2.319,3.486-2.319,5.602,0,4.369,3.554,7.923,7.923,7.923h3.394v28.077c0,2.119.825,4.11,2.322,5.606,1.496,1.495,3.486,2.319,5.601,2.319s4.106-.824,5.601-2.319c1.499-1.496,2.322-3.485,2.322-5.602v-15.734c1.851.497,3.74.765,5.645.765,8.651,0,16.435-5.054,19.778-12.69h8.363v5.344c0,4.37,3.554,7.926,7.923,7.926s7.923-3.554,7.923-7.922v-5.349h5.909v27.656c0,2.119.825,4.11,2.322,5.606,1.496,1.495,3.485,2.319,5.601,2.319s4.106-.824,5.602-2.319c1.496-1.496,2.321-3.485,2.321-5.602v-15.763c1.884.516,3.809.793,5.754.793,8.59,0,16.356-5.01,19.729-12.581h10.174c3.375,7.57,11.14,12.581,19.729,12.581s16.356-5.01,19.729-12.581h9.398v4.585c0,4.373,3.553,7.93,7.922,7.93s7.923-3.554,7.923-7.923v-4.592h7.04v5.85c0,4.373,3.554,7.931,7.922,7.931s7.924-3.554,7.924-7.924v-5.856h6.675v5.85c0,4.373,3.554,7.931,7.923,7.931s7.922-3.554,7.922-7.924v-33.328c.009-2.841,2.572-5.159,5.713-5.159s5.689,2.327,5.689,5.187l.004,33.325c0,4.369,3.554,7.923,7.923,7.923s7.923-3.554,7.923-7.923c0,0,0-3.62-.001-5.882h8.478c3.374,7.57,11.141,12.581,19.729,12.581,8.651,0,16.436-5.054,19.78-12.693h7.797c2.116,0,4.106-.824,5.602-2.321,1.496-1.495,2.319-3.485,2.319-5.6,0-4.37-3.553-7.924-7.922-7.924h-11.418c-3.918,0-10.474,0-10.474,7.208,0,2.907-2.551,5.273-5.688,5.273-2.846,0-5.189-1.934-5.602-4.44,1.957-.935,18.896-9.032,18.896-9.032l.802-.396c2.211-1.066,7.417-3.578,7.417-10.163,0-11.477-9.648-20.815-21.508-20.815s-21.522,9.337-21.522,20.815c0,0-.005,8.99-.009,11.661h-6.676v-11.617c0-11.501-9.66-20.858-21.534-20.858-2.873,0-5.779.634-8.499,1.777-1.429-1.245-3.23-1.967-5.141-1.967-4.369,0-7.924,3.554-7.924,7.923v1.32s.001,23.423.001,23.423h-6.675v-24.743c0-4.369-3.554-7.923-7.924-7.923s-7.923,3.554-7.923,7.923c0,0,0,18.808.001,24.743h-7.04V15.794c0-2.116-.824-4.106-2.321-5.602-1.496-1.498-3.486-2.321-5.602-2.321-4.369,0-7.923,3.553-7.923,7.923M169.563,70.165l-.021-13.087.021-5.689c0-2.89,2.551-5.235,5.688-5.235,1.564,0,3.022.571,4.105,1.61,1.017.972,1.579,2.251,1.582,3.596-.003.086-.019.565-.019.565v17.717s.015.446.018.533c-.007,2.871-2.555,5.206-5.686,5.206s-5.687-2.339-5.688-5.215M241.061,70.165l-.021-13.087.02-5.689c0-2.89,2.552-5.235,5.688-5.235s5.681,2.335,5.687,5.207c-.002.089-.018.563-.018.563v17.719s.015.447.018.533c-.008,2.87-2.557,5.205-5.687,5.205s-5.686-2.339-5.687-5.215M290.692,51.165c0-2.884,2.552-5.23,5.688-5.23,1.885,0,3.627.908,4.662,2.316-2.314,1.106-9.103,4.352-10.358,4.951.003-.988.008-2.037.008-2.037M436.528,51.165c0-2.884,2.552-5.23,5.688-5.23,1.885,0,3.627.908,4.662,2.316-2.077.992-7.365,3.52-10.357,4.951.003-.988.007-2.037.007-2.037"/><path class="cls-2" d="M327.283,15.794v.003s.001,48.767.001,48.767h-14.741c-4.277,0-8.702,0-8.702,5.381,0,3.854-3.348,6.99-7.462,6.99s-7.46-3.136-7.462-6.99l.002-.066s-.002-.167-.003-.234c1.844-.881,19.982-9.556,19.982-9.556l.781-.383c2.079-1.002,6.43-3.098,6.43-8.575,0-10.5-8.849-19.041-19.726-19.041s-19.748,8.542-19.748,19.041c0,0-.009,10.668-.012,13.433h-10.168v-12.5c.002-.055.029-.905.029-.905v-.027c0-10.5-8.851-19.041-19.733-19.041-3.283,0-6.467.832-9.342,2.335-1.137-1.148-2.684-1.822-4.335-1.822-3.392,0-6.151,2.758-6.151,6.149v25.704h-9.456v-26.648c0-2.986-2.702-5.326-6.149-5.326s-6.151,2.339-6.151,5.326v26.648h-10.21v-12.394c.002-.054.029-.903.029-.903v-.027c0-10.5-8.853-19.041-19.733-19.041-3.253,0-6.413.819-9.271,2.296-1.135-1.124-2.67-1.783-4.297-1.783-3.391,0-6.15,2.758-6.15,6.149v11.748l-.015.586c0,.033-.016,9.058-.023,12.95h-5.129c-1.643,0-3.187.639-4.349,1.802-1.161,1.161-1.801,2.705-1.801,4.348,0,3.391,2.759,6.15,6.15,6.15h5.167v29.851c0,1.646.641,3.191,1.802,4.352,1.161,1.16,2.706,1.801,4.348,1.801s3.187-.641,4.349-1.801c1.161-1.161,1.802-2.706,1.802-4.349v-18.167c2.352.926,4.869,1.424,7.418,1.424,8.387,0,15.837-5.156,18.593-12.69h11.321v7.118c0,3.392,2.759,6.153,6.151,6.153s6.149-2.758,6.149-6.149v-7.122h9.456v29.43c0,1.646.641,3.191,1.802,4.352,1.161,1.16,2.705,1.801,4.349,1.801s3.186-.641,4.348-1.801c1.161-1.161,1.802-2.706,1.802-4.349v-18.209c2.382.954,4.936,1.467,7.526,1.467,8.328,0,15.761-5.112,18.552-12.581h12.528c2.792,7.468,10.226,12.581,18.552,12.581s15.763-5.112,18.553-12.581h12.347v6.358c0,3.394,2.758,6.156,6.149,6.156s6.151-2.759,6.151-6.15v-6.365h10.585v7.623c0,3.395,2.759,6.157,6.149,6.157s6.151-2.759,6.151-6.151v-7.63h10.22v7.623c0,3.395,2.759,6.157,6.151,6.157s6.149-2.759,6.149-6.151v-33.328c.012-3.819,3.371-6.931,7.487-6.931s7.464,3.122,7.464,6.959l.003,33.325c0,3.391,2.758,6.149,6.15,6.149s6.15-2.758,6.15-6.149c0,0,0-4.926-.001-7.655h11.428c2.791,7.468,10.226,12.581,18.552,12.581,8.389,0,15.838-5.156,18.594-12.692h8.982c1.643,0,3.187-.641,4.349-1.801,1.161-1.162,1.801-2.706,1.801-4.348,0-3.393-2.759-6.151-6.15-6.151h-11.417c-4.08,0-8.702,0-8.702,5.434,0,3.886-3.347,7.046-7.462,7.046s-7.46-3.136-7.462-6.99v-.065s-.001-.168-.001-.234c1.845-.882,19.992-9.556,19.992-9.556l.784-.386c2.077-1.003,6.424-3.101,6.424-8.573,0-10.5-8.851-19.041-19.733-19.041s-19.748,8.542-19.748,19.041c0,0-.009,10.668-.011,13.433h-10.222v-13.389c0-10.523-8.866-19.085-19.761-19.085-3.107,0-6.135.744-8.891,2.09-1.148-1.407-2.885-2.279-4.749-2.279-3.392,0-6.151,2.758-6.151,6.149v26.515h-10.22v-26.515c0-3.392-2.759-6.149-6.151-6.149s-6.149,2.758-6.149,6.149v26.515h-10.585V15.794c0-1.643-.641-3.186-1.802-4.349-1.161-1.161-2.706-1.802-4.349-1.802-3.391,0-6.15,2.76-6.15,6.151M167.79,51.383c0-3.865,3.348-7.003,7.462-7.003,2.022,0,3.916.746,5.332,2.102,1.371,1.312,2.127,3.047,2.128,4.883-.002.084-.018.588-.018.588v17.659s.015.472.018.558c-.004,3.852-3.348,6.984-7.46,6.984s-7.459-3.134-7.462-6.987v-.021c0-.278-.021-13.092-.021-13.092l.021-5.671ZM239.287,51.383c0-3.865,3.347-7.003,7.46-7.003s7.457,3.133,7.462,6.985c-.002.085-.019.587-.019.587v17.66s.016.471.018.558c-.003,3.852-3.348,6.984-7.46,6.984s-7.459-3.134-7.46-6.987v-.021c0-.278-.022-13.092-.022-13.092l.022-5.671ZM288.918,51.165c0-3.864,3.347-7.003,7.462-7.003,3.276,0,6.113,2.037,7.072,4.904-2.103,1.005-13.478,6.443-14.551,6.955.005-1.204.018-4.855.018-4.855M434.754,51.165c0-3.864,3.347-7.003,7.462-7.003,3.276,0,6.113,2.037,7.072,4.904-1.888.902-11.081,5.297-14.551,6.955.005-1.204.018-4.855.018-4.855"/><path class="cls-1" d="M329.057,15.794v50.543h-16.514c-4.32,0-6.928,0-6.928,3.607,0,4.832-4.143,8.764-9.236,8.764s-9.234-3.93-9.234-8.762c0-.013.001-.051.001-.051,0,0-.007-.69-.012-1.364,1.851-.886,20.999-10.042,20.999-10.042l.765-.376c2.034-.98,5.438-2.621,5.438-6.983,0-9.522-8.053-17.268-17.952-17.268s-17.974,7.746-17.975,17.268c0,0-.01,12.364-.012,15.207h-13.712v-14.302c.005-.158.029-.904.029-.904,0-9.522-8.057-17.268-17.961-17.268-3.531,0-6.93.999-9.836,2.835-.739-1.376-2.174-2.323-3.84-2.323-2.413,0-4.377,1.963-4.377,4.376v27.477h-13.003v-28.421c0-1.992-1.922-3.552-4.375-3.552s-4.376,1.56-4.376,3.552v28.421h-13.757v-14.195c.005-.158.03-.903.03-.903,0-9.522-8.058-17.268-17.961-17.268-3.495,0-6.866.98-9.756,2.783-.747-1.347-2.166-2.271-3.812-2.271-2.414,0-4.377,1.963-4.377,4.376,0,0,.001,11.721.001,11.75-.003.098-.016.63-.016.63,0,0-.021,11.853-.026,14.677h-6.899c-1.169,0-2.268.455-3.094,1.282-.826.826-1.282,1.926-1.282,3.095,0,2.413,1.963,4.375,4.376,4.375h6.942v31.624c0,1.172.456,2.271,1.281,3.097.827.827,1.926,1.282,3.095,1.282s2.268-.455,3.094-1.282c.826-.826,1.282-1.926,1.282-3.094v-20.961c2.76,1.584,5.921,2.445,9.191,2.445,8.15,0,15.201-5.255,17.315-12.69h14.374v8.891c0,2.416,1.963,4.38,4.376,4.38s4.375-1.963,4.375-4.375v-8.895h13.003v31.203c0,1.172.456,2.271,1.282,3.097.826.827,1.926,1.282,3.095,1.282s2.267-.455,3.094-1.282c.827-.826,1.282-1.926,1.282-3.094v-21.024c2.784,1.626,5.984,2.508,9.3,2.508,8.092,0,15.13-5.21,17.284-12.581h15.065c2.155,7.37,9.193,12.581,17.283,12.581s15.131-5.21,17.284-12.581h15.389v8.132c0,2.421,1.962,4.383,4.375,4.383s4.377-1.962,4.377-4.375v-8.139h14.132v9.398c0,2.421,1.963,4.383,4.376,4.383s4.377-1.962,4.377-4.377v-9.403h13.767v9.398c0,2.421,1.963,4.383,4.376,4.383s4.376-1.962,4.376-4.377v-33.328c.014-4.799,4.161-8.705,9.259-8.705s9.237,3.918,9.237,8.734l.002,33.325c0,2.414,1.965,4.376,4.378,4.376s4.376-1.962,4.376-4.376c0,0-.001-6.915-.001-9.428h14.469c2.154,7.37,9.193,12.581,17.283,12.581,8.152,0,15.202-5.256,17.316-12.692h10.26c1.169,0,2.269-.455,3.095-1.281.826-.827,1.281-1.926,1.281-3.094,0-2.415-1.962-4.378-4.376-4.378h-11.417c-4.172.001-6.929.001-6.929,3.663,0,4.863-4.142,8.819-9.235,8.819s-9.234-3.93-9.235-8.764c0-.004.002-.049.002-.049,0,0-.007-.69-.013-1.364,1.854-.886,21.009-10.042,21.009-10.042l.768-.377c2.032-.98,5.434-2.622,5.434-6.981,0-9.522-8.057-17.268-17.961-17.268s-17.974,7.746-17.974,17.268c0,0-.01,12.364-.013,15.207h-13.765v-15.163c0-9.547-8.07-17.312-17.989-17.312-3.408,0-6.708.926-9.558,2.649-.624-1.654-2.212-2.838-4.082-2.838-2.413,0-4.377,1.962-4.377,4.375v1.317s.001,26.971.001,26.971h-13.767v-28.288c0-2.413-1.963-4.375-4.377-4.375s-4.377,1.962-4.377,4.375c0,0,.001,25.149.001,28.288h-14.132V15.794c0-1.169-.456-2.268-1.282-3.095-.826-.826-1.926-1.281-3.095-1.281-2.413,0-4.375,1.963-4.375,4.376M166.016,51.377c0-4.839,4.143-8.77,9.235-8.77,2.482,0,4.81.922,6.558,2.594,1.726,1.653,2.678,3.845,2.678,6.171l-.02.609v17.602l.02.581c0,4.832-4.143,8.764-9.236,8.764s-9.235-3.931-9.235-8.762c0-.014.001-.052.001-.052,0,0-.021-13.052-.021-13.056,0-.008.02-5.679.02-5.679M237.514,51.377c0-4.839,4.142-8.77,9.234-8.77s9.236,3.931,9.236,8.765l-.02.609v17.602l.02.581c0,4.832-4.143,8.764-9.236,8.764s-9.234-3.931-9.234-8.762v-.052s-.021-13.052-.021-13.056c0-.008.021-5.679.021-5.679M287.146,51.158c0-4.839,4.142-8.77,9.234-8.77,4.689,0,8.538,3.358,9.117,7.665-1.782.852-14.626,6.992-18.372,8.782v-1.996c0-.007.021-5.681.021-5.681M432.981,51.158c0-4.839,4.142-8.77,9.235-8.77,4.689,0,8.538,3.358,9.116,7.665-1.781.85-14.626,6.992-18.372,8.782v-1.996c0-.007.021-5.681.021-5.681"/><path class="cls-1" d="M702.94,71.515v1.421c-.025.042-.064.08-.074.127-.693,3.035-2.664,4.615-5.76,4.615h-8.669v15.326h-14.142v-.735c0-14.764.002-29.529,0-44.292,0-.321-.004-.644-.034-.961-.252-2.653-2.935-4.505-5.506-3.804-2.01.549-3.303,2.329-3.303,4.563-.001,14.85,0,29.698,0,44.547v.686h-15.423v-44.973c0-.219.002-.438-.005-.659-.115-2.897-2.886-4.937-5.632-4.143-1.937.558-3.198,2.321-3.198,4.48-.002,14.866-.001,29.732-.001,44.597v.685h-14.18v-15.286h-13.505v15.283h-12.778v-15.269h-9.014v.701c0,4.681-.009,9.36.01,14.039.002.476-.137.589-.593.588-4.443-.015-8.886-.009-13.33-.01-.176,0-.353-.022-.577-.034v-15.289h-10.548c0,.812.038,1.59-.01,2.362-.075,1.175-.068,2.383-.346,3.517-1.494,6.117-5.474,9.827-11.438,11.516-.935.263-1.917.357-2.878.531h-2.534c-.412-.069-.826-.133-1.237-.204-5.466-.947-9.539-3.799-12.031-8.811-.075-.154-.151-.305-.248-.499-.065.115-.091.157-.113.203-2.178,4.688-5.838,7.573-10.807,8.835-.861.219-1.75.32-2.627.476h-2.535c-.129-.034-.256-.07-.387-.097-1.169-.242-2.382-.358-3.502-.746-5.502-1.91-9.105-5.613-10.448-11.368-.392-1.679-.259-3.392-.278-5.094-.003-.209,0-.419,0-.66h-.698c-3.375,0-6.752.005-10.129-.002-2.578-.005-4.732-1.717-5.33-4.215-.042-.176-.097-.352-.145-.525v-1.421c.029-.059.068-.115.082-.179.61-2.901,2.672-4.576,5.637-4.576,3.311-.001,6.622-.001,9.933-.001h.652v-33.662h14.124v.725c0,14.699,0,29.395.003,44.093,0,.437.02.879.078,1.313.225,1.72,1.544,3.203,3.228,3.66,1.693.461,3.465-.141,4.566-1.549.73-.935.984-2.004.984-3.173-.007-14.798-.003-29.597-.003-44.395q0-.705.713-.705c4.681-.001,9.359,0,14.04,0h.685v44.917c0,.287-.004.575.011.861.09,1.777,1.348,3.414,3.053,3.981,1.689.564,3.548.022,4.707-1.382.79-.954,1.075-2.067,1.075-3.294-.01-14.797-.007-29.596-.007-44.395v-.642h14.16v33.609h10.568v-.69c0-6.774.003-13.546-.003-20.321-.001-1.416.211-2.791.685-4.124,1.835-5.161,6.899-8.777,12.564-8.892,3.177-.065,6.353-.03,9.528-.007.772.004,1.553.092,2.314.23,6.107,1.102,11.271,6.194,11.192,13.182-.075,6.655-.015,13.31-.015,19.966v.656h13.52v-.645c0-6.775-.016-13.549.015-20.322.005-1.124.089-2.277.361-3.362,1.471-5.899,5.307-9.552,11.04-11.294,1.057-.323,2.179-.429,3.269-.634h2.434c.413.065.828.125,1.243.196,5.553.938,9.673,3.823,12.155,8.937.053.109.126.21.212.347.065-.119.099-.177.127-.236,2.18-4.642,5.817-7.507,10.751-8.761.876-.224,1.783-.324,2.678-.482h2.533c.129.033.256.069.383.097,1.267.276,2.572.432,3.792.846,6.101,2.068,10.545,7.737,10.446,14.563-.098,6.703-.022,13.409-.022,20.115v.676h.62c2.82.001,5.641-.004,8.461.002,2.348.008,4.394,1.505,5.125,3.741.108.335.192.676.288,1.013M600.729,66.735c.01-.163.022-.278.022-.393.001-6.097.005-12.193-.01-18.29-.001-.498-.087-1.016-.24-1.49-.678-2.097-2.831-3.37-5.028-3.012-2.155.352-3.746,2.172-3.752,4.382-.018,6.164-.005,12.328-.004,18.493,0,.097.015.193.026.31h8.986Z"/><path class="cls-1" d="M18.36,57.449c3.794-4.139,10.145-11.068,21.207-14.55,4.611-1.451,9.434-2.112,14.339-1.967l7.764.007c2.343.081,4.629-.223,6.79-.904,5.128-1.614,8.285-5.058,11.07-8.096,1.685-1.838,3.185-3.829,4.5-5.958H25.545c-9.884,0-17.896,8.012-17.896,17.896v27.657h.965c2.609-5.136,5.864-9.85,9.746-14.085Z"/><path class="cls-1" d="M96.633,47.615c-3.794,4.14-10.145,11.068-21.207,14.55-4.611,1.451-9.434,2.112-14.34,1.967l-7.764-.007c-2.34-.08-4.628.223-6.79.903-4.247,1.337-7.141,3.928-9.592,6.506h52.313c9.884,0,17.896-8.012,17.896-17.896v-21.677c-2.727,5.747-6.242,10.99-10.516,15.653Z"/><path class="cls-1" d="M7.649,95.457v-18.643h4.404l9.176,12.45v-12.45h4.206v18.643h-4.542l-9.039-12.157v12.157h-4.206Z"/><path class="cls-1" d="M47.932,95.457h-4.925l-1.957-4.235h-8.962l-1.85,4.235h-4.802l8.733-18.643h4.787l8.977,18.643ZM39.597,88.081l-3.089-6.918-3.028,6.918h6.117Z"/><path class="cls-1" d="M47.932,95.457v-18.643h4.527v7.338h8.87v-7.338h4.527v18.643h-4.527v-8.151h-8.87v8.151h-4.527Z"/><path class="cls-1" d="M88.353,95.457h-4.925l-1.957-4.235h-8.962l-1.85,4.235h-4.802l8.733-18.643h4.787l8.977,18.643ZM80.018,88.081l-3.089-6.918-3.028,6.918h6.117Z"/><path class="cls-1" d="M88.353,76.814h8.274c1.866,0,3.288.119,4.267.356,1.315.322,2.442.895,3.38,1.717.938.822,1.652,1.829,2.141,3.02.49,1.191.734,2.66.734,4.406,0,1.535-.23,2.857-.689,3.968-.561,1.357-1.361,2.454-2.401,3.294-.785.636-1.846,1.132-3.181,1.488-.999.263-2.335.394-4.007.394h-8.519v-18.643ZM92.88,79.968v12.348h3.38c1.264,0,2.177-.059,2.738-.178.734-.153,1.343-.411,1.828-.776.484-.364.879-.964,1.185-1.799.306-.835.459-1.973.459-3.414s-.153-2.547-.459-3.319c-.306-.771-.734-1.373-1.285-1.806-.551-.432-1.249-.725-2.095-.877-.632-.119-1.871-.178-3.716-.178h-2.034Z"/><rect class="cls-1" x="7.649" y="99.257" width="99.5" height="2.863"/><path class="cls-1" d="M742.41,33.228h7.485v-6.849h3.45v17.705h-3.45v-7.884h-7.485v7.884h-3.451v-17.705h3.451v6.849Z"/><path class="cls-1" d="M775.43,35.245c0,5.388-3.875,9.238-9.449,9.238s-9.449-3.849-9.449-9.238,3.875-9.263,9.449-9.263,9.449,3.875,9.449,9.263ZM771.873,35.245c0-3.583-2.442-6.131-5.893-6.131s-5.893,2.548-5.893,6.131,2.442,6.106,5.893,6.106,5.893-2.522,5.893-6.106Z"/><path class="cls-1" d="M787.322,30.414c-1.035-1.381-2.256-1.513-2.893-1.513-1.858,0-2.442,1.167-2.442,2.07,0,.424.133.823.557,1.194.425.398,1.009.611,2.123,1.008,1.38.478,2.681.956,3.583,1.779.796.716,1.513,1.91,1.513,3.716,0,3.451-2.495,5.813-6.158,5.813-3.265,0-5.176-1.991-6.105-3.345l2.256-2.15c.849,1.725,2.469,2.362,3.716,2.362,1.566,0,2.734-.956,2.734-2.442,0-.638-.212-1.141-.69-1.593-.664-.61-1.725-.955-2.734-1.3-.929-.318-2.044-.743-2.946-1.539-.584-.505-1.407-1.487-1.407-3.292,0-2.601,1.752-5.202,5.68-5.202,1.115,0,3.212.212,5.016,2.07l-1.805,2.362Z"/><path class="cls-1" d="M802.611,29.352h-6.37v3.955h6.105v2.972h-6.105v4.831h6.37v2.973h-9.821v-17.705h9.821v2.973Z"/><path class="cls-1" d="M747.665,52.734c-1.035-1.381-2.256-1.513-2.893-1.513-1.858,0-2.442,1.167-2.442,2.07,0,.424.133.823.557,1.194.425.398,1.009.611,2.123,1.008,1.38.478,2.681.956,3.583,1.779.796.716,1.513,1.91,1.513,3.716,0,3.451-2.495,5.813-6.158,5.813-3.265,0-5.176-1.991-6.105-3.345l2.256-2.15c.849,1.725,2.469,2.362,3.716,2.362,1.566,0,2.734-.956,2.734-2.442,0-.638-.212-1.141-.69-1.593-.664-.61-1.725-.955-2.734-1.3-.929-.318-2.044-.743-2.946-1.539-.584-.505-1.407-1.487-1.407-3.292,0-2.601,1.752-5.202,5.68-5.202,1.115,0,3.212.212,5.016,2.07l-1.805,2.362Z"/><path class="cls-1" d="M763.353,62.688h-7.14l-1.566,3.716h-3.743l7.618-17.705h2.708l7.406,17.705h-3.716l-1.566-3.716ZM762.344,59.874l-2.521-6.371-2.522,6.371h5.043Z"/><path class="cls-1" d="M780.102,51.673h-5.946v3.955h5.574v2.972h-5.574v7.804h-3.451v-17.705h9.396v2.973Z"/><path class="cls-1" d="M792.896,51.673h-6.37v3.955h6.105v2.972h-6.105v4.831h6.37v2.973h-9.821v-17.705h9.821v2.973Z"/><path class="cls-1" d="M802.372,51.673v14.732h-3.451v-14.732h-3.981v-2.973h11.414v2.973h-3.982Z"/><path class="cls-1" d="M813.361,58.309l-6.078-9.609h4.087l3.796,6.158,3.796-6.158h4.087l-6.238,9.609v8.095h-3.451v-8.095Z"/><path class="cls-1" d="M742.41,71.418v17.705h-3.451v-17.705h3.451Z"/><path class="cls-1" d="M746.444,89.122v-17.705h2.389l10.776,11.812v-11.812h3.451v17.705h-2.389l-10.777-11.839v11.839h-3.451Z"/><path class="cls-1" d="M775.802,75.453c-1.035-1.381-2.256-1.513-2.893-1.513-1.858,0-2.442,1.167-2.442,2.07,0,.424.133.823.557,1.194.425.398,1.009.611,2.123,1.008,1.38.478,2.681.956,3.583,1.779.796.716,1.513,1.91,1.513,3.716,0,3.451-2.495,5.813-6.158,5.813-3.265,0-5.176-1.991-6.105-3.345l2.256-2.15c.849,1.725,2.469,2.362,3.716,2.362,1.566,0,2.734-.956,2.734-2.442,0-.638-.212-1.141-.69-1.593-.664-.61-1.725-.955-2.734-1.3-.929-.318-2.044-.743-2.946-1.539-.584-.505-1.407-1.487-1.407-3.292,0-2.601,1.752-5.202,5.68-5.202,1.115,0,3.212.212,5.016,2.07l-1.805,2.362Z"/><path class="cls-1" d="M786.579,74.391v14.732h-3.451v-14.732h-3.981v-2.973h11.414v2.973h-3.982Z"/><path class="cls-1" d="M796.188,71.418v17.705h-3.451v-17.705h3.451Z"/><path class="cls-1" d="M805.797,74.391v14.732h-3.451v-14.732h-3.981v-2.973h11.414v2.973h-3.982Z"/><path class="cls-1" d="M815.406,71.418v11.122c0,1.353.451,2.176.849,2.628.504.61,1.433,1.221,2.813,1.221s2.309-.611,2.814-1.221c.397-.452.849-1.275.849-2.628v-11.122h3.45v10.83c0,1.672-.265,3.371-1.327,4.725-1.274,1.672-3.504,2.548-5.786,2.548s-4.512-.876-5.786-2.548c-1.062-1.354-1.327-3.053-1.327-4.725v-10.83h3.451Z"/><path class="cls-1" d="M835.791,74.391v14.732h-3.451v-14.732h-3.981v-2.973h11.414v2.973h-3.982Z"/><path class="cls-1" d="M851.77,74.391h-6.371v3.955h6.106v2.972h-6.106v4.831h6.371v2.973h-9.821v-17.705h9.821v2.973Z"/><path class="cls-1" d="M826.141,100.288c.51,0,.905.394.905.905s-.394.905-.905.905-.905-.394-.905-.905.394-.905.905-.905Z"/><path class="cls-1" d="M836.254,98.084c0,2.354-1.693,4.036-4.128,4.036s-4.128-1.682-4.128-4.036,1.693-4.047,4.128-4.047,4.128,1.693,4.128,4.047ZM834.7,98.084c0-1.566-1.067-2.679-2.574-2.679s-2.574,1.113-2.574,2.679,1.067,2.667,2.574,2.667,2.574-1.102,2.574-2.667Z"/><path class="cls-1" d="M839.884,94.211c1.067,0,1.612.279,1.971.58.591.499.765,1.16.765,1.74,0,.754-.301,1.415-.905,1.821-.197.139-.475.267-.847.336l2.412,3.259h-1.879l-2.064-3.108h-.186v3.108h-1.508v-7.735h2.238ZM839.153,97.771h.429c.29,0,1.484-.035,1.484-1.171,0-1.148-1.183-1.159-1.461-1.159h-.452v2.331Z"/><path class="cls-1" d="M848.222,97.806h3.549v.093c0,.522-.07,2.145-1.136,3.201-.8.8-1.786,1.021-2.748,1.021s-1.96-.197-2.806-1.044c-.267-.267-1.148-1.241-1.148-2.98,0-1.496.673-2.412,1.136-2.876.58-.592,1.554-1.183,3.05-1.183.58,0,1.194.092,1.786.406.499.255,1.044.719,1.449,1.415l-1.31.707c-.267-.522-.661-.789-.905-.916-.325-.162-.731-.243-1.09-.243-.615,0-1.311.22-1.786.684-.441.429-.777,1.171-.777,2.041,0,1.032.441,1.647.765,1.96.348.336.893.661,1.716.661.51,0,1.09-.139,1.519-.464.301-.232.603-.626.73-1.183h-1.995v-1.299Z"/><path class="cls-1" d="M740.397,94.211h1.09l2.053,4.917,2.145-4.917h1.09l1.299,7.735h-1.531l-.696-4.766-2.076,4.766h-.51l-1.983-4.766-.789,4.766h-1.531l1.438-7.735Z"/><path class="cls-1" d="M753.733,95.51h-2.783v1.728h2.667v1.299h-2.667v2.111h2.783v1.299h-4.291v-7.735h4.291v1.299Z"/><path class="cls-1" d="M756.239,94.211h1.09l2.053,4.917,2.145-4.917h1.09l1.299,7.735h-1.531l-.696-4.766-2.076,4.766h-.51l-1.983-4.766-.789,4.766h-1.531l1.438-7.735Z"/><path class="cls-1" d="M767.197,94.211c.429,0,1.264,0,1.89.487.452.348.719.951.719,1.6,0,.997-.661,1.403-.87,1.519.51.081.812.302,1.009.487.464.441.557,1.044.557,1.45,0,.452-.128,1.09-.661,1.566-.58.51-1.287.626-1.96.626h-2.598v-7.735h1.913ZM766.792,97.423h.429c.232,0,1.171-.023,1.171-1.009,0-.707-.545-.974-1.16-.974h-.441v1.983ZM766.792,100.717h.65c.278,0,.696-.012,1.032-.209.371-.22.475-.592.475-.893,0-.243-.081-.661-.568-.881-.325-.151-.707-.151-1.032-.151h-.557v2.134Z"/><path class="cls-1" d="M776.185,95.51h-2.783v1.728h2.667v1.299h-2.667v2.111h2.783v1.299h-4.291v-7.735h4.291v1.299Z"/><path class="cls-1" d="M779.885,94.211c1.067,0,1.612.279,1.971.58.591.499.765,1.16.765,1.74,0,.754-.301,1.415-.905,1.821-.197.139-.475.267-.847.336l2.412,3.259h-1.879l-2.064-3.108h-.186v3.108h-1.508v-7.735h2.238ZM779.154,97.771h.429c.29,0,1.484-.035,1.484-1.171,0-1.148-1.183-1.159-1.461-1.159h-.452v2.331Z"/><rect class="cls-1" x="830.28" y="48.699" width="21.491" height="17.705" rx="1.685" ry="1.685"/><rect class="cls-1" x="811.955" y="26.379" width="39.816" height="17.705" rx="2.293" ry="2.293"/></svg>